# Blender 5.1.1
# www.blender.org
mtllib Back Shelves.mtl
o Shelves_upgrade
v 14.055841 2.475491 -16.496332
v 4.715992 2.475490 -16.496342
v 14.055841 2.259079 -16.496332
v 4.715992 2.259079 -16.496342
v 14.055841 2.475491 -13.546826
v 4.715992 4.475491 -16.496342
v 14.055841 2.259079 -13.546826
v 14.055841 4.475491 -16.496332
v 4.715992 2.475490 -14.025785
v 5.194942 2.475490 -13.546835
v 4.856273 2.475490 -13.687117
v 5.194942 2.259079 -13.546835
v 4.715992 2.259079 -14.025785
v 4.856273 2.259079 -13.687117
v 14.055841 4.259079 -16.496332
v 4.715992 4.259079 -16.496342
v 14.055841 4.475491 -13.546826
v 14.055841 4.259079 -13.546826
v 4.715992 4.475491 -14.025785
v 5.194942 4.475491 -13.546835
v 4.856273 4.475491 -13.687117
v 5.194942 4.259079 -13.546835
v 4.715992 4.259079 -14.025785
v 4.856273 4.259079 -13.687117
v 4.715992 6.475491 -16.496342
v 14.055841 6.475491 -16.496332
v 14.055841 6.259079 -16.496332
v 4.715992 6.259079 -16.496342
v 14.055841 6.475491 -13.546826
v 14.055841 6.259079 -13.546826
v 4.715992 6.475491 -14.025785
v 5.194942 6.475491 -13.546835
v 4.856273 6.475491 -13.687117
v 5.194942 6.259079 -13.546835
v 4.715992 6.259079 -14.025785
v 4.856273 6.259079 -13.687117
v 4.715992 8.475491 -16.496342
v 14.055841 8.475491 -16.496332
v 14.055841 8.259079 -16.496332
v 4.715992 8.259079 -16.496342
v 14.055841 8.475491 -13.546826
v 14.055841 8.259079 -13.546826
v 4.715992 8.475491 -14.025785
v 5.194942 8.475491 -13.546835
v 4.856273 8.475491 -13.687117
v 5.194942 8.259079 -13.546835
v 4.715992 8.259079 -14.025785
v 4.856273 8.259079 -13.687117
v 10.196723 10.428057 -14.135358
v 10.196723 0.432443 -14.135358
v 5.196723 0.432443 -14.135358
v 5.196723 10.428057 -14.135358
v 5.340964 0.432443 -14.052080
v 5.340964 10.428057 -14.052080
v 5.340964 0.432443 -13.885525
v 5.340964 10.428057 -13.885525
v 5.196723 0.432443 -13.802246
v 5.196723 10.428057 -13.802246
v 5.052482 0.432443 -13.885525
v 5.052482 10.428057 -13.885525
v 5.052482 0.432443 -14.052080
v 5.052482 10.428057 -14.052080
v 10.340964 0.432443 -14.052080
v 10.340964 10.428057 -14.052080
v 10.340964 0.432443 -13.885525
v 10.340964 10.428057 -13.885525
v 10.196723 0.432443 -13.802246
v 10.196723 10.428057 -13.802246
v 10.052482 0.432443 -13.885525
v 10.052482 10.428057 -13.885525
v 10.052482 0.432443 -14.052080
v 10.052482 10.428057 -14.052080
v 14.055841 2.475491 -7.078035
v 4.715992 2.475490 -7.078025
v 14.055841 2.259079 -7.078035
v 4.715992 2.259079 -7.078025
v 14.055841 2.475491 -9.524205
v 4.715992 4.475491 -7.078025
v 14.055841 2.259079 -9.524205
v 14.055841 4.475491 -7.078035
v 4.715992 2.475490 -9.050035
v 5.194942 2.475490 -9.524197
v 4.856273 2.475490 -9.385317
v 5.194942 2.259079 -9.524197
v 4.715992 2.259079 -9.050035
v 4.856273 2.259079 -9.385317
v 14.055841 4.259079 -7.078035
v 4.715992 4.259079 -7.078025
v 14.055841 4.475491 -9.524205
v 14.055841 4.259079 -9.524205
v 4.715992 4.475491 -9.050035
v 5.194942 4.475491 -9.524197
v 4.856273 4.475491 -9.385317
v 5.194942 4.259079 -9.524197
v 4.715992 4.259079 -9.050035
v 4.856273 4.259079 -9.385317
v 4.715992 6.475491 -7.078025
v 14.055841 6.475491 -7.078035
v 14.055841 6.259079 -7.078035
v 4.715992 6.259079 -7.078025
v 14.055841 6.475491 -9.524205
v 14.055841 6.259079 -9.524205
v 4.715992 6.475491 -9.050035
v 5.194942 6.475491 -9.524197
v 4.856273 6.475491 -9.385317
v 5.194942 6.259079 -9.524197
v 4.715992 6.259079 -9.050035
v 4.856273 6.259079 -9.385317
v 4.715992 8.475491 -7.078025
v 14.055841 8.475491 -7.078035
v 14.055841 8.259079 -7.078035
v 4.715992 8.259079 -7.078025
v 14.055841 8.475491 -9.524205
v 14.055841 8.259079 -9.524205
v 4.715992 8.475491 -9.050035
v 5.194942 8.475491 -9.524197
v 4.856273 8.475491 -9.385317
v 5.194942 8.259079 -9.524197
v 4.715992 8.259079 -9.050035
v 4.856273 8.259079 -9.385317
v 10.196723 10.428057 -8.941559
v 10.196723 0.432443 -8.941559
v 5.196723 0.432443 -8.941559
v 5.196723 10.428057 -8.941559
v 5.340964 0.432443 -9.024004
v 5.340964 10.428057 -9.024004
v 5.340964 0.432443 -9.188893
v 5.340964 10.428057 -9.188893
v 5.196723 0.432443 -9.271339
v 5.196723 10.428057 -9.271339
v 5.052482 0.432443 -9.188893
v 5.052482 10.428057 -9.188893
v 5.052482 0.432443 -9.024004
v 5.052482 10.428057 -9.024004
v 10.340964 0.432443 -9.024004
v 10.340964 10.428057 -9.024004
v 10.340964 0.432443 -9.188893
v 10.340964 10.428057 -9.188893
v 10.196723 0.432443 -9.271339
v 10.196723 10.428057 -9.271339
v 10.052482 0.432443 -9.188893
v 10.052482 10.428057 -9.188893
v 10.052482 0.432443 -9.024004
v 10.052482 10.428057 -9.024004
vn 1.0000 -0.0000 -0.0000
vn -0.3827 -0.0000 0.9239
vn -0.0000 -0.0000 -1.0000
vn -0.9239 -0.0000 0.3827
vn -0.0000 1.0000 -0.0000
vn -0.0000 -0.0000 1.0000
vn -1.0000 -0.0000 -0.0000
vn -0.0000 -1.0000 -0.0000
vn 0.5000 -0.0000 -0.8660
vn -0.5000 -0.0000 0.8660
vn 0.5000 -0.0000 0.8660
vn -0.5000 -0.0000 -0.8660
vn -0.3794 -0.0000 -0.9252
vn -0.9225 -0.0000 -0.3860
vn 0.4962 -0.0000 0.8682
vn -0.4962 -0.0000 -0.8682
vn 0.4962 -0.0000 -0.8682
vn -0.4962 -0.0000 0.8682
vt 0.008415 0.841051
vt 0.008415 0.726360
vt 0.016830 0.726360
vt 0.016830 0.841051
vt 0.937293 0.000000
vt 0.945709 0.000000
vt 0.945709 0.013572
vt 0.937293 0.013572
vt 0.895218 0.361982
vt 0.895218 -0.000000
vt 0.903633 -0.000000
vt 0.903633 0.361982
vt 0.895218 0.000000
vt 0.895218 0.361982
vt 0.886802 0.361982
vt 0.886802 0.000000
vt 0.033661 0.822427
vt 0.042076 0.822427
vt 0.042076 0.835592
vt 0.033661 0.835592
vt 0.016830 0.841051
vt 0.016830 0.726359
vt 0.025246 0.726359
vt 0.025246 0.841051
vt 0.050491 0.822427
vt 0.058906 0.822427
vt 0.058906 0.835592
vt 0.050491 0.835592
vt 0.954124 0.356970
vt 0.945709 0.356970
vt 0.945709 0.343399
vt 0.954124 0.343399
vt 0.018624 0.363180
vt 0.005455 0.357725
vt -0.000000 0.344556
vt 0.000000 -0.000000
vt 0.114691 0.000000
vt 0.114691 0.363180
vt 0.945709 -0.000000
vt 0.954124 -0.000000
vt 0.050491 0.726360
vt 0.058906 0.726360
vt 0.458766 0.363180
vt 0.458766 0.000000
vt 0.573457 -0.000000
vt 0.573457 0.344556
vt 0.568002 0.357725
vt 0.554833 0.363180
vt 0.133315 0.363180
vt 0.120146 0.357725
vt 0.114691 0.344556
vt 0.114691 -0.000000
vt 0.229383 0.000000
vt 0.229383 0.363180
vt 0.945709 0.356970
vt 0.937293 0.356970
vt 0.033661 0.726360
vt 0.042076 0.726360
vt 0.573457 0.363180
vt 0.573457 0.000000
vt 0.688149 0.000000
vt 0.688149 0.344556
vt 0.682694 0.357725
vt 0.669525 0.363180
vt 0.940032 0.363180
vt 0.948447 0.363180
vt 0.948447 0.376751
vt 0.940032 0.376751
vt 0.889541 0.725161
vt 0.889541 0.363180
vt 0.897956 0.363180
vt 0.897956 0.725161
vt 0.042076 0.822427
vt 0.050491 0.822427
vt 0.050491 0.835592
vt 0.042076 0.835592
vt -0.000000 0.841051
vt 0.000000 0.726360
vt 0.008415 0.726360
vt 0.008415 0.841051
vt 0.248007 0.363180
vt 0.234838 0.357725
vt 0.229383 0.344556
vt 0.229383 -0.000000
vt 0.344074 0.000000
vt 0.344074 0.363180
vt 0.948447 0.720150
vt 0.940032 0.720150
vt 0.042076 0.726360
vt 0.050491 0.726360
vt -0.000000 0.726360
vt 0.000000 0.363180
vt 0.114691 0.363180
vt 0.114691 0.707736
vt 0.109237 0.720905
vt 0.096067 0.726360
vt 0.931617 0.363180
vt 0.940032 0.363180
vt 0.940032 0.376751
vt 0.931617 0.376751
vt 0.878387 0.361982
vt 0.878387 0.000000
vt 0.886802 0.000000
vt 0.886802 0.361982
vt 0.058906 0.822427
vt 0.067321 0.822427
vt 0.067321 0.835593
vt 0.058906 0.835592
vt 0.025246 0.841051
vt 0.025246 0.726360
vt 0.033661 0.726360
vt 0.033661 0.841051
vt 0.362698 0.363180
vt 0.349529 0.357725
vt 0.344074 0.344556
vt 0.344074 -0.000000
vt 0.458766 0.000000
vt 0.458766 0.363180
vt 0.940032 0.720150
vt 0.931617 0.720150
vt 0.058906 0.726360
vt 0.067321 0.726360
vt 0.114691 0.726360
vt 0.114691 0.363180
vt 0.229383 0.363180
vt 0.229383 0.707736
vt 0.223928 0.720905
vt 0.210759 0.726360
vt 0.145860 0.729598
vt 0.145860 0.736074
vt 0.140251 0.739313
vt 0.134643 0.736074
vt 0.134643 0.729598
vt 0.140251 0.726360
vt 0.805952 0.751858
vt 0.805952 0.363180
vt 0.811279 0.363180
vt 0.811279 0.751858
vt 0.872506 0.751858
vt 0.872506 0.363180
vt 0.878361 0.363180
vt 0.878361 0.751858
vt 0.961400 0.751858
vt 0.961400 0.363180
vt 0.967877 0.363180
vt 0.967877 0.751858
vt 0.157078 0.736074
vt 0.151469 0.739313
vt 0.145860 0.736074
vt 0.145860 0.729598
vt 0.151469 0.726360
vt 0.157078 0.729598
vt 0.867181 0.751858
vt 0.867181 0.363180
vt 0.844821 0.751858
vt 0.844821 0.363180
vt 0.850146 0.363180
vt 0.850146 0.751858
vt 0.811279 0.751858
vt 0.811279 0.363180
vt 0.817132 0.363180
vt 0.817132 0.751858
vt 0.967876 0.751858
vt 0.967876 0.363180
vt 0.974353 0.363180
vt 0.974353 0.751858
vt 0.856001 0.363180
vt 0.856001 0.751858
vt 0.162687 0.739313
vt 0.157078 0.736074
vt 0.157078 0.729598
vt 0.162687 0.726360
vt 0.168296 0.729598
vt 0.168296 0.736074
vt 0.822460 0.363180
vt 0.822460 0.751858
vt 0.948447 0.751858
vt 0.948447 0.363180
vt 0.954924 0.363180
vt 0.954924 0.751858
vt 0.954923 0.751858
vt 0.954923 0.363180
vt 0.961400 0.363180
vt 0.961400 0.751858
vt 0.800098 0.751858
vt 0.800098 0.363180
vt 0.179513 0.736074
vt 0.173904 0.739313
vt 0.168296 0.736074
vt 0.168296 0.729598
vt 0.173904 0.726360
vt 0.179513 0.729598
vt 0.084152 0.726360
vt 0.092567 0.726360
vt 0.092567 0.821479
vt 0.084152 0.821479
vt 0.923202 0.720163
vt 0.923202 0.706599
vt 0.931617 0.706599
vt 0.931617 0.720163
vt 0.903633 0.000000
vt 0.912048 0.000000
vt 0.912048 0.361960
vt 0.903633 0.361960
vt 0.914786 0.725140
vt 0.906371 0.725140
vt 0.906371 0.363180
vt 0.914786 0.363180
vt 0.126227 0.739401
vt 0.126227 0.726360
vt 0.134643 0.726360
vt 0.134643 0.739401
vt 0.067321 0.726360
vt 0.075737 0.726360
vt 0.075737 0.821479
vt 0.067321 0.821479
vt 0.117812 0.739401
vt 0.117812 0.726360
vt 0.126227 0.726360
vt 0.126227 0.739401
vt 0.923202 0.363180
vt 0.923202 0.376744
vt 0.914786 0.376744
vt 0.247821 0.363180
vt 0.324502 0.363180
vt 0.324502 0.726359
vt 0.229383 0.726360
vt 0.229383 0.381804
vt 0.234783 0.368635
vt 0.923202 0.720163
vt 0.914786 0.720163
vt 0.126227 0.816082
vt 0.117812 0.816082
vt 0.324502 0.363180
vt 0.401184 0.363180
vt 0.414221 0.368635
vt 0.419621 0.381804
vt 0.419621 0.726360
vt 0.324502 0.726359
vt 0.438059 0.363180
vt 0.514741 0.363180
vt 0.514741 0.726360
vt 0.419621 0.726360
vt 0.425022 0.368635
vt 0.923202 0.363180
vt 0.931617 0.363180
vt 0.134643 0.816082
vt 0.126227 0.816082
vt 0.514741 0.363180
vt 0.591422 0.363180
vt 0.604460 0.368635
vt 0.609860 0.381804
vt 0.609860 0.726360
vt 0.514741 0.726360
vt 0.928878 0.356983
vt 0.928878 0.343419
vt 0.937293 0.343419
vt 0.937293 0.356983
vt 0.912048 -0.000000
vt 0.920463 -0.000000
vt 0.920463 0.361960
vt 0.100982 0.739401
vt 0.100982 0.726360
vt 0.109397 0.726360
vt 0.109397 0.739401
vt 0.075737 0.726360
vt 0.084152 0.726360
vt 0.084152 0.821479
vt 0.075737 0.821479
vt 0.628298 0.363180
vt 0.704979 0.363180
vt 0.704979 0.726359
vt 0.615260 0.368635
vt 0.928878 0.000000
vt 0.937293 0.000000
vt 0.109397 0.816082
vt 0.100982 0.816082
vt 0.688149 -0.000000
vt 0.764830 0.000000
vt 0.777868 0.005455
vt 0.783268 0.018624
vt 0.783268 0.363180
vt 0.688149 0.363180
vt 0.920463 0.356983
vt 0.920463 0.343419
vt 0.928878 0.343419
vt 0.928878 0.356983
vt 0.897956 0.363180
vt 0.906371 0.363180
vt 0.906371 0.725140
vt 0.897956 0.725140
vt 0.109397 0.739401
vt 0.109397 0.726360
vt 0.117812 0.726360
vt 0.117812 0.739401
vt 0.092567 0.726360
vt 0.100982 0.821479
vt 0.092567 0.821479
vt 0.723417 0.363180
vt 0.800099 0.363180
vt 0.800099 0.726360
vt 0.704979 0.726360
vt 0.704979 0.381804
vt 0.710380 0.368635
vt 0.920463 -0.000000
vt 0.928878 -0.000000
vt 0.117812 0.816082
vt 0.109397 0.816082
vt 0.783268 -0.000000
vt 0.859950 0.000000
vt 0.872987 0.005455
vt 0.878387 0.018624
vt 0.878387 0.363180
vt 0.783268 0.363180
vt 0.190646 0.736099
vt 0.185080 0.739280
vt 0.179513 0.736002
vt 0.179513 0.729541
vt 0.185080 0.726360
vt 0.190646 0.729638
vt 0.861328 0.751858
vt 0.856001 0.751858
vt 0.856001 0.363180
vt 0.861328 0.363180
vt 0.828310 0.751858
vt 0.822460 0.751858
vt 0.822460 0.363180
vt 0.828310 0.363180
vt 0.993588 0.751858
vt 0.987177 0.751858
vt 0.987177 0.363180
vt 0.993588 0.363180
vt 0.201780 0.729638
vt 0.207346 0.726360
vt 0.212913 0.729541
vt 0.212913 0.736002
vt 0.207346 0.739280
vt 0.201780 0.736099
vt 0.833640 0.751858
vt 0.833640 0.363180
vt 0.844821 0.751858
vt 0.839491 0.751858
vt 0.839491 0.363180
vt 0.844821 0.363180
vt 0.889541 0.751858
vt 0.883688 0.751858
vt 0.883688 0.363180
vt 0.889541 0.363180
vt 1.000000 0.751858
vt 0.993588 0.751858
vt 0.993588 0.363180
vt 1.000000 0.363180
vt 0.833640 0.751858
vt 0.833640 0.363180
vt 0.218480 0.726360
vt 0.224046 0.729541
vt 0.224046 0.736002
vt 0.218479 0.739280
vt 0.212913 0.736099
vt 0.212913 0.729638
vt 0.980765 0.751858
vt 0.974353 0.751858
vt 0.974353 0.363180
vt 0.980765 0.363180
vt 0.987176 0.751858
vt 0.987176 0.363180
vt 0.201780 0.729638
vt 0.201780 0.736099
vt 0.196213 0.739280
vt 0.190646 0.736002
vt 0.190646 0.729541
vt 0.196213 0.726360
s 0
f 1/1/1 5/2/1 7/3/1 3/4/1
f 21/5/2 24/6/2 22/7/2 20/8/2
f 6/9/3 8/10/3 15/11/3 16/12/3
f 2/13/3 1/14/3 3/15/3 4/16/3
f 19/17/4 23/18/4 24/19/4 21/20/4
f 8/21/1 17/22/1 18/23/1 15/24/1
f 9/25/4 13/26/4 14/27/4 11/28/4
f 11/29/2 14/30/2 12/31/2 10/32/2
f 9/33/5 11/34/5 10/35/5 5/36/5 1/37/5 2/38/5
f 12/31/6 7/39/6 5/40/6 10/32/6
f 9/25/7 2/41/7 4/42/7 13/26/7
f 4/43/8 3/44/8 7/45/8 12/46/8 14/47/8 13/48/8
f 19/49/5 21/50/5 20/51/5 17/52/5 8/53/5 6/54/5
f 22/7/6 18/55/6 17/56/6 20/8/6
f 19/17/7 6/57/7 16/58/7 23/18/7
f 16/59/8 15/60/8 18/61/8 22/62/8 24/63/8 23/64/8
f 33/65/2 36/66/2 34/67/2 32/68/2
f 25/69/3 26/70/3 27/71/3 28/72/3
f 31/73/4 35/74/4 36/75/4 33/76/4
f 26/77/1 29/78/1 30/79/1 27/80/1
f 31/81/5 33/82/5 32/83/5 29/84/5 26/85/5 25/86/5
f 34/67/6 30/87/6 29/88/6 32/68/6
f 31/73/7 25/89/7 28/90/7 35/74/7
f 28/91/8 27/92/8 30/93/8 34/94/8 36/95/8 35/96/8
f 45/97/2 48/98/2 46/99/2 44/100/2
f 37/101/3 38/102/3 39/103/3 40/104/3
f 43/105/4 47/106/4 48/107/4 45/108/4
f 38/109/1 41/110/1 42/111/1 39/112/1
f 43/113/5 45/114/5 44/115/5 41/116/5 38/117/5 37/118/5
f 46/99/6 42/119/6 41/120/6 44/100/6
f 43/105/7 37/121/7 40/122/7 47/106/7
f 40/123/8 39/124/8 42/125/8 46/126/8 48/127/8 47/128/8
f 64/129/5 49/130/5 72/131/5 70/132/5 68/133/5 66/134/5
f 51/135/9 52/136/9 54/137/9 53/138/9
f 67/139/10 68/140/10 70/141/10 69/142/10
f 53/143/1 54/144/1 56/145/1 55/146/1
f 50/147/8 63/148/8 65/149/8 67/150/8 69/151/8 71/152/8
f 65/153/11 66/154/11 68/140/11 67/139/11
f 55/155/11 56/156/11 58/157/11 57/158/11
f 71/159/12 72/160/12 49/161/12 50/162/12
f 63/163/1 64/164/1 66/165/1 65/166/1
f 57/158/10 58/157/10 60/167/10 59/168/10
f 54/169/5 52/170/5 62/171/5 60/172/5 58/173/5 56/174/5
f 50/162/9 49/161/9 64/175/9 63/176/9
f 59/177/7 60/178/7 62/179/7 61/180/7
f 69/181/7 70/182/7 72/183/7 71/184/7
f 61/185/12 62/186/12 52/136/12 51/135/12
f 51/187/8 53/188/8 55/189/8 57/190/8 59/191/8 61/192/8
f 73/193/1 75/194/1 79/195/1 77/196/1
f 93/197/13 92/198/13 94/199/13 96/200/13
f 78/201/6 88/202/6 87/203/6 80/204/6
f 74/205/6 76/206/6 75/207/6 73/208/6
f 91/209/14 93/210/14 96/211/14 95/212/14
f 80/213/1 87/214/1 90/215/1 89/216/1
f 81/217/14 83/218/14 86/219/14 85/220/14
f 83/221/13 82/222/13 84/223/13 86/208/13
f 81/224/5 74/225/5 73/226/5 77/227/5 82/228/5 83/229/5
f 84/223/3 82/222/3 77/230/3 79/231/3
f 81/217/7 85/220/7 76/232/7 74/233/7
f 76/234/8 85/235/8 86/236/8 84/237/8 79/238/8 75/239/8
f 91/240/5 78/241/5 80/242/5 89/243/5 92/237/5 93/244/5
f 94/199/3 92/198/3 89/245/3 90/246/3
f 91/209/7 95/212/7 88/247/7 78/248/7
f 88/249/8 95/250/8 96/251/8 94/252/8 90/253/8 87/254/8
f 105/255/13 104/256/13 106/257/13 108/258/13
f 97/259/6 100/260/6 99/261/6 98/203/6
f 103/262/14 105/263/14 108/264/14 107/265/14
f 98/266/1 99/267/1 102/268/1 101/269/1
f 103/270/5 97/271/5 98/272/5 101/253/5 104/252/5 105/273/5
f 106/257/3 104/256/3 101/274/3 102/275/3
f 103/262/7 107/265/7 100/276/7 97/277/7
f 100/278/8 107/279/8 108/280/8 106/281/8 102/282/8 99/283/8
f 117/284/13 116/285/13 118/286/13 120/287/13
f 109/288/6 112/289/6 111/290/6 110/291/6
f 115/292/14 117/293/14 120/294/14 119/295/14
f 110/296/1 111/263/1 114/297/1 113/298/1
f 115/299/5 109/300/5 110/301/5 113/302/5 116/303/5 117/304/5
f 118/286/3 116/285/3 113/305/3 114/306/3
f 115/292/7 119/295/7 112/307/7 109/308/7
f 112/309/8 119/310/8 120/311/8 118/312/8 114/313/8 111/314/8
f 136/315/5 138/316/5 140/317/5 142/318/5 144/319/5 121/320/5
f 123/321/15 125/322/15 126/323/15 124/324/15
f 139/325/16 141/326/16 142/327/16 140/328/16
f 125/329/1 127/330/1 128/331/1 126/332/1
f 122/333/8 143/334/8 141/335/8 139/336/8 137/337/8 135/338/8
f 137/339/17 139/325/17 140/328/17 138/340/17
f 127/341/17 129/342/17 130/343/17 128/344/17
f 143/345/18 122/346/18 121/347/18 144/348/18
f 135/349/1 137/350/1 138/351/1 136/352/1
f 129/342/16 131/353/16 132/354/16 130/343/16
f 126/355/5 128/356/5 130/357/5 132/358/5 134/359/5 124/360/5
f 122/346/15 135/142/15 136/141/15 121/347/15
f 131/361/7 133/362/7 134/363/7 132/364/7
f 141/365/7 143/361/7 144/364/7 142/366/7
f 133/153/18 123/321/18 124/324/18 134/154/18
f 123/367/8 133/368/8 131/369/8 129/370/8 127/371/8 125/372/8
