# Blender 5.1.1
# www.blender.org
mtllib bottle 4.mtl
o shelves.003
v 0.566466 0.186393 0.073718
v 0.517385 0.186393 0.057770
v 0.517385 0.186393 0.006161
v 0.566466 0.186393 -0.009786
v 0.596801 0.186393 0.031966
v 0.602657 -0.000056 0.031966
v 0.656241 -0.043406 0.031966
v 0.640547 -0.012753 0.031966
v 0.568276 -0.000056 0.079287
v 0.584836 -0.043406 0.130249
v 0.579986 -0.012753 0.115323
v 0.512646 -0.000056 0.061212
v 0.469296 -0.043406 0.092708
v 0.481993 -0.012753 0.083483
v 0.512646 -0.000056 0.002719
v 0.469296 -0.043406 -0.028777
v 0.481993 -0.012753 -0.019552
v 0.568276 -0.000056 -0.015357
v 0.584836 -0.043406 -0.066318
v 0.579986 -0.012753 -0.051391
v 0.621697 -0.279249 0.031966
v 0.695786 -0.219311 0.031966
v 0.674086 -0.261693 0.031966
v 0.597055 -0.219311 0.167857
v 0.574161 -0.279249 0.097395
v 0.590348 -0.261693 0.147219
v 0.437305 -0.219311 0.115951
v 0.497243 -0.279249 0.072403
v 0.454860 -0.261693 0.103197
v 0.437305 -0.219311 -0.052020
v 0.497243 -0.279249 -0.008472
v 0.454860 -0.261693 -0.039265
v 0.597055 -0.219311 -0.103926
v 0.574161 -0.279249 -0.033464
v 0.590348 -0.261693 -0.083288
v 0.568910 0.195374 -0.017303
v 0.604704 0.195374 0.031966
v 0.510991 0.195374 0.062416
v 0.510991 0.195374 0.001516
v 0.568910 0.195374 0.081234
v 0.563540 0.207933 -0.000780
v 0.587331 0.207933 0.031966
v 0.525045 0.207933 0.052204
v 0.525045 0.207933 0.011728
v 0.563540 0.207933 0.064711
v 0.565637 0.234794 -0.007231
v 0.594114 0.234794 0.031966
v 0.519558 0.234794 0.056191
v 0.519558 0.234794 0.007740
v 0.565637 0.234794 0.071163
vn -0.9997 0.0254 -0.0000
vn 0.7474 0.3827 0.5430
vn 0.3096 0.9239 0.2249
vn -0.2855 0.3827 0.8787
vn -0.1183 0.9239 0.3640
vn -0.9239 0.3827 -0.0000
vn -0.3827 0.9239 -0.0000
vn -0.2855 0.3827 -0.8787
vn -0.1183 0.9239 -0.3640
vn 0.7474 0.3827 -0.5430
vn 0.3096 0.9239 -0.2249
vn -0.3089 0.0254 0.9507
vn 0.8088 0.0254 0.5876
vn -0.3089 0.0254 -0.9507
vn -0.8146 -0.5800 -0.0000
vn -0.2059 0.7457 0.6337
vn 0.8088 0.0254 -0.5876
vn 0.7474 -0.3827 0.5430
vn 0.3096 -0.9239 0.2249
vn -0.2855 -0.3827 0.8787
vn -0.1183 -0.9239 0.3640
vn -0.9239 -0.3827 -0.0000
vn -0.3827 -0.9239 -0.0000
vn -0.2855 -0.3827 -0.8787
vn -0.1183 -0.9239 -0.3640
vn 0.7474 -0.3827 -0.5430
vn 0.3096 -0.9239 -0.2249
vn 0.7960 0.1789 0.5783
vn -0.0000 -1.0000 -0.0000
vn 0.7960 0.1789 -0.5783
vn -0.3040 0.1789 0.9357
vn -0.9839 0.1789 -0.0000
vn -0.3040 0.1789 -0.9357
vn -0.2517 -0.5800 0.7748
vn 0.6590 -0.5800 0.4788
vn 0.6590 -0.5800 -0.4788
vn -0.2517 -0.5800 -0.7748
vn -0.3028 -0.2002 -0.9318
vn 0.5390 0.7457 0.3916
vn 0.5391 0.7457 -0.3916
vn -0.2059 0.7457 -0.6337
vn -0.6663 0.7457 -0.0000
vn -0.0000 1.0000 -0.0000
vn -0.9798 -0.2001 -0.0000
vn -0.3028 -0.2002 0.9318
vn 0.7926 -0.2002 0.5759
vn 0.7927 -0.2002 -0.5759
vt 0.456682 0.786121
vt 0.416104 0.786121
vt 0.418491 0.656939
vt 0.454294 0.656939
vt 0.814413 0.385874
vt 0.730136 0.385874
vt 0.736535 0.364891
vt 0.808013 0.364891
vt 0.707478 0.770330
vt 0.665464 0.828157
vt 0.657342 0.803158
vt 0.681193 0.770330
vt 0.399144 0.671558
vt 0.314867 0.671558
vt 0.321267 0.650575
vt 0.392745 0.650575
vt 0.665464 0.712503
vt 0.657342 0.737502
vt 0.814413 0.559680
vt 0.730135 0.559680
vt 0.736535 0.538697
vt 0.808013 0.538697
vt 0.597485 0.734591
vt 0.618750 0.750041
vt 0.581361 0.622567
vt 0.497083 0.622567
vt 0.503483 0.601585
vt 0.574961 0.601585
vt 0.597485 0.806069
vt 0.618749 0.790619
vt 0.794468 0.020983
vt 0.710191 0.020983
vt 0.716591 0.000000
vt 0.788069 0.000000
vt 0.993747 0.846277
vt 0.953169 0.846277
vt 0.955557 0.717095
vt 0.991359 0.717095
vt 0.886022 0.973061
vt 0.845444 0.973061
vt 0.847832 0.843879
vt 0.883634 0.843879
vt 0.843774 0.983595
vt 0.803196 0.983595
vt 0.805584 0.854414
vt 0.841386 0.854414
vt 0.415269 0.650574
vt 0.457516 0.650574
vt -0.000000 0.898302
vt 0.024832 0.864123
vt 0.028557 0.875586
vt 0.012052 0.898302
vt 0.705103 0.963704
vt 0.664525 0.963704
vt 0.666913 0.834522
vt 0.702715 0.834522
vt 0.714011 0.507160
vt 0.830537 0.507160
vt 0.821689 0.536924
vt 0.722860 0.536924
vt 0.541983 0.079955
vt 0.600074 0.000000
vt 0.611304 0.034564
vt 0.578326 0.079955
vt 0.298743 0.792843
vt 0.415269 0.792843
vt 0.406420 0.822608
vt 0.307591 0.822608
vt 0.694066 0.030540
vt 0.664664 0.051902
vt 0.714011 0.680966
vt 0.830537 0.680966
vt 0.821689 0.710730
vt 0.722859 0.710730
vt 0.694066 0.129369
vt 0.664664 0.108007
vt 0.480959 0.743853
vt 0.597485 0.743853
vt 0.588637 0.773618
vt 0.489807 0.773618
vt 0.600074 0.159909
vt 0.611304 0.125345
vt 0.694066 0.142269
vt 0.810593 0.142269
vt 0.801744 0.172033
vt 0.702915 0.172033
vt 0.952334 0.710730
vt 0.994581 0.710730
vt 0.844609 0.837514
vt 0.886856 0.837514
vt 0.663690 0.828157
vt 0.705938 0.828157
vt 0.802361 0.848049
vt 0.844609 0.848049
vt 0.427386 0.162675
vt 0.427386 0.190754
vt 0.408643 0.193520
vt 0.408643 0.159909
vt 0.065012 0.877179
vt 0.055261 0.884263
vt 0.065012 0.919426
vt 0.055261 0.912342
vt 0.024832 0.932482
vt 0.028557 0.921019
vt 0.252144 0.891916
vt 0.284110 0.902303
vt 0.284110 0.935914
vt 0.252144 0.946300
vt 0.232388 0.919108
vt 0.464872 0.162675
vt 0.464872 0.190754
vt 0.446129 0.193520
vt 0.446129 0.159909
vt 0.446129 0.162675
vt 0.446129 0.190754
vt 0.427386 0.193520
vt 0.427386 0.159909
vt 0.483614 0.162675
vt 0.483614 0.190754
vt 0.464871 0.193520
vt 0.464871 0.159909
vt 0.408643 0.162675
vt 0.408643 0.190754
vt 0.389901 0.193520
vt 0.389901 0.159909
s 1
usemtl Material.001
f 15/1/1 12/2/1 2/3/1 3/4/1
f 10/5/2 7/6/2 8/7/2 11/8/2
f 11/9/3 8/10/3 6/11/3 9/12/3
f 13/13/4 10/14/4 11/15/4 14/16/4
f 14/17/5 11/9/5 9/12/5 12/18/5
f 16/19/6 13/20/6 14/21/6 17/22/6
f 17/23/7 14/17/7 12/18/7 15/24/7
f 19/25/8 16/26/8 17/27/8 20/28/8
f 20/29/9 17/23/9 15/24/9 18/30/9
f 7/31/10 19/32/10 20/33/10 8/34/10
f 8/10/11 20/29/11 18/30/11 6/11/11
f 12/35/12 9/36/12 1/37/12 2/38/12
f 9/39/13 6/40/13 5/41/13 1/42/13
f 18/43/14 15/44/14 3/45/14 4/46/14
f 3/4/15 2/3/15 38/47/15 39/48/15
f 38/49/16 40/50/16 45/51/16 43/52/16
f 6/53/17 18/54/17 4/55/17 5/56/17
f 22/57/18 24/58/18 26/59/18 23/60/18
f 23/61/19 26/62/19 25/63/19 21/64/19
f 24/65/20 27/66/20 29/67/20 26/68/20
f 26/62/21 29/69/21 28/70/21 25/63/21
f 27/71/22 30/72/22 32/73/22 29/74/22
f 29/69/23 32/75/23 31/76/23 28/70/23
f 30/77/24 33/78/24 35/79/24 32/80/24
f 32/75/25 35/81/25 34/82/25 31/76/25
f 33/83/26 22/84/26 23/85/26 35/86/26
f 35/81/27 23/61/27 21/64/27 34/82/27
f 22/57/28 7/6/28 10/5/28 24/58/28
f 21/64/29 25/63/29 28/70/29 31/76/29 34/82/29
f 33/83/30 19/32/30 7/31/30 22/84/30
f 24/65/31 10/14/31 13/13/31 27/66/31
f 27/71/32 13/20/32 16/19/32 30/72/32
f 30/77/33 16/26/33 19/25/33 33/78/33
f 2/38/34 1/37/34 40/87/34 38/88/34
f 1/42/35 5/41/35 37/89/35 40/90/35
f 5/56/36 4/55/36 36/91/36 37/92/36
f 4/46/37 3/45/37 39/93/37 36/94/37
f 41/95/38 44/96/38 49/97/38 46/98/38
f 40/50/39 37/99/39 42/100/39 45/51/39
f 37/99/40 36/101/40 41/102/40 42/100/40
f 36/101/41 39/103/41 44/104/41 41/102/41
f 39/103/42 38/49/42 43/52/42 44/104/42
f 50/105/43 47/106/43 46/107/43 49/108/43 48/109/43
f 44/110/44 43/111/44 48/112/44 49/113/44
f 43/114/45 45/115/45 50/116/45 48/117/45
f 45/118/46 42/119/46 47/120/46 50/121/46
f 42/122/47 41/123/47 46/124/47 47/125/47
