# Blender 5.1.1
# www.blender.org
mtllib Bottle 2.mtl
o shelves.003
v -0.188668 0.157918 -0.044949
v -0.287266 0.157918 -0.012913
v -0.287266 0.157918 0.090759
v -0.188668 0.157918 0.122795
v -0.127730 0.157918 0.038923
v -0.127730 0.104002 0.038923
v -0.032760 0.027168 0.038923
v -0.060575 0.081498 0.038923
v -0.188668 0.104002 0.122795
v -0.159319 0.027168 0.213117
v -0.167916 0.081498 0.186662
v -0.287266 0.104002 0.090759
v -0.364098 0.027168 0.146581
v -0.341595 0.081498 0.130231
v -0.287266 0.104002 -0.012913
v -0.364098 0.027168 -0.068736
v -0.341595 0.081498 -0.052386
v -0.188668 0.104002 -0.044950
v -0.159319 0.027168 -0.135273
v -0.167916 0.081498 -0.108818
v -0.127730 -0.262318 0.038923
v -0.032760 -0.185484 0.038923
v -0.060575 -0.239813 0.038923
v -0.159319 -0.185484 0.213117
v -0.188668 -0.262318 0.122795
v -0.167916 -0.239813 0.186662
v -0.364098 -0.185484 0.146581
v -0.287266 -0.262318 0.090759
v -0.341595 -0.239813 0.130231
v -0.364098 -0.185484 -0.068736
v -0.287266 -0.262318 -0.012913
v -0.341595 -0.239813 -0.052386
v -0.159319 -0.185484 -0.135273
v -0.188668 -0.262318 -0.044950
v -0.167916 -0.239813 -0.108818
v -0.183762 0.175961 -0.060049
v -0.111855 0.175961 0.038923
v -0.300108 0.175961 0.100091
v -0.300108 0.175961 -0.022245
v -0.183762 0.175961 0.137894
v -0.194547 0.201190 -0.026856
v -0.146755 0.201190 0.038923
v -0.271874 0.201190 0.079577
v -0.271874 0.201190 -0.001731
v -0.194547 0.201190 0.104702
v -0.190336 0.255148 -0.039816
v -0.133128 0.255148 0.038923
v -0.282898 0.255148 0.087586
v -0.282898 0.255148 -0.009740
v -0.190336 0.255148 0.117662
vn -1.0000 -0.0000 -0.0000
vn 0.7474 0.3827 0.5430
vn 0.3096 0.9239 0.2249
vn -0.2855 0.3827 0.8787
vn -0.1183 0.9239 0.3640
vn -0.9239 0.3827 -0.0000
vn -0.3827 0.9239 -0.0000
vn -0.2855 0.3827 -0.8787
vn -0.1183 0.9239 -0.3640
vn 0.7474 0.3827 -0.5430
vn 0.3096 0.9239 -0.2249
vn -0.3090 -0.0000 0.9511
vn 0.8090 -0.0000 0.5878
vn -0.3090 -0.0000 -0.9511
vn -0.8147 -0.5799 -0.0000
vn -0.2059 0.7457 0.6337
vn 0.8090 -0.0000 -0.5878
vn 0.7474 -0.3827 0.5430
vn 0.3096 -0.9239 0.2249
vn -0.2855 -0.3827 0.8787
vn -0.1183 -0.9239 0.3640
vn -0.9239 -0.3827 -0.0000
vn -0.3827 -0.9239 -0.0000
vn -0.2855 -0.3827 -0.8787
vn -0.1183 -0.9239 -0.3640
vn 0.7474 -0.3827 -0.5430
vn 0.3096 -0.9239 -0.2249
vn -0.0000 -1.0000 -0.0000
vn -0.2517 -0.5799 0.7748
vn 0.6591 -0.5799 0.4789
vn 0.6591 -0.5799 -0.4788
vn -0.2517 -0.5799 -0.7748
vn -0.3028 -0.2002 -0.9318
vn 0.5390 0.7457 0.3916
vn 0.5390 0.7457 -0.3916
vn -0.2059 0.7457 -0.6337
vn -0.6663 0.7457 -0.0000
vn -0.0000 1.0000 -0.0000
vn -0.9798 -0.2002 -0.0000
vn -0.3028 -0.2002 0.9318
vn 0.7926 -0.2002 0.5759
vn 0.7926 -0.2002 -0.5759
vt 0.146753 0.880854
vt 0.146753 0.952774
vt 0.109367 0.952774
vt 0.109367 0.880854
vt 0.597485 0.242172
vt 0.448114 0.242172
vt 0.459457 0.204982
vt 0.586142 0.204982
vt 0.194950 0.102491
vt 0.120486 0.204983
vt 0.106090 0.160676
vt 0.148363 0.102491
vt 0.448113 0.464968
vt 0.298743 0.464968
vt 0.310085 0.427778
vt 0.436771 0.427778
vt 0.120486 -0.000000
vt 0.106090 0.044307
vt 0.298743 0.242172
vt 0.149372 0.242172
vt 0.160714 0.204982
vt 0.287400 0.204982
vt 0.000000 0.039148
vt 0.037690 0.066531
vt 0.310085 0.204982
vt 0.436771 0.204982
vt 0.000000 0.165835
vt 0.037690 0.138451
vt 0.149371 0.242172
vt 0.000000 0.242172
vt 0.011342 0.204983
vt 0.138029 0.204983
vt 0.232388 0.898390
vt 0.232388 0.970310
vt 0.195002 0.970310
vt 0.195002 0.898390
vt 0.581302 0.896618
vt 0.581302 0.968538
vt 0.543916 0.968538
vt 0.543916 0.896618
vt 0.969845 0.211456
vt 0.969845 0.283376
vt 0.932460 0.283376
vt 0.932460 0.211456
vt 0.096581 0.959248
vt 0.096581 0.874380
vt 0.714011 0.779389
vt 0.763895 0.710730
vt 0.771377 0.733756
vt 0.738222 0.779389
vt 0.531131 0.896618
vt 0.531131 0.968538
vt 0.493745 0.968538
vt 0.493745 0.896618
vt 0.448114 0.389624
vt 0.597485 0.389624
vt 0.586142 0.427779
vt 0.459457 0.427779
vt 0.269414 0.204983
vt 0.241537 0.102491
vt 0.283810 0.160676
vt 0.298743 0.612420
vt 0.448113 0.612420
vt 0.436771 0.650574
vt 0.310085 0.650574
vt 0.269414 -0.000000
vt 0.283810 0.044307
vt 0.149372 0.389624
vt 0.298743 0.389624
vt 0.287400 0.427778
vt 0.160714 0.427778
vt 0.389900 0.039148
vt 0.352210 0.066531
vt 0.389900 0.165835
vt 0.352211 0.138452
vt 0.000000 0.389625
vt 0.149371 0.389625
vt 0.138029 0.427779
vt 0.011342 0.427779
vt 0.182216 0.976783
vt 0.182216 0.891916
vt 0.531130 0.975011
vt 0.531130 0.890144
vt 0.480958 0.975012
vt 0.480958 0.890145
vt 0.919673 0.289850
vt 0.919673 0.204983
vt 0.336393 0.935288
vt 0.336393 0.991693
vt 0.298743 0.997249
vt 0.298743 0.929731
vt 0.844609 0.736956
vt 0.825021 0.751187
vt 0.844609 0.821823
vt 0.825021 0.807592
vt 0.763895 0.848048
vt 0.771377 0.825022
vt 0.853467 0.259606
vt 0.813781 0.314230
vt 0.749567 0.293366
vt 0.749567 0.225847
vt 0.813780 0.204983
vt 0.037651 0.938038
vt 0.037651 0.994444
vt -0.000000 1.000000
vt -0.000000 0.932482
vt 0.374044 0.935288
vt 0.374044 0.991693
vt 0.336393 0.997250
vt 0.336393 0.929731
vt 0.948466 0.900827
vt 0.948466 0.957233
vt 0.910815 0.962790
vt 0.910815 0.895271
vt 0.986117 0.900827
vt 0.986117 0.957232
vt 0.948466 0.962789
vt 0.948466 0.895271
s 1
usemtl Material.001
f 15/1/1 12/2/1 3/3/1 2/4/1
f 10/5/2 7/6/2 8/7/2 11/8/2
f 11/9/3 8/10/3 6/11/3 9/12/3
f 13/13/4 10/14/4 11/15/4 14/16/4
f 14/17/5 11/9/5 9/12/5 12/18/5
f 16/19/6 13/20/6 14/21/6 17/22/6
f 17/23/7 14/17/7 12/18/7 15/24/7
f 19/6/8 16/19/8 17/25/8 20/26/8
f 20/27/9 17/23/9 15/24/9 18/28/9
f 7/29/10 19/30/10 20/31/10 8/32/10
f 8/10/11 20/27/11 18/28/11 6/11/11
f 12/33/12 9/34/12 4/35/12 3/36/12
f 9/37/13 6/38/13 5/39/13 4/40/13
f 18/41/14 15/42/14 2/43/14 1/44/14
f 2/4/15 3/3/15 38/45/15 39/46/15
f 38/47/16 40/48/16 45/49/16 43/50/16
f 6/51/17 18/52/17 1/53/17 5/54/17
f 22/55/18 24/56/18 26/57/18 23/58/18
f 23/59/19 26/9/19 25/60/19 21/61/19
f 24/62/20 27/63/20 29/64/20 26/65/20
f 26/9/21 29/66/21 28/67/21 25/60/21
f 27/68/22 30/69/22 32/70/22 29/71/22
f 29/66/23 32/72/23 31/73/23 28/67/23
f 30/69/24 33/55/24 35/16/24 32/15/24
f 32/72/25 35/74/25 34/75/25 31/73/25
f 33/76/26 22/77/26 23/78/26 35/79/26
f 35/74/27 23/59/27 21/61/27 34/75/27
f 22/55/13 7/6/13 10/5/13 24/56/13
f 21/61/28 25/60/28 28/67/28 31/73/28 34/75/28
f 33/76/17 19/30/17 7/29/17 22/77/17
f 24/62/12 10/14/12 13/13/12 27/63/12
f 27/68/1 13/20/1 16/19/1 30/69/1
f 30/69/14 16/19/14 19/6/14 33/55/14
f 3/36/29 4/35/29 40/80/29 38/81/29
f 4/40/30 5/39/30 37/82/30 40/83/30
f 5/54/31 1/53/31 36/84/31 37/85/31
f 1/44/32 2/43/32 39/86/32 36/87/32
f 41/88/33 44/89/33 49/90/33 46/91/33
f 40/48/34 37/92/34 42/93/34 45/49/34
f 37/92/35 36/94/35 41/95/35 42/93/35
f 36/94/36 39/96/36 44/97/36 41/95/36
f 39/96/37 38/47/37 43/50/37 44/97/37
f 50/98/38 47/99/38 46/100/38 49/101/38 48/102/38
f 44/103/39 43/104/39 48/105/39 49/106/39
f 43/107/40 45/108/40 50/109/40 48/110/40
f 45/111/41 42/112/41 47/113/41 50/114/41
f 42/115/42 41/116/42 46/117/42 47/118/42
