# Blender 5.1.1
# www.blender.org
mtllib bottle 3.mtl
o shelves.003
v 0.191957 0.174979 -0.030755
v 0.115039 0.174979 -0.005763
v 0.115039 0.174979 0.075112
v 0.191957 0.174979 0.100104
v 0.239495 0.174979 0.034675
v 0.239495 0.006520 0.034675
v 0.313582 -0.053418 0.034675
v 0.291881 -0.011035 0.034675
v 0.191957 0.006520 0.100104
v 0.214851 -0.053418 0.170566
v 0.208146 -0.011035 0.149928
v 0.115039 0.006520 0.075112
v 0.055102 -0.053418 0.118660
v 0.072657 -0.011035 0.105906
v 0.115039 0.006520 -0.005763
v 0.055102 -0.053418 -0.049311
v 0.072657 -0.011035 -0.036556
v 0.191957 0.006520 -0.030755
v 0.214851 -0.053418 -0.101217
v 0.208146 -0.011035 -0.080579
v 0.239495 -0.279249 0.034675
v 0.313582 -0.219311 0.034675
v 0.291881 -0.261693 0.034675
v 0.214851 -0.219311 0.170566
v 0.191957 -0.279249 0.100104
v 0.208146 -0.261693 0.149928
v 0.055102 -0.219311 0.118660
v 0.115039 -0.279249 0.075112
v 0.072657 -0.261693 0.105906
v 0.055102 -0.219311 -0.049311
v 0.115039 -0.279249 -0.005763
v 0.072657 -0.261693 -0.036556
v 0.214851 -0.219311 -0.101217
v 0.191957 -0.279249 -0.030755
v 0.208146 -0.261693 -0.080579
v 0.195784 0.189055 -0.042534
v 0.251879 0.189055 0.034675
v 0.105019 0.189055 0.082393
v 0.105019 0.189055 -0.013042
v 0.195784 0.189055 0.111883
v 0.187371 0.208736 -0.016641
v 0.224654 0.208736 0.034675
v 0.127046 0.208736 0.066389
v 0.127046 0.208736 0.002960
v 0.187371 0.208736 0.085990
v 0.190656 0.250829 -0.026750
v 0.235284 0.250829 0.034675
v 0.118446 0.250829 0.072638
v 0.118446 0.250829 -0.003288
v 0.190656 0.250829 0.096100
vn -1.0000 -0.0000 -0.0000
vn 0.7474 0.3827 0.5430
vn 0.3096 0.9239 0.2249
vn -0.2855 0.3827 0.8787
vn -0.1183 0.9239 0.3639
vn -0.9239 0.3827 -0.0000
vn -0.3827 0.9239 -0.0000
vn -0.2855 0.3827 -0.8787
vn -0.1183 0.9239 -0.3639
vn 0.7474 0.3827 -0.5430
vn 0.3096 0.9239 -0.2249
vn -0.3090 -0.0000 0.9511
vn 0.8090 -0.0000 0.5878
vn -0.3090 -0.0000 -0.9511
vn -0.8147 -0.5799 -0.0000
vn -0.2059 0.7457 0.6337
vn 0.8090 -0.0000 -0.5878
vn 0.7474 -0.3827 0.5430
vn 0.3096 -0.9239 0.2249
vn -0.2855 -0.3827 0.8787
vn -0.1183 -0.9239 0.3640
vn -0.9239 -0.3827 -0.0000
vn -0.3827 -0.9239 -0.0000
vn -0.2855 -0.3827 -0.8787
vn -0.1183 -0.9239 -0.3640
vn 0.7474 -0.3827 -0.5430
vn 0.3096 -0.9239 -0.2249
vn -0.0000 -1.0000 -0.0000
vn -0.2517 -0.5799 0.7748
vn 0.6591 -0.5799 0.4789
vn 0.6591 -0.5799 -0.4789
vn -0.2518 -0.5799 -0.7748
vn -0.3028 -0.2002 -0.9318
vn 0.5390 0.7457 0.3916
vn 0.5390 0.7457 -0.3916
vn -0.2059 0.7457 -0.6337
vn -0.6663 0.7457 -0.0000
vn -0.0000 1.0000 -0.0000
vn -0.9798 -0.2002 -0.0000
vn -0.3028 -0.2002 0.9318
vn 0.7926 -0.2002 0.5759
vn 0.7926 -0.2002 -0.5759
vt 0.914623 0.331766
vt 0.858518 0.331766
vt 0.858518 0.214958
vt 0.914623 0.214958
vt 0.298742 0.456790
vt 0.182216 0.456790
vt 0.191065 0.427778
vt 0.289894 0.427778
vt 0.093992 0.587688
vt 0.152082 0.667642
vt 0.115740 0.667642
vt 0.082762 0.622252
vt 0.298742 0.630596
vt 0.182216 0.630596
vt 0.191064 0.601584
vt 0.289893 0.601584
vt -0.000000 0.618227
vt 0.029402 0.639589
vt 0.597485 0.456791
vt 0.480959 0.456791
vt 0.489807 0.427779
vt 0.588637 0.427779
vt -0.000000 0.717057
vt 0.029402 0.695695
vt 0.714011 0.567709
vt 0.597485 0.567709
vt 0.606333 0.538697
vt 0.705163 0.538697
vt 0.093992 0.747597
vt 0.082762 0.713033
vt 0.714011 0.393903
vt 0.597485 0.393903
vt 0.606334 0.364891
vt 0.705163 0.364891
vt 0.905765 0.837514
vt 0.849659 0.837514
vt 0.849659 0.720706
vt 0.905765 0.720706
vt 0.157737 0.874381
vt 0.101632 0.874381
vt 0.101632 0.757572
vt 0.157737 0.757572
vt 0.461779 0.949391
vt 0.405673 0.949391
vt 0.405673 0.832583
vt 0.461779 0.832583
vt 0.853467 0.204983
vt 0.919673 0.204983
vt 0.298743 0.909272
vt 0.298743 0.843067
vt 0.314023 0.854168
vt 0.314023 0.898171
vt 0.658640 0.954941
vt 0.602535 0.954941
vt 0.602535 0.838132
vt 0.658640 0.838132
vt 0.182216 0.571819
vt 0.298742 0.571819
vt 0.289894 0.601584
vt 0.191065 0.601584
vt 0.655575 0.204983
vt 0.749567 0.235523
vt 0.720165 0.256884
vt 0.666806 0.239547
vt 0.182216 0.745625
vt 0.298742 0.745625
vt 0.289893 0.775390
vt 0.191064 0.775390
vt 0.749567 0.334352
vt 0.720165 0.312990
vt 0.480959 0.571820
vt 0.597485 0.571820
vt 0.588637 0.601585
vt 0.489807 0.601585
vt 0.655574 0.364892
vt 0.666805 0.330328
vt 0.597485 0.682739
vt 0.714011 0.682739
vt 0.705163 0.712503
vt 0.606333 0.712503
vt 0.597484 0.284937
vt 0.633827 0.284937
vt 0.597485 0.508933
vt 0.714011 0.508933
vt 0.606334 0.538697
vt 0.844609 0.710731
vt 0.910815 0.710731
vt 0.096581 0.747597
vt 0.162788 0.747597
vt 0.597485 0.828158
vt 0.663690 0.828158
vt 0.400623 0.822607
vt 0.466829 0.822607
vt 0.182216 0.642801
vt 0.182216 0.686803
vt 0.152845 0.691138
vt 0.152845 0.638466
vt 0.361708 0.822608
vt 0.355872 0.840570
vt 0.400623 0.876169
vt 0.381736 0.876169
vt 0.361709 0.929731
vt 0.355872 0.911768
vt 0.744970 0.848049
vt 0.795065 0.864325
vt 0.795065 0.916997
vt 0.744971 0.933274
vt 0.714011 0.890661
vt 0.182215 0.695473
vt 0.182215 0.739475
vt 0.152844 0.743810
vt 0.152844 0.691138
vt 0.182216 0.432113
vt 0.182216 0.476116
vt 0.152845 0.480451
vt 0.152845 0.427778
vt 0.480959 0.432113
vt 0.480959 0.476116
vt 0.451587 0.480451
vt 0.451587 0.427779
vt 0.480959 0.537458
vt 0.480959 0.581461
vt 0.451587 0.585795
vt 0.451587 0.533123
s 1
usemtl Material.001
f 15/1/1 12/2/1 3/3/1 2/4/1
f 10/5/2 7/6/2 8/7/2 11/8/2
f 11/9/3 8/10/3 6/11/3 9/12/3
f 13/13/4 10/14/4 11/15/4 14/16/4
f 14/17/5 11/9/5 9/12/5 12/18/5
f 16/19/6 13/20/6 14/21/6 17/22/6
f 17/23/7 14/17/7 12/18/7 15/24/7
f 19/25/8 16/26/8 17/27/8 20/28/8
f 20/29/9 17/23/9 15/24/9 18/30/9
f 7/31/10 19/32/10 20/33/10 8/34/10
f 8/10/11 20/29/11 18/30/11 6/11/11
f 12/35/12 9/36/12 4/37/12 3/38/12
f 9/39/13 6/40/13 5/41/13 4/42/13
f 18/43/14 15/44/14 2/45/14 1/46/14
f 2/4/15 3/3/15 38/47/15 39/48/15
f 38/49/16 40/50/16 45/51/16 43/52/16
f 6/53/17 18/54/17 1/55/17 5/56/17
f 22/57/18 24/58/18 26/59/18 23/60/18
f 23/61/19 26/62/19 25/63/19 21/64/19
f 24/65/20 27/66/20 29/67/20 26/68/20
f 26/62/21 29/69/21 28/70/21 25/63/21
f 27/71/22 30/72/22 32/73/22 29/74/22
f 29/69/23 32/75/23 31/76/23 28/70/23
f 30/77/24 33/78/24 35/79/24 32/80/24
f 32/75/25 35/81/25 34/82/25 31/76/25
f 33/83/26 22/84/26 23/28/26 35/85/26
f 35/81/27 23/61/27 21/64/27 34/82/27
f 22/57/13 7/6/13 10/5/13 24/58/13
f 21/64/28 25/63/28 28/70/28 31/76/28 34/82/28
f 33/83/17 19/32/17 7/31/17 22/84/17
f 24/65/12 10/14/12 13/13/12 27/66/12
f 27/71/1 13/20/1 16/19/1 30/72/1
f 30/77/14 16/26/14 19/25/14 33/78/14
f 3/38/29 4/37/29 40/86/29 38/87/29
f 4/42/30 5/41/30 37/88/30 40/89/30
f 5/56/31 1/55/31 36/90/31 37/91/31
f 1/46/32 2/45/32 39/92/32 36/93/32
f 41/94/33 44/95/33 49/96/33 46/97/33
f 40/50/34 37/98/34 42/99/34 45/51/34
f 37/98/35 36/100/35 41/101/35 42/99/35
f 36/100/36 39/102/36 44/103/36 41/101/36
f 39/102/37 38/49/37 43/52/37 44/103/37
f 50/104/38 47/105/38 46/106/38 49/107/38 48/108/38
f 44/109/39 43/110/39 48/111/39 49/112/39
f 43/113/40 45/114/40 50/115/40 48/116/40
f 45/117/41 42/118/41 47/119/41 50/120/41
f 42/121/42 41/122/42 46/123/42 47/124/42
