# Blender 5.1.1
# www.blender.org
mtllib Bottle 1.mtl
o shelves.003
v -0.564073 0.168134 -0.016453
v -0.620992 0.168134 0.002041
v -0.620992 0.168134 0.061890
v -0.564073 0.168134 0.080385
v -0.528893 0.168134 0.031966
v -0.528893 -0.098006 0.031966
v -0.436920 -0.164790 0.031966
v -0.458620 -0.122407 0.031966
v -0.564073 -0.098006 0.080385
v -0.535651 -0.164790 0.167857
v -0.542356 -0.122407 0.147219
v -0.620992 -0.098006 0.061890
v -0.695401 -0.164790 0.115951
v -0.677845 -0.122407 0.103197
v -0.620992 -0.098006 0.002041
v -0.695401 -0.164790 -0.052020
v -0.677845 -0.122407 -0.039265
v -0.564073 -0.098006 -0.016453
v -0.535651 -0.164790 -0.103926
v -0.542356 -0.122407 -0.083288
v -0.511008 -0.279249 0.031966
v -0.436920 -0.219311 0.031966
v -0.458620 -0.261693 0.031966
v -0.535651 -0.219311 0.167857
v -0.558546 -0.279249 0.097395
v -0.542356 -0.261693 0.147219
v -0.695401 -0.219311 0.115951
v -0.635463 -0.279249 0.072403
v -0.677845 -0.261693 0.103197
v -0.695401 -0.219311 -0.052020
v -0.635463 -0.279249 -0.008472
v -0.677845 -0.261693 -0.039265
v -0.535651 -0.219311 -0.103926
v -0.558545 -0.279249 -0.033464
v -0.542356 -0.261693 -0.083288
v -0.554718 0.189055 -0.045243
v -0.498622 0.189055 0.031966
v -0.645482 0.189055 0.079684
v -0.645482 0.189055 -0.015751
v -0.554718 0.189055 0.109174
v -0.563130 0.208736 -0.019350
v -0.525848 0.208736 0.031966
v -0.623456 0.208736 0.063680
v -0.623456 0.208736 0.000251
v -0.563130 0.208736 0.083281
v -0.559845 0.250829 -0.029459
v -0.515218 0.250829 0.031966
v -0.632056 0.250829 0.069929
v -0.632056 0.250829 -0.005997
v -0.559845 0.250829 0.093391
vn -1.0000 -0.0000 -0.0000
vn 0.7474 0.3827 0.5430
vn 0.3191 0.9189 0.2318
vn -0.2855 0.3827 0.8787
vn -0.1219 0.9189 0.3751
vn -0.9239 0.3827 -0.0000
vn -0.3944 0.9189 -0.0000
vn -0.2855 0.3827 -0.8787
vn -0.1219 0.9189 -0.3751
vn 0.7474 0.3827 -0.5430
vn 0.3191 0.9189 -0.2318
vn -0.3090 -0.0000 0.9511
vn 0.8090 -0.0000 0.5878
vn -0.3090 -0.0000 -0.9511
vn -0.6495 -0.7603 -0.0000
vn -0.2059 0.7457 0.6337
vn 0.8090 -0.0000 -0.5878
vn 0.7474 -0.3827 0.5430
vn 0.3096 -0.9239 0.2249
vn -0.2855 -0.3827 0.8787
vn -0.1183 -0.9239 0.3640
vn -0.9239 -0.3827 -0.0000
vn -0.3827 -0.9239 -0.0000
vn -0.2855 -0.3827 -0.8787
vn -0.1183 -0.9239 -0.3640
vn 0.7474 -0.3827 -0.5430
vn 0.3096 -0.9239 -0.2249
vn -0.0000 -1.0000 -0.0000
vn -0.2007 -0.7603 0.6177
vn 0.5255 -0.7603 0.3818
vn 0.5255 -0.7603 -0.3818
vn -0.2007 -0.7603 -0.6177
vn -0.3028 -0.2002 -0.9318
vn 0.5390 0.7457 0.3916
vn 0.5390 0.7457 -0.3916
vn -0.2059 0.7457 -0.6337
vn -0.6663 0.7457 -0.0000
vn -0.0000 1.0000 -0.0000
vn -0.9798 -0.2002 -0.0000
vn -0.3028 -0.2002 0.9318
vn 0.7926 -0.2002 0.5759
vn 0.7926 -0.2002 -0.5759
vt 0.973936 0.665958
vt 0.932417 0.665958
vt 0.932417 0.481418
vt 0.973936 0.481418
vt 0.839605 -0.000000
vt 0.839605 0.116526
vt 0.810593 0.107678
vt 0.810593 0.008848
vt 0.483893 0.000000
vt 0.541983 0.079955
vt 0.493232 0.079955
vt 0.468828 0.046365
vt 0.211229 0.775390
vt 0.211229 0.891916
vt 0.182216 0.883068
vt 0.182216 0.784238
vt 0.389900 0.030540
vt 0.429341 0.059195
vt 0.859549 0.364892
vt 0.859549 0.481417
vt 0.830537 0.472569
vt 0.830537 0.373740
vt 0.389900 0.129369
vt 0.429341 0.100714
vt 0.029012 0.747597
vt 0.029012 0.864124
vt 0.000000 0.855275
vt 0.000000 0.756446
vt 0.483893 0.159909
vt 0.468828 0.113544
vt 0.509971 0.773618
vt 0.509971 0.890144
vt 0.480959 0.881296
vt 0.480959 0.782466
vt 0.968637 0.481418
vt 0.927118 0.481418
vt 0.927118 0.296877
vt 0.968637 0.296877
vt 0.948693 0.184540
vt 0.907174 0.184540
vt 0.907174 -0.000000
vt 0.948693 -0.000000
vt 0.990211 0.184540
vt 0.990211 0.000000
vt 0.915428 0.514220
vt 0.875941 0.501390
vt 0.869451 0.481418
vt 0.932417 0.501877
vt 0.893503 0.588541
vt 0.932418 0.642103
vt 0.913530 0.642103
vt 0.887666 0.606504
vt 0.952334 0.895271
vt 0.910815 0.895271
vt 0.910815 0.710731
vt 0.952334 0.710731
vt 0.877409 0.116526
vt 0.877409 -0.000000
vt 0.907174 0.008848
vt 0.907174 0.107678
vt 0.000000 0.507733
vt 0.058091 0.427779
vt 0.069321 0.462343
vt 0.036343 0.507733
vt 0.249033 0.891916
vt 0.249033 0.775390
vt 0.278797 0.784238
vt 0.278797 0.883068
vt 0.152083 0.458318
vt 0.122681 0.479680
vt 0.897354 0.481417
vt 0.897354 0.364892
vt 0.927118 0.373740
vt 0.927118 0.472569
vt 0.152083 0.557148
vt 0.122681 0.535786
vt 0.066817 0.864124
vt 0.066817 0.747597
vt 0.096581 0.756446
vt 0.096581 0.855275
vt 0.058091 0.587688
vt 0.069321 0.553124
vt 0.547775 0.890144
vt 0.547775 0.773618
vt 0.577539 0.782466
vt 0.577539 0.881296
vt 0.851537 0.534979
vt 0.830537 0.534980
vt 0.875941 0.568569
vt 0.869452 0.588541
vt 0.915428 0.555739
vt 0.932417 0.568083
vt 0.480959 0.484786
vt 0.480959 0.528789
vt 0.451588 0.533124
vt 0.451588 0.480452
vt 0.893503 0.695665
vt 0.887666 0.677702
vt 0.830537 0.675206
vt 0.845817 0.664105
vt 0.830537 0.609000
vt 0.845817 0.620102
vt 0.810593 0.132803
vt 0.860686 0.116526
vt 0.891646 0.159139
vt 0.860686 0.201751
vt 0.810593 0.185475
vt 0.182216 0.590129
vt 0.182216 0.634132
vt 0.152845 0.638466
vt 0.152845 0.585795
vt 0.182216 0.537457
vt 0.182216 0.581460
vt 0.152844 0.585794
vt 0.152844 0.533122
vt 0.480959 0.590130
vt 0.480959 0.634133
vt 0.451587 0.638467
vt 0.451587 0.585796
vt 0.182216 0.484785
vt 0.182216 0.528788
vt 0.152844 0.480451
s 1
usemtl Material.001
f 15/1/1 12/2/1 3/3/1 2/4/1
f 10/5/2 7/6/2 8/7/2 11/8/2
f 11/9/3 8/10/3 6/11/3 9/12/3
f 13/13/4 10/14/4 11/15/4 14/16/4
f 14/17/5 11/9/5 9/12/5 12/18/5
f 16/19/6 13/20/6 14/21/6 17/22/6
f 17/23/7 14/17/7 12/18/7 15/24/7
f 19/25/8 16/26/8 17/27/8 20/28/8
f 20/29/9 17/23/9 15/24/9 18/30/9
f 7/31/10 19/32/10 20/33/10 8/34/10
f 8/10/11 20/29/11 18/30/11 6/11/11
f 12/35/12 9/36/12 4/37/12 3/38/12
f 9/39/13 6/40/13 5/41/13 4/42/13
f 18/43/14 15/39/14 2/42/14 1/44/14
f 2/45/15 3/46/15 38/47/15 39/48/15
f 38/49/16 40/50/16 45/51/16 43/52/16
f 6/53/17 18/54/17 1/55/17 5/56/17
f 22/57/18 24/58/18 26/59/18 23/60/18
f 23/61/19 26/62/19 25/63/19 21/64/19
f 24/65/20 27/66/20 29/67/20 26/68/20
f 26/62/21 29/69/21 28/70/21 25/63/21
f 27/71/22 30/72/22 32/73/22 29/74/22
f 29/69/23 32/75/23 31/76/23 28/70/23
f 30/77/24 33/78/24 35/79/24 32/80/24
f 32/75/25 35/81/25 34/82/25 31/76/25
f 33/83/26 22/84/26 23/85/26 35/86/26
f 35/81/27 23/61/27 21/64/27 34/82/27
f 22/57/13 7/6/13 10/5/13 24/58/13
f 21/64/28 25/63/28 28/70/28 31/76/28 34/82/28
f 33/83/17 19/32/17 7/31/17 22/84/17
f 24/65/12 10/14/12 13/13/12 27/66/12
f 27/71/1 13/20/1 16/19/1 30/72/1
f 30/77/14 16/26/14 19/25/14 33/78/14
f 3/46/29 4/87/29 40/88/29 38/47/29
f 4/87/30 5/89/30 37/90/30 40/88/30
f 5/89/31 1/91/31 36/92/31 37/90/31
f 1/91/32 2/45/32 39/48/32 36/92/32
f 41/93/33 44/94/33 49/95/33 46/96/33
f 40/50/34 37/97/34 42/98/34 45/51/34
f 37/97/35 36/99/35 41/100/35 42/98/35
f 36/99/36 39/101/36 44/102/36 41/100/36
f 39/101/37 38/49/37 43/52/37 44/102/37
f 50/103/38 47/104/38 46/105/38 49/106/38 48/107/38
f 44/108/39 43/109/39 48/110/39 49/111/39
f 43/112/40 45/113/40 50/114/40 48/115/40
f 45/116/41 42/117/41 47/118/41 50/119/41
f 42/120/42 41/121/42 46/115/42 47/122/42
