# Blender 5.1.1
# www.blender.org
mtllib Cashier.mtl
o cash_registar
v -1.000000 -1.000000 -6.419924
v 1.000000 -1.000000 -6.419924
v -0.168618 -1.000000 2.629200
v -1.000000 -1.000000 1.797817
v -0.486774 -1.000000 2.565915
v -0.756494 -1.000000 2.385694
v -0.936715 -1.000000 2.115974
v 1.000000 -1.000000 1.797817
v 0.168618 -1.000000 2.629200
v 0.936715 -1.000000 2.115974
v 0.756494 -1.000000 2.385694
v 0.486774 -1.000000 2.565915
v -0.914571 1.000000 -6.334494
v -1.000000 0.914571 -6.419924
v 0.914571 1.000000 -6.334494
v 1.000000 0.914571 -6.419924
v -0.914571 1.000000 1.789403
v -1.000000 0.914571 1.797817
v -0.160204 1.000000 2.543770
v -0.168618 0.914571 2.629200
v -0.856242 1.000000 2.082641
v -0.936715 0.914571 2.115974
v -0.694903 1.000000 2.324102
v -0.756494 0.914571 2.385694
v -0.453441 1.000000 2.485442
v -0.486774 0.914571 2.565915
v 0.160204 1.000000 2.543770
v 0.168618 0.914571 2.629200
v 0.914571 1.000000 1.789403
v 1.000000 0.914571 1.797817
v 0.453441 1.000000 2.485442
v 0.486774 0.914571 2.565915
v 0.694903 1.000000 2.324102
v 0.756494 0.914571 2.385694
v 0.856242 1.000000 2.082641
v 0.936715 0.914571 2.115974
v -0.914571 2.842740 -6.334494
v 0.914571 2.842740 -6.334494
v -0.160204 2.842740 2.543770
v -0.453441 2.842740 2.485442
v -0.694903 2.842740 2.324102
v -0.856242 2.842740 2.082641
v -0.914571 2.842740 1.789403
v 0.453441 2.842740 2.485442
v 0.160204 2.842740 2.543770
v 0.694903 2.842740 2.324102
v 0.856242 2.842740 2.082641
v 0.914571 2.842740 1.789403
v -0.982199 3.232055 -6.863176
v 0.982199 3.232055 -6.863176
v -0.172050 3.232056 2.671594
v -0.486971 3.232056 2.608953
v -0.746288 3.232056 2.435683
v -0.919557 3.232056 2.176366
v -0.982199 3.232056 1.861445
v 0.486971 3.232056 2.608953
v 0.172050 3.232056 2.671594
v 0.746288 3.232056 2.435683
v 0.919557 3.232056 2.176366
v 0.982199 3.232056 1.861445
v -0.942114 2.899602 -6.549814
v -0.982199 3.160949 -6.863176
v -0.947026 3.000463 -6.588216
v -0.961837 3.097028 -6.704000
v 0.982199 3.160949 -6.863176
v 0.942114 2.899602 -6.549814
v 0.961837 3.097028 -6.704000
v 0.947026 3.000463 -6.588216
v -0.162137 2.865527 2.564632
v -0.172050 3.160950 2.671594
v -0.163352 2.970563 2.577740
v -0.167015 3.079718 2.617261
v -0.459200 2.866722 2.506657
v -0.472864 3.080325 2.556990
v -0.462603 2.971611 2.519193
v -0.746288 3.160950 2.435683
v -0.704720 2.869415 2.345420
v -0.725173 3.081693 2.389833
v -0.709814 2.973974 2.356482
v -0.919557 3.160950 2.176366
v -0.870699 2.874619 2.104042
v -0.894739 3.084337 2.139628
v -0.876686 2.978541 2.112905
v -0.982199 3.160950 1.861445
v -0.934681 2.884258 1.810826
v -0.958062 3.089233 1.835733
v -0.940504 2.986998 1.817029
v 0.459200 2.866722 2.506657
v 0.486971 3.160950 2.608953
v 0.462603 2.971611 2.519193
v 0.472864 3.080325 2.556990
v 0.172050 3.160950 2.671594
v 0.162137 2.865527 2.564632
v 0.167015 3.079718 2.617261
v 0.163352 2.970563 2.577740
v 0.704720 2.869415 2.345420
v 0.746288 3.160950 2.435683
v 0.709814 2.973974 2.356482
v 0.725173 3.081693 2.389833
v 0.870699 2.874619 2.104042
v 0.919557 3.160950 2.176366
v 0.876686 2.978541 2.112905
v 0.894739 3.084337 2.139628
v 0.934681 2.884258 1.810826
v 0.982199 3.160950 1.861445
v 0.940504 2.986998 1.817029
v 0.958062 3.089233 1.835733
v -0.959720 0.605761 0.189883
v -0.959720 3.186396 0.189883
v -0.959720 0.605761 -0.189883
v -0.959720 3.186396 -0.189883
v 0.959720 0.605761 0.189883
v 0.959720 3.186396 0.189883
v 0.959720 0.605761 -0.189883
v 0.959720 3.186396 -0.189883
v -0.959720 1.896078 0.099823
v -0.959720 1.896078 -0.099823
v 0.959720 1.896078 -0.099823
v 0.959720 1.896078 0.099823
v -0.959720 0.605761 -0.810117
v -0.959720 3.186396 -0.810117
v -0.959720 0.605761 -1.189883
v -0.959720 3.186396 -1.189883
v 0.959720 0.605761 -0.810117
v 0.959720 3.186396 -0.810117
v 0.959720 0.605761 -1.189883
v 0.959720 3.186396 -1.189883
v -0.959720 1.896078 -0.900177
v -0.959720 1.896078 -1.099823
v 0.959720 1.896078 -1.099823
v 0.959720 1.896078 -0.900177
v -0.959720 0.605761 -1.810117
v -0.959720 3.186396 -1.810117
v -0.959720 0.605761 -2.189883
v -0.959720 3.186396 -2.189883
v 0.959720 0.605761 -1.810117
v 0.959720 3.186396 -1.810117
v 0.959720 0.605761 -2.189883
v 0.959720 3.186396 -2.189883
v -0.959720 1.896078 -1.900177
v -0.959720 1.896078 -2.099823
v 0.959720 1.896078 -2.099823
v 0.959720 1.896078 -1.900177
v -0.959720 0.605761 -2.810117
v -0.959720 3.186396 -2.810117
v -0.959720 0.605761 -3.189883
v -0.959720 3.186396 -3.189883
v 0.959720 0.605761 -2.810117
v 0.959720 3.186396 -2.810117
v 0.959720 0.605761 -3.189883
v 0.959720 3.186396 -3.189883
v -0.959720 1.896078 -2.900177
v -0.959720 1.896078 -3.099823
v 0.959720 1.896078 -3.099823
v 0.959720 1.896078 -2.900177
v -0.959720 0.605761 -3.810117
v -0.959720 3.186396 -3.810117
v -0.959720 0.605761 -4.189883
v -0.959720 3.186396 -4.189884
v 0.959720 0.605761 -3.810117
v 0.959720 3.186396 -3.810117
v 0.959720 0.605761 -4.189883
v 0.959720 3.186396 -4.189884
v -0.959720 1.896078 -3.900177
v -0.959720 1.896078 -4.099823
v 0.959720 1.896078 -4.099823
v 0.959720 1.896078 -3.900177
v -0.959720 0.605761 -4.810117
v -0.959720 3.186395 -4.810117
v -0.959720 0.605761 -5.189883
v -0.959720 3.186395 -5.189884
v 0.959720 0.605761 -4.810117
v 0.959720 3.186395 -4.810117
v 0.959720 0.605761 -5.189883
v 0.959720 3.186395 -5.189884
v -0.959720 1.896078 -4.900177
v -0.959720 1.896078 -5.099823
v 0.959720 1.896078 -5.099823
v 0.959720 1.896078 -4.900177
v -0.959720 0.605761 -5.810117
v -0.959720 3.186395 -5.810117
v -0.959720 0.605761 -6.189883
v -0.959720 3.186395 -6.189884
v 0.959720 0.605761 -5.810117
v 0.959720 3.186395 -5.810117
v 0.959720 0.605761 -6.189883
v 0.959720 3.186395 -6.189884
v -0.959720 1.896078 -5.900177
v -0.959720 1.896078 -6.099823
v 0.959720 1.896078 -6.099823
v 0.959720 1.896078 -5.900177
v -0.959720 0.605761 1.189883
v -0.959720 3.186396 1.189883
v -0.959720 0.605761 0.810117
v -0.959720 3.186396 0.810117
v 0.959720 0.605761 1.189883
v 0.959720 3.186396 1.189883
v 0.959720 0.605761 0.810117
v 0.959720 3.186396 0.810117
v -0.959720 1.896078 1.099823
v -0.959720 1.896078 0.900177
v 0.959720 1.896078 0.900177
v 0.959720 1.896078 1.099823
v -0.189883 0.605761 0.660882
v -0.189883 3.186396 0.660882
v 0.189883 0.605761 0.660882
v 0.189883 3.186396 0.660882
v -0.189883 0.605761 2.580322
v -0.189883 3.186396 2.580322
v 0.189883 0.605761 2.580322
v 0.189883 3.186396 2.580322
v -0.099823 1.896078 0.660882
v 0.099823 1.896078 0.660882
v 0.099823 1.896078 2.580322
v -0.099823 1.896078 2.580322
v 0.326171 5.117985 1.765555
v 0.047629 5.117985 1.487013
v 0.186900 5.117985 1.728237
v 0.084947 5.117985 1.626284
v 0.047629 5.201220 1.487013
v 0.326171 5.201220 1.765555
v 0.084947 5.201220 1.626284
v 0.186900 5.201220 1.728237
v 0.047629 5.117985 0.044096
v 0.326171 5.117985 -0.234445
v 0.084947 5.117985 -0.095174
v 0.186900 5.117985 -0.197128
v 0.326171 5.201220 -0.234445
v 0.047629 5.201220 0.044096
v 0.186900 5.201220 -0.197128
v 0.084947 5.201220 -0.095174
v 0.713156 5.117985 1.487013
v 0.434614 5.117985 1.765555
v 0.675838 5.117985 1.626284
v 0.573885 5.117985 1.728237
v 0.434614 5.201220 1.765555
v 0.713156 5.201220 1.487013
v 0.573885 5.201220 1.728237
v 0.675838 5.201220 1.626284
v 0.434614 5.117985 -0.234445
v 0.713156 5.117985 0.044096
v 0.573885 5.117985 -0.197128
v 0.675838 5.117985 -0.095174
v 0.713156 5.201220 0.044096
v 0.434614 5.201220 -0.234445
v 0.675838 5.201220 -0.095174
v 0.573885 5.201220 -0.197128
v 0.380393 4.513113 1.371267
v 0.380393 5.184704 1.371267
v 0.502741 4.513113 1.460159
v 0.502741 5.184704 1.460159
v 0.456008 4.513113 1.603988
v 0.456008 5.184704 1.603988
v 0.304777 4.513113 1.603988
v 0.304777 5.184704 1.603988
v 0.258044 4.513113 1.460159
v 0.258044 5.184704 1.460159
v 0.380393 4.853083 1.397582
v 0.477714 4.853083 1.468290
v 0.440541 4.853083 1.582699
v 0.320245 4.853083 1.582699
v 0.283071 4.853083 1.468290
v 0.380393 4.513113 -0.099378
v 0.380393 5.184704 -0.099378
v 0.502741 4.513113 -0.010486
v 0.502741 5.184704 -0.010486
v 0.456008 4.513113 0.133343
v 0.456008 5.184704 0.133343
v 0.304777 4.513113 0.133343
v 0.304777 5.184704 0.133343
v 0.258044 4.513113 -0.010486
v 0.258044 5.184704 -0.010486
v 0.380393 4.853083 -0.073063
v 0.477714 4.853083 -0.002354
v 0.440541 4.853083 0.112054
v 0.320245 4.853083 0.112054
v 0.283071 4.853083 -0.002354
v 0.326171 3.823201 1.765555
v 0.047629 3.823201 1.487013
v 0.186900 3.823201 1.728237
v 0.084947 3.823201 1.626284
v 0.047629 3.906436 1.487013
v 0.326171 3.906436 1.765555
v 0.084947 3.906436 1.626284
v 0.186900 3.906436 1.728237
v 0.047629 3.823201 0.044096
v 0.326171 3.823201 -0.234445
v 0.084947 3.823201 -0.095174
v 0.186900 3.823201 -0.197128
v 0.326171 3.906436 -0.234445
v 0.047629 3.906436 0.044096
v 0.186900 3.906436 -0.197128
v 0.084947 3.906436 -0.095174
v 0.713156 3.823201 1.487013
v 0.434614 3.823201 1.765555
v 0.675838 3.823201 1.626284
v 0.573885 3.823201 1.728237
v 0.434614 3.906436 1.765555
v 0.713156 3.906436 1.487013
v 0.573885 3.906436 1.728237
v 0.675838 3.906436 1.626284
v 0.434614 3.823201 -0.234445
v 0.713156 3.823201 0.044096
v 0.573885 3.823201 -0.197128
v 0.675838 3.823201 -0.095174
v 0.713156 3.906436 0.044096
v 0.434614 3.906436 -0.234445
v 0.675838 3.906436 -0.095174
v 0.573885 3.906436 -0.197128
v 0.380393 3.218328 1.371267
v 0.380393 3.889920 1.371267
v 0.502741 3.218328 1.460159
v 0.502741 3.889920 1.460159
v 0.456008 3.218328 1.603988
v 0.456008 3.889920 1.603988
v 0.304777 3.218328 1.603988
v 0.304777 3.889920 1.603988
v 0.258044 3.218328 1.460159
v 0.258044 3.889920 1.460159
v 0.380393 3.558299 1.397582
v 0.477714 3.558299 1.468290
v 0.440541 3.558299 1.582699
v 0.320245 3.558299 1.582699
v 0.283071 3.558299 1.468290
v 0.380393 3.218328 -0.099378
v 0.380393 3.889920 -0.099378
v 0.502741 3.218328 -0.010486
v 0.502741 3.889920 -0.010486
v 0.456008 3.218328 0.133343
v 0.456008 3.889920 0.133343
v 0.304777 3.218328 0.133343
v 0.304777 3.889920 0.133343
v 0.258044 3.218328 -0.010486
v 0.258044 3.889920 -0.010486
v 0.380393 3.558299 -0.073063
v 0.477714 3.558299 -0.002354
v 0.440541 3.558299 0.112054
v 0.320245 3.558299 0.112054
v 0.283071 3.558299 -0.002354
v 0.326171 4.483349 1.765555
v 0.047629 4.483349 1.487013
v 0.186900 4.483349 1.728237
v 0.084947 4.483349 1.626284
v 0.047629 4.566584 1.487013
v 0.326171 4.566584 1.765555
v 0.084947 4.566584 1.626284
v 0.186900 4.566584 1.728237
v 0.047629 4.483349 0.044096
v 0.326171 4.483349 -0.234445
v 0.084947 4.483349 -0.095174
v 0.186900 4.483349 -0.197128
v 0.326171 4.566584 -0.234445
v 0.047629 4.566584 0.044096
v 0.186900 4.566584 -0.197128
v 0.084947 4.566584 -0.095174
v 0.713156 4.483349 1.487013
v 0.434614 4.483349 1.765555
v 0.675838 4.483349 1.626284
v 0.573885 4.483349 1.728237
v 0.434614 4.566584 1.765555
v 0.713156 4.566584 1.487013
v 0.573885 4.566584 1.728237
v 0.675838 4.566584 1.626284
v 0.434614 4.483349 -0.234445
v 0.713156 4.483349 0.044096
v 0.573885 4.483349 -0.197128
v 0.675838 4.483349 -0.095174
v 0.713156 4.566584 0.044096
v 0.434614 4.566584 -0.234445
v 0.675838 4.566584 -0.095174
v 0.573885 4.566584 -0.197128
v 0.380393 3.878476 1.371267
v 0.380393 4.550068 1.371267
v 0.502741 3.878476 1.460159
v 0.502741 4.550068 1.460159
v 0.456008 3.878476 1.603988
v 0.456008 4.550068 1.603988
v 0.304777 3.878476 1.603988
v 0.304777 4.550068 1.603988
v 0.258044 3.878476 1.460159
v 0.258044 4.550068 1.460159
v 0.380393 4.218447 1.397582
v 0.477714 4.218447 1.468290
v 0.440541 4.218447 1.582699
v 0.320245 4.218447 1.582699
v 0.283071 4.218447 1.468290
v 0.380393 3.878476 -0.099378
v 0.380393 4.550068 -0.099378
v 0.502741 3.878476 -0.010486
v 0.502741 4.550068 -0.010486
v 0.456008 3.878476 0.133343
v 0.456008 4.550068 0.133343
v 0.304777 3.878476 0.133343
v 0.304777 4.550068 0.133343
v 0.258044 3.878476 -0.010486
v 0.258044 4.550068 -0.010486
v 0.380393 4.218447 -0.073063
v 0.477714 4.218447 -0.002354
v 0.440541 4.218447 0.112054
v 0.320245 4.218447 0.112054
v 0.283071 4.218447 -0.002354
vn -0.0000 -1.0000 -0.0000
vn -0.0000 0.7071 -0.7071
vn -0.1379 0.7071 0.6935
vn -0.3928 0.7071 0.5879
vn -0.5879 0.7071 0.3928
vn -0.6935 0.7071 0.1379
vn 0.1379 0.7071 0.6935
vn 0.3928 0.7071 0.5879
vn 0.5879 0.7071 0.3928
vn 0.6935 0.7071 0.1379
vn -0.7071 0.7071 -0.0000
vn -0.0000 0.7071 0.7071
vn 0.7071 0.7071 -0.0000
vn -1.0000 -0.0000 -0.0000
vn -0.0000 -0.0000 -1.0000
vn -0.5556 -0.0000 0.8315
vn 1.0000 -0.0000 -0.0000
vn -0.9808 -0.0000 0.1951
vn -0.0000 -0.0000 1.0000
vn -0.1951 -0.0000 0.9808
vn -0.8315 -0.0000 0.5556
vn 0.1951 -0.0000 0.9808
vn 0.9808 -0.0000 0.1951
vn 0.5556 -0.0000 0.8315
vn 0.8315 -0.0000 0.5556
vn -0.0000 1.0000 -0.0000
vn -0.0000 -0.9280 -0.3727
vn -0.0000 -0.7680 -0.6405
vn -0.0000 -0.3558 -0.9346
vn -0.1822 -0.3392 0.9229
vn -0.1908 -0.1232 0.9739
vn -0.5235 -0.3214 0.7891
vn -0.5465 -0.1156 0.8294
vn -0.7313 -0.4749 0.4896
vn -0.7962 -0.2761 0.5384
vn -0.8215 -0.0974 0.5619
vn -0.9084 -0.3764 0.1819
vn -0.9579 -0.2073 0.1984
vn -0.9753 -0.0710 0.2094
vn 0.1621 -0.5550 0.8159
vn 0.1822 -0.3392 0.9229
vn 0.1908 -0.1232 0.9739
vn 0.4694 -0.5337 0.7034
vn 0.5235 -0.3214 0.7891
vn 0.5465 -0.1156 0.8294
vn 0.7313 -0.4749 0.4896
vn 0.7962 -0.2761 0.5384
vn 0.8215 -0.0974 0.5619
vn 0.9084 -0.3764 0.1819
vn 0.9579 -0.2073 0.1984
vn 0.9753 -0.0710 0.2094
vn -0.9502 -0.3117 0.0001
vn -0.9870 -0.1605 0.0004
vn -0.9986 -0.0525 0.0007
vn -0.0000 -0.5560 0.8312
vn -0.0000 -0.3404 0.9403
vn -0.0000 -0.1238 0.9923
vn 0.9502 -0.3117 0.0001
vn 0.9870 -0.1605 0.0004
vn 0.9986 -0.0525 0.0007
vn -0.0000 -0.9669 -0.2553
vn -0.9000 -0.4359 -0.0000
vn 0.9000 -0.4359 -0.0000
vn -0.1440 -0.6748 0.7238
vn -0.0000 -0.6753 0.7376
vn -0.4194 -0.6559 0.6276
vn -0.6652 -0.6000 0.4445
vn -0.8500 -0.4990 0.1691
vn 0.1440 -0.6748 0.7238
vn 0.4194 -0.6559 0.6276
vn 0.6652 -0.6000 0.4445
vn 0.8500 -0.4990 0.1691
vn -0.0000 -0.0696 -0.9976
vn -0.0000 -0.0696 0.9976
vn -0.0000 0.0696 0.9976
vn -0.0000 0.0696 -0.9976
vn 0.9976 -0.0696 -0.0000
vn -0.9976 -0.0696 -0.0000
vn -0.9976 0.0696 -0.0000
vn 0.9976 0.0696 -0.0000
vn -0.2588 -0.0000 0.9659
vn -0.7071 -0.0000 0.7071
vn -0.9659 -0.0000 0.2588
vn -0.2588 -0.0000 -0.9659
vn -0.7071 -0.0000 -0.7071
vn -0.9659 -0.0000 -0.2588
vn 0.9659 -0.0000 -0.2588
vn 0.7071 -0.0000 -0.7071
vn 0.2588 -0.0000 -0.9659
vn 0.2588 -0.0000 0.9659
vn 0.7071 -0.0000 0.7071
vn 0.9659 -0.0000 0.2588
vn 0.5866 -0.0641 -0.8074
vn 0.9491 -0.0641 0.3084
vn -0.0000 -0.0641 0.9979
vn -0.9491 -0.0641 0.3084
vn -0.5866 -0.0641 -0.8074
vn -0.5866 0.0625 -0.8074
vn -0.9492 0.0625 0.3084
vn -0.0000 0.0625 0.9980
vn 0.9492 0.0625 0.3084
vn 0.5866 0.0625 -0.8074
vt 0.461564 0.494609
vt 0.352248 0.494609
vt 0.352248 0.045442
vt 0.355707 0.028052
vt 0.365558 0.013310
vt 0.380300 0.003459
vt 0.397690 0.000000
vt 0.416123 0.000000
vt 0.433512 0.003459
vt 0.448255 0.013310
vt 0.458105 0.028052
vt 0.461564 0.045442
vt 0.466297 0.489913
vt 0.566265 0.489919
vt 0.570871 0.494608
vt 0.461564 0.494602
vt 0.507525 0.004650
vt 0.491499 0.007837
vt 0.489614 0.003458
vt 0.507002 0.000000
vt 0.478302 0.016654
vt 0.474873 0.013308
vt 0.469485 0.029852
vt 0.465023 0.028049
vt 0.466297 0.045879
vt 0.461564 0.045439
vt 0.541063 0.007840
vt 0.525037 0.004651
vt 0.525433 0.000001
vt 0.542821 0.003461
vt 0.554260 0.016659
vt 0.557562 0.013312
vt 0.563077 0.029857
vt 0.567412 0.028055
vt 0.566265 0.045885
vt 0.570871 0.045445
vt 0.571436 0.032902
vt 0.675974 0.032784
vt 0.675409 0.481337
vt 0.570871 0.481454
vt 0.780572 0.886000
vt 0.675927 0.885998
vt 0.675927 0.776682
vt 0.780572 0.776684
vt 0.859889 0.898983
vt 0.846126 0.898850
vt 0.846229 0.798141
vt 0.859992 0.798274
vt 0.780891 0.481153
vt 0.676274 0.481045
vt 0.675974 0.032988
vt 0.780591 0.033095
vt 0.571300 0.015355
vt 0.675839 0.015237
vt 0.031161 0.894854
vt 0.031161 0.790219
vt 0.049551 0.790200
vt 0.049551 0.894835
vt 0.067135 0.790235
vt 0.067135 0.894870
vt 0.570871 0.000118
vt 0.675409 0.000000
vt 0.082509 0.790367
vt 0.082509 0.895003
vt 0.014044 0.894924
vt 0.014044 0.790289
vt 0.676046 0.015398
vt 0.780663 0.015506
vt 0.000000 0.895087
vt 0.000000 0.790451
vt 0.676274 -0.000000
vt 0.780891 0.000108
vt 0.244887 0.006019
vt 0.244683 0.019803
vt 0.143991 0.019694
vt 0.144196 0.005910
vt 0.829920 0.898802
vt 0.812447 0.898802
vt 0.812550 0.798093
vt 0.830023 0.798093
vt 0.796671 0.898850
vt 0.784098 0.898983
vt 0.784201 0.798274
vt 0.796773 0.798141
vt 0.000000 0.479337
vt 0.000513 0.035907
vt 0.101129 0.035783
vt 0.100617 0.479214
vt 0.000386 0.019734
vt 0.101003 0.019610
vt 0.244615 0.036016
vt 0.143924 0.035906
vt 0.000000 0.006093
vt 0.100616 0.005970
vt 0.244887 0.478957
vt 0.144196 0.478847
vt 0.561541 0.878619
vt 0.461564 0.878620
vt 0.461564 0.777901
vt 0.561541 0.777899
vt 0.352248 0.521152
vt 0.244887 0.521146
vt 0.244887 0.044278
vt 0.248311 0.027066
vt 0.257781 0.012893
vt 0.271953 0.003423
vt 0.289165 0.000000
vt 0.307971 0.000001
vt 0.325182 0.003426
vt 0.339355 0.012897
vt 0.348824 0.027071
vt 0.352248 0.044285
vt 0.242707 0.507914
vt 0.242707 0.615284
vt 0.234007 0.614171
vt 0.234007 0.509026
vt 0.227679 0.613362
vt 0.227679 0.509836
vt 0.561541 0.881424
vt 0.567064 0.778160
vt 0.567064 0.881148
vt 0.830136 0.785081
vt 0.847037 0.785097
vt 0.846611 0.791070
vt 0.830076 0.791079
vt 0.846466 0.796813
vt 0.830052 0.796830
vt 0.861413 0.785160
vt 0.860693 0.791075
vt 0.860450 0.796799
vt 0.118126 0.000005
vt 0.118541 0.014654
vt 0.114293 0.016594
vt 0.113743 0.002452
vt 0.108470 0.018008
vt 0.107821 0.004236
vt 0.102780 0.018481
vt 0.102099 0.004832
vt 0.118677 0.032023
vt 0.114699 0.033362
vt 0.109072 0.034340
vt 0.103447 0.034668
vt 0.794507 0.780648
vt 0.811450 0.780597
vt 0.811920 0.785081
vt 0.795464 0.785097
vt 0.812260 0.791079
vt 0.796156 0.791070
vt 0.812368 0.796830
vt 0.796382 0.796813
vt 0.781005 0.780791
vt 0.782321 0.785160
vt 0.783275 0.791075
vt 0.783588 0.796799
vt 0.126517 0.014808
vt 0.126737 0.000004
vt 0.131097 0.002428
vt 0.130737 0.016720
vt 0.137004 0.004194
vt 0.136543 0.018114
vt 0.142725 0.004783
vt 0.142229 0.018581
vt 0.126444 0.032219
vt 0.130396 0.033533
vt 0.136006 0.034491
vt 0.141628 0.034813
vt 0.118126 0.508243
vt 0.114595 0.499500
vt 0.109293 0.493145
vt 0.103776 0.491041
vt 0.830215 0.780597
vt 0.126737 0.507914
vt 0.130251 0.499160
vt 0.135543 0.492796
vt 0.141060 0.490690
vt 0.570529 0.636862
vt 0.570529 0.744232
vt 0.566642 0.744232
vt 0.566642 0.636862
vt 0.105195 0.609726
vt 0.105195 0.509748
vt 0.116964 0.508243
vt 0.116964 0.611231
vt 0.122559 0.032018
vt 0.122009 0.508238
vt 0.122851 0.507909
vt 0.122559 0.032215
vt 0.811454 0.776711
vt 0.830219 0.776711
vt 0.122009 0.000000
vt 0.122423 0.014649
vt 0.794511 0.776762
vt 0.781009 0.776905
vt 0.243974 0.601822
vt 0.243974 0.617695
vt 0.242707 0.617494
vt 0.242835 0.601440
vt 0.122631 0.014804
vt 0.122851 -0.000000
vt 0.911609 0.674389
vt 0.906694 0.603924
vt 0.927423 0.603973
vt 0.922507 0.674415
vt 0.780910 0.352652
vt 0.780893 0.282102
vt 0.885806 0.282102
vt 0.885823 0.352652
vt 0.953062 0.674457
vt 0.948151 0.603959
vt 0.968858 0.603924
vt 0.963947 0.674438
vt 0.676331 0.706238
vt 0.676070 0.635645
vt 0.780744 0.635645
vt 0.781005 0.706238
vt 0.983439 0.492032
vt 0.983439 0.596946
vt 0.962681 0.596946
vt 0.962681 0.492032
vt 0.738199 0.886000
vt 0.738199 0.990903
vt 0.717441 0.990904
vt 0.717441 0.886001
vt 0.780601 0.776682
vt 0.948151 0.744971
vt 0.968858 0.744936
vt 0.780891 0.423154
vt 0.885803 0.423154
vt 0.906694 0.744831
vt 0.927423 0.744880
vt 0.443250 0.848571
vt 0.438335 0.778106
vt 0.459064 0.778155
vt 0.454148 0.848597
vt 0.000019 0.719699
vt 0.000003 0.649149
vt 0.104915 0.649149
vt 0.104932 0.719699
vt 0.955997 0.847243
vt 0.951086 0.776746
vt 0.971792 0.776711
vt 0.966882 0.847225
vt 0.461968 0.707455
vt 0.461708 0.636862
vt 0.566382 0.636862
vt 0.566642 0.707455
vt 0.941924 0.596946
vt 0.941924 0.492032
vt 0.758956 0.886000
vt 0.758956 0.990903
vt 0.738199 0.990904
vt 0.738199 0.886001
vt 0.461564 0.777899
vt 0.566238 0.777899
vt 0.951086 0.917758
vt 0.971792 0.917722
vt 0.000000 0.790200
vt 0.104912 0.790200
vt 0.438335 0.919012
vt 0.459064 0.919062
vt 0.927111 0.256411
vt 0.922196 0.185946
vt 0.942925 0.185995
vt 0.938009 0.256437
vt 0.781024 0.565158
vt 0.781007 0.494608
vt 0.885920 0.494608
vt 0.885936 0.565158
vt 0.973768 0.674457
vt 0.968857 0.603959
vt 0.989563 0.603924
vt 0.984653 0.674438
vt 0.122963 0.719518
vt 0.122703 0.648925
vt 0.227377 0.648925
vt 0.227637 0.719518
vt 0.516254 0.878620
vt 0.516254 0.983534
vt 0.495497 0.983534
vt 0.495497 0.878620
vt 0.779713 0.886000
vt 0.779713 0.990903
vt 0.758956 0.990904
vt 0.758956 0.886001
vt 0.122559 0.789962
vt 0.227233 0.789962
vt 0.968857 0.744971
vt 0.989563 0.744936
vt 0.781005 0.635659
vt 0.885917 0.635659
vt 0.922196 0.326853
vt 0.942925 0.326902
vt 0.932338 0.674389
vt 0.927423 0.603924
vt 0.948151 0.603973
vt 0.943236 0.674415
vt 0.781024 0.706209
vt 0.781007 0.635659
vt 0.885920 0.635659
vt 0.885936 0.706209
vt 0.968545 0.256479
vt 0.963635 0.185981
vt 0.984341 0.185946
vt 0.979430 0.256460
vt 0.352652 0.707661
vt 0.352392 0.637069
vt 0.457065 0.637069
vt 0.457326 0.707661
vt 0.557769 0.878620
vt 0.557769 0.983534
vt 0.537012 0.983534
vt 0.537012 0.878620
vt 0.373005 0.892385
vt 0.373005 0.997289
vt 0.352248 0.997290
vt 0.352248 0.892387
vt 0.352248 0.778106
vt 0.456922 0.778106
vt 0.963635 0.326993
vt 0.984341 0.326958
vt 0.781005 0.776711
vt 0.885917 0.776711
vt 0.927423 0.744831
vt 0.948151 0.744880
vt 0.213554 0.860427
vt 0.208638 0.789962
vt 0.229367 0.790012
vt 0.224451 0.860453
vt 0.244907 0.732739
vt 0.244890 0.662189
vt 0.349802 0.662189
vt 0.349819 0.732739
vt 0.963478 0.070533
vt 0.958567 0.000035
vt 0.979273 0.000000
vt 0.974363 0.070514
vt 0.245291 0.591745
vt 0.245031 0.521152
vt 0.349705 0.521152
vt 0.349965 0.591745
vt 0.265645 0.879785
vt 0.265645 0.984698
vt 0.244887 0.984698
vt 0.244887 0.879785
vt 0.435277 0.892385
vt 0.435277 0.997289
vt 0.414520 0.997290
vt 0.414520 0.892387
vt 0.244887 0.662189
vt 0.349561 0.662189
vt 0.958567 0.141047
vt 0.979273 0.141012
vt 0.244887 0.803241
vt 0.349800 0.803241
vt 0.208638 0.930869
vt 0.229367 0.930918
vt 0.935273 0.847176
vt 0.930357 0.776711
vt 0.951086 0.776760
vt 0.946170 0.847202
vt 0.780910 0.070550
vt 0.780893 0.000000
vt 0.885806 -0.000000
vt 0.885823 0.070550
vt 0.947835 0.397537
vt 0.942925 0.327039
vt 0.963631 0.327004
vt 0.958720 0.397518
vt 0.571253 0.565201
vt 0.570992 0.494608
vt 0.675666 0.494608
vt 0.675927 0.565201
vt 0.286402 0.879785
vt 0.286402 0.984698
vt 0.393762 0.892385
vt 0.393762 0.997289
vt 0.373005 0.997290
vt 0.373005 0.892387
vt 0.570849 0.635645
vt 0.675523 0.635645
vt 0.942925 0.468051
vt 0.963631 0.468016
vt 0.780891 0.141051
vt 0.885803 0.141051
vt 0.930357 0.917617
vt 0.951086 0.917667
vt 0.942754 0.070465
vt 0.937838 0.000000
vt 0.958567 0.000049
vt 0.953651 0.070491
vt 0.780910 0.211601
vt 0.780893 0.141051
vt 0.885806 0.141051
vt 0.885823 0.211601
vt 0.976703 0.847243
vt 0.971792 0.776746
vt 0.992498 0.776711
vt 0.987588 0.847225
vt 0.676331 0.565201
vt 0.676070 0.494608
vt 0.780744 0.494608
vt 0.781005 0.565201
vt 0.307159 0.879785
vt 0.307159 0.984698
vt 0.717441 0.886000
vt 0.717441 0.990903
vt 0.696684 0.990904
vt 0.696684 0.886001
vt 0.675927 0.635645
vt 0.780601 0.635645
vt 0.971792 0.917758
vt 0.992498 0.917722
vt 0.780891 0.282102
vt 0.885803 0.282102
vt 0.937838 0.140907
vt 0.958567 0.140956
vt 0.927112 0.397367
vt 0.922196 0.326902
vt 0.942925 0.326952
vt 0.938009 0.397393
vt 0.570868 0.847232
vt 0.570851 0.776682
vt 0.675764 0.776682
vt 0.675781 0.847232
vt 0.968541 0.397537
vt 0.963631 0.327039
vt 0.984337 0.327004
vt 0.979427 0.397518
vt 0.571253 0.706238
vt 0.570992 0.635645
vt 0.675666 0.635645
vt 0.675927 0.706238
vt 0.414520 0.892385
vt 0.414520 0.997289
vt 0.393762 0.997290
vt 0.393762 0.892386
vt 0.570849 0.776682
vt 0.675523 0.776682
vt 0.963631 0.468051
vt 0.984337 0.468016
vt 0.570849 0.917733
vt 0.675761 0.917733
vt 0.922196 0.467809
vt 0.942925 0.467858
vt 0.890859 0.674450
vt 0.885936 0.603924
vt 0.901771 0.674450
vt 0.123025 0.578538
vt 0.122799 0.507914
vt 0.227453 0.507914
vt 0.227679 0.578538
vt 0.947836 0.256480
vt 0.942925 0.185967
vt 0.963635 0.185946
vt 0.958723 0.256469
vt -0.000000 0.578920
vt 0.000089 0.508243
vt 0.104859 0.508243
vt 0.104770 0.578920
vt 0.675927 0.990913
vt 0.675927 0.886000
vt 0.696684 0.886000
vt 0.696684 0.990913
vt 0.020755 0.895088
vt 0.020755 1.000000
vt 0.000000 0.999999
vt 0.000425 0.649149
vt 0.105195 0.649149
vt 0.942925 0.327004
vt 0.963635 0.326983
vt 0.122559 0.648925
vt 0.227213 0.648925
vt 0.885936 0.744976
vt 0.906694 0.744975
vt 0.475432 0.962234
vt 0.479981 0.962224
vt 0.479974 0.969957
vt 0.475425 0.969966
vt 0.479909 0.975893
vt 0.475360 0.975902
vt 0.240222 0.890768
vt 0.244766 0.890757
vt 0.244859 0.898465
vt 0.240315 0.898476
vt 0.194699 0.967705
vt 0.199248 0.967705
vt 0.199258 0.975310
vt 0.194709 0.975310
vt 0.199286 0.980862
vt 0.194736 0.980862
vt 0.244767 0.984720
vt 0.240222 0.984731
vt 0.240315 0.977236
vt 0.244859 0.977225
vt 0.979379 0.092359
vt 0.983928 0.092361
vt 0.983987 0.099811
vt 0.979439 0.099810
vt 0.194736 0.948565
vt 0.199286 0.948565
vt 0.199258 0.954158
vt 0.194709 0.954158
vt 0.199248 0.961778
vt 0.194699 0.961778
vt 0.479963 0.956310
vt 0.475414 0.956320
vt 0.475360 0.948863
vt 0.479909 0.948853
vt 0.979439 0.000000
vt 0.983987 0.000002
vt 0.983860 0.005952
vt 0.979312 0.005950
vt 0.983821 0.013689
vt 0.979273 0.013687
vt 0.118885 0.884292
vt 0.116845 0.891904
vt 0.111273 0.897477
vt 0.103661 0.899517
vt 0.097733 0.899517
vt 0.090121 0.897477
vt 0.084548 0.891904
vt 0.082509 0.884292
vt 0.082509 0.805425
vt 0.084548 0.797813
vt 0.090121 0.792240
vt 0.097733 0.790200
vt 0.103661 0.790200
vt 0.111273 0.792240
vt 0.116845 0.797813
vt 0.118885 0.805425
vt 0.922196 0.389354
vt 0.920156 0.396966
vt 0.914584 0.402538
vt 0.906973 0.404577
vt 0.901046 0.404577
vt 0.893434 0.402537
vt 0.887862 0.396964
vt 0.885823 0.389352
vt 0.885823 0.310485
vt 0.887862 0.302873
vt 0.893434 0.297301
vt 0.901046 0.295262
vt 0.906973 0.295262
vt 0.914584 0.297302
vt 0.920156 0.302875
vt 0.922196 0.310487
vt 0.668653 0.935866
vt 0.668648 0.917733
vt 0.675353 0.917757
vt 0.673986 0.935885
vt 0.781544 0.961202
vt 0.781005 0.943050
vt 0.789026 0.943098
vt 0.787925 0.961241
vt 0.452631 0.937211
vt 0.451709 0.919070
vt 0.459956 0.919062
vt 0.459191 0.937204
vt 0.907454 0.476073
vt 0.915315 0.473518
vt 0.920173 0.480206
vt 0.915315 0.486893
vt 0.907454 0.484339
vt 0.084023 0.961840
vt 0.082905 0.943692
vt 0.090890 0.943595
vt 0.090374 0.961763
vt 0.663348 0.935885
vt 0.661978 0.917757
vt 0.683836 0.494528
vt 0.675974 0.491974
vt 0.675974 0.483708
vt 0.683836 0.481153
vt 0.688695 0.487841
vt 0.661978 0.954465
vt 0.668648 0.954441
vt 0.082905 0.980362
vt 0.090890 0.980265
vt 0.451709 0.955774
vt 0.459956 0.955766
vt 0.781005 0.979747
vt 0.789026 0.979795
vt 0.675353 0.954465
vt 0.445009 0.937194
vt 0.445004 0.919062
vt 0.451709 0.919086
vt 0.450343 0.937213
vt 0.961582 0.165615
vt 0.961042 0.147462
vt 0.969064 0.147510
vt 0.967962 0.165653
vt 0.952008 0.935906
vt 0.951086 0.917766
vt 0.959333 0.917758
vt 0.958568 0.935900
vt 0.765015 0.483708
vt 0.765015 0.491973
vt 0.757154 0.494527
vt 0.752295 0.487840
vt 0.757154 0.481153
vt 0.798165 0.961295
vt 0.797048 0.943147
vt 0.805032 0.943050
vt 0.804517 0.961218
vt 0.439704 0.937214
vt 0.438335 0.919086
vt 0.726855 0.487841
vt 0.721996 0.494528
vt 0.714135 0.491974
vt 0.714135 0.483708
vt 0.721996 0.481153
vt 0.438335 0.955793
vt 0.445004 0.955769
vt 0.797048 0.979817
vt 0.805032 0.979720
vt 0.951086 0.954470
vt 0.959333 0.954461
vt 0.961042 0.184159
vt 0.969064 0.184207
vt 0.451709 0.955793
vt 0.480054 0.962234
vt 0.484602 0.962224
vt 0.484596 0.969957
vt 0.480047 0.969966
vt 0.484530 0.975893
vt 0.479981 0.975902
vt 0.983987 0.000011
vt 0.988532 0.000000
vt 0.988625 0.007708
vt 0.984080 0.007719
vt 0.461564 0.967993
vt 0.466114 0.967993
vt 0.466124 0.975598
vt 0.461575 0.975598
vt 0.466152 0.981150
vt 0.461602 0.981150
vt 0.988532 0.093963
vt 0.983987 0.093974
vt 0.984080 0.086479
vt 0.988625 0.086468
vt 0.117070 0.600602
vt 0.121618 0.600604
vt 0.121678 0.608054
vt 0.117129 0.608052
vt 0.461602 0.948853
vt 0.466152 0.948853
vt 0.466124 0.954446
vt 0.461575 0.954446
vt 0.466114 0.962066
vt 0.461564 0.962066
vt 0.484584 0.956310
vt 0.480035 0.956320
vt 0.479981 0.948863
vt 0.484530 0.948853
vt 0.117129 0.508243
vt 0.121678 0.508244
vt 0.121551 0.514194
vt 0.117003 0.514193
vt 0.121512 0.521931
vt 0.116964 0.521930
vt 0.351288 0.897332
vt 0.349249 0.904945
vt 0.343676 0.910517
vt 0.336064 0.912557
vt 0.330136 0.912557
vt 0.322524 0.910517
vt 0.316952 0.904945
vt 0.314912 0.897332
vt 0.314912 0.818465
vt 0.316952 0.810853
vt 0.322524 0.805280
vt 0.330136 0.803241
vt 0.336064 0.803241
vt 0.343676 0.805280
vt 0.349249 0.810853
vt 0.351288 0.818465
vt 0.922196 0.280038
vt 0.920156 0.287650
vt 0.914584 0.293222
vt 0.901046 0.295261
vt 0.893434 0.293221
vt 0.887862 0.287648
vt 0.885823 0.280036
vt 0.885823 0.201169
vt 0.887862 0.193557
vt 0.893434 0.187985
vt 0.901046 0.185946
vt 0.906973 0.185946
vt 0.914584 0.187986
vt 0.920156 0.193559
vt 0.922196 0.201172
vt 0.628529 0.935866
vt 0.628524 0.917733
vt 0.635229 0.917757
vt 0.633863 0.935885
vt 0.969603 0.165615
vt 0.969063 0.147462
vt 0.977085 0.147510
vt 0.975984 0.165653
vt 0.953717 0.165611
vt 0.952795 0.147470
vt 0.960277 0.165604
vt 0.232537 0.768963
vt 0.240398 0.771516
vt 0.240398 0.779782
vt 0.232537 0.782337
vt 0.227679 0.775650
vt 0.814134 0.961295
vt 0.813016 0.943147
vt 0.821001 0.943050
vt 0.820485 0.961218
vt 0.623224 0.935885
vt 0.621854 0.917757
vt 0.696556 0.494528
vt 0.688695 0.491974
vt 0.688695 0.483708
vt 0.696556 0.481153
vt 0.701415 0.487841
vt 0.621854 0.954465
vt 0.628524 0.954441
vt 0.813016 0.979817
vt 0.821001 0.979720
vt 0.952795 0.184174
vt 0.961042 0.184166
vt 0.969063 0.184159
vt 0.977085 0.184207
vt 0.635229 0.954465
vt 0.615154 0.935866
vt 0.615149 0.917733
vt 0.620488 0.935885
vt 0.789566 0.961202
vt 0.789026 0.943050
vt 0.797048 0.943098
vt 0.795946 0.961241
vt 0.960255 0.935906
vt 0.959333 0.917766
vt 0.967581 0.917758
vt 0.966816 0.935900
vt 0.772876 0.481153
vt 0.777734 0.487841
vt 0.772876 0.494528
vt 0.765015 0.491974
vt 0.076039 0.961840
vt 0.074921 0.943692
vt 0.082905 0.943595
vt 0.082390 0.961763
vt 0.609849 0.935885
vt 0.608480 0.917757
vt 0.739575 0.487841
vt 0.734716 0.494528
vt 0.726855 0.491974
vt 0.726855 0.483708
vt 0.734716 0.481153
vt 0.608480 0.954465
vt 0.615149 0.954441
vt 0.074921 0.980362
vt 0.082905 0.980265
vt 0.959333 0.954470
vt 0.967581 0.954461
vt 0.789026 0.979747
vt 0.797048 0.979795
vt 0.470811 0.962234
vt 0.475360 0.962224
vt 0.475353 0.969957
vt 0.470804 0.969966
vt 0.475288 0.975893
vt 0.470739 0.975902
vt 0.983439 0.492043
vt 0.987983 0.492032
vt 0.988076 0.499741
vt 0.983532 0.499752
vt 0.466152 0.967993
vt 0.470701 0.967993
vt 0.470711 0.975598
vt 0.466162 0.975598
vt 0.470739 0.981150
vt 0.466189 0.981150
vt 0.987983 0.585996
vt 0.983439 0.586006
vt 0.983532 0.578511
vt 0.988076 0.578500
vt 0.307266 0.972145
vt 0.311814 0.972146
vt 0.311873 0.979596
vt 0.307325 0.979595
vt 0.466189 0.948853
vt 0.470739 0.948853
vt 0.470711 0.954446
vt 0.466162 0.954446
vt 0.470701 0.962066
vt 0.466152 0.962066
vt 0.475341 0.956310
vt 0.470793 0.956320
vt 0.470739 0.948863
vt 0.475288 0.948853
vt 0.307325 0.879785
vt 0.311873 0.879787
vt 0.311747 0.885737
vt 0.307198 0.885735
vt 0.311708 0.893474
vt 0.307159 0.893472
vt 0.922199 0.170721
vt 0.920159 0.178334
vt 0.914587 0.183906
vt 0.906975 0.185946
vt 0.901047 0.185946
vt 0.893435 0.183906
vt 0.887862 0.178334
vt 0.885823 0.170721
vt 0.885823 0.091854
vt 0.887862 0.084242
vt 0.893435 0.078669
vt 0.901047 0.076629
vt 0.906975 0.076629
vt 0.914587 0.078669
vt 0.920159 0.084242
vt 0.922199 0.091854
vt 0.922309 0.588700
vt 0.920270 0.596313
vt 0.914698 0.601885
vt 0.907086 0.603924
vt 0.901160 0.603924
vt 0.893548 0.601884
vt 0.887976 0.596311
vt 0.885936 0.588698
vt 0.885936 0.509832
vt 0.887976 0.502220
vt 0.893548 0.496647
vt 0.901160 0.494608
vt 0.907086 0.494609
vt 0.914698 0.496649
vt 0.920270 0.502222
vt 0.922309 0.509834
vt 0.641904 0.935866
vt 0.641898 0.917733
vt 0.648603 0.917757
vt 0.647237 0.935885
vt 0.229906 0.959375
vt 0.229367 0.941222
vt 0.237388 0.941270
vt 0.236287 0.959413
vt 0.209560 0.949067
vt 0.208638 0.930927
vt 0.216885 0.930918
vt 0.216120 0.949060
vt 0.893684 0.404577
vt 0.898543 0.411264
vt 0.893684 0.417951
vt 0.885823 0.415397
vt 0.885823 0.407132
vt 0.092008 0.961840
vt 0.090890 0.943692
vt 0.098874 0.943595
vt 0.098359 0.961763
vt 0.636598 0.935885
vt 0.709276 0.494528
vt 0.701415 0.491974
vt 0.701415 0.483708
vt 0.709276 0.481153
vt 0.714135 0.487841
vt 0.641898 0.954441
vt 0.090890 0.980362
vt 0.098874 0.980265
vt 0.208638 0.967631
vt 0.216885 0.967622
vt 0.229367 0.977919
vt 0.237388 0.977967
vt 0.648603 0.954465
vt 0.655278 0.935866
vt 0.655273 0.917733
vt 0.660612 0.935885
vt 0.968120 0.935910
vt 0.975602 0.917806
vt 0.974501 0.935949
vt 0.217807 0.949067
vt 0.216885 0.930927
vt 0.225132 0.930918
vt 0.224367 0.949060
vt 0.911262 0.411265
vt 0.906404 0.417952
vt 0.898543 0.415397
vt 0.898543 0.407131
vt 0.906404 0.404577
vt 0.806150 0.961295
vt 0.805032 0.943147
vt 0.813016 0.943050
vt 0.812501 0.961218
vt 0.649973 0.935885
vt 0.752295 0.487841
vt 0.747436 0.494528
vt 0.739575 0.491974
vt 0.739575 0.483708
vt 0.747436 0.481153
vt 0.655273 0.954441
vt 0.805032 0.979817
vt 0.813016 0.979720
vt 0.216885 0.967631
vt 0.225132 0.967622
vt 0.967581 0.954455
vt 0.975602 0.954503
s 1
usemtl Material.002
f 1/1/1 2/2/1 8/3/1 10/4/1 11/5/1 12/6/1 9/7/1 3/8/1 5/9/1 6/10/1 7/11/1 4/12/1
f 13/13/2 15/14/2 16/15/2 14/16/2
f 19/17/3 25/18/3 26/19/3 20/20/3
f 25/18/4 23/21/4 24/22/4 26/19/4
f 23/21/5 21/23/5 22/24/5 24/22/5
f 21/23/6 17/25/6 18/26/6 22/24/6
f 31/27/7 27/28/7 28/29/7 32/30/7
f 33/31/8 31/27/8 32/30/8 34/32/8
f 35/33/9 33/31/9 34/32/9 36/34/9
f 29/35/10 35/33/10 36/34/10 30/36/10
f 17/25/11 13/13/11 14/16/11 18/26/11
f 27/28/12 19/17/12 20/20/12 28/29/12
f 30/36/13 16/15/13 15/14/13 29/35/13
f 4/37/14 18/38/14 14/39/14 1/40/14
f 1/41/15 14/42/15 16/43/15 2/44/15
f 23/45/16 25/46/16 40/47/16 41/48/16
f 2/49/17 16/50/17 30/51/17 8/52/17
f 7/53/18 22/54/18 18/38/18 4/37/18
f 9/55/19 28/56/19 20/57/19 3/58/19
f 3/58/20 20/57/20 26/59/20 5/60/20
f 6/61/21 24/62/21 22/54/21 7/53/21
f 5/60/16 26/59/16 24/63/16 6/64/16
f 28/56/22 9/55/22 12/65/22 32/66/22
f 36/67/23 10/68/23 8/52/23 30/51/23
f 32/66/24 12/65/24 11/69/24 34/70/24
f 34/71/25 11/72/25 10/68/25 36/67/25
f 33/73/25 35/74/25 47/75/25 46/76/25
f 19/77/19 27/78/19 45/79/19 39/80/19
f 25/46/20 19/77/20 39/80/20 40/47/20
f 31/81/24 33/82/24 46/83/24 44/84/24
f 13/85/14 17/86/14 43/87/14 37/88/14
f 17/86/18 21/89/18 42/90/18 43/87/18
f 35/74/23 29/91/23 48/92/23 47/75/23
f 21/89/21 23/93/21 41/94/21 42/90/21
f 29/91/17 15/95/17 38/96/17 48/92/17
f 15/97/15 13/98/15 37/99/15 38/100/15
f 27/78/22 31/81/22 44/84/22 45/79/22
f 50/101/26 49/102/26 55/103/26 54/104/26 53/105/26 52/106/26 51/107/26 57/108/26 56/109/26 58/110/26 59/111/26 60/112/26
f 62/113/27 65/114/27 67/115/27 64/116/27
f 64/116/28 67/115/28 68/117/28 63/118/28
f 63/119/29 68/100/29 66/120/29 61/121/29
f 72/122/30 74/123/30 75/124/30 71/125/30
f 71/125/31 75/124/31 73/126/31 69/127/31
f 74/123/32 78/128/32 79/129/32 75/124/32
f 75/124/33 79/129/33 77/130/33 73/126/33
f 76/131/34 80/132/34 82/133/34 78/134/34
f 78/134/35 82/133/35 83/135/35 79/136/35
f 79/136/36 83/135/36 81/137/36 77/138/36
f 80/132/37 84/139/37 86/140/37 82/133/37
f 82/133/38 86/140/38 87/141/38 83/135/38
f 83/135/39 87/141/39 85/142/39 81/137/39
f 89/143/40 92/144/40 94/145/40 91/146/40
f 91/146/41 94/145/41 95/147/41 90/148/41
f 90/148/42 95/147/42 93/149/42 88/150/42
f 97/151/43 89/143/43 91/146/43 99/152/43
f 99/152/44 91/146/44 90/148/44 98/153/44
f 98/153/45 90/148/45 88/150/45 96/154/45
f 101/155/46 97/156/46 99/157/46 103/158/46
f 103/158/47 99/157/47 98/159/47 102/160/47
f 102/160/48 98/159/48 96/161/48 100/162/48
f 105/163/49 101/155/49 103/158/49 107/164/49
f 107/164/50 103/158/50 102/160/50 106/165/50
f 106/165/51 102/160/51 100/162/51 104/166/51
f 84/139/52 62/167/52 64/168/52 86/140/52
f 86/140/53 64/168/53 63/169/53 87/141/53
f 87/141/54 63/169/54 61/170/54 85/142/54
f 92/144/55 70/171/55 72/122/55 94/145/55
f 94/145/56 72/122/56 71/125/56 95/147/56
f 95/147/57 71/125/57 69/127/57 93/149/57
f 65/172/58 105/163/58 107/164/58 67/173/58
f 67/173/59 107/164/59 106/165/59 68/174/59
f 68/174/60 106/165/60 104/166/60 66/175/60
f 65/176/15 62/177/15 49/178/15 50/179/15
f 38/180/61 37/181/61 61/182/61 66/183/61
f 62/167/14 84/139/14 55/184/14 49/185/14
f 37/88/62 43/87/62 85/142/62 61/170/62
f 48/92/63 38/96/63 66/175/63 104/166/63
f 105/163/17 65/172/17 50/186/17 60/187/17
f 40/47/64 39/80/64 69/127/64 73/126/64
f 70/171/19 92/144/19 57/188/19 51/189/19
f 39/80/65 45/79/65 93/149/65 69/127/65
f 41/48/66 40/47/66 73/126/66 77/130/66
f 42/90/67 41/94/67 77/138/67 81/137/67
f 80/132/21 76/131/21 53/190/21 54/191/21
f 43/87/68 42/90/68 81/137/68 85/142/68
f 84/139/18 80/132/18 54/191/18 55/184/18
f 92/144/22 89/143/22 56/192/22 57/188/22
f 45/79/69 44/84/69 88/150/69 93/149/69
f 89/143/24 97/151/24 58/193/24 56/192/24
f 44/194/70 46/195/70 96/196/70 88/197/70
f 97/156/25 101/155/25 59/198/25 58/199/25
f 46/76/71 47/75/71 100/162/71 96/161/71
f 101/155/23 105/163/23 60/187/23 59/198/23
f 47/75/72 48/92/72 104/166/72 100/162/72
f 116/200/14 109/201/14 111/202/14 117/203/14
f 117/204/73 111/205/73 115/206/73 118/207/73
f 118/208/17 115/209/17 113/210/17 119/211/17
f 119/212/74 113/213/74 109/214/74 116/215/74
f 110/216/1 114/217/1 112/218/1 108/219/1
f 115/220/26 111/221/26 109/222/26 113/223/26
f 112/43/75 119/212/75 116/215/75 108/224/75
f 114/225/17 118/208/17 119/211/17 112/226/17
f 110/227/76 117/204/76 118/207/76 114/228/76
f 108/229/14 116/200/14 117/203/14 110/230/14
f 128/231/14 121/232/14 123/233/14 129/234/14
f 129/235/73 123/236/73 127/237/73 130/238/73
f 130/239/17 127/240/17 125/241/17 131/242/17
f 131/243/74 125/244/74 121/245/74 128/246/74
f 122/219/1 126/218/1 124/247/1 120/248/1
f 127/249/26 123/250/26 121/251/26 125/252/26
f 124/253/75 131/243/75 128/246/75 120/254/75
f 126/255/17 130/239/17 131/242/17 124/256/17
f 122/257/76 129/235/76 130/238/76 126/258/76
f 120/259/14 128/231/14 129/234/14 122/260/14
f 140/261/14 133/262/14 135/263/14 141/264/14
f 141/265/73 135/266/73 139/267/73 142/268/73
f 142/269/17 139/270/17 137/271/17 143/272/17
f 143/273/74 137/274/74 133/275/74 140/276/74
f 134/277/1 138/278/1 136/279/1 132/280/1
f 139/281/26 135/282/26 133/283/26 137/284/26
f 136/285/75 143/273/75 140/276/75 132/286/75
f 138/287/17 142/269/17 143/272/17 136/288/17
f 134/289/76 141/265/76 142/268/76 138/290/76
f 132/291/14 140/261/14 141/264/14 134/292/14
f 152/293/14 145/294/14 147/295/14 153/296/14
f 153/297/73 147/298/73 151/299/73 154/300/73
f 154/301/17 151/302/17 149/303/17 155/304/17
f 155/305/74 149/306/74 145/307/74 152/308/74
f 146/309/1 150/310/1 148/311/1 144/312/1
f 151/313/26 147/314/26 145/315/26 149/316/26
f 148/317/75 155/305/75 152/308/75 144/318/75
f 150/319/17 154/301/17 155/304/17 148/320/17
f 146/321/76 153/297/76 154/300/76 150/322/76
f 144/323/14 152/293/14 153/296/14 146/324/14
f 164/325/14 157/326/14 159/327/14 165/328/14
f 165/329/73 159/330/73 163/331/73 166/332/73
f 166/333/17 163/334/17 161/335/17 167/336/17
f 167/337/74 161/338/74 157/339/74 164/340/74
f 158/341/1 162/342/1 160/343/1 156/344/1
f 163/345/26 159/346/26 157/347/26 161/348/26
f 160/349/75 167/337/75 164/340/75 156/350/75
f 162/351/17 166/333/17 167/336/17 160/352/17
f 158/353/76 165/329/76 166/332/76 162/354/76
f 156/355/14 164/325/14 165/328/14 158/356/14
f 176/357/14 169/358/14 171/359/14 177/360/14
f 177/361/73 171/362/73 175/363/73 178/364/73
f 178/365/17 175/366/17 173/367/17 179/368/17
f 179/369/74 173/370/74 169/371/74 176/372/74
f 170/373/1 174/374/1 172/342/1 168/341/1
f 175/375/26 171/376/26 169/377/26 173/378/26
f 172/379/75 179/369/75 176/372/75 168/380/75
f 174/381/17 178/365/17 179/368/17 172/382/17
f 170/383/76 177/361/76 178/364/76 174/384/76
f 168/385/14 176/357/14 177/360/14 170/386/14
f 188/387/14 181/388/14 183/389/14 189/390/14
f 189/391/73 183/392/73 187/393/73 190/394/73
f 190/395/17 187/396/17 185/397/17 191/398/17
f 191/399/74 185/400/74 181/401/74 188/402/74
f 182/403/1 186/404/1 184/374/1 180/373/1
f 187/405/26 183/406/26 181/407/26 185/408/26
f 184/409/75 191/399/75 188/402/75 180/410/75
f 186/411/17 190/395/17 191/398/17 184/412/17
f 182/413/76 189/391/76 190/394/76 186/414/76
f 180/415/14 188/387/14 189/390/14 182/416/14
f 200/417/14 193/418/14 195/419/14 201/420/14
f 201/421/73 195/422/73 199/423/73 202/424/73
f 202/425/17 199/426/17 197/427/17 203/428/17
f 203/429/74 197/430/74 193/431/74 200/432/74
f 194/312/1 198/311/1 196/278/1 192/277/1
f 199/433/26 195/434/26 193/435/26 197/436/26
f 196/437/75 203/429/75 200/432/75 192/438/75
f 198/439/17 202/425/17 203/428/17 196/440/17
f 194/441/76 201/421/76 202/424/76 198/442/76
f 192/443/14 200/417/14 201/420/14 194/444/14
f 212/445/15 205/446/15 207/201/15 213/447/15
f 213/448/77 207/449/77 211/450/77 214/451/77
f 214/452/19 211/453/19 209/454/19 215/455/19
f 215/456/78 209/457/78 205/458/78 212/459/78
f 206/460/1 210/461/1 208/462/1 204/463/1
f 211/464/26 207/465/26 205/466/26 209/69/26
f 208/467/79 215/456/79 212/459/79 204/468/79
f 210/469/19 214/452/19 215/455/19 208/470/19
f 206/471/80 213/448/80 214/451/80 210/472/80
f 204/473/15 212/445/15 213/447/15 206/474/15
f 216/475/81 221/476/81 223/477/81 218/478/81
f 218/478/82 223/477/82 222/479/82 219/480/82
f 219/481/83 222/482/83 220/483/83 217/484/83
f 228/485/84 225/486/84 227/487/84 230/488/84
f 230/488/85 227/487/85 226/489/85 231/490/85
f 231/491/86 226/492/86 224/493/86 229/494/86
f 244/495/87 241/496/87 243/497/87 246/498/87
f 246/499/88 243/500/88 242/501/88 247/502/88
f 247/502/89 242/501/89 240/503/89 245/504/89
f 236/505/90 233/506/90 235/507/90 238/508/90
f 238/509/91 235/510/91 234/511/91 239/512/91
f 239/512/92 234/511/92 232/513/92 237/514/92
f 224/515/1 226/516/1 227/517/1 225/518/1 240/519/1 242/520/1 243/521/1 241/522/1 232/523/1 234/524/1 235/525/1 233/526/1 216/527/1 218/528/1 219/529/1 217/530/1
f 217/484/14 220/483/14 229/494/14 224/493/14
f 233/506/19 236/505/19 221/476/19 216/475/19
f 244/531/26 246/532/26 247/533/26 245/534/26 228/535/26 230/536/26 231/537/26 229/538/26 220/539/26 222/540/26 223/541/26 221/542/26 236/543/26 238/544/26 239/545/26 237/546/26
f 225/486/15 228/485/15 245/504/15 240/503/15
f 241/496/17 244/495/17 237/514/17 232/513/17
f 258/547/93 249/548/93 251/549/93 259/550/93
f 259/551/94 251/552/94 253/553/94 260/554/94
f 260/555/95 253/556/95 255/557/95 261/558/95
f 251/559/26 249/560/26 257/561/26 255/562/26 253/563/26
f 261/564/96 255/565/96 257/566/96 262/567/96
f 262/568/97 257/569/97 249/548/97 258/547/97
f 248/570/1 250/571/1 252/572/1 254/573/1 256/574/1
f 256/575/98 262/568/98 258/547/98 248/576/98
f 254/577/99 261/564/99 262/567/99 256/578/99
f 252/579/100 260/555/100 261/558/100 254/580/100
f 250/581/101 259/551/101 260/554/101 252/582/101
f 248/576/102 258/547/102 259/550/102 250/583/102
f 273/584/93 264/585/93 266/586/93 274/587/93
f 274/588/94 266/589/94 268/590/94 275/591/94
f 275/592/95 268/593/95 270/594/95 276/595/95
f 266/596/26 264/597/26 272/598/26 270/599/26 268/600/26
f 276/601/96 270/602/96 272/603/96 277/604/96
f 277/605/97 272/606/97 264/585/97 273/584/97
f 263/607/1 265/608/1 267/609/1 269/610/1 271/611/1
f 271/612/98 277/605/98 273/584/98 263/613/98
f 269/614/99 276/601/99 277/604/99 271/615/99
f 267/616/100 275/592/100 276/595/100 269/617/100
f 265/618/101 274/588/101 275/591/101 267/619/101
f 263/613/102 273/584/102 274/587/102 265/620/102
f 278/621/81 283/622/81 285/623/81 280/624/81
f 280/624/82 285/623/82 284/625/82 281/626/82
f 281/627/83 284/628/83 282/629/83 279/630/83
f 290/631/84 287/632/84 289/633/84 292/634/84
f 292/634/85 289/633/85 288/635/85 293/636/85
f 293/637/86 288/638/86 286/639/86 291/640/86
f 306/641/87 303/642/87 305/643/87 308/644/87
f 308/645/88 305/646/88 304/647/88 309/648/88
f 309/648/89 304/647/89 302/649/89 307/650/89
f 298/651/90 295/652/90 297/653/90 300/654/90
f 300/655/91 297/656/91 296/657/91 301/658/91
f 301/658/92 296/657/92 294/659/92 299/660/92
f 286/661/1 288/662/1 289/663/1 287/664/1 302/665/1 304/666/1 305/667/1 303/668/1 294/669/1 296/670/1 297/671/1 295/672/1 278/673/1 280/674/1 281/675/1 279/676/1
f 279/630/14 282/629/14 291/640/14 286/639/14
f 295/652/19 298/651/19 283/622/19 278/621/19
f 306/677/26 308/678/26 309/679/26 307/543/26 290/680/26 292/681/26 293/682/26 291/683/26 282/684/26 284/685/26 285/686/26 283/687/26 298/688/26 300/689/26 301/690/26 299/691/26
f 287/632/15 290/631/15 307/650/15 302/649/15
f 303/642/17 306/641/17 299/660/17 294/659/17
f 320/692/93 311/693/93 313/694/93 321/695/93
f 321/696/94 313/697/94 315/698/94 322/699/94
f 322/700/95 315/701/95 317/589/95 323/702/95
f 313/703/26 311/704/26 319/705/26 317/706/26 315/707/26
f 323/708/96 317/709/96 319/710/96 324/711/96
f 324/712/97 319/713/97 311/693/97 320/692/97
f 310/714/1 312/715/1 314/716/1 316/717/1 318/718/1
f 318/719/98 324/712/98 320/692/98 310/720/98
f 316/721/99 323/708/99 324/711/99 318/722/99
f 314/723/100 322/700/100 323/702/100 316/724/100
f 312/725/101 321/696/101 322/699/101 314/726/101
f 310/720/102 320/692/102 321/695/102 312/727/102
f 335/728/93 326/729/93 328/713/93 336/730/93
f 336/731/94 328/732/94 330/733/94 337/734/94
f 337/735/95 330/736/95 332/737/95 338/738/95
f 328/596/26 326/739/26 334/740/26 332/741/26 330/742/26
f 338/743/96 332/744/96 334/745/96 339/746/96
f 339/747/97 334/748/97 326/729/97 335/728/97
f 325/749/1 327/750/1 329/751/1 331/752/1 333/753/1
f 333/754/98 339/747/98 335/728/98 325/755/98
f 331/756/99 338/743/99 339/746/99 333/757/99
f 329/758/100 337/735/100 338/738/100 331/759/100
f 327/760/101 336/731/101 337/734/101 329/761/101
f 325/755/102 335/728/102 336/730/102 327/719/102
f 340/762/81 345/763/81 347/764/81 342/765/81
f 342/765/82 347/764/82 346/766/82 343/767/82
f 343/768/83 346/769/83 344/770/83 341/771/83
f 352/772/84 349/773/84 351/774/84 354/775/84
f 354/775/85 351/774/85 350/776/85 355/777/85
f 355/778/86 350/779/86 348/780/86 353/781/86
f 368/782/87 365/783/87 367/784/87 370/785/87
f 370/786/88 367/787/88 366/788/88 371/789/88
f 371/789/89 366/788/89 364/790/89 369/791/89
f 360/792/90 357/793/90 359/794/90 362/795/90
f 362/796/91 359/797/91 358/798/91 363/799/91
f 363/799/92 358/798/92 356/800/92 361/801/92
f 348/802/1 350/803/1 351/804/1 349/805/1 364/806/1 366/807/1 367/808/1 365/809/1 356/810/1 358/811/1 359/812/1 357/813/1 340/814/1 342/815/1 343/816/1 341/817/1
f 341/771/14 344/770/14 353/781/14 348/780/14
f 357/793/19 360/792/19 345/763/19 340/762/19
f 368/818/26 370/819/26 371/820/26 369/821/26 352/822/26 354/823/26 355/824/26 353/825/26 344/826/26 346/827/26 347/828/26 345/829/26 360/830/26 362/831/26 363/832/26 361/833/26
f 349/773/15 352/772/15 369/791/15 364/790/15
f 365/783/17 368/782/17 361/801/17 356/800/17
f 382/834/93 373/835/93 375/836/93 383/837/93
f 383/838/94 375/839/94 377/840/94 384/841/94
f 384/842/95 377/843/95 379/844/95 385/845/95
f 375/846/26 373/847/26 381/848/26 379/849/26 377/850/26
f 385/851/96 379/852/96 381/853/96 386/854/96
f 386/855/97 381/694/97 373/835/97 382/834/97
f 372/856/1 374/857/1 376/858/1 378/859/1 380/860/1
f 380/727/98 386/855/98 382/834/98 372/861/98
f 378/862/99 385/851/99 386/854/99 380/863/99
f 376/864/100 384/842/100 385/845/100 378/865/100
f 374/866/101 383/838/101 384/841/101 376/867/101
f 372/861/102 382/834/102 383/837/102 374/868/102
f 397/869/93 388/870/93 390/569/93 398/871/93
f 398/872/94 390/737/94 392/873/94 399/874/94
f 399/875/95 392/876/95 394/877/95 400/878/95
f 390/879/26 388/880/26 396/881/26 394/882/26 392/883/26
f 400/884/96 394/885/96 396/886/96 401/887/96
f 401/888/97 396/836/97 388/870/97 397/869/97
f 387/889/1 389/890/1 391/891/1 393/892/1 395/893/1
f 395/868/98 401/888/98 397/869/98 387/894/98
f 393/895/99 400/884/99 401/887/99 395/896/99
f 391/897/100 399/875/100 400/878/100 393/898/100
f 389/899/101 398/872/101 399/874/101 391/900/101
f 387/894/102 397/869/102 398/871/102 389/575/102
