# Blender 5.1.1
# www.blender.org
mtllib Chandler.mtl
o Roof.002
v 4.653051 11.645892 -0.966010
v 5.081807 11.645892 -0.788413
v 5.259404 11.645892 -0.359656
v 5.081807 11.645892 0.069100
v 4.653051 11.645892 0.246697
v 4.224295 11.645892 0.069100
v 4.046698 11.645892 -0.359656
v 4.224295 11.645892 -0.788413
v 4.653051 11.030207 -0.524675
v 4.653051 11.437949 -0.966010
v 4.653051 11.214239 -0.612795
v 4.653051 11.356540 -0.766814
v 4.769737 11.030207 -0.476343
v 5.081807 11.437949 -0.788413
v 4.832047 11.214239 -0.538653
v 4.940955 11.356540 -0.647560
v 4.818070 11.030207 -0.359656
v 5.259404 11.437949 -0.359656
v 4.906190 11.214239 -0.359656
v 5.060209 11.356540 -0.359656
v 4.769737 11.030207 -0.242970
v 5.081807 11.437949 0.069100
v 4.832047 11.214239 -0.180660
v 4.940955 11.356540 -0.071752
v 4.653051 11.030207 -0.194637
v 4.653051 11.437949 0.246697
v 4.653051 11.214239 -0.106518
v 4.653051 11.356540 0.047501
v 4.536365 11.030207 -0.242970
v 4.224295 11.437949 0.069100
v 4.474055 11.214239 -0.180660
v 4.365147 11.356540 -0.071752
v 4.488032 11.030207 -0.359656
v 4.046698 11.437949 -0.359656
v 4.399912 11.214239 -0.359656
v 4.245893 11.356540 -0.359656
v 4.536365 11.030207 -0.476343
v 4.224295 11.437949 -0.788413
v 4.474055 11.214239 -0.538653
v 4.365147 11.356540 -0.647560
v 4.653051 10.112255 -0.422445
v 4.697450 10.112255 -0.404054
v 4.715840 10.112255 -0.359656
v 4.697450 10.112255 -0.315258
v 4.653051 10.112255 -0.296868
v 4.608654 10.112255 -0.315258
v 4.590263 10.112255 -0.359656
v 4.608654 10.112255 -0.404054
v 4.697450 11.213587 -0.404054
v 4.653051 11.213587 -0.422445
v 4.715840 11.213587 -0.359656
v 4.697450 11.213587 -0.315258
v 4.653051 11.213587 -0.296868
v 4.608654 11.213587 -0.315258
v 4.590263 11.213587 -0.359656
v 4.608654 11.213587 -0.404054
v 4.152895 8.282109 -2.752638
v 5.153208 8.282109 -2.752637
v 5.991476 8.282109 -2.405414
v 6.698805 8.282109 -1.698086
v 7.046032 8.282109 -0.859812
v 7.046032 8.282109 0.140499
v 6.698805 8.282109 0.978773
v 5.991476 8.282109 1.686101
v 5.153208 8.282109 2.033325
v 4.152895 8.282109 2.033325
v 3.314619 8.282109 1.686100
v 2.607291 8.282109 0.978772
v 2.260068 8.282109 0.140500
v 2.260068 8.282109 -0.859813
v 2.607291 8.282109 -1.698085
v 3.314619 8.282109 -2.405413
v 6.698812 8.796175 -1.698085
v 5.991484 8.796175 -2.405413
v 5.153208 8.796175 -2.752638
v 4.152895 8.796175 -2.752637
v 7.046034 8.796175 0.140500
v 7.046034 8.796175 -0.859813
v 5.991484 8.796175 1.686100
v 6.698812 8.796175 0.978772
v 4.152895 8.796175 2.033325
v 5.153208 8.796175 2.033325
v 2.607300 8.796175 0.978772
v 3.314627 8.796175 1.686101
v 2.260077 8.796175 -0.859813
v 2.260077 8.796175 0.140500
v 3.314627 8.796175 -2.405414
v 2.607300 8.796175 -1.698084
v 2.172689 8.291516 -0.878077
v 2.172689 8.291516 0.158764
v 2.172698 8.786764 0.158764
v 2.172698 8.786764 -0.878077
v 2.532599 8.786764 -1.746957
v 3.265755 8.786764 -2.480115
v 3.265746 8.291516 -2.480114
v 2.532590 8.291516 -1.746957
v 4.134632 8.291516 2.120705
v 5.171471 8.291516 2.120704
v 5.171472 8.786764 2.120705
v 4.134632 8.786764 2.120704
v 3.265755 8.786764 1.760802
v 2.532599 8.786764 1.027645
v 2.532590 8.291516 1.027645
v 3.265746 8.291516 1.760801
v 7.133411 8.291516 0.158763
v 7.133411 8.291516 -0.878076
v 7.133414 8.786764 -0.878077
v 7.133414 8.786764 0.158764
v 6.773513 8.786764 1.027645
v 6.040358 8.786764 1.760801
v 6.040348 8.291516 1.760802
v 6.773505 8.291516 1.027645
v 5.171471 8.291516 -2.840017
v 4.134632 8.291516 -2.840018
v 4.134632 8.786764 -2.840017
v 5.171472 8.786764 -2.840018
v 6.040358 8.786764 -2.480114
v 6.773513 8.786764 -1.746957
v 6.773505 8.291516 -1.746958
v 6.040348 8.291516 -2.480115
v 4.488192 9.184744 -2.869238
v 4.536478 9.184744 -2.752665
v 4.653051 9.184744 -2.704378
v 4.769625 9.184744 -2.752665
v 4.817911 9.184744 -2.869238
v 4.769625 9.184744 -2.985811
v 4.653051 9.184744 -3.034098
v 4.536478 9.184744 -2.985811
v 4.886627 9.277068 -3.102813
v 4.653051 9.277068 -3.199563
v 4.983377 9.277068 -2.869238
v 4.886627 9.277068 -2.635663
v 4.653051 9.277068 -2.538912
v 4.419477 9.277068 -2.635663
v 4.322727 9.277068 -2.869238
v 4.419477 9.277068 -3.102813
v 4.740140 9.052721 -2.956327
v 4.653051 9.052721 -2.992401
v 4.776214 9.052721 -2.869238
v 4.740140 9.052721 -2.782148
v 4.653051 9.052721 -2.746075
v 4.565962 9.052721 -2.782148
v 4.529888 9.052721 -2.869238
v 4.565962 9.052721 -2.956327
v 4.769312 8.993876 -2.985499
v 4.653050 8.993876 -3.033656
v 4.817469 8.993876 -2.869238
v 4.769312 8.993876 -2.752976
v 4.653050 8.993876 -2.704820
v 4.536789 8.993876 -2.752976
v 4.488633 8.993876 -2.869238
v 4.536789 8.993876 -2.985499
v 4.795633 8.955641 -3.011820
v 4.653050 8.955641 -3.070880
v 4.854693 8.955641 -2.869238
v 4.795633 8.955641 -2.726655
v 4.653050 8.955641 -2.667596
v 4.510468 8.955641 -2.726655
v 4.451408 8.955641 -2.869238
v 4.510468 8.955641 -3.011820
v 4.773822 8.904131 -2.990009
v 4.653051 8.904131 -3.040035
v 4.823848 8.904131 -2.869238
v 4.773822 8.904131 -2.748466
v 4.653051 8.904131 -2.698442
v 4.532279 8.904131 -2.748466
v 4.482255 8.904131 -2.869238
v 4.532279 8.904131 -2.990009
v 4.718550 8.669309 -2.934737
v 4.653051 8.669309 -2.961868
v 4.745681 8.669309 -2.869238
v 4.718550 8.669309 -2.803739
v 4.653051 8.669309 -2.776608
v 4.587552 8.669309 -2.803739
v 4.560421 8.669309 -2.869238
v 4.587552 8.669309 -2.934737
v 4.685256 8.204636 -2.901443
v 4.653051 8.204636 -2.914783
v 4.698596 8.204636 -2.869238
v 4.685256 8.204636 -2.837033
v 4.653051 8.204636 -2.823693
v 4.620846 8.204636 -2.837033
v 4.607506 8.204636 -2.869238
v 4.620846 8.204636 -2.901443
v 4.653069 8.140404 -2.869238
v 4.488192 9.184744 2.141309
v 4.536478 9.184744 2.257883
v 4.653051 9.184744 2.306169
v 4.769625 9.184744 2.257883
v 4.817911 9.184744 2.141309
v 4.769625 9.184744 2.024736
v 4.653051 9.184744 1.976450
v 4.536478 9.184744 2.024736
v 4.886627 9.277068 1.907734
v 4.653051 9.277068 1.810984
v 4.983377 9.277068 2.141309
v 4.886627 9.277068 2.374885
v 4.653051 9.277068 2.471635
v 4.419477 9.277068 2.374885
v 4.322727 9.277068 2.141309
v 4.419477 9.277068 1.907734
v 4.740140 9.052721 2.054220
v 4.653051 9.052721 2.018147
v 4.776214 9.052721 2.141309
v 4.740140 9.052721 2.228399
v 4.653051 9.052721 2.264472
v 4.565962 9.052721 2.228399
v 4.529888 9.052721 2.141309
v 4.565962 9.052721 2.054220
v 4.769312 8.993876 2.025048
v 4.653050 8.993876 1.976891
v 4.817469 8.993876 2.141309
v 4.769312 8.993876 2.257571
v 4.653050 8.993876 2.305727
v 4.536789 8.993876 2.257571
v 4.488633 8.993876 2.141309
v 4.536789 8.993876 2.025048
v 4.795633 8.955641 1.998727
v 4.653050 8.955641 1.939667
v 4.854693 8.955641 2.141309
v 4.795633 8.955641 2.283892
v 4.653050 8.955641 2.342952
v 4.510468 8.955641 2.283892
v 4.451408 8.955641 2.141309
v 4.510468 8.955641 1.998727
v 4.773822 8.904131 2.020538
v 4.653051 8.904131 1.970513
v 4.823848 8.904131 2.141309
v 4.773822 8.904131 2.262081
v 4.653051 8.904131 2.312106
v 4.532279 8.904131 2.262081
v 4.482255 8.904131 2.141309
v 4.532279 8.904131 2.020538
v 4.718550 8.669309 2.075810
v 4.653051 8.669309 2.048679
v 4.745681 8.669309 2.141309
v 4.718550 8.669309 2.206809
v 4.653051 8.669309 2.233939
v 4.587552 8.669309 2.206809
v 4.560421 8.669309 2.141309
v 4.587552 8.669309 2.075810
v 4.685256 8.204636 2.109105
v 4.653051 8.204636 2.095765
v 4.698596 8.204636 2.141309
v 4.685256 8.204636 2.173514
v 4.653051 8.204636 2.186854
v 4.620846 8.204636 2.173514
v 4.607506 8.204636 2.141309
v 4.620846 8.204636 2.109105
v 4.653069 8.140404 2.141309
v 6.993465 9.184744 -0.363964
v 7.041752 9.184744 -0.247391
v 7.158325 9.184744 -0.199104
v 7.274898 9.184744 -0.247391
v 7.323185 9.184744 -0.363964
v 7.274898 9.184744 -0.480538
v 7.158325 9.184744 -0.528824
v 7.041752 9.184744 -0.480538
v 7.391901 9.277068 -0.597539
v 7.158325 9.277068 -0.694290
v 7.488650 9.277068 -0.363964
v 7.391901 9.277068 -0.130389
v 7.158325 9.277068 -0.033638
v 6.924750 9.277068 -0.130389
v 6.828001 9.277068 -0.363964
v 6.924750 9.277068 -0.597539
v 7.245413 9.052721 -0.451053
v 7.158325 9.052721 -0.487127
v 7.281487 9.052721 -0.363964
v 7.245413 9.052721 -0.276875
v 7.158325 9.052721 -0.240801
v 7.071236 9.052721 -0.276875
v 7.035162 9.052721 -0.363964
v 7.071236 9.052721 -0.451053
v 7.274585 8.993876 -0.480225
v 7.158324 8.993876 -0.528382
v 7.322742 8.993876 -0.363964
v 7.274585 8.993876 -0.247703
v 7.158324 8.993876 -0.199546
v 7.042064 8.993876 -0.247703
v 6.993907 8.993876 -0.363964
v 7.042064 8.993876 -0.480225
v 7.300906 8.955641 -0.506546
v 7.158324 8.955641 -0.565606
v 7.359967 8.955641 -0.363964
v 7.300906 8.955641 -0.221382
v 7.158324 8.955641 -0.162322
v 7.015741 8.955641 -0.221382
v 6.956682 8.955641 -0.363964
v 7.015741 8.955641 -0.506546
v 7.279096 8.904131 -0.484736
v 7.158325 8.904131 -0.534761
v 7.329122 8.904131 -0.363964
v 7.279096 8.904131 -0.243193
v 7.158325 8.904131 -0.193167
v 7.037552 8.904131 -0.243193
v 6.987528 8.904131 -0.363964
v 7.037552 8.904131 -0.484736
v 7.223824 8.669309 -0.429463
v 7.158325 8.669309 -0.456594
v 7.250956 8.669309 -0.363964
v 7.223824 8.669309 -0.298465
v 7.158325 8.669309 -0.271334
v 7.092826 8.669309 -0.298465
v 7.065695 8.669309 -0.363964
v 7.092826 8.669309 -0.429463
v 7.190529 8.204636 -0.396169
v 7.158325 8.204636 -0.409509
v 7.203869 8.204636 -0.363964
v 7.190529 8.204636 -0.331759
v 7.158325 8.204636 -0.318420
v 7.126121 8.204636 -0.331759
v 7.112780 8.204636 -0.363964
v 7.126121 8.204636 -0.396169
v 7.158343 8.140404 -0.363964
v 1.982918 9.184744 -0.363964
v 2.031204 9.184744 -0.247391
v 2.147778 9.184744 -0.199104
v 2.264351 9.184744 -0.247391
v 2.312638 9.184744 -0.363964
v 2.264351 9.184744 -0.480538
v 2.147778 9.184744 -0.528824
v 2.031204 9.184744 -0.480538
v 2.381354 9.277068 -0.597539
v 2.147778 9.277068 -0.694290
v 2.478104 9.277068 -0.363964
v 2.381354 9.277068 -0.130389
v 2.147778 9.277068 -0.033638
v 1.914202 9.277068 -0.130389
v 1.817453 9.277068 -0.363964
v 1.914202 9.277068 -0.597539
v 2.234866 9.052721 -0.451053
v 2.147777 9.052721 -0.487127
v 2.270940 9.052721 -0.363964
v 2.234866 9.052721 -0.276875
v 2.147777 9.052721 -0.240801
v 2.060688 9.052721 -0.276875
v 2.024615 9.052721 -0.363964
v 2.060688 9.052721 -0.451053
v 2.264038 8.993876 -0.480225
v 2.147777 8.993876 -0.528382
v 2.312196 8.993876 -0.363964
v 2.264038 8.993876 -0.247703
v 2.147777 8.993876 -0.199546
v 2.031516 8.993876 -0.247703
v 1.983359 8.993876 -0.363964
v 2.031516 8.993876 -0.480225
v 2.290359 8.955641 -0.506546
v 2.147777 8.955641 -0.565606
v 2.349420 8.955641 -0.363964
v 2.290359 8.955641 -0.221382
v 2.147777 8.955641 -0.162322
v 2.005194 8.955641 -0.221382
v 1.946135 8.955641 -0.363964
v 2.005194 8.955641 -0.506546
v 2.268549 8.904131 -0.484736
v 2.147777 8.904131 -0.534761
v 2.318574 8.904131 -0.363964
v 2.268549 8.904131 -0.243193
v 2.147777 8.904131 -0.193167
v 2.027006 8.904131 -0.243193
v 1.976981 8.904131 -0.363964
v 2.027006 8.904131 -0.484736
v 2.213277 8.669309 -0.429463
v 2.147777 8.669309 -0.456594
v 2.240408 8.669309 -0.363964
v 2.213277 8.669309 -0.298465
v 2.147777 8.669309 -0.271334
v 2.082278 8.669309 -0.298465
v 2.055148 8.669309 -0.363964
v 2.082278 8.669309 -0.429463
v 2.179982 8.204636 -0.396169
v 2.147777 8.204636 -0.409509
v 2.193322 8.204636 -0.363964
v 2.179982 8.204636 -0.331759
v 2.147777 8.204636 -0.318420
v 2.115573 8.204636 -0.331759
v 2.102233 8.204636 -0.363964
v 2.115573 8.204636 -0.396169
v 2.147795 8.140404 -0.363964
v 2.881567 8.140404 -2.135447
v 2.881555 8.204636 -2.181004
v 2.849350 8.204636 -2.167665
v 2.836010 8.204636 -2.135459
v 2.849350 8.204636 -2.103255
v 2.881555 8.204636 -2.089916
v 2.913760 8.204636 -2.103255
v 2.913760 8.204636 -2.167665
v 2.927099 8.204636 -2.135460
v 2.881555 8.669309 -2.228090
v 2.816056 8.669309 -2.200960
v 2.788925 8.669309 -2.135460
v 2.816056 8.669309 -2.069961
v 2.881555 8.669309 -2.042830
v 2.947054 8.669309 -2.069960
v 2.947054 8.669309 -2.200959
v 2.974185 8.669309 -2.135460
v 2.881555 8.904131 -2.306257
v 2.760783 8.904131 -2.256231
v 2.710758 8.904131 -2.135460
v 2.760783 8.904131 -2.014689
v 2.881555 8.904131 -1.964664
v 3.002326 8.904131 -2.014689
v 3.002326 8.904131 -2.256231
v 3.052351 8.904131 -2.135460
v 2.881554 8.955641 -2.337102
v 2.738972 8.955641 -2.278042
v 2.679913 8.955641 -2.135460
v 2.738972 8.955641 -1.992877
v 2.881555 8.955641 -1.933818
v 3.024137 8.955641 -1.992877
v 3.024137 8.955641 -2.278042
v 3.083197 8.955641 -2.135460
v 2.881555 8.993876 -2.299878
v 2.765294 8.993876 -2.251721
v 2.717137 8.993876 -2.135460
v 2.765293 8.993876 -2.019198
v 2.881555 8.993876 -1.971042
v 2.997816 8.993876 -2.019198
v 2.997816 8.993876 -2.251721
v 3.045973 8.993876 -2.135460
v 2.881555 9.052721 -2.258623
v 2.794466 9.052721 -2.222549
v 2.758392 9.052721 -2.135460
v 2.794466 9.052721 -2.048371
v 2.881555 9.052721 -2.012297
v 2.968644 9.052721 -2.048370
v 2.968644 9.052721 -2.222549
v 3.004717 9.052721 -2.135460
v 2.881555 9.277068 -2.465785
v 2.647980 9.277068 -2.369034
v 2.551230 9.277068 -2.135459
v 2.647980 9.277068 -1.901884
v 2.881556 9.277068 -1.805133
v 3.115131 9.277068 -1.901884
v 3.115130 9.277068 -2.369035
v 3.211881 9.277068 -2.135459
v 2.881555 9.184744 -2.300320
v 2.998129 9.184744 -2.252033
v 3.046414 9.184744 -2.135460
v 2.998129 9.184744 -2.018886
v 2.881555 9.184744 -1.970600
v 2.764982 9.184744 -2.018886
v 2.716695 9.184744 -2.135460
v 2.764982 9.184744 -2.252033
v 6.424560 8.140404 1.407545
v 6.424547 8.204636 1.361988
v 6.392342 8.204636 1.375327
v 6.379003 8.204636 1.407533
v 6.392342 8.204636 1.439737
v 6.424546 8.204636 1.453076
v 6.456752 8.204636 1.439737
v 6.456752 8.204636 1.375327
v 6.470091 8.204636 1.407532
v 6.424547 8.669309 1.314903
v 6.359048 8.669309 1.342033
v 6.331917 8.669309 1.407532
v 6.359048 8.669309 1.473031
v 6.424547 8.669309 1.500162
v 6.490047 8.669309 1.473032
v 6.490047 8.669309 1.342033
v 6.517177 8.669309 1.407533
v 6.424547 8.904131 1.236735
v 6.303776 8.904131 1.286761
v 6.253750 8.904131 1.407532
v 6.303776 8.904131 1.528303
v 6.424547 8.904131 1.578328
v 6.545318 8.904131 1.528304
v 6.545318 8.904131 1.286761
v 6.595343 8.904131 1.407532
v 6.424546 8.955641 1.205889
v 6.281964 8.955641 1.264950
v 6.222904 8.955641 1.407532
v 6.281964 8.955641 1.550115
v 6.424546 8.955641 1.609174
v 6.567130 8.955641 1.550115
v 6.567129 8.955641 1.264949
v 6.626189 8.955641 1.407532
v 6.424547 8.993876 1.243114
v 6.308286 8.993876 1.291271
v 6.260128 8.993876 1.407532
v 6.308285 8.993876 1.523793
v 6.424547 8.993876 1.571950
v 6.540808 8.993876 1.523793
v 6.540808 8.993876 1.291270
v 6.588964 8.993876 1.407532
v 6.424547 9.052721 1.284370
v 6.337457 9.052721 1.320443
v 6.301384 9.052721 1.407532
v 6.337457 9.052721 1.494622
v 6.424547 9.052721 1.530694
v 6.511636 9.052721 1.494622
v 6.511636 9.052721 1.320443
v 6.547709 9.052721 1.407532
v 6.424547 9.277068 1.077207
v 6.190972 9.277068 1.173958
v 6.094222 9.277068 1.407533
v 6.190972 9.277068 1.641108
v 6.424548 9.277068 1.737858
v 6.658123 9.277068 1.641108
v 6.658123 9.277068 1.173957
v 6.754873 9.277068 1.407533
v 6.424547 9.184744 1.242673
v 6.541121 9.184744 1.290959
v 6.589407 9.184744 1.407533
v 6.541121 9.184744 1.524106
v 6.424547 9.184744 1.572392
v 6.307974 9.184744 1.524106
v 6.259687 9.184744 1.407533
v 6.307973 9.184744 1.290959
v 2.881567 8.140404 1.407545
v 2.881555 8.204636 1.361988
v 2.849350 8.204636 1.375327
v 2.836011 8.204636 1.407532
v 2.849350 8.204636 1.439737
v 2.881555 8.204636 1.453076
v 2.913760 8.204636 1.439737
v 2.913760 8.204636 1.375327
v 2.927100 8.204636 1.407532
v 2.881555 8.669309 1.314902
v 2.816056 8.669309 1.342033
v 2.788925 8.669309 1.407532
v 2.816056 8.669309 1.473031
v 2.881555 8.669309 1.500162
v 2.947054 8.669309 1.473032
v 2.947054 8.669309 1.342033
v 2.974185 8.669309 1.407532
v 2.881555 8.904131 1.236735
v 2.760784 8.904131 1.286761
v 2.710758 8.904131 1.407532
v 2.760783 8.904131 1.528304
v 2.881555 8.904131 1.578328
v 3.002326 8.904131 1.528304
v 3.002326 8.904131 1.286761
v 3.052351 8.904131 1.407532
v 2.881555 8.955641 1.205890
v 2.738972 8.955641 1.264949
v 2.679913 8.955641 1.407532
v 2.738972 8.955641 1.550115
v 2.881554 8.955641 1.609174
v 3.024137 8.955641 1.550115
v 3.024137 8.955641 1.264949
v 3.083197 8.955641 1.407532
v 2.881555 8.993876 1.243114
v 2.765294 8.993876 1.291271
v 2.717137 8.993876 1.407532
v 2.765294 8.993876 1.523793
v 2.881555 8.993876 1.571950
v 2.997816 8.993876 1.523793
v 2.997816 8.993876 1.291271
v 3.045973 8.993876 1.407532
v 2.881555 9.052721 1.284370
v 2.794466 9.052721 1.320443
v 2.758392 9.052721 1.407532
v 2.794466 9.052721 1.494622
v 2.881555 9.052721 1.530695
v 2.968644 9.052721 1.494622
v 2.968644 9.052721 1.320443
v 3.004717 9.052721 1.407532
v 2.881556 9.277068 1.077207
v 2.647981 9.277068 1.173958
v 2.551230 9.277068 1.407533
v 2.647979 9.277068 1.641108
v 2.881556 9.277068 1.737858
v 3.115130 9.277068 1.641108
v 3.115131 9.277068 1.173957
v 3.211881 9.277068 1.407533
v 2.881555 9.184744 1.242672
v 2.998129 9.184744 1.290959
v 3.046415 9.184744 1.407533
v 2.998129 9.184744 1.524106
v 2.881555 9.184744 1.572392
v 2.764982 9.184744 1.524106
v 2.716695 9.184744 1.407532
v 2.764982 9.184744 1.290959
v 6.424560 8.140404 -2.135447
v 6.424547 8.204636 -2.181005
v 6.392342 8.204636 -2.167665
v 6.379002 8.204636 -2.135460
v 6.392342 8.204636 -2.103255
v 6.424547 8.204636 -2.089915
v 6.456752 8.204636 -2.103255
v 6.456752 8.204636 -2.167665
v 6.470092 8.204636 -2.135460
v 6.424547 8.669309 -2.228090
v 6.359047 8.669309 -2.200959
v 6.331917 8.669309 -2.135460
v 6.359048 8.669309 -2.069961
v 6.424547 8.669309 -2.042830
v 6.490047 8.669309 -2.069961
v 6.490047 8.669309 -2.200960
v 6.517177 8.669309 -2.135460
v 6.424547 8.904131 -2.306257
v 6.303776 8.904131 -2.256231
v 6.253750 8.904131 -2.135460
v 6.303776 8.904131 -2.014689
v 6.424546 8.904131 -1.964664
v 6.545318 8.904131 -2.014688
v 6.545318 8.904131 -2.256231
v 6.595343 8.904131 -2.135460
v 6.424546 8.955641 -2.337102
v 6.281965 8.955641 -2.278042
v 6.222905 8.955641 -2.135460
v 6.281964 8.955641 -1.992877
v 6.424546 8.955641 -1.933818
v 6.567129 8.955641 -1.992877
v 6.567129 8.955641 -2.278042
v 6.626188 8.955641 -2.135460
v 6.424547 8.993876 -2.299878
v 6.308286 8.993876 -2.251721
v 6.260129 8.993876 -2.135460
v 6.308286 8.993876 -2.019199
v 6.424546 8.993876 -1.971042
v 6.540808 8.993876 -2.019199
v 6.540808 8.993876 -2.251721
v 6.588964 8.993876 -2.135460
v 6.424547 9.052721 -2.258623
v 6.337457 9.052721 -2.222549
v 6.301383 9.052721 -2.135460
v 6.337457 9.052721 -2.048371
v 6.424547 9.052721 -2.012297
v 6.511636 9.052721 -2.048371
v 6.511636 9.052721 -2.222549
v 6.547709 9.052721 -2.135460
v 6.424548 9.277068 -2.465785
v 6.190972 9.277068 -2.369035
v 6.094222 9.277068 -2.135459
v 6.190972 9.277068 -1.901884
v 6.424548 9.277068 -1.805134
v 6.658123 9.277068 -1.901884
v 6.658122 9.277068 -2.369035
v 6.754873 9.277068 -2.135459
v 6.424547 9.184744 -2.300320
v 6.541121 9.184744 -2.252033
v 6.589407 9.184744 -2.135460
v 6.541121 9.184744 -2.018886
v 6.424547 9.184744 -1.970600
v 6.307974 9.184744 -2.018886
v 6.259687 9.184744 -2.135460
v 6.307973 9.184744 -2.252034
v 4.653051 9.665366 -0.575103
v 4.805395 9.665366 -0.512000
v 4.868499 9.665366 -0.359656
v 4.805395 9.665366 -0.207313
v 4.653051 9.665366 -0.144210
v 4.500707 9.665366 -0.207313
v 4.437605 9.665366 -0.359656
v 4.500707 9.665366 -0.512000
v 4.699186 10.243446 -0.405790
v 4.805396 10.034660 -0.512000
v 4.752291 10.224854 -0.458895
v 4.791166 10.104042 -0.497771
v 4.653051 10.034660 -0.575103
v 4.653052 10.243446 -0.424899
v 4.653051 10.104042 -0.554980
v 4.653052 10.224854 -0.500001
v 4.718295 10.243446 -0.359656
v 4.868499 10.034660 -0.359656
v 4.793396 10.224854 -0.359656
v 4.848375 10.104042 -0.359656
v 4.699186 10.243446 -0.313523
v 4.805396 10.034660 -0.207313
v 4.752291 10.224854 -0.260418
v 4.791166 10.104042 -0.221542
v 4.653052 10.243446 -0.294414
v 4.653051 10.034660 -0.144210
v 4.653052 10.224854 -0.219312
v 4.653051 10.104042 -0.164333
v 4.606918 10.243446 -0.313523
v 4.500708 10.034660 -0.207313
v 4.553813 10.224854 -0.260418
v 4.514938 10.104042 -0.221542
v 4.587809 10.243446 -0.359656
v 4.437605 10.034660 -0.359656
v 4.512707 10.224854 -0.359656
v 4.457728 10.104042 -0.359656
v 4.606918 10.243446 -0.405790
v 4.500708 10.034660 -0.512000
v 4.553813 10.224854 -0.458895
v 4.514938 10.104042 -0.497771
vn -0.0000 1.0000 -0.0000
vn 0.1548 -0.9145 -0.3738
vn 0.2706 -0.7071 -0.6533
vn 0.3500 -0.4046 -0.8449
vn 0.3738 -0.9145 -0.1548
vn 0.6533 -0.7071 -0.2706
vn 0.8449 -0.4046 -0.3500
vn 0.3738 -0.9145 0.1548
vn 0.6533 -0.7071 0.2706
vn 0.8449 -0.4046 0.3500
vn 0.1548 -0.9145 0.3738
vn 0.2706 -0.7071 0.6533
vn 0.3500 -0.4046 0.8449
vn -0.1548 -0.9145 0.3738
vn -0.2706 -0.7071 0.6533
vn -0.3500 -0.4046 0.8449
vn -0.3738 -0.9145 0.1548
vn -0.6533 -0.7071 0.2706
vn -0.8449 -0.4046 0.3500
vn -0.3738 -0.9145 -0.1548
vn -0.6533 -0.7071 -0.2706
vn -0.8449 -0.4046 -0.3500
vn -0.1548 -0.9145 -0.3738
vn -0.2706 -0.7071 -0.6533
vn -0.3500 -0.4046 -0.8449
vn -0.0000 -1.0000 -0.0000
vn 0.3827 -0.0000 -0.9239
vn -0.3827 -0.0000 -0.9239
vn 0.9239 -0.0000 -0.3827
vn 0.9239 -0.0000 0.3827
vn 0.3827 -0.0000 0.9239
vn -0.3827 -0.0000 0.9239
vn -0.9239 -0.0000 0.3827
vn -0.9239 -0.0000 -0.3827
vn 1.0000 -0.0000 -0.0000
vn 0.7071 -0.0000 0.7071
vn -0.0000 -0.0000 -1.0000
vn 0.7071 -0.0000 -0.7071
vn -1.0000 -0.0000 -0.0000
vn -0.7071 -0.0000 -0.7071
vn -0.0000 -0.0000 1.0000
vn -0.7071 -0.0000 0.7071
vn -0.0986 0.9943 -0.0408
vn -0.0408 -0.9943 -0.0985
vn -0.0000 -0.9943 0.1070
vn -0.0408 0.9943 -0.0986
vn 0.0757 -0.9943 0.0757
vn 0.0985 -0.9943 -0.0408
vn -0.0000 0.9943 0.1071
vn 0.0986 0.9943 -0.0408
vn -0.0000 -0.9943 -0.1070
vn 0.0985 -0.9943 0.0408
vn -0.0757 0.9943 0.0757
vn 0.0986 0.9943 0.0408
vn -0.0000 0.9943 -0.1071
vn 0.0408 -0.9943 0.0985
vn -0.1070 -0.9943 -0.0000
vn -0.0757 -0.9943 0.0757
vn 0.0408 0.9943 0.0986
vn 0.0757 0.9943 -0.0757
vn -0.0408 -0.9943 0.0985
vn -0.1071 0.9943 -0.0000
vn 0.1070 -0.9943 -0.0000
vn -0.0408 0.9943 0.0986
vn 0.0757 -0.9943 -0.0757
vn -0.0985 -0.9943 0.0408
vn -0.0757 0.9943 -0.0757
vn 0.1071 0.9942 -0.0000
vn -0.0986 0.9943 0.0408
vn 0.0408 -0.9943 -0.0985
vn -0.0985 -0.9943 -0.0408
vn -0.0757 -0.9943 -0.0757
vn 0.0408 0.9943 -0.0986
vn 0.0757 0.9943 0.0757
vn 0.1978 -0.8560 -0.4776
vn 0.4776 -0.8560 0.1978
vn -0.1978 -0.8560 0.4776
vn -0.4776 -0.8560 -0.1978
vn -0.8869 -0.2801 -0.3674
vn -0.1978 -0.8560 -0.4776
vn -0.4776 -0.8560 0.1978
vn 0.1978 -0.8560 0.4776
vn 0.4776 -0.8560 -0.1978
vn -0.3212 0.5436 0.7754
vn -0.3674 -0.2801 0.8869
vn 0.8869 -0.2801 0.3674
vn 0.3674 -0.2801 -0.8869
vn -0.3674 -0.2801 -0.8869
vn -0.8869 -0.2801 0.3674
vn 0.3674 -0.2801 0.8869
vn 0.8869 -0.2801 -0.3674
vn -0.6869 0.6687 0.2845
vn 0.7754 0.5436 0.3212
vn 0.3212 0.5436 -0.7754
vn -0.3212 0.5436 -0.7754
vn -0.7754 0.5436 0.3212
vn 0.3212 0.5436 0.7754
vn 0.7754 0.5436 -0.3212
vn -0.7754 0.5436 -0.3212
vn 0.3349 -0.4841 -0.8084
vn 0.2845 0.6687 0.6869
vn 0.6869 0.6687 -0.2845
vn -0.6869 0.6687 -0.2845
vn -0.2845 0.6687 0.6869
vn 0.6869 0.6687 0.2845
vn 0.2845 0.6687 -0.6869
vn -0.2845 0.6687 -0.6869
vn -0.8831 -0.2940 -0.3658
vn -0.3348 -0.4841 -0.8084
vn -0.8084 -0.4841 0.3349
vn 0.3348 -0.4841 0.8084
vn 0.8084 -0.4841 -0.3349
vn -0.8084 -0.4841 -0.3349
vn -0.3348 -0.4841 0.8084
vn 0.8084 -0.4841 0.3349
vn 0.9199 -0.0932 -0.3810
vn -0.3658 -0.2940 0.8831
vn 0.8831 -0.2940 0.3658
vn 0.3658 -0.2940 -0.8831
vn -0.3658 -0.2940 -0.8831
vn -0.8831 -0.2939 0.3658
vn 0.3658 -0.2939 0.8831
vn 0.8831 -0.2940 -0.3658
vn -0.3201 -0.5480 -0.7728
vn -0.9199 -0.0932 -0.3810
vn -0.3810 -0.0932 0.9199
vn 0.9199 -0.0932 0.3810
vn 0.3810 -0.0932 -0.9199
vn -0.3810 -0.0932 -0.9199
vn -0.9199 -0.0932 0.3810
vn 0.3810 -0.0932 0.9199
vn -0.7727 -0.5481 0.3201
vn 0.3201 -0.5479 0.7728
vn 0.7729 -0.5478 -0.3202
vn -0.7727 -0.5481 -0.3201
vn -0.3201 -0.5480 0.7728
vn 0.7729 -0.5478 0.3202
vn 0.3201 -0.5479 -0.7728
vn -0.8084 -0.4841 0.3348
vn 0.3349 -0.4841 0.8084
vn -0.8831 -0.2940 0.3658
vn 0.3658 -0.2940 0.8831
vn -0.6869 0.6688 -0.2845
vn 0.9198 -0.0932 -0.3810
vn 0.8831 -0.2939 0.3658
vn 0.8831 -0.2939 -0.3658
vn 0.9198 -0.0932 0.3810
vn 0.3202 -0.5479 0.7729
vn 0.3202 -0.5479 -0.7729
vn 0.3201 -0.5479 0.7729
vn 0.3201 -0.5479 -0.7729
vn 0.7729 -0.5478 0.3201
vn 0.3201 -0.5478 0.7729
vn -0.7728 -0.5480 0.3201
vn -0.3658 -0.2939 0.8831
vn 0.7729 -0.5479 -0.3201
vn -0.3201 -0.5479 0.7729
vn 0.3201 -0.5480 -0.7728
vn -0.3201 -0.5481 -0.7727
vn 0.8084 -0.4841 0.3348
vn -0.3658 -0.2939 -0.8831
vn -0.3349 -0.4841 -0.8084
vn -0.3349 -0.4841 0.8084
vn 0.8084 -0.4841 -0.3348
vn 0.3348 -0.4841 -0.8084
vn 0.3202 -0.5478 0.7729
vn 0.7728 -0.5479 -0.3201
vn 0.3658 -0.2939 -0.8831
vn 0.3696 0.2588 -0.8924
vn 0.3528 0.3876 -0.8517
vn 0.0991 0.9659 -0.2391
vn 0.8924 0.2588 -0.3696
vn 0.8517 0.3876 -0.3528
vn 0.2391 0.9659 -0.0990
vn 0.8924 0.2588 0.3696
vn 0.8517 0.3876 0.3528
vn 0.2391 0.9659 0.0990
vn 0.3696 0.2588 0.8924
vn 0.3528 0.3876 0.8517
vn 0.0991 0.9659 0.2391
vn -0.3696 0.2588 0.8924
vn -0.3528 0.3876 0.8517
vn -0.0991 0.9659 0.2391
vn -0.8924 0.2588 0.3696
vn -0.8517 0.3876 0.3528
vn -0.2391 0.9659 0.0991
vn -0.8924 0.2588 -0.3696
vn -0.8517 0.3876 -0.3528
vn -0.2391 0.9659 -0.0991
vn -0.3696 0.2588 -0.8924
vn -0.3528 0.3876 -0.8517
vn -0.0991 0.9659 -0.2391
vt 0.556143 0.988465
vt 0.552796 0.985119
vt 0.552796 0.980387
vt 0.556143 0.977040
vt 0.560875 0.977040
vt 0.564221 0.980387
vt 0.564221 0.985119
vt 0.560875 0.988465
vt 0.756660 0.373944
vt 0.710958 0.373944
vt 0.718465 0.355821
vt 0.749153 0.355821
vt 0.941171 0.333074
vt 0.939186 0.361426
vt 0.923562 0.350701
vt 0.924796 0.333074
vt 0.904663 0.344565
vt 0.905467 0.333074
vt 0.678642 0.341628
vt 0.696765 0.334122
vt 0.939186 0.248018
vt 0.941171 0.276370
vt 0.924796 0.276370
vt 0.923562 0.258743
vt 0.905467 0.276370
vt 0.904663 0.264879
vt 0.678642 0.295927
vt 0.696765 0.303433
vt 0.939186 0.304722
vt 0.923562 0.293997
vt 0.904663 0.287861
vt 0.710958 0.263611
vt 0.718465 0.281734
vt 0.939186 0.361426
vt 0.941171 0.389778
vt 0.924796 0.389778
vt 0.923562 0.372151
vt 0.905467 0.389778
vt 0.904663 0.378287
vt 0.756660 0.263611
vt 0.749153 0.281734
vt 0.939186 0.418130
vt 0.923562 0.407405
vt 0.904663 0.401269
vt 0.788976 0.295927
vt 0.770853 0.303433
vt 0.939186 0.418130
vt 0.941171 0.446482
vt 0.924796 0.446482
vt 0.923562 0.428855
vt 0.905467 0.446482
vt 0.904663 0.434991
vt 0.788976 0.341628
vt 0.770853 0.334122
vt 0.939186 0.474834
vt 0.923562 0.464109
vt 0.904663 0.457973
vt 0.939186 0.304722
vt 0.923562 0.315447
vt 0.904663 0.321583
vt 0.962403 0.845679
vt 0.949966 0.845679
vt 0.941171 0.836884
vt 0.941171 0.824446
vt 0.949966 0.815651
vt 0.962403 0.815651
vt 0.971198 0.824446
vt 0.971198 0.836884
vt 0.907618 0.517057
vt 0.927801 0.517057
vt 0.924846 0.559280
vt 0.904663 0.559280
vt 0.904663 0.474834
vt 0.924846 0.474834
vt 0.904663 0.643726
vt 0.924846 0.643726
vt 0.927801 0.685949
vt 0.907618 0.685949
vt 0.924846 0.728172
vt 0.904663 0.728172
vt 0.904663 0.559280
vt 0.924846 0.559280
vt 0.927801 0.601503
vt 0.907618 0.601503
vt 0.924846 0.643726
vt 0.904663 0.643726
vt 0.904663 0.728172
vt 0.927801 0.770395
vt 0.907618 0.770395
vt 0.924846 0.812618
vt 0.904663 0.812618
vt 0.549450 0.988465
vt 0.544717 0.988465
vt 0.541371 0.985119
vt 0.541371 0.980387
vt 0.544717 0.977040
vt 0.549450 0.977040
vt 0.552796 0.980387
vt 0.552796 0.985119
vt 0.949915 0.494043
vt 0.945543 0.493737
vt 0.945543 0.386840
vt 0.949915 0.387146
vt 0.949915 0.601246
vt 0.945543 0.600940
vt 0.945543 0.494043
vt 0.949915 0.494349
vt 0.949915 0.815651
vt 0.945543 0.815345
vt 0.945543 0.708449
vt 0.949915 0.708755
vt 0.949915 0.708448
vt 0.945543 0.708142
vt 0.945543 0.601246
vt 0.949915 0.601552
vt 0.941171 0.708448
vt 0.941171 0.601552
vt 0.941171 0.494043
vt 0.941171 0.387146
vt 0.941171 0.601246
vt 0.941171 0.494349
vt 0.941171 0.815651
vt 0.941171 0.708755
vt 0.555964 0.569843
vt 0.555964 0.668351
vt 0.506068 0.668351
vt 0.506068 0.569843
vt 0.488520 0.820558
vt 0.500290 0.750902
vt 0.550186 0.750902
vt 0.538416 0.820558
vt 0.678642 0.489729
vt 0.675165 0.588176
vt 0.625300 0.586415
vt 0.628777 0.487968
vt 0.500290 0.487292
vt 0.488520 0.417635
vt 0.538416 0.417636
vt 0.550186 0.487292
vt 0.734316 0.082551
vt 0.734316 0.181059
vt 0.684420 0.181060
vt 0.684420 0.082551
vt 0.625917 0.405264
vt 0.616613 0.335236
vt 0.666477 0.336998
vt 0.675781 0.407026
vt 0.620089 0.252940
vt 0.616612 0.154493
vt 0.666477 0.152732
vt 0.669954 0.251179
vt 0.678642 0.000000
vt 0.669338 0.070028
vt 0.619473 0.071790
vt 0.628777 0.001762
vt 0.678642 0.333474
vt 0.628777 0.335236
vt 0.678642 0.000000
vt 0.728538 -0.000000
vt 0.728538 0.263611
vt 0.678642 0.263611
vt 0.666477 0.670472
vt 0.616612 0.668711
vt 0.536589 0.259870
vt 0.488520 0.259870
vt 0.488520 0.157765
vt 0.536589 0.157765
vt 0.506708 0.000000
vt 0.554778 0.000000
vt 0.542578 0.072200
vt 0.494509 0.072200
vt 0.604004 0.536387
vt 0.555964 0.534690
vt 0.559568 0.432648
vt 0.607607 0.434345
vt 0.494509 0.345436
vt 0.542578 0.345436
vt 0.554778 0.417635
vt 0.506708 0.417635
vt 0.604003 0.189039
vt 0.555964 0.187343
vt 0.559568 0.085301
vt 0.607607 0.086997
vt 0.558929 0.620414
vt 0.606969 0.622110
vt 0.616612 0.694695
vt 0.568573 0.692999
vt 0.664682 0.858144
vt 0.616613 0.858144
vt 0.616613 0.756038
vt 0.664682 0.756038
vt 0.558929 0.273066
vt 0.606969 0.274763
vt 0.616613 0.347348
vt 0.568573 0.345651
vt 0.670671 0.670473
vt 0.622601 0.670473
vt 0.670671 0.943710
vt 0.622601 0.943709
vt 0.616613 0.001697
vt 0.568573 0.000000
vt 0.616612 0.349044
vt 0.568573 0.347348
vt 0.008605 0.782034
vt 0.042799 0.864585
vt 0.035442 0.869398
vt 0.000000 0.783833
vt 0.112454 0.445721
vt 0.195006 0.479915
vt 0.193207 0.488520
vt 0.107642 0.453077
vt 0.445721 0.112454
vt 0.376065 0.042798
vt 0.380878 0.035442
vt 0.453077 0.107641
vt 0.112454 0.934241
vt 0.195005 0.968435
vt 0.193207 0.977040
vt 0.107642 0.941598
vt 0.293514 0.008605
vt 0.195006 0.008605
vt 0.193207 -0.000000
vt 0.295313 -0.000000
vt 0.042798 0.112454
vt 0.008605 0.195006
vt 0.000000 0.193207
vt 0.035442 0.107642
vt 0.293514 0.497125
vt 0.195005 0.497125
vt 0.193207 0.488520
vt 0.295312 0.488520
vt 0.445721 0.864585
vt 0.479914 0.782034
vt 0.488520 0.783833
vt 0.453077 0.869398
vt 0.042799 0.376065
vt 0.035442 0.380878
vt 0.112454 0.042798
vt 0.107642 0.035442
vt 0.112454 0.531319
vt 0.042799 0.600975
vt 0.035442 0.596162
vt 0.107642 0.523962
vt 0.479914 0.683526
vt 0.445721 0.600975
vt 0.453077 0.596162
vt 0.488520 0.681727
vt 0.293514 0.968435
vt 0.295312 0.977040
vt 0.376065 0.445721
vt 0.445721 0.376065
vt 0.453078 0.380878
vt 0.380878 0.453077
vt 0.479915 0.293514
vt 0.479915 0.195006
vt 0.488520 0.193207
vt 0.488520 0.295313
vt 0.376065 0.531319
vt 0.380878 0.523963
vt 0.376065 0.934241
vt 0.380878 0.941598
vt 0.008605 0.683526
vt 0.000000 0.681727
vt 0.008605 0.293514
vt 0.000000 0.295313
vt 0.293514 0.479915
vt 0.295313 0.488520
vt 0.825242 0.225374
vt 0.834029 0.216587
vt 0.849083 0.222823
vt 0.831478 0.240428
vt 0.804030 0.216587
vt 0.812817 0.225374
vt 0.806581 0.240428
vt 0.788976 0.222823
vt 0.812817 0.195375
vt 0.804030 0.204162
vt 0.788976 0.197926
vt 0.806581 0.180321
vt 0.834029 0.204162
vt 0.825242 0.195375
vt 0.831478 0.180321
vt 0.849083 0.197926
vt 0.406029 0.988520
vt 0.405225 1.000000
vt 0.391920 0.997096
vt 0.392520 0.988520
vt 0.849083 0.343037
vt 0.831478 0.360642
vt 0.806581 0.360642
vt 0.788976 0.343037
vt 0.788976 0.318140
vt 0.806581 0.300535
vt 0.831478 0.300535
vt 0.849083 0.318140
vt 0.083166 0.988520
vt 0.082565 0.997096
vt 0.077339 0.999969
vt 0.078141 0.988520
vt 0.096674 0.988520
vt 0.095870 1.000000
vt 0.077339 0.988520
vt 0.076536 1.000000
vt 0.063231 0.997096
vt 0.063831 0.988520
vt 0.116009 0.988520
vt 0.115205 1.000000
vt 0.101900 0.997096
vt 0.102500 0.988520
vt 0.115205 0.977040
vt 0.101900 0.979944
vt 0.405225 0.977040
vt 0.391920 0.979944
vt 0.095870 0.977040
vt 0.082565 0.979944
vt 0.076536 0.977040
vt 0.063231 0.979944
vt 0.965713 0.133387
vt 0.953320 0.133387
vt 0.951917 0.130000
vt 0.967115 0.130000
vt 0.058004 0.999969
vt 0.058806 0.988520
vt 0.096674 0.999969
vt 0.097475 0.988520
vt 0.096674 0.977071
vt 0.387495 0.988520
vt 0.386694 0.977071
vt 0.077339 0.977071
vt 0.058004 0.977071
vt 0.386694 0.999969
vt 0.862836 0.249067
vt 0.876873 0.248019
vt 0.875519 0.253635
vt 0.863630 0.254523
vt 0.974475 0.154542
vt 0.974475 0.142149
vt 0.977862 0.140747
vt 0.977862 0.155945
vt 0.953320 0.163305
vt 0.965713 0.163305
vt 0.967115 0.166691
vt 0.951917 0.166691
vt 0.944557 0.142149
vt 0.941171 0.140747
vt 0.944557 0.154542
vt 0.941171 0.155945
vt 0.803523 0.449819
vt 0.815412 0.448931
vt 0.813439 0.473180
vt 0.806991 0.473661
vt 0.849083 0.252061
vt 0.851980 0.257058
vt 0.788976 0.447357
vt 0.802729 0.444364
vt 0.791873 0.452355
vt 0.849083 0.496037
vt 0.863119 0.497086
vt 0.862326 0.502541
vt 0.850437 0.501653
vt 0.904663 0.086715
vt 0.918416 0.083721
vt 0.919210 0.089177
vt 0.907560 0.091712
vt 0.816766 0.443315
vt 0.876873 0.500079
vt 0.873976 0.505077
vt 0.932453 0.082673
vt 0.931099 0.088289
vt 0.916360 0.114394
vt 0.922678 0.113019
vt 0.929282 0.158426
vt 0.926176 0.159102
vt 0.865176 0.527758
vt 0.858858 0.526383
vt 0.929126 0.112537
vt 0.873546 0.277883
vt 0.867098 0.278365
vt 0.860780 0.279740
vt 0.800673 0.475037
vt 0.852410 0.525902
vt 0.870596 0.324448
vt 0.873702 0.323772
vt 0.874711 0.330692
vt 0.816766 0.518832
vt 0.813595 0.519069
vt 0.855360 0.572467
vt 0.852253 0.571791
vt 0.932453 0.158189
vt 0.876873 0.323535
vt 0.810489 0.519745
vt 0.849083 0.571554
vt 0.814602 0.525989
vt 0.851245 0.578710
vt 0.930289 0.165345
vt 0.714908 0.659425
vt 0.723695 0.650639
vt 0.738749 0.656875
vt 0.721144 0.674479
vt 0.693696 0.650639
vt 0.702483 0.659425
vt 0.696247 0.674479
vt 0.678642 0.656875
vt 0.702483 0.629427
vt 0.693696 0.638213
vt 0.678642 0.631977
vt 0.696247 0.614372
vt 0.723695 0.638213
vt 0.714908 0.629427
vt 0.721144 0.614373
vt 0.738749 0.631977
vt 0.135343 0.988520
vt 0.134540 1.000000
vt 0.121235 0.997096
vt 0.121835 0.988520
vt 0.738749 0.716982
vt 0.721144 0.734587
vt 0.696247 0.734587
vt 0.678642 0.716982
vt 0.678642 0.692085
vt 0.696247 0.674480
vt 0.721144 0.674480
vt 0.738749 0.692084
vt 0.141170 0.988520
vt 0.140569 0.997096
vt 0.135343 0.999969
vt 0.136145 0.988520
vt 0.154678 0.988520
vt 0.153874 1.000000
vt 0.960506 0.905656
vt 0.959702 0.917136
vt 0.946397 0.914232
vt 0.946997 0.905656
vt 0.464033 0.988520
vt 0.463229 1.000000
vt 0.449924 0.997096
vt 0.450524 0.988520
vt 0.463229 0.977040
vt 0.449924 0.979944
vt 0.134540 0.977040
vt 0.121235 0.979944
vt 0.153874 0.977040
vt 0.140569 0.979944
vt 0.959702 0.894176
vt 0.946397 0.897080
vt 0.944558 0.191233
vt 0.953320 0.199996
vt 0.951918 0.203383
vt 0.941171 0.192636
vt 0.941171 0.917105
vt 0.941972 0.905656
vt 0.444698 0.999969
vt 0.445499 0.988520
vt 0.444698 0.977071
vt 0.116810 0.988520
vt 0.116008 0.977071
vt 0.135343 0.977071
vt 0.941171 0.894207
vt 0.116008 0.999969
vt 0.862836 0.827777
vt 0.876873 0.826728
vt 0.875519 0.832344
vt 0.863630 0.833232
vt 0.953321 0.170078
vt 0.944558 0.178841
vt 0.941171 0.177438
vt 0.951918 0.166691
vt 0.974476 0.178841
vt 0.965713 0.170078
vt 0.967116 0.166691
vt 0.977862 0.177438
vt 0.965713 0.199996
vt 0.967116 0.203383
vt 0.974476 0.191233
vt 0.977862 0.192636
vt 0.803523 0.367146
vt 0.815412 0.366258
vt 0.813439 0.390506
vt 0.806991 0.390988
vt 0.849083 0.830770
vt 0.851980 0.835768
vt 0.788976 0.364684
vt 0.802729 0.361690
vt 0.791873 0.369682
vt 0.849083 0.330692
vt 0.863119 0.331740
vt 0.862326 0.337196
vt 0.850436 0.336308
vt 0.876873 0.582751
vt 0.890626 0.579757
vt 0.891420 0.585212
vt 0.879770 0.587748
vt 0.816766 0.360642
vt 0.876873 0.334734
vt 0.873975 0.339731
vt 0.904663 0.578708
vt 0.903309 0.584324
vt 0.888570 0.610430
vt 0.894888 0.609054
vt 0.901492 0.654462
vt 0.898386 0.655138
vt 0.865176 0.362413
vt 0.858858 0.361038
vt 0.901336 0.608573
vt 0.873546 0.856593
vt 0.867098 0.857074
vt 0.860780 0.858449
vt 0.800673 0.392363
vt 0.852410 0.360556
vt 0.870596 0.903158
vt 0.873703 0.902482
vt 0.874711 0.909401
vt 0.816766 0.436159
vt 0.813595 0.436395
vt 0.855360 0.407121
vt 0.852253 0.406445
vt 0.904663 0.654225
vt 0.876873 0.902245
vt 0.810489 0.437072
vt 0.849083 0.406208
vt 0.814602 0.443315
vt 0.851245 0.413364
vt 0.902499 0.661381
vt 0.693696 0.758427
vt 0.693696 0.770853
vt 0.678642 0.777089
vt 0.678642 0.752191
vt 0.714909 0.749641
vt 0.702483 0.749641
vt 0.696247 0.734587
vt 0.721144 0.734586
vt 0.723695 0.770853
vt 0.723695 0.758427
vt 0.738749 0.752191
vt 0.738749 0.777089
vt 0.702483 0.779639
vt 0.714908 0.779639
vt 0.721144 0.794693
vt 0.696247 0.794693
vt 0.270686 0.988520
vt 0.269882 1.000000
vt 0.256577 0.997096
vt 0.257178 0.988520
vt 0.738749 0.812298
vt 0.738749 0.837196
vt 0.721144 0.854801
vt 0.696247 0.854800
vt 0.678642 0.837196
vt 0.678642 0.812298
vt 0.696247 0.794694
vt 0.721144 0.794694
vt 0.489194 0.988520
vt 0.488593 0.997096
vt 0.483367 0.999969
vt 0.484168 0.988520
vt 0.502702 0.988520
vt 0.501898 1.000000
vt 0.019335 0.988520
vt 0.018531 1.000000
vt 0.005226 0.997096
vt 0.005827 0.988520
vt 0.522036 0.988520
vt 0.521233 1.000000
vt 0.507928 0.997096
vt 0.508528 0.988520
vt 0.521233 0.977040
vt 0.507928 0.979944
vt 0.269882 0.977040
vt 0.256577 0.979944
vt 0.501898 0.977040
vt 0.488593 0.979944
vt 0.018531 0.977040
vt 0.005226 0.979944
vt 0.944558 0.227925
vt 0.953320 0.236687
vt 0.951917 0.240074
vt 0.941171 0.229328
vt -0.000000 0.999969
vt 0.000801 0.988520
vt 0.502702 0.999969
vt 0.503503 0.988520
vt 0.502702 0.977071
vt 0.252153 0.988520
vt 0.251351 0.977071
vt 0.483367 0.977071
vt -0.000000 0.977071
vt 0.251351 0.999969
vt 0.890626 0.166394
vt 0.904663 0.165345
vt 0.903309 0.170961
vt 0.891420 0.171849
vt 0.953320 0.206770
vt 0.944558 0.215532
vt 0.941171 0.214129
vt 0.951918 0.203383
vt 0.974476 0.215532
vt 0.965713 0.206770
vt 0.967116 0.203383
vt 0.977862 0.214130
vt 0.965713 0.236688
vt 0.967116 0.240074
vt 0.974476 0.227925
vt 0.977862 0.229328
vt 0.803523 0.532492
vt 0.815412 0.531604
vt 0.813439 0.555853
vt 0.806991 0.556334
vt 0.876873 0.169387
vt 0.879770 0.174385
vt 0.788976 0.530031
vt 0.802729 0.527037
vt 0.791873 0.535028
vt 0.849083 0.661382
vt 0.863119 0.662431
vt 0.862326 0.667886
vt 0.850437 0.666998
vt 0.876873 0.665423
vt 0.890626 0.662430
vt 0.891420 0.667885
vt 0.879770 0.670421
vt 0.816766 0.525988
vt 0.876873 0.665425
vt 0.873975 0.670422
vt 0.904663 0.661381
vt 0.903309 0.666997
vt 0.888570 0.693102
vt 0.894888 0.691727
vt 0.901492 0.737135
vt 0.898386 0.737811
vt 0.865176 0.693104
vt 0.858858 0.691728
vt 0.901336 0.691246
vt 0.901336 0.195210
vt 0.894888 0.195691
vt 0.888570 0.197066
vt 0.800673 0.557710
vt 0.852410 0.691247
vt 0.898386 0.241775
vt 0.901493 0.241099
vt 0.902501 0.248018
vt 0.816766 0.601505
vt 0.813595 0.601742
vt 0.855360 0.737812
vt 0.852253 0.737136
vt 0.904663 0.736898
vt 0.904663 0.240862
vt 0.810489 0.602418
vt 0.849083 0.736899
vt 0.814602 0.608662
vt 0.851245 0.744055
vt 0.902499 0.744054
vt 0.693696 0.517999
vt 0.693696 0.530425
vt 0.678642 0.536661
vt 0.678642 0.511763
vt 0.714908 0.509213
vt 0.702483 0.509213
vt 0.696247 0.494158
vt 0.721144 0.494158
vt 0.723695 0.530425
vt 0.723695 0.517999
vt 0.738749 0.511763
vt 0.738749 0.536661
vt 0.702483 0.539211
vt 0.714908 0.539211
vt 0.721144 0.554265
vt 0.696247 0.554265
vt 0.290021 0.988520
vt 0.289217 1.000000
vt 0.275912 0.997096
vt 0.276512 0.988520
vt 0.738749 0.596767
vt 0.721144 0.614372
vt 0.696247 0.614372
vt 0.678642 0.596767
vt 0.678642 0.571870
vt 0.696247 0.554265
vt 0.721144 0.554265
vt 0.738749 0.571870
vt 0.477541 0.988520
vt 0.478141 0.979944
vt 0.483367 0.977071
vt 0.482566 0.988520
vt 0.464033 0.988520
vt 0.464836 0.977040
vt 0.038670 0.988520
vt 0.037866 1.000000
vt 0.024561 0.997096
vt 0.025161 0.988520
vt 0.309355 0.988520
vt 0.308552 1.000000
vt 0.295247 0.997096
vt 0.295847 0.988520
vt 0.308552 0.977040
vt 0.295247 0.979944
vt 0.289217 0.977040
vt 0.275912 0.979944
vt 0.464836 1.000000
vt 0.478141 0.997096
vt 0.037866 0.977040
vt 0.024561 0.979944
vt 0.965713 0.280152
vt 0.953320 0.280152
vt 0.951917 0.276766
vt 0.967115 0.276766
vt 0.019335 0.999969
vt 0.020136 0.988520
vt 0.290021 0.999969
vt 0.290822 0.988520
vt 0.290021 0.977071
vt 0.271487 0.988520
vt 0.270686 0.977071
vt 0.483367 0.999969
vt 0.019335 0.977071
vt 0.270686 0.999969
vt 0.890626 0.249066
vt 0.904663 0.248018
vt 0.903309 0.253634
vt 0.891420 0.254522
vt 0.974475 0.301308
vt 0.974475 0.288915
vt 0.977862 0.287512
vt 0.977862 0.302710
vt 0.953320 0.310070
vt 0.965713 0.310070
vt 0.967115 0.313457
vt 0.951917 0.313457
vt 0.944557 0.288915
vt 0.941171 0.287512
vt 0.944557 0.301308
vt 0.941171 0.302711
vt 0.802219 0.615166
vt 0.813869 0.617701
vt 0.805069 0.640383
vt 0.798751 0.639008
vt 0.876873 0.252060
vt 0.879770 0.257057
vt 0.788976 0.608662
vt 0.803012 0.609710
vt 0.790330 0.614278
vt 0.849083 0.744055
vt 0.863119 0.745104
vt 0.862326 0.750559
vt 0.850437 0.749671
vt 0.876873 0.748096
vt 0.890626 0.745102
vt 0.891420 0.750558
vt 0.879770 0.753094
vt 0.816766 0.612704
vt 0.876873 0.748097
vt 0.873976 0.753095
vt 0.904663 0.744054
vt 0.903309 0.749670
vt 0.888570 0.775775
vt 0.894888 0.774400
vt 0.901493 0.819807
vt 0.898386 0.820484
vt 0.865176 0.775777
vt 0.858858 0.774401
vt 0.901336 0.773918
vt 0.901336 0.277882
vt 0.894888 0.278364
vt 0.888570 0.279739
vt 0.792303 0.638526
vt 0.852410 0.773920
vt 0.898386 0.324447
vt 0.901492 0.323771
vt 0.902501 0.330690
vt 0.795253 0.685091
vt 0.792146 0.684415
vt 0.855360 0.820485
vt 0.852253 0.819809
vt 0.904663 0.819571
vt 0.904663 0.323534
vt 0.788976 0.684178
vt 0.849083 0.819572
vt 0.791140 0.691335
vt 0.851245 0.826728
vt 0.902499 0.826727
vt 0.860780 0.031721
vt 0.867098 0.030346
vt 0.873703 0.075753
vt 0.870596 0.076429
vt 0.873546 0.029864
vt 0.876873 0.075516
vt 0.929282 0.075753
vt 0.932453 0.075517
vt 0.930290 0.082673
vt 0.876873 0.406207
vt 0.880043 0.406444
vt 0.879036 0.413363
vt 0.788976 0.766852
vt 0.792146 0.767088
vt 0.791139 0.774008
vt 0.890116 0.337194
vt 0.901765 0.339730
vt 0.892966 0.362412
vt 0.886648 0.361036
vt 0.919210 0.006504
vt 0.931099 0.005616
vt 0.929126 0.029864
vt 0.922678 0.030346
vt 0.926176 0.076430
vt 0.795253 0.767765
vt 0.880200 0.360555
vt 0.883150 0.407120
vt 0.798751 0.721681
vt 0.805069 0.723056
vt 0.792303 0.721199
vt 0.874710 0.082673
vt 0.916360 0.031721
vt 0.953320 0.273379
vt 0.965713 0.273379
vt 0.967116 0.276766
vt 0.951918 0.276766
vt 0.878227 0.336306
vt 0.802219 0.697839
vt 0.813868 0.700375
vt 0.907560 0.009040
vt 0.876873 0.330690
vt 0.890909 0.331739
vt 0.790330 0.696951
vt 0.863630 0.006504
vt 0.875519 0.005616
vt 0.788976 0.691335
vt 0.803012 0.692384
vt 0.974476 0.252224
vt 0.965713 0.243461
vt 0.967116 0.240074
vt 0.977862 0.250821
vt 0.862836 0.001048
vt 0.876873 -0.000000
vt 0.918416 0.001048
vt 0.932453 0.000000
vt 0.974476 0.264616
vt 0.977862 0.266019
vt 0.851980 0.009040
vt 0.816766 0.695377
vt 0.849083 0.004042
vt 0.904663 0.334733
vt 0.328690 0.988520
vt 0.327886 1.000000
vt 0.314581 0.997096
vt 0.315182 0.988520
vt 0.944558 0.264616
vt 0.941171 0.266019
vt 0.159904 0.979944
vt 0.160504 0.988520
vt 0.155479 0.988520
vt 0.154678 0.977071
vt 0.953320 0.243461
vt 0.951917 0.240074
vt 0.944558 0.252224
vt 0.941171 0.250821
vt 0.342198 0.988520
vt 0.342798 0.979944
vt 0.348025 0.977071
vt 0.347223 0.988520
vt 0.904663 0.004042
vt 0.174012 0.988520
vt 0.173209 1.000000
vt 0.159904 0.997096
vt 0.342798 0.997096
vt 0.348025 0.999969
vt 0.309355 0.999969
vt 0.310157 0.988520
vt 0.154678 0.999969
vt 0.328690 0.988520
vt 0.329493 0.977040
vt 0.314581 0.979944
vt 0.309355 0.977071
vt 0.179839 0.988520
vt 0.179239 0.997096
vt 0.174013 0.999969
vt 0.174814 0.988520
vt 0.806581 0.300535
vt 0.788976 0.282930
vt 0.788976 0.258033
vt 0.806581 0.240428
vt 0.831478 0.240428
vt 0.849083 0.258033
vt 0.849083 0.282930
vt 0.723695 0.878641
vt 0.714908 0.869855
vt 0.721144 0.854800
vt 0.738749 0.872405
vt 0.179239 0.979944
vt 0.174013 0.977071
vt 0.327886 0.977040
vt 0.193347 0.988520
vt 0.192544 1.000000
vt 0.329493 1.000000
vt 0.702483 0.869855
vt 0.693696 0.878641
vt 0.678642 0.872405
vt 0.696247 0.854800
vt 0.192544 0.977040
vt 0.702483 0.899853
vt 0.714908 0.899853
vt 0.721144 0.914907
vt 0.696247 0.914907
vt 0.693696 0.891067
vt 0.678642 0.897303
vt 0.723695 0.891067
vt 0.738749 0.897303
vt 0.173209 0.977040
vt 0.860780 0.114394
vt 0.867098 0.113019
vt 0.873703 0.158426
vt 0.870596 0.159102
vt 0.873546 0.112537
vt 0.876873 0.158189
vt 0.901493 0.075753
vt 0.904663 0.075517
vt 0.902500 0.082673
vt 0.876873 0.158189
vt 0.880043 0.158426
vt 0.879036 0.165345
vt 0.849083 0.488881
vt 0.852253 0.489118
vt 0.851246 0.496037
vt 0.890116 0.089177
vt 0.901765 0.091712
vt 0.892966 0.114394
vt 0.886648 0.113019
vt 0.891420 0.006504
vt 0.903309 0.005616
vt 0.901336 0.029864
vt 0.894888 0.030346
vt 0.898386 0.076430
vt 0.855360 0.489794
vt 0.880200 0.112537
vt 0.883150 0.159102
vt 0.858858 0.443710
vt 0.865176 0.445086
vt 0.852410 0.443229
vt 0.874710 0.165346
vt 0.888570 0.031721
vt 0.965713 0.126613
vt 0.974475 0.117850
vt 0.977862 0.119253
vt 0.967116 0.130000
vt 0.878227 0.088288
vt 0.862326 0.419868
vt 0.873976 0.422404
vt 0.879770 0.009040
vt 0.876873 0.082673
vt 0.890909 0.083721
vt 0.850437 0.418980
vt 0.863630 0.089177
vt 0.875519 0.088289
vt 0.849083 0.413364
vt 0.863119 0.414413
vt 0.965713 0.096695
vt 0.953320 0.096695
vt 0.951917 0.093309
vt 0.967116 0.093308
vt 0.862836 0.083721
vt 0.876873 0.082673
vt 0.890627 0.001049
vt 0.904663 0.000000
vt 0.974475 0.105458
vt 0.977862 0.104055
vt 0.851980 0.091713
vt 0.876873 0.417407
vt 0.849083 0.086715
vt 0.904663 0.086715
vt 0.541371 0.988520
vt 0.540568 1.000000
vt 0.527263 0.997096
vt 0.527863 0.988520
vt 0.953320 0.126613
vt 0.951917 0.130000
vt 0.946397 0.920039
vt 0.946997 0.928616
vt 0.941972 0.928616
vt 0.941171 0.917167
vt 0.944557 0.105458
vt 0.941171 0.104055
vt 0.944557 0.117850
vt 0.941171 0.119253
vt 0.237843 0.988520
vt 0.237243 0.997096
vt 0.232017 0.999969
vt 0.232818 0.988520
vt 0.876873 0.004042
vt 0.960506 0.928616
vt 0.959702 0.940095
vt 0.946397 0.937192
vt 0.237243 0.979944
vt 0.232017 0.977071
vt 0.522037 0.999969
vt 0.522838 0.988520
vt 0.941171 0.940065
vt 0.251351 0.988520
vt 0.250548 1.000000
vt 0.527263 0.979944
vt 0.522037 0.977071
vt 0.431190 0.988520
vt 0.430589 0.997096
vt 0.425363 0.999969
vt 0.426165 0.988520
vt 0.738749 0.416446
vt 0.721144 0.434051
vt 0.696247 0.434051
vt 0.678642 0.416446
vt 0.678642 0.391549
vt 0.696247 0.373944
vt 0.721144 0.373944
vt 0.738749 0.391549
vt 0.834029 0.096373
vt 0.834029 0.083948
vt 0.849083 0.077712
vt 0.849083 0.102609
vt 0.430589 0.979944
vt 0.425363 0.977071
vt 0.540568 0.977040
vt 0.444698 0.988520
vt 0.443895 1.000000
vt 0.250548 0.977040
vt 0.825242 0.075161
vt 0.812817 0.075161
vt 0.806581 0.060107
vt 0.831478 0.060107
vt 0.443894 0.977040
vt 0.804030 0.096373
vt 0.812817 0.105160
vt 0.806581 0.120214
vt 0.788976 0.102609
vt 0.804030 0.083948
vt 0.788976 0.077712
vt 0.825242 0.105160
vt 0.831478 0.120214
vt 0.959702 0.917136
vt 0.800673 0.888402
vt 0.806991 0.887027
vt 0.813595 0.932434
vt 0.810489 0.933111
vt 0.813439 0.886545
vt 0.816766 0.932198
vt 0.901493 0.571789
vt 0.904663 0.571553
vt 0.902500 0.578709
vt 0.849083 0.654227
vt 0.852253 0.654464
vt 0.851246 0.661383
vt 0.788976 0.849525
vt 0.792146 0.849762
vt 0.791139 0.856681
vt 0.862326 0.585214
vt 0.873976 0.587750
vt 0.865176 0.610431
vt 0.858858 0.609056
vt 0.891420 0.502540
vt 0.903309 0.501652
vt 0.901336 0.525900
vt 0.894888 0.526382
vt 0.898386 0.572466
vt 0.795253 0.850438
vt 0.852410 0.608575
vt 0.855360 0.655140
vt 0.798751 0.804354
vt 0.805069 0.805729
vt 0.792303 0.803872
vt 0.814603 0.939354
vt 0.888570 0.527757
vt 0.965713 0.346762
vt 0.974475 0.337999
vt 0.977862 0.339402
vt 0.967115 0.350149
vt 0.850437 0.584326
vt 0.802219 0.780512
vt 0.813868 0.783048
vt 0.879770 0.505076
vt 0.849083 0.578710
vt 0.863120 0.579759
vt 0.790330 0.779624
vt 0.803523 0.863185
vt 0.815412 0.862297
vt 0.788976 0.774008
vt 0.803012 0.775057
vt 0.965713 0.316844
vt 0.953320 0.316844
vt 0.951917 0.313457
vt 0.967116 0.313457
vt 0.802729 0.857730
vt 0.816766 0.856681
vt 0.890626 0.497085
vt 0.904663 0.496036
vt 0.974475 0.325607
vt 0.977862 0.324204
vt 0.791873 0.865721
vt 0.816766 0.778050
vt 0.788976 0.860723
vt 0.876873 0.582752
vt 0.212682 0.988520
vt 0.211878 1.000000
vt 0.198573 0.997096
vt 0.199174 0.988520
vt 0.953320 0.346762
vt 0.951917 0.350149
vt 0.353251 0.979944
vt 0.353851 0.988520
vt 0.348826 0.988520
vt 0.348025 0.977071
vt 0.944557 0.325607
vt 0.941171 0.324204
vt 0.944557 0.337999
vt 0.941171 0.339402
vt 0.044496 0.988520
vt 0.043896 0.997096
vt 0.038670 0.999969
vt 0.039471 0.988520
vt 0.876873 0.500078
vt 0.367359 0.988520
vt 0.366556 1.000000
vt 0.353251 0.997096
vt 0.043896 0.979944
vt 0.038670 0.977071
vt 0.193347 0.999969
vt 0.194148 0.988520
vt 0.348025 0.999969
vt 0.058004 0.988520
vt 0.057201 1.000000
vt 0.198573 0.979944
vt 0.193347 0.977071
vt 0.373186 0.988520
vt 0.372585 0.997096
vt 0.367359 0.999969
vt 0.368161 0.988520
vt 0.738749 0.957410
vt 0.721144 0.975015
vt 0.696247 0.975014
vt 0.678642 0.957409
vt 0.678642 0.932512
vt 0.696247 0.914907
vt 0.721144 0.914908
vt 0.738749 0.932513
vt 0.825242 0.135268
vt 0.812817 0.135268
vt 0.806581 0.120214
vt 0.831478 0.120214
vt 0.372585 0.979944
vt 0.367359 0.977071
vt 0.211878 0.977040
vt 0.386694 0.988520
vt 0.385890 1.000000
vt 0.057201 0.977040
vt 0.804030 0.144055
vt 0.804030 0.156480
vt 0.788976 0.162716
vt 0.788976 0.137819
vt 0.385890 0.977040
vt 0.825242 0.165267
vt 0.834029 0.156480
vt 0.849083 0.162716
vt 0.831478 0.180321
vt 0.812817 0.165267
vt 0.806581 0.180321
vt 0.834029 0.144055
vt 0.849083 0.137819
vt 0.366556 0.977040
vt 0.888570 0.445084
vt 0.894888 0.443709
vt 0.901492 0.489116
vt 0.898386 0.489792
vt 0.901336 0.443227
vt 0.904663 0.488879
vt 0.901492 0.902480
vt 0.904663 0.902243
vt 0.902500 0.909399
vt 0.904663 0.240862
vt 0.907833 0.241098
vt 0.906826 0.248018
vt 0.849083 0.240863
vt 0.852253 0.241099
vt 0.851246 0.248019
vt 0.917906 0.171849
vt 0.929555 0.174385
vt 0.920756 0.197066
vt 0.914438 0.195691
vt 0.891420 0.833230
vt 0.903309 0.832342
vt 0.901336 0.856591
vt 0.894888 0.857072
vt 0.898386 0.903156
vt 0.855360 0.241776
vt 0.907990 0.195209
vt 0.910940 0.241775
vt 0.858858 0.195692
vt 0.865176 0.197067
vt 0.852410 0.195210
vt 0.902500 0.496036
vt 0.888570 0.858447
vt 0.953320 0.383453
vt 0.965713 0.383453
vt 0.967116 0.386840
vt 0.951917 0.386840
vt 0.906017 0.170961
vt 0.862326 0.171850
vt 0.873975 0.174386
vt 0.879770 0.835766
vt 0.904663 0.165345
vt 0.918699 0.166394
vt 0.850437 0.170962
vt 0.891420 0.419867
vt 0.903309 0.418979
vt 0.849083 0.165346
vt 0.863119 0.166394
vt 0.974476 0.362298
vt 0.965713 0.353535
vt 0.967116 0.350149
vt 0.977862 0.360895
vt 0.890626 0.414411
vt 0.904663 0.413363
vt 0.890626 0.827775
vt 0.904663 0.826726
vt 0.974475 0.374691
vt 0.977862 0.376093
vt 0.879770 0.422402
vt 0.876873 0.169388
vt 0.876873 0.417405
vt 0.932453 0.169387
vt 0.425363 0.988520
vt 0.424560 1.000000
vt 0.411255 0.997097
vt 0.411855 0.988520
vt 0.944558 0.374691
vt 0.941171 0.376093
vt 0.946397 0.942999
vt 0.946997 0.951575
vt 0.941972 0.951575
vt 0.941171 0.940126
vt 0.953320 0.353535
vt 0.951917 0.350149
vt 0.944558 0.362298
vt 0.941171 0.360895
vt 0.946997 0.882696
vt 0.946397 0.891272
vt 0.941171 0.894145
vt 0.941972 0.882696
vt 0.876873 0.830768
vt 0.960506 0.951575
vt 0.959702 0.963055
vt 0.946397 0.960152
vt 0.946397 0.874120
vt 0.941171 0.871247
vt 0.406029 0.999969
vt 0.406830 0.988520
vt 0.941171 0.963024
vt 0.960506 0.882696
vt 0.959702 0.894176
vt 0.411255 0.979944
vt 0.406029 0.977071
vt 0.218508 0.988520
vt 0.217908 0.997096
vt 0.212682 0.999969
vt 0.213483 0.988520
vt 0.849083 0.042502
vt 0.831478 0.060107
vt 0.806581 0.060107
vt 0.788976 0.042502
vt 0.788976 0.017605
vt 0.806581 0.000000
vt 0.831478 0.000000
vt 0.849083 0.017605
vt 0.723695 0.470318
vt 0.723695 0.457892
vt 0.738749 0.451656
vt 0.738749 0.476553
vt 0.217908 0.979944
vt 0.212682 0.977071
vt 0.424560 0.977040
vt 0.232016 0.988520
vt 0.231213 1.000000
vt 0.959702 0.871216
vt 0.714908 0.449106
vt 0.702483 0.449106
vt 0.696247 0.434051
vt 0.721144 0.434051
vt 0.231213 0.977040
vt 0.693696 0.470318
vt 0.702483 0.479104
vt 0.696247 0.494158
vt 0.678642 0.476553
vt 0.693696 0.457892
vt 0.678642 0.451656
vt 0.714908 0.479104
vt 0.721144 0.494158
vt 0.959702 0.940095
vt 0.941171 0.065587
vt 0.952653 0.054105
vt 0.968892 0.054105
vt 0.980374 0.065587
vt 0.980374 0.081826
vt 0.968892 0.093308
vt 0.952653 0.093308
vt 0.941171 0.081826
vt 0.934668 0.884983
vt 0.919665 0.883933
vt 0.919665 0.877534
vt 0.933267 0.878486
vt 0.919665 0.866723
vt 0.929438 0.867406
vt 0.966708 0.863736
vt 0.959229 0.871216
vt 0.956398 0.864383
vt 0.959876 0.860906
vt 0.956173 0.017211
vt 0.941171 0.018261
vt 0.942572 0.011763
vt 0.956173 0.010811
vt 0.946400 0.000684
vt 0.956173 0.000000
vt 0.966708 0.853158
vt 0.959875 0.855989
vt 0.971176 0.018261
vt 0.969774 0.011763
vt 0.965946 0.000684
vt 0.959229 0.845679
vt 0.956398 0.852512
vt 0.919665 0.829828
vt 0.904663 0.830878
vt 0.906064 0.824381
vt 0.919665 0.823429
vt 0.909892 0.813302
vt 0.919665 0.812617
vt 0.948651 0.845679
vt 0.951481 0.852512
vt 0.934668 0.830878
vt 0.933266 0.824381
vt 0.929438 0.813302
vt 0.941171 0.853158
vt 0.948004 0.855989
vt 0.919665 0.938038
vt 0.904663 0.939088
vt 0.906064 0.932591
vt 0.919665 0.931639
vt 0.909893 0.921512
vt 0.919665 0.920828
vt 0.941171 0.863736
vt 0.948004 0.860906
vt 0.934668 0.939088
vt 0.933267 0.932591
vt 0.929438 0.921512
vt 0.948651 0.871216
vt 0.951481 0.864383
vt 0.904663 0.884983
vt 0.906064 0.878486
vt 0.909893 0.867407
vt 0.934668 0.920827
vt 0.919665 0.919777
vt 0.956173 0.053055
vt 0.941171 0.054105
vt 0.904663 0.920828
vt 0.971176 0.054105
vt 0.919665 0.865672
vt 0.904663 0.866722
vt 0.934668 0.866722
vt 0.919665 0.973882
vt 0.904663 0.974933
vt 0.934668 0.974933
s 0
f 49/1/1 50/2/1 56/3/1 55/4/1 54/5/1 53/6/1 52/7/1 51/8/1
f 10/9/2 14/10/2 16/11/2 12/12/2
f 12/13/3 16/14/3 15/15/3 11/16/3
f 11/16/4 15/15/4 13/17/4 9/18/4
f 14/10/5 18/19/5 20/20/5 16/11/5
f 16/21/6 20/22/6 19/23/6 15/24/6
f 15/24/7 19/23/7 17/25/7 13/26/7
f 18/19/8 22/27/8 24/28/8 20/20/8
f 20/22/9 24/29/9 23/30/9 19/23/9
f 19/23/10 23/30/10 21/31/10 17/25/10
f 22/27/11 26/32/11 28/33/11 24/28/11
f 24/34/12 28/35/12 27/36/12 23/37/12
f 23/37/13 27/36/13 25/38/13 21/39/13
f 26/32/14 30/40/14 32/41/14 28/33/14
f 28/35/15 32/42/15 31/43/15 27/36/15
f 27/36/16 31/43/16 29/44/16 25/38/16
f 30/40/17 34/45/17 36/46/17 32/41/17
f 32/47/18 36/48/18 35/49/18 31/50/18
f 31/50/19 35/49/19 33/51/19 29/52/19
f 34/45/20 38/53/20 40/54/20 36/46/20
f 36/48/21 40/55/21 39/56/21 35/49/21
f 35/49/22 39/56/22 37/57/22 33/51/22
f 38/53/23 10/9/23 12/12/23 40/54/23
f 40/58/24 12/13/24 11/16/24 39/59/24
f 39/59/25 11/16/25 9/18/25 37/60/25
f 9/61/26 13/62/26 17/63/26 21/64/26 25/65/26 29/66/26 33/67/26 37/68/26
f 10/69/27 1/70/27 2/71/27 14/72/27
f 38/73/28 8/74/28 1/70/28 10/69/28
f 14/75/29 2/76/29 3/77/29 18/78/29
f 18/78/30 3/77/30 4/79/30 22/80/30
f 22/81/31 4/82/31 5/83/31 26/84/31
f 26/84/32 5/83/32 6/85/32 30/86/32
f 30/87/33 6/79/33 7/88/33 34/89/33
f 34/89/34 7/88/34 8/90/34 38/91/34
f 42/92/26 43/93/26 44/94/26 45/95/26 46/96/26 47/97/26 48/98/26 41/99/26
f 48/100/34 47/101/34 55/102/34 56/103/34
f 46/104/32 45/105/32 53/106/32 54/107/32
f 44/108/30 43/109/30 51/110/30 52/111/30
f 42/112/27 41/113/27 50/114/27 49/115/27
f 41/113/28 48/116/28 56/117/28 50/114/28
f 47/101/33 46/118/33 54/119/33 55/102/33
f 45/105/31 44/120/31 52/121/31 53/106/31
f 43/109/29 42/122/29 49/123/29 51/110/29
f 69/124/35 70/125/35 85/126/35 86/127/35
f 87/128/36 88/129/36 71/130/36 72/131/36
f 65/132/37 66/133/37 81/134/37 82/135/37
f 83/136/38 84/137/38 67/138/38 68/139/38
f 61/140/39 62/141/39 77/142/39 78/143/39
f 79/144/40 80/145/40 63/146/40 64/147/40
f 57/148/41 58/149/41 75/150/41 76/151/41
f 73/152/42 74/153/42 59/154/42 60/155/42
f 59/154/32 74/153/32 75/150/32 58/149/32
f 57/148/31 76/151/31 87/156/31 72/157/31
f 61/140/33 78/143/33 73/158/33 60/159/33
f 63/160/34 80/161/34 77/142/34 62/141/34
f 65/132/28 82/135/28 79/144/28 64/147/28
f 67/162/27 84/163/27 81/134/27 66/133/27
f 69/124/29 86/127/29 83/136/29 68/139/29
f 71/130/30 88/129/30 85/126/30 70/125/30
f 90/164/39 91/165/39 92/166/39 89/167/39
f 94/168/40 95/169/40 96/170/40 93/171/40
f 98/172/41 99/173/41 100/174/41 97/175/41
f 102/176/42 103/177/42 104/178/42 101/179/42
f 106/180/35 107/181/35 108/182/35 105/183/35
f 110/184/36 111/185/36 112/186/36 109/187/36
f 114/188/37 115/189/37 116/190/37 113/191/37
f 118/192/38 119/193/38 120/194/38 117/195/38
f 120/196/27 113/191/27 116/190/27 117/197/27
f 114/188/28 95/198/28 94/199/28 115/189/28
f 106/180/29 119/193/29 118/192/29 107/181/29
f 112/200/30 105/183/30 108/182/30 109/201/30
f 98/172/31 111/185/31 110/184/31 99/173/31
f 104/202/32 97/175/32 100/174/32 101/203/32
f 90/164/33 103/177/33 102/176/33 91/165/33
f 96/170/34 89/167/34 92/166/34 93/171/34
f 85/204/43 88/205/43 93/206/43 92/207/43
f 57/208/44 72/209/44 95/210/44 114/211/44
f 66/212/45 65/213/45 98/214/45 97/215/45
f 87/216/46 76/217/46 115/218/46 94/219/46
f 64/220/47 63/221/47 112/222/47 111/223/47
f 61/224/48 60/225/48 119/226/48 106/227/48
f 82/228/49 81/229/49 100/230/49 99/231/49
f 73/232/50 78/233/50 107/234/50 118/235/50
f 58/236/51 57/208/51 114/211/51 113/237/51
f 63/221/52 62/238/52 105/239/52 112/222/52
f 84/240/53 83/241/53 102/242/53 101/243/53
f 77/244/54 80/245/54 109/246/54 108/247/54
f 76/217/55 75/248/55 116/249/55 115/218/55
f 65/213/56 64/220/56 111/223/56 98/214/56
f 70/250/57 69/251/57 90/252/57 89/253/57
f 68/254/58 67/255/58 104/256/58 103/257/58
f 79/258/59 82/228/59 99/231/59 110/259/59
f 74/260/60 73/232/60 118/235/60 117/261/60
f 67/255/61 66/212/61 97/215/61 104/256/61
f 86/262/62 85/204/62 92/207/62 91/263/62
f 62/238/63 61/224/63 106/227/63 105/239/63
f 81/229/64 84/240/64 101/243/64 100/230/64
f 60/225/65 59/264/65 120/265/65 119/226/65
f 69/251/66 68/254/66 103/257/66 90/252/66
f 88/205/67 87/216/67 94/219/67 93/206/67
f 78/233/68 77/244/68 108/247/68 107/234/68
f 83/241/69 86/262/69 91/263/69 102/242/69
f 59/264/70 58/236/70 113/237/70 120/265/70
f 71/266/71 70/250/71 89/253/71 96/267/71
f 72/209/72 71/266/72 96/267/72 95/210/72
f 75/248/73 74/260/73 117/261/73 116/249/73
f 80/245/74 79/258/74 110/259/74 109/246/74
f 126/268/75 127/269/75 130/270/75 129/271/75
f 124/272/76 125/273/76 131/274/76 132/275/76
f 122/276/77 123/277/77 133/278/77 134/279/77
f 128/280/78 121/281/78 135/282/78 136/283/78
f 121/284/79 128/285/79 144/286/79 143/287/79
f 129/288/1 130/289/1 136/290/1 135/291/1 134/292/1 133/293/1 132/294/1 131/295/1
f 127/269/80 128/280/80 136/283/80 130/270/80
f 121/281/81 122/276/81 134/279/81 135/282/81
f 123/277/82 124/272/82 132/275/82 133/278/82
f 125/273/83 126/268/83 129/271/83 131/274/83
f 141/296/84 142/297/84 150/298/84 149/299/84
f 123/300/85 122/301/85 142/297/85 141/296/85
f 125/302/86 124/303/86 140/304/86 139/305/86
f 127/306/87 126/307/87 137/308/87 138/309/87
f 128/310/88 127/306/88 138/309/88 144/311/88
f 122/312/89 121/284/89 143/287/89 142/313/89
f 124/314/90 123/300/90 141/296/90 140/315/90
f 126/316/91 125/302/91 139/305/91 137/317/91
f 150/318/92 151/319/92 159/320/92 158/321/92
f 139/305/93 140/304/93 148/322/93 147/323/93
f 138/309/94 137/308/94 145/324/94 146/325/94
f 144/311/95 138/309/95 146/325/95 152/326/95
f 142/313/96 143/287/96 151/327/96 150/328/96
f 140/315/97 141/296/97 149/299/97 148/329/97
f 137/317/98 139/305/98 147/323/98 145/330/98
f 143/287/99 144/286/99 152/331/99 151/327/99
f 154/332/100 153/333/100 161/334/100 162/335/100
f 148/336/101 149/337/101 157/338/101 156/339/101
f 145/340/102 147/341/102 155/342/102 153/343/102
f 151/319/103 152/344/103 160/345/103 159/320/103
f 149/337/104 150/318/104 158/321/104 157/338/104
f 147/341/105 148/336/105 156/339/105 155/342/105
f 146/346/106 145/340/106 153/343/106 154/347/106
f 152/344/107 146/346/107 154/347/107 160/345/107
f 167/348/108 168/349/108 176/350/108 175/351/108
f 160/352/109 154/332/109 162/335/109 168/353/109
f 158/354/110 159/355/110 167/348/110 166/356/110
f 156/357/111 157/358/111 165/359/111 164/360/111
f 153/361/112 155/362/112 163/363/112 161/364/112
f 159/355/113 160/365/113 168/349/113 167/348/113
f 157/358/114 158/366/114 166/367/114 165/359/114
f 155/362/115 156/368/115 164/369/115 163/363/115
f 169/370/116 171/371/116 179/372/116 177/373/116
f 165/359/117 166/367/117 174/374/117 173/375/117
f 163/363/118 164/369/118 172/376/118 171/371/118
f 162/335/119 161/334/119 169/377/119 170/378/119
f 168/353/120 162/335/120 170/378/120 176/379/120
f 166/356/121 167/348/121 175/351/121 174/380/121
f 164/360/122 165/359/122 173/375/122 172/381/122
f 161/364/123 163/363/123 171/371/123 169/370/123
f 184/382/124 178/383/124 185/384/124
f 175/351/125 176/350/125 184/385/125 183/386/125
f 173/375/126 174/374/126 182/387/126 181/388/126
f 171/371/127 172/376/127 180/389/127 179/372/127
f 170/378/128 169/377/128 177/390/128 178/383/128
f 176/379/129 170/378/129 178/383/129 184/382/129
f 174/380/130 175/351/130 183/386/130 182/391/130
f 172/381/131 173/375/131 181/388/131 180/392/131
f 182/391/132 183/386/132 185/393/132
f 180/392/133 181/388/133 185/394/133
f 177/373/134 179/372/134 185/395/134
f 183/386/135 184/385/135 185/393/135
f 181/388/136 182/387/136 185/394/136
f 179/372/137 180/389/137 185/395/137
f 178/383/138 177/390/138 185/384/138
f 191/396/75 192/397/75 195/398/75 194/399/75
f 189/400/76 190/401/76 196/402/76 197/403/76
f 187/404/77 188/405/77 198/406/77 199/407/77
f 193/408/78 186/409/78 200/410/78 201/411/78
f 186/412/79 193/413/79 209/414/79 208/415/79
f 194/416/1 195/417/1 201/418/1 200/419/1 199/420/1 198/421/1 197/422/1 196/423/1
f 192/397/80 193/408/80 201/411/80 195/398/80
f 186/409/81 187/404/81 199/407/81 200/410/81
f 188/405/82 189/400/82 197/403/82 198/406/82
f 190/401/83 191/396/83 194/399/83 196/402/83
f 206/424/84 207/425/84 215/426/84 214/427/84
f 188/428/85 187/429/85 207/425/85 206/424/85
f 190/430/86 189/431/86 205/432/86 204/433/86
f 192/434/87 191/435/87 202/436/87 203/437/87
f 193/438/88 192/434/88 203/437/88 209/439/88
f 187/440/89 186/412/89 208/415/89 207/441/89
f 189/442/90 188/428/90 206/424/90 205/443/90
f 191/444/91 190/430/91 204/433/91 202/445/91
f 215/446/92 216/447/92 224/448/92 223/449/92
f 204/433/93 205/432/93 213/450/93 212/451/93
f 203/437/94 202/436/94 210/452/94 211/453/94
f 209/439/95 203/437/95 211/453/95 217/454/95
f 207/441/96 208/415/96 216/455/96 215/456/96
f 205/443/97 206/424/97 214/427/97 213/457/97
f 202/445/98 204/433/98 212/451/98 210/458/98
f 208/415/99 209/414/99 217/459/99 216/455/99
f 219/460/100 218/461/100 226/462/100 227/463/100
f 213/464/101 214/465/101 222/466/101 221/467/101
f 210/468/102 212/469/102 220/470/102 218/471/102
f 216/447/103 217/472/103 225/473/103 224/448/103
f 214/465/104 215/446/104 223/449/104 222/466/104
f 212/469/105 213/464/105 221/467/105 220/470/105
f 211/474/106 210/468/106 218/471/106 219/475/106
f 217/472/107 211/474/107 219/475/107 225/473/107
f 232/476/108 233/477/108 241/478/108 240/479/108
f 225/480/109 219/460/109 227/463/109 233/481/109
f 223/482/139 224/483/139 232/476/139 231/484/139
f 221/485/140 222/486/140 230/487/140 229/488/140
f 218/489/112 220/490/112 228/491/112 226/492/112
f 224/483/113 225/493/113 233/477/113 232/476/113
f 222/486/114 223/494/114 231/495/114 230/487/114
f 220/490/115 221/496/115 229/497/115 228/491/115
f 234/498/116 236/499/116 244/500/116 242/501/116
f 230/487/117 231/495/117 239/502/117 238/503/117
f 228/491/118 229/497/118 237/504/118 236/499/118
f 227/463/119 226/462/119 234/505/119 235/506/119
f 233/481/120 227/463/120 235/506/120 241/507/120
f 231/484/141 232/476/141 240/479/141 239/508/141
f 229/488/142 230/487/142 238/503/142 237/509/142
f 226/492/123 228/491/123 236/499/123 234/498/123
f 249/510/124 243/511/124 250/512/124
f 240/479/125 241/478/125 249/513/125 248/514/125
f 238/503/126 239/502/126 247/515/126 246/516/126
f 236/499/127 237/504/127 245/517/127 244/500/127
f 235/506/128 234/505/128 242/518/128 243/511/128
f 241/507/129 235/506/129 243/511/129 249/510/129
f 239/508/130 240/479/130 248/514/130 247/519/130
f 237/509/131 238/503/131 246/516/131 245/520/131
f 247/519/132 248/514/132 250/521/132
f 245/520/133 246/516/133 250/522/133
f 242/501/134 244/500/134 250/523/134
f 248/514/135 249/513/135 250/521/135
f 246/516/136 247/515/136 250/522/136
f 244/500/137 245/517/137 250/523/137
f 243/511/138 242/518/138 250/512/138
f 256/524/75 257/525/75 260/526/75 259/527/75
f 254/528/76 255/529/76 261/530/76 262/531/76
f 252/532/77 253/533/77 263/534/77 264/535/77
f 258/536/78 251/537/78 265/538/78 266/539/78
f 251/540/79 258/541/79 274/542/79 273/543/79
f 259/544/1 260/545/1 266/546/1 265/547/1 264/548/1 263/549/1 262/550/1 261/551/1
f 257/525/80 258/536/80 266/539/80 260/526/80
f 251/537/81 252/532/81 264/535/81 265/538/81
f 253/533/82 254/528/82 262/531/82 263/534/82
f 255/529/83 256/524/83 259/527/83 261/530/83
f 271/552/84 272/553/84 280/554/84 279/555/84
f 253/556/85 252/557/85 272/553/85 271/552/85
f 255/558/86 254/559/86 270/560/86 269/561/86
f 257/562/87 256/563/87 267/564/87 268/565/87
f 258/566/88 257/562/88 268/565/88 274/567/88
f 252/568/89 251/540/89 273/543/89 272/569/89
f 254/570/90 253/556/90 271/552/90 270/571/90
f 256/572/91 255/558/91 269/561/91 267/573/91
f 280/574/92 281/575/92 289/576/92 288/577/92
f 269/561/93 270/560/93 278/578/93 277/579/93
f 268/565/94 267/564/94 275/580/94 276/581/94
f 274/567/95 268/565/95 276/581/95 282/582/95
f 272/569/96 273/543/96 281/583/96 280/584/96
f 270/571/97 271/552/97 279/555/97 278/585/97
f 267/573/98 269/561/98 277/579/98 275/586/98
f 273/543/99 274/542/99 282/587/99 281/583/99
f 284/588/100 283/589/100 291/590/100 292/591/100
f 278/592/101 279/593/101 287/594/101 286/595/101
f 275/596/102 277/597/102 285/598/102 283/599/102
f 281/575/143 282/600/143 290/601/143 289/576/143
f 279/593/104 280/574/104 288/577/104 287/594/104
f 277/597/105 278/592/105 286/595/105 285/598/105
f 276/602/106 275/596/106 283/599/106 284/603/106
f 282/600/107 276/602/107 284/603/107 290/601/107
f 297/604/108 298/605/108 306/606/108 305/607/108
f 290/608/109 284/588/109 292/591/109 298/609/109
f 288/610/110 289/611/110 297/604/110 296/612/110
f 286/613/140 287/614/140 295/615/140 294/616/140
f 283/617/112 285/618/112 293/619/112 291/620/112
f 289/611/113 290/621/113 298/605/113 297/604/113
f 287/614/114 288/622/114 296/623/114 295/615/114
f 285/618/115 286/624/115 294/625/115 293/619/115
f 299/626/144 301/627/144 309/628/144 307/629/144
f 295/615/117 296/623/117 304/630/117 303/631/117
f 293/619/145 294/625/145 302/632/145 301/627/145
f 292/591/119 291/590/119 299/633/119 300/634/119
f 298/609/120 292/591/120 300/634/120 306/635/120
f 296/612/141 297/604/141 305/607/141 304/636/141
f 294/616/142 295/615/142 303/631/142 302/637/142
f 291/620/146 293/619/146 301/627/146 299/626/146
f 314/638/124 308/639/124 315/640/124
f 305/607/125 306/606/125 314/641/125 313/642/125
f 303/631/126 304/630/126 312/643/126 311/644/126
f 301/627/147 302/632/147 310/645/147 309/628/147
f 300/634/128 299/633/128 307/646/128 308/639/128
f 306/635/129 300/634/129 308/639/129 314/638/129
f 304/636/130 305/607/130 313/642/130 312/647/130
f 302/637/131 303/631/131 311/644/131 310/648/131
f 312/647/132 313/642/132 315/649/132
f 310/648/148 311/644/148 315/650/148
f 307/629/134 309/628/134 315/651/134
f 313/642/135 314/641/135 315/649/135
f 311/644/136 312/643/136 315/650/136
f 309/628/137 310/645/137 315/651/137
f 308/639/149 307/646/149 315/640/149
f 321/652/75 322/653/75 325/654/75 324/655/75
f 319/656/76 320/657/76 326/658/76 327/659/76
f 317/660/77 318/661/77 328/662/77 329/663/77
f 323/664/78 316/665/78 330/666/78 331/667/78
f 316/668/79 323/669/79 339/670/79 338/671/79
f 324/672/1 325/673/1 331/674/1 330/675/1 329/676/1 328/677/1 327/678/1 326/679/1
f 322/653/80 323/664/80 331/667/80 325/654/80
f 316/665/81 317/660/81 329/663/81 330/666/81
f 318/661/82 319/656/82 327/659/82 328/662/82
f 320/657/83 321/652/83 324/655/83 326/658/83
f 336/680/84 337/681/84 345/682/84 344/683/84
f 318/684/85 317/685/85 337/681/85 336/680/85
f 320/686/86 319/687/86 335/688/86 334/689/86
f 322/690/87 321/691/87 332/692/87 333/693/87
f 323/694/88 322/690/88 333/693/88 339/695/88
f 317/696/89 316/668/89 338/671/89 337/697/89
f 319/698/90 318/684/90 336/680/90 335/699/90
f 321/700/91 320/686/91 334/689/91 332/701/91
f 345/702/92 346/703/92 354/704/92 353/705/92
f 334/689/93 335/688/93 343/706/93 342/707/93
f 333/693/94 332/692/94 340/708/94 341/709/94
f 339/695/95 333/693/95 341/709/95 347/710/95
f 337/697/96 338/671/96 346/711/96 345/712/96
f 335/699/97 336/680/97 344/683/97 343/713/97
f 332/701/98 334/689/98 342/707/98 340/714/98
f 338/671/99 339/670/99 347/715/99 346/711/99
f 349/716/100 348/717/100 356/718/100 357/719/100
f 343/720/101 344/721/101 352/722/101 351/723/101
f 340/724/102 342/725/102 350/726/102 348/727/102
f 346/703/103 347/728/103 355/729/103 354/704/103
f 344/721/104 345/702/104 353/705/104 352/722/104
f 342/725/105 343/720/105 351/723/105 350/726/105
f 341/730/106 340/724/106 348/727/106 349/731/106
f 347/728/107 341/730/107 349/731/107 355/729/107
f 362/732/108 363/733/108 371/734/108 370/735/108
f 355/736/109 349/716/109 357/719/109 363/737/109
f 353/738/110 354/739/110 362/732/110 361/740/110
f 351/741/140 352/742/140 360/743/140 359/744/140
f 348/745/112 350/746/112 358/747/112 356/748/112
f 354/739/113 355/749/113 363/733/113 362/732/113
f 352/742/114 353/750/114 361/751/114 360/743/114
f 350/746/115 351/752/115 359/753/115 358/747/115
f 364/754/116 366/755/116 374/756/116 372/757/116
f 360/743/117 361/751/117 369/758/117 368/759/117
f 358/747/145 359/753/145 367/760/145 366/755/145
f 357/719/119 356/718/119 364/761/119 365/762/119
f 363/737/120 357/719/120 365/762/120 371/763/120
f 361/740/141 362/732/141 370/735/141 369/764/141
f 359/744/142 360/743/142 368/759/142 367/765/142
f 356/748/146 358/747/146 366/755/146 364/754/146
f 379/766/124 373/767/124 380/768/124
f 370/735/125 371/734/125 379/769/125 378/770/125
f 368/759/126 369/758/126 377/771/126 376/772/126
f 366/755/127 367/760/127 375/773/127 374/756/127
f 365/762/128 364/761/128 372/774/128 373/767/128
f 371/763/129 365/762/129 373/767/129 379/766/129
f 369/764/130 370/735/130 378/770/130 377/775/130
f 367/765/131 368/759/131 376/772/131 375/776/131
f 377/775/132 378/770/132 380/777/132
f 375/776/150 376/772/150 380/778/150
f 372/757/134 374/756/134 380/779/134
f 378/770/135 379/769/135 380/777/135
f 376/772/136 377/771/136 380/778/136
f 374/756/137 375/773/137 380/779/137
f 373/767/151 372/774/151 380/768/151
f 391/780/129 390/781/129 382/782/129 383/783/129
f 390/781/128 396/784/128 388/785/128 382/782/128
f 389/786/152 387/787/152 381/788/152
f 387/789/153 386/790/153 381/791/153
f 385/792/154 384/793/154 381/794/154
f 402/795/155 401/796/155 393/797/155 394/798/155
f 405/799/118 403/800/118 395/801/118 397/802/118
f 388/803/156 389/786/156 381/788/156
f 384/793/135 383/804/135 381/794/135
f 395/805/131 394/798/131 386/790/131 387/789/131
f 397/802/127 395/801/127 387/787/127 389/786/127
f 386/790/157 385/806/157 381/791/157
f 392/807/125 391/808/125 383/804/125 384/793/125
f 393/809/130 392/807/130 384/793/130 385/792/130
f 382/782/158 388/785/158 381/810/158
f 383/783/159 382/782/159 381/810/159
f 394/798/126 393/797/126 385/806/126 386/790/126
f 396/811/116 397/802/116 389/786/116 388/803/116
f 414/812/106 420/813/106 412/814/106 406/815/106
f 403/816/122 402/795/122 394/798/122 395/805/122
f 400/817/108 399/818/108 391/808/108 392/807/108
f 404/819/123 405/799/123 397/802/123 396/811/123
f 411/820/140 410/821/140 402/795/140 403/816/140
f 401/822/141 400/817/141 392/807/141 393/809/141
f 398/823/119 404/824/119 396/784/119 390/781/119
f 409/825/110 408/826/110 400/817/110 401/822/110
f 419/827/101 418/828/101 410/829/101 411/830/101
f 406/831/100 412/832/100 404/824/100 398/823/100
f 413/833/160 411/834/160 403/800/160 405/799/160
f 420/813/102 421/835/102 413/836/102 412/814/102
f 399/837/161 398/823/161 390/781/161 391/780/161
f 408/826/113 407/838/113 399/818/113 400/817/113
f 407/839/162 406/831/162 398/823/162 399/837/162
f 410/821/163 409/840/163 401/796/163 402/795/163
f 442/841/85 443/842/85 425/843/85 426/844/85
f 415/845/107 414/812/107 406/815/107 407/846/107
f 423/847/95 422/848/95 414/849/95 415/850/95
f 418/828/104 417/851/104 409/852/104 410/829/104
f 417/851/92 416/853/92 408/854/92 409/852/92
f 429/855/93 427/856/93 419/857/93 421/858/93
f 412/859/112 413/833/112 405/799/112 404/819/112
f 421/835/105 419/827/105 411/830/105 413/836/105
f 438/860/87 439/861/87 428/862/87 422/848/87
f 416/853/103 415/845/103 407/846/103 408/854/103
f 428/863/98 429/855/98 421/858/98 420/864/98
f 426/844/84 425/843/84 417/865/84 418/866/84
f 422/848/94 428/862/94 420/867/94 414/849/94
f 440/868/86 441/869/86 427/856/86 429/855/86
f 427/870/97 426/844/97 418/866/97 419/871/97
f 424/872/99 423/873/99 415/874/99 416/875/99
f 437/294/1 436/876/1 430/877/1 431/878/1 432/879/1 433/880/1 434/881/1 435/882/1
f 443/883/77 442/884/77 434/885/77 433/886/77
f 425/887/96 424/872/96 416/875/96 417/888/96
f 441/889/90 442/841/90 426/844/90 427/870/90
f 444/890/79 445/891/79 423/873/79 424/872/79
f 439/892/91 440/868/91 429/855/91 428/863/91
f 441/893/76 440/894/76 437/895/76 435/896/76
f 443/897/89 444/890/89 424/872/89 425/887/89
f 442/884/82 441/893/82 435/896/82 434/885/82
f 438/898/80 445/899/80 431/900/80 430/901/80
f 439/902/75 438/898/75 430/901/75 436/903/75
f 440/894/83 439/902/83 436/903/83 437/895/83
f 444/904/81 443/883/81 433/886/81 432/905/81
f 445/906/88 438/860/88 422/848/88 423/847/88
f 445/899/78 444/904/78 432/905/78 431/900/78
f 456/907/129 455/908/129 447/909/129 448/910/129
f 455/908/128 461/911/128 453/912/128 447/909/128
f 454/913/137 452/914/137 446/915/137
f 452/916/153 451/917/153 446/918/153
f 450/919/154 449/920/154 446/921/154
f 467/922/117 466/923/117 458/924/117 459/925/117
f 470/926/145 468/927/145 460/928/145 462/929/145
f 453/930/156 454/913/156 446/915/156
f 449/920/135 448/931/135 446/921/135
f 460/932/131 459/925/131 451/917/131 452/916/131
f 462/929/127 460/928/127 452/914/127 454/913/127
f 451/917/157 450/933/157 446/918/157
f 457/934/125 456/935/125 448/931/125 449/920/125
f 458/936/130 457/934/130 449/920/130 450/919/130
f 447/909/158 453/912/158 446/937/158
f 448/910/159 447/909/159 446/937/159
f 459/925/126 458/924/126 450/933/126 451/917/126
f 461/938/116 462/929/116 454/913/116 453/930/116
f 479/939/106 485/940/106 477/941/106 471/942/106
f 468/943/122 467/922/122 459/925/122 460/932/122
f 465/944/108 464/945/108 456/935/108 457/934/108
f 469/946/123 470/926/123 462/929/123 461/938/123
f 476/947/140 475/948/140 467/922/140 468/943/140
f 466/949/121 465/944/121 457/934/121 458/936/121
f 463/950/119 469/951/119 461/911/119 455/908/119
f 474/952/110 473/953/110 465/944/110 466/949/110
f 484/954/101 483/955/101 475/956/101 476/957/101
f 471/958/100 477/959/100 469/951/100 463/950/100
f 478/960/115 476/961/115 468/927/115 470/926/115
f 485/940/102 486/962/102 478/963/102 477/941/102
f 464/964/120 463/950/120 455/908/120 456/907/120
f 473/953/113 472/965/113 464/945/113 465/944/113
f 472/966/162 471/958/162 463/950/162 464/964/162
f 475/948/163 474/967/163 466/923/163 467/922/163
f 507/968/85 508/969/85 490/970/85 491/971/85
f 480/972/107 479/939/107 471/942/107 472/973/107
f 488/974/95 487/975/95 479/976/95 480/977/95
f 483/955/104 482/978/104 474/979/104 475/956/104
f 482/978/92 481/980/92 473/981/92 474/979/92
f 494/982/93 492/983/93 484/984/93 486/985/93
f 477/986/164 478/960/164 470/926/164 469/946/164
f 486/962/105 484/954/105 476/957/105 478/963/105
f 503/987/87 504/988/87 493/989/87 487/975/87
f 481/980/103 480/972/103 472/973/103 473/981/103
f 493/990/98 494/982/98 486/985/98 485/991/98
f 491/971/84 490/970/84 482/992/84 483/993/84
f 487/975/94 493/989/94 485/994/94 479/976/94
f 505/995/86 506/996/86 492/983/86 494/982/86
f 492/997/97 491/971/97 483/993/97 484/998/97
f 489/999/99 488/1000/99 480/1001/99 481/1002/99
f 502/1003/1 501/1004/1 495/1005/1 496/1006/1 497/1007/1 498/1008/1 499/1009/1 500/1010/1
f 508/1011/77 507/1012/77 499/1013/77 498/1014/77
f 490/1015/96 489/999/96 481/1002/96 482/1016/96
f 506/1017/90 507/968/90 491/971/90 492/997/90
f 509/1018/79 510/1019/79 488/1000/79 489/999/79
f 504/1020/91 505/995/91 494/982/91 493/990/91
f 506/1021/76 505/1022/76 502/1023/76 500/1024/76
f 508/1025/89 509/1018/89 489/999/89 490/1015/89
f 507/1012/82 506/1021/82 500/1024/82 499/1013/82
f 503/1026/80 510/1027/80 496/1028/80 495/1029/80
f 504/1030/75 503/1026/75 495/1029/75 501/1031/75
f 505/1022/83 504/1030/83 501/1031/83 502/1023/83
f 509/1032/81 508/1011/81 498/1014/81 497/1033/81
f 510/1034/88 503/987/88 487/975/88 488/974/88
f 510/1027/78 509/1032/78 497/1033/78 496/1028/78
f 521/1035/129 520/1036/129 512/1037/129 513/1038/129
f 520/1036/128 526/1039/128 518/1040/128 512/1037/128
f 519/1041/137 517/1042/137 511/1043/137
f 517/1044/153 516/1045/153 511/1046/153
f 515/1047/154 514/1048/154 511/1049/154
f 532/1050/117 531/1051/117 523/1052/117 524/1053/117
f 535/1054/118 533/1055/118 525/1056/118 527/1057/118
f 518/1058/156 519/1041/156 511/1043/156
f 514/1048/135 513/1059/135 511/1049/135
f 525/1060/131 524/1053/131 516/1045/131 517/1044/131
f 527/1057/127 525/1056/127 517/1042/127 519/1041/127
f 516/1045/157 515/1061/157 511/1046/157
f 522/1062/125 521/1063/125 513/1059/125 514/1048/125
f 523/1064/130 522/1062/130 514/1048/130 515/1047/130
f 512/1037/158 518/1040/158 511/1065/158
f 513/1038/159 512/1037/159 511/1065/159
f 524/1053/126 523/1052/126 515/1061/126 516/1045/126
f 526/1066/116 527/1057/116 519/1041/116 518/1058/116
f 544/1067/106 550/1068/106 542/1069/106 536/1070/106
f 533/1071/142 532/1050/142 524/1053/142 525/1060/142
f 530/1072/108 529/1073/108 521/1063/108 522/1062/108
f 534/1074/123 535/1054/123 527/1057/123 526/1066/123
f 541/1075/140 540/1076/140 532/1050/140 533/1071/140
f 531/1077/141 530/1072/141 522/1062/141 523/1064/141
f 528/1078/119 534/1079/119 526/1039/119 520/1036/119
f 539/1080/110 538/1081/110 530/1072/110 531/1077/110
f 549/1082/101 548/1083/101 540/1084/101 541/1085/101
f 536/1086/165 542/1087/165 534/1079/165 528/1078/165
f 543/1088/115 541/1089/115 533/1055/115 535/1054/115
f 550/1068/102 551/1090/102 543/1091/102 542/1069/102
f 529/1092/120 528/1078/120 520/1036/120 521/1035/120
f 538/1081/113 537/1093/113 529/1073/113 530/1072/113
f 537/1094/162 536/1086/162 528/1078/162 529/1092/162
f 540/1076/163 539/1095/163 531/1051/163 532/1050/163
f 572/1096/85 573/1097/85 555/1098/85 556/1099/85
f 545/1100/107 544/1067/107 536/1070/107 537/1101/107
f 553/1102/95 552/1103/95 544/1104/95 545/1105/95
f 548/1083/104 547/1106/104 539/1107/104 540/1084/104
f 547/1106/92 546/1108/92 538/1109/92 539/1107/92
f 559/1110/93 557/1111/93 549/1112/93 551/1113/93
f 542/1114/164 543/1088/164 535/1054/164 534/1074/164
f 551/1090/105 549/1082/105 541/1085/105 543/1091/105
f 568/1115/87 569/1116/87 558/1117/87 552/1103/87
f 546/1108/103 545/1100/103 537/1101/103 538/1109/103
f 558/1118/98 559/1110/98 551/1113/98 550/1119/98
f 556/1099/84 555/1098/84 547/1120/84 548/1121/84
f 552/1103/94 558/1117/94 550/1122/94 544/1104/94
f 570/1123/86 571/1124/86 557/1111/86 559/1110/86
f 557/1125/97 556/1099/97 548/1121/97 549/1126/97
f 554/1127/99 553/1128/99 545/1129/99 546/1130/99
f 567/1131/1 566/1132/1 560/1133/1 561/1134/1 562/1135/1 563/1136/1 564/1137/1 565/1138/1
f 573/1139/77 572/1140/77 564/1141/77 563/1142/77
f 555/1143/96 554/1127/96 546/1130/96 547/1144/96
f 571/1145/90 572/1096/90 556/1099/90 557/1125/90
f 574/1146/79 575/1147/79 553/1128/79 554/1127/79
f 569/1148/91 570/1123/91 559/1110/91 558/1118/91
f 571/1149/76 570/1150/76 567/1151/76 565/1152/76
f 573/1153/89 574/1146/89 554/1127/89 555/1143/89
f 572/1140/82 571/1149/82 565/1152/82 564/1141/82
f 568/1154/80 575/1155/80 561/1156/80 560/1157/80
f 569/1158/75 568/1154/75 560/1157/75 566/1159/75
f 570/1150/83 569/1158/83 566/1159/83 567/1151/83
f 574/1160/81 573/1139/81 563/1142/81 562/1161/81
f 575/1162/88 568/1115/88 552/1103/88 553/1102/88
f 575/1155/78 574/1160/78 562/1161/78 561/1156/78
f 586/1163/129 585/1164/129 577/1165/129 578/1166/129
f 585/1164/128 591/1167/128 583/1168/128 577/1165/128
f 584/1169/137 582/1170/137 576/1171/137
f 582/1172/166 581/1173/166 576/1174/166
f 580/1175/154 579/1176/154 576/1177/154
f 597/1178/117 596/1179/117 588/1180/117 589/1181/117
f 600/1182/145 598/1183/145 590/1184/145 592/1185/145
f 583/1186/167 584/1169/167 576/1171/167
f 579/1176/135 578/1187/135 576/1177/135
f 590/1188/131 589/1181/131 581/1173/131 582/1172/131
f 592/1185/127 590/1184/127 582/1170/127 584/1169/127
f 581/1173/157 580/1189/157 576/1174/157
f 587/1190/125 586/1191/125 578/1187/125 579/1176/125
f 588/1192/130 587/1190/130 579/1176/130 580/1175/130
f 577/1165/158 583/1168/158 576/1193/158
f 578/1166/159 577/1165/159 576/1193/159
f 589/1181/126 588/1180/126 580/1189/126 581/1173/126
f 591/1194/116 592/1185/116 584/1169/116 583/1186/116
f 609/1195/106 615/1196/106 607/1197/106 601/1198/106
f 598/1199/122 597/1178/122 589/1181/122 590/1188/122
f 595/1200/108 594/1201/108 586/1191/108 587/1190/108
f 599/1202/146 600/1182/146 592/1185/146 591/1194/146
f 606/1203/111 605/1204/111 597/1178/111 598/1199/111
f 596/1205/141 595/1200/141 587/1190/141 588/1192/141
f 593/1206/168 599/1207/168 591/1167/168 585/1164/168
f 604/1208/110 603/1209/110 595/1200/110 596/1205/110
f 614/1210/101 613/1211/101 605/1212/101 606/1213/101
f 601/1214/100 607/1215/100 599/1207/100 593/1206/100
f 608/1216/115 606/1217/115 598/1183/115 600/1182/115
f 615/1196/102 616/1218/102 608/1219/102 607/1197/102
f 594/1220/120 593/1206/120 585/1164/120 586/1163/120
f 603/1209/113 602/1221/113 594/1201/113 595/1200/113
f 602/1222/162 601/1214/162 593/1206/162 594/1220/162
f 605/1204/163 604/1223/163 596/1179/163 597/1178/163
f 637/1224/85 638/1225/85 620/1226/85 621/1227/85
f 610/1228/107 609/1195/107 601/1198/107 602/1229/107
f 618/1230/95 617/1231/95 609/1232/95 610/1233/95
f 613/1211/104 612/1234/104 604/1235/104 605/1212/104
f 612/1234/92 611/1236/92 603/1237/92 604/1235/92
f 624/1238/93 622/1239/93 614/1240/93 616/1241/93
f 607/1242/112 608/1216/112 600/1182/112 599/1202/112
f 616/1218/105 614/1210/105 606/1213/105 608/1219/105
f 633/1243/87 634/1244/87 623/1245/87 617/1231/87
f 611/1236/103 610/1228/103 602/1229/103 603/1237/103
f 623/1246/98 624/1238/98 616/1241/98 615/1247/98
f 621/1227/84 620/1226/84 612/1248/84 613/1249/84
f 617/1231/94 623/1245/94 615/1250/94 609/1232/94
f 635/1251/86 636/1252/86 622/1239/86 624/1238/86
f 622/1253/97 621/1227/97 613/1249/97 614/1254/97
f 619/1255/99 618/1256/99 610/1257/99 611/1258/99
f 632/1259/1 631/1260/1 625/1261/1 626/1262/1 627/1263/1 628/1264/1 629/1265/1 630/1266/1
f 638/1267/77 637/1268/77 629/1269/77 628/1270/77
f 620/1271/96 619/1255/96 611/1258/96 612/1272/96
f 636/1273/90 637/1224/90 621/1227/90 622/1253/90
f 639/1274/79 640/1275/79 618/1256/79 619/1255/79
f 634/1276/91 635/1251/91 624/1238/91 623/1246/91
f 636/1277/76 635/1278/76 632/1279/76 630/1280/76
f 638/1281/89 639/1274/89 619/1255/89 620/1271/89
f 637/1268/82 636/1277/82 630/1280/82 629/1269/82
f 633/1282/80 640/1283/80 626/1284/80 625/1285/80
f 634/1286/75 633/1282/75 625/1285/75 631/1287/75
f 635/1278/83 634/1286/83 631/1287/83 632/1279/83
f 639/1288/81 638/1267/81 628/1270/81 627/1289/81
f 640/1290/88 633/1243/88 617/1231/88 618/1230/88
f 640/1283/78 639/1288/78 627/1289/78 626/1284/78
f 642/1291/26 643/1292/26 644/1293/26 645/1294/26 646/1295/26 647/1296/26 648/1297/26 641/1298/26
f 650/1299/169 653/1300/169 655/1301/169 652/1302/169
f 652/1302/170 655/1301/170 656/1303/170 651/1304/170
f 651/1305/171 656/1306/171 654/1307/171 649/1308/171
f 658/1309/172 650/1310/172 652/1311/172 660/1312/172
f 660/1312/173 652/1311/173 651/1313/173 659/1314/173
f 659/1315/174 651/1305/174 649/1308/174 657/1316/174
f 662/1317/175 658/1309/175 660/1312/175 664/1318/175
f 664/1318/176 660/1312/176 659/1314/176 663/1319/176
f 663/1320/177 659/1315/177 657/1316/177 661/1321/177
f 666/1322/178 662/1323/178 664/1324/178 668/1325/178
f 668/1325/179 664/1324/179 663/1326/179 667/1327/179
f 667/1328/180 663/1320/180 661/1321/180 665/1329/180
f 670/1330/181 666/1322/181 668/1325/181 672/1331/181
f 672/1331/182 668/1325/182 667/1327/182 671/1332/182
f 671/1333/183 667/1328/183 665/1329/183 669/1334/183
f 674/1335/184 670/1336/184 672/1337/184 676/1338/184
f 676/1338/185 672/1337/185 671/1339/185 675/1340/185
f 675/1341/186 671/1333/186 669/1334/186 673/1342/186
f 678/1343/187 674/1335/187 676/1338/187 680/1344/187
f 680/1344/188 676/1338/188 675/1340/188 679/1345/188
f 679/1346/189 675/1341/189 673/1342/189 677/1347/189
f 653/1300/190 678/1348/190 680/1349/190 655/1301/190
f 655/1301/191 680/1349/191 679/1350/191 656/1303/191
f 656/1306/192 679/1346/192 677/1347/192 654/1307/192
f 642/1351/27 641/1352/27 653/1300/27 650/1299/27
f 649/1308/1 654/1307/1 677/1347/1 673/1342/1 669/1334/1 665/1329/1 661/1321/1 657/1316/1
f 643/1353/29 642/1354/29 650/1310/29 658/1309/29
f 641/1352/28 648/1355/28 678/1348/28 653/1300/28
f 644/1356/30 643/1353/30 658/1309/30 662/1317/30
f 645/1357/31 644/1358/31 662/1323/31 666/1322/31
f 646/1359/32 645/1357/32 666/1322/32 670/1330/32
f 647/1360/33 646/1361/33 670/1336/33 674/1335/33
f 648/1362/34 647/1360/34 674/1335/34 678/1343/34
