# Blender 5.1.1
# www.blender.org
mtllib chas registar.mtl
o cash_registar.001
v -0.550389 3.313894 -4.323101
v -0.550389 3.643190 -4.323101
v -0.550389 3.313894 -5.610168
v -0.550389 3.643189 -5.610168
v 0.494235 3.313894 -4.323101
v 0.494235 3.643190 -4.323101
v 0.494235 3.313894 -5.610168
v 0.494235 3.643189 -5.610168
v 0.050427 3.313894 -5.610168
v 0.050427 3.643189 -5.610168
v 0.050427 3.313894 -4.323101
v 0.050427 3.643190 -4.323101
v 0.050427 4.505291 -5.610168
v 0.494235 4.505291 -5.610168
v 0.494235 4.505291 -4.323101
v 0.050427 4.505291 -4.323101
v 0.050427 4.264187 -4.323101
v 0.050427 4.264187 -5.610168
v 0.030289 4.594913 -5.668571
v 0.030289 4.594913 -4.264697
v 0.514374 4.594913 -5.668571
v 0.514374 4.594913 -4.264697
v 0.051732 4.594913 -5.606386
v 0.051732 4.594913 -4.326882
v 0.492931 4.594913 -5.606386
v 0.492931 4.594913 -4.326882
v 0.191110 4.780958 -5.467007
v 0.051732 4.641580 -5.606386
v 0.092555 4.740135 -5.565562
v 0.051732 4.641580 -4.326882
v 0.191110 4.780958 -4.466260
v 0.092555 4.740135 -4.367704
v 0.492931 4.641580 -5.606386
v 0.353553 4.780958 -5.467007
v 0.452108 4.740135 -5.565562
v 0.353553 4.780958 -4.466260
v 0.492931 4.641580 -4.326882
v 0.452108 4.740135 -4.367705
v 0.499584 4.515345 -5.625679
v 0.514374 4.586781 -5.668571
v 0.503150 4.540278 -5.636020
v 0.508195 4.564644 -5.650651
v 0.030289 4.586781 -5.668571
v 0.045079 4.515345 -5.625679
v 0.036468 4.564644 -5.650651
v 0.041513 4.540278 -5.636020
v 0.514374 4.586781 -4.264697
v 0.499584 4.515345 -4.307590
v 0.508195 4.564644 -4.282618
v 0.503150 4.540278 -4.297247
v 0.045079 4.515345 -4.307590
v 0.030289 4.586781 -4.264697
v 0.041513 4.540278 -4.297247
v 0.036468 4.564644 -4.282618
v -0.664690 3.313894 -5.610168
v -0.664690 3.313894 -4.323101
v -0.664690 3.643190 -4.323101
v -0.664690 3.643189 -5.610168
v -0.578275 3.303391 -5.657050
v -0.578275 3.303391 -4.276218
v 0.066311 3.303391 -5.657050
v 0.542451 3.303391 -4.276218
v 0.542451 3.303391 -5.657050
v 0.066311 3.303391 -4.276218
v -0.700903 3.303391 -5.657050
v -0.700903 3.303391 -4.276218
v -0.568916 3.227885 -5.641315
v -0.568916 3.227885 -4.291953
v 0.060980 3.227885 -5.641315
v 0.526269 3.227885 -4.291953
v 0.526269 3.227885 -5.641315
v 0.060980 3.227885 -4.291953
v -0.688749 3.227885 -5.641315
v -0.688749 3.227885 -4.291953
v -0.566950 3.235917 -5.638011
v -0.571705 3.289782 -5.646003
v -0.565752 3.253978 -5.635995
v -0.567433 3.273026 -5.638823
v -0.571705 3.289782 -4.287263
v -0.566950 3.235917 -4.295258
v -0.567433 3.273027 -4.294445
v -0.565752 3.253978 -4.297271
v 0.062558 3.289745 -5.645972
v 0.059858 3.235934 -5.638003
v 0.060130 3.273009 -5.638804
v 0.059175 3.253979 -5.635986
v 0.531039 3.289721 -4.287313
v 0.522858 3.235944 -4.295269
v 0.523676 3.272999 -4.294474
v 0.520783 3.253982 -4.297287
v 0.522858 3.235944 -5.638000
v 0.531039 3.289721 -5.645954
v 0.520783 3.253982 -5.635982
v 0.523677 3.272999 -5.638794
v 0.062558 3.289745 -4.287294
v 0.059858 3.235934 -4.295264
v 0.060130 3.273009 -4.294463
v 0.059175 3.253980 -4.297280
v -0.692405 3.289836 -5.646049
v -0.686204 3.235893 -5.638021
v -0.686844 3.273051 -5.638848
v -0.684651 3.253974 -5.636010
v -0.686204 3.235893 -4.295248
v -0.692405 3.289837 -4.287220
v -0.684651 3.253975 -4.297258
v -0.686844 3.273051 -4.294419
v -0.115508 4.114435 -4.282622
v -0.073486 4.083903 -4.282622
v -0.115508 4.141892 -4.425909
v -0.115508 4.139220 -4.282622
v -0.047372 4.092389 -4.425909
v -0.049914 4.091563 -4.282622
v -0.073398 4.012290 -4.425909
v -0.074969 4.014452 -4.282622
v -0.157619 4.012290 -4.425909
v -0.156048 4.014452 -4.282622
v -0.183645 4.092389 -4.425909
v -0.181103 4.091563 -4.282622
v -0.089537 4.034503 -4.282622
v -0.141480 4.034503 -4.282622
v -0.157531 4.083903 -4.282622
v -0.507661 4.250346 -4.111752
v -0.469236 4.278265 -4.111752
v -0.430810 4.250346 -4.111752
v -0.115508 4.096869 -4.232172
v -0.115508 4.114435 -4.246381
v -0.157531 4.083903 -4.246381
v -0.140825 4.078475 -4.232172
v -0.141480 4.034503 -4.246381
v -0.131155 4.048715 -4.232172
v -0.089537 4.034503 -4.246381
v -0.099862 4.048715 -4.232172
v -0.073486 4.083903 -4.246381
v -0.090192 4.078475 -4.232172
v -0.427213 4.251514 -4.275850
v -0.469236 4.282045 -4.275850
v -0.275714 4.183522 -4.294620
v -0.275714 4.183522 -4.263354
v -0.305165 4.120361 -4.294620
v -0.305165 4.120361 -4.263354
v -0.072003 4.021031 -4.294620
v -0.108746 4.009267 -4.294620
v -0.472132 4.294616 -4.263354
v -0.508875 4.282851 -4.263354
v -0.508875 4.282851 -4.294620
v -0.472132 4.294616 -4.294620
v -0.531130 4.235126 -4.263354
v -0.516523 4.199418 -4.263354
v -0.516523 4.199418 -4.294620
v -0.531130 4.235126 -4.294620
v -0.108746 4.009267 -4.263354
v -0.072003 4.021031 -4.263354
v -0.064355 4.104465 -4.294620
v -0.049748 4.068757 -4.294620
v -0.049748 4.068757 -4.263354
v -0.064355 4.104465 -4.263354
v -0.445488 4.205174 -4.111752
v -0.492984 4.205174 -4.111752
v -0.443264 4.202115 -4.275850
v -0.495207 4.202115 -4.275850
v -0.511258 4.251514 -4.275850
v -0.469236 4.264481 -4.084851
v -0.469236 4.282045 -4.138650
v -0.511258 4.251514 -4.138650
v -0.494552 4.246088 -4.084851
v -0.495207 4.202115 -4.138650
v -0.484882 4.216326 -4.084851
v -0.443264 4.202115 -4.138650
v -0.453589 4.216326 -4.084851
v -0.427213 4.251514 -4.138650
v -0.443919 4.246088 -4.084851
v 0.050427 4.264187 -4.393524
v 0.050427 4.264187 -4.358312
v -0.550389 3.643190 -4.393524
v -0.550389 3.643190 -4.358312
v -0.151271 4.150824 -4.323101
v -0.179495 4.216917 -4.393524
v -0.171229 4.197558 -4.343727
v -0.322874 4.032310 -4.323101
v -0.374414 4.082301 -4.393524
v -0.359318 4.067658 -4.343727
v -0.438086 3.854092 -4.323101
v -0.504654 3.880835 -4.393524
v -0.485157 3.873002 -4.343727
v -0.550389 3.643189 -5.539744
v -0.550389 3.643189 -5.574955
v 0.050427 4.264187 -5.539744
v 0.050427 4.264187 -5.574955
v -0.438086 3.854091 -5.610168
v -0.504654 3.880835 -5.539744
v -0.485157 3.873002 -5.589540
v -0.322874 4.032310 -5.610168
v -0.374414 4.082301 -5.539744
v -0.359318 4.067658 -5.589540
v -0.151271 4.150824 -5.610168
v -0.179495 4.216917 -5.539744
v -0.171229 4.197558 -5.589540
v 0.260378 3.924942 -5.827364
v 0.260378 3.924942 -5.664100
v -0.241624 3.243918 -5.624135
v -0.241624 3.243918 -5.867329
v 0.066902 3.371715 -5.624135
v 0.066902 3.371715 -5.867329
v 0.194697 3.680239 -5.624135
v 0.194697 3.680239 -5.867329
v 0.066902 3.988765 -5.624135
v 0.066902 3.988765 -5.867329
v -0.241624 4.116560 -5.624135
v -0.241624 4.116560 -5.867329
v -0.550149 3.988765 -5.624135
v -0.550149 3.988765 -5.867329
v -0.677945 3.680239 -5.624135
v -0.677945 3.680239 -5.867329
v -0.550149 3.371715 -5.624135
v -0.550149 3.371715 -5.867329
v 0.467504 4.010736 -5.664100
v 0.467504 4.010736 -5.827364
v 0.553298 4.217863 -5.664100
v 0.553298 4.217863 -5.827364
v 0.467504 4.424989 -5.664100
v 0.467504 4.424989 -5.827364
v 0.260378 4.510783 -5.664100
v 0.260378 4.510783 -5.827364
v 0.053252 4.424989 -5.664100
v 0.053252 4.424989 -5.827364
v -0.032543 4.217863 -5.664100
v -0.032543 4.217863 -5.827364
v 0.053252 4.010736 -5.664100
v 0.053252 4.010736 -5.827364
v 0.087342 4.390899 -5.827364
v 0.260378 4.462573 -5.827364
v 0.016123 3.422493 -5.867329
v -0.241624 3.315732 -5.867329
v 0.505087 4.217863 -5.827364
v 0.433414 4.044827 -5.827364
v 0.122885 3.680239 -5.867329
v 0.016123 3.937987 -5.867329
v 0.433414 4.390899 -5.827364
v -0.241624 4.044748 -5.867329
v -0.499370 3.937987 -5.867329
v 0.260378 3.973153 -5.827364
v -0.606133 3.680239 -5.867329
v -0.499370 3.422493 -5.867329
v 0.015668 4.217863 -5.827364
v 0.087342 4.044827 -5.827364
v 0.179947 4.298294 -5.804061
v 0.260378 4.331607 -5.804061
v -0.121818 3.560435 -5.844025
v -0.241624 3.510809 -5.844025
v 0.374123 4.217863 -5.804061
v 0.340808 4.137433 -5.804061
v -0.072194 3.680239 -5.844025
v -0.121818 3.800045 -5.844025
v 0.340808 4.298294 -5.804061
v -0.241624 3.849669 -5.844025
v -0.361429 3.800045 -5.844025
v 0.260378 4.104116 -5.804061
v -0.411054 3.680239 -5.844025
v -0.361429 3.560435 -5.844025
v 0.146632 4.217863 -5.804061
v 0.179947 4.137433 -5.804061
vn -0.0000 1.0000 -0.0000
vn -0.0000 -0.0000 -1.0000
vn 1.0000 -0.0000 -0.0000
vn -0.0000 -0.0000 1.0000
vn 0.2128 0.9771 -0.0000
vn -0.0000 0.9758 -0.2186
vn -1.0000 -0.0000 -0.0000
vn -0.9239 0.3827 -0.0000
vn -0.3827 0.9239 -0.0000
vn 0.3827 0.9239 -0.0000
vn 0.9239 0.3827 -0.0000
vn -0.0000 0.9239 0.3827
vn -0.0000 0.3827 0.9239
vn -0.0000 0.9239 -0.3827
vn -0.0000 0.3827 -0.9239
vn -0.9899 -0.1416 -0.0000
vn -0.9792 -0.2028 -0.0000
vn -0.9632 -0.2689 -0.0000
vn 0.9632 -0.2689 -0.0000
vn 0.9792 -0.2028 -0.0000
vn 0.9899 -0.1416 -0.0000
vn -0.0000 -0.6292 0.7772
vn -0.0000 -0.5148 0.8573
vn -0.0000 -0.3831 0.9237
vn -0.0000 -0.6292 -0.7772
vn -0.0000 -0.5148 -0.8573
vn -0.0000 -0.3831 -0.9237
vn 0.8828 -0.4697 -0.0000
vn -0.0000 -0.8391 -0.5439
vn -0.8829 -0.4696 -0.0000
vn -0.0000 -0.8391 0.5439
vn -0.0000 0.9758 0.2186
vn -0.2786 0.9604 -0.0000
vn -0.0000 -1.0000 -0.0000
vn -0.0000 0.1111 -0.9938
vn 0.0001 0.1108 -0.9938
vn -0.0000 0.1108 -0.9938
vn -0.0000 -0.1465 -0.9892
vn 0.0001 -0.1468 -0.9892
vn -0.0000 -0.3937 -0.9192
vn 0.0001 -0.3939 -0.9192
vn 0.0001 -0.3939 -0.9191
vn 0.9934 0.1143 -0.0000
vn 0.9886 -0.1504 -0.0000
vn 0.9152 -0.4030 -0.0000
vn -0.0000 0.1110 0.9938
vn -0.0000 0.1111 0.9938
vn -0.0000 -0.1465 0.9892
vn -0.0000 -0.1464 0.9892
vn -0.0000 -0.3938 0.9192
vn -0.0000 -0.3937 0.9192
vn -0.0000 -0.1464 -0.9892
vn -0.0000 -0.3936 -0.9193
vn -0.0000 0.1108 0.9938
vn 0.0001 -0.1468 0.9892
vn 0.0001 -0.3939 0.9191
vn -0.9963 0.0856 -0.0000
vn -0.9935 -0.1142 -0.0000
vn -0.9493 -0.3145 -0.0000
vn 0.0001 -0.3940 0.9191
vn 0.0001 -0.1470 0.9891
vn 0.0001 0.1107 0.9939
vn 0.0001 -0.3940 -0.9191
vn 0.0002 -0.1470 -0.9891
vn 0.0001 0.1107 -0.9939
vn -0.0000 -0.6302 -0.7764
vn -0.0000 0.3805 -0.9248
vn -0.0000 -0.6302 0.7764
vn -0.0000 -0.6302 0.7765
vn -0.0000 0.3805 0.9248
vn 0.9209 0.3898 -0.0000
vn 0.7677 -0.6409 -0.0000
vn -0.9530 0.3029 -0.0000
vn -0.8472 -0.5312 -0.0000
vn -0.5840 0.8038 0.1130
vn 0.5877 0.8089 0.0151
vn 0.9509 -0.3090 0.0151
vn -0.0000 -0.9999 0.0151
vn 0.5840 0.8038 0.1130
vn -0.9509 -0.3090 0.0151
vn -0.5877 0.8089 0.0151
vn -0.0000 -0.9936 0.1130
vn -0.4156 0.5720 0.7071
vn -0.6725 -0.2185 0.7071
vn -0.0000 -0.7071 0.7071
vn 0.6725 -0.2185 0.7071
vn 0.4156 0.5720 0.7071
vn -0.5878 0.8090 -0.0000
vn 0.5878 0.8090 -0.0000
vn -0.9511 -0.3090 -0.0000
vn 0.9511 -0.3090 -0.0000
vn -0.9450 -0.3070 0.1130
vn 0.9450 -0.3070 0.1130
vn 0.3049 -0.9524 -0.0000
vn 0.9256 0.3786 -0.0000
vn -0.9256 -0.3786 -0.0000
vn -0.3049 0.9524 -0.0000
vn -0.4923 -0.8704 -0.0000
vn 0.9063 -0.4226 -0.0000
vn -0.9063 0.4226 -0.0000
vn 0.4923 0.8704 -0.0000
vn -0.3503 -0.9366 -0.0000
vn 0.3503 0.9366 -0.0000
vn -0.5430 0.7473 0.3829
vn -0.8786 -0.2855 0.3830
vn -0.0000 -0.9238 0.3829
vn 0.8786 -0.2855 0.3829
vn 0.5430 0.7473 0.3829
vn -0.2697 0.6888 0.6729
vn -0.2304 0.9437 0.2373
vn -0.2697 0.6888 -0.6729
vn -0.2304 0.9437 -0.2373
vn -0.2175 0.3149 0.9239
vn -0.5250 0.7602 0.3827
vn -0.2175 0.3149 -0.9239
vn -0.5250 0.7602 -0.3827
vn -0.3214 0.2078 0.9239
vn -0.7759 0.5016 0.3827
vn -0.3214 0.2078 -0.9239
vn -0.7759 0.5016 -0.3827
vn -0.6941 0.2574 0.6723
vn -0.9468 0.2174 0.2372
vn -0.6941 0.2574 -0.6723
vn -0.9468 0.2174 -0.2372
vn -0.2014 0.9795 -0.0000
vn -0.9820 0.1890 -0.0000
vn -0.0000 -0.0000 -0.0000
vn -0.5683 0.8228 -0.0000
vn -0.8398 0.5429 -0.0000
vn 0.3827 -0.9239 -0.0000
vn 0.9239 -0.3827 -0.0000
vn -0.3827 -0.9239 -0.0000
vn -0.9239 -0.3827 -0.0000
vn -0.1185 -0.0491 -0.9917
vn 0.1185 0.0491 -0.9917
vn 0.0491 0.1185 -0.9917
vn -0.0724 -0.1747 -0.9820
vn 0.1747 -0.0724 -0.9820
vn -0.0491 -0.1185 -0.9917
vn 0.1747 0.0724 -0.9820
vn 0.0491 -0.1185 -0.9917
vn 0.0724 -0.1747 -0.9820
vn 0.0724 0.1747 -0.9820
vn -0.0724 0.1747 -0.9820
vn -0.0491 0.1185 -0.9917
vn 0.1185 -0.0491 -0.9917
vn -0.1747 0.0724 -0.9820
vn -0.1747 -0.0724 -0.9820
vn -0.1185 0.0491 -0.9917
vt 0.206841 0.904246
vt 0.206841 0.974594
vt 0.200594 0.974594
vt 0.200594 0.904246
vt 0.819978 0.488273
vt 0.819978 0.470274
vt 0.844235 0.470274
vt 0.844235 0.488272
vt 0.314912 0.876642
vt 0.296918 0.876611
vt 0.296918 0.806436
vt 0.314912 0.806467
vt 0.868438 0.488266
vt 0.868456 0.470269
vt 0.901221 0.470269
vt 0.901202 0.488266
vt 0.927730 0.849622
vt 0.927730 0.779274
vt 0.930357 0.776714
vt 0.930357 0.852188
vt 0.249811 0.876531
vt 0.249811 0.806356
vt 0.870638 0.849619
vt 0.903475 0.849621
vt 0.904335 0.852186
vt 0.869106 0.852184
vt 0.844235 0.488266
vt 0.844253 0.470269
vt 0.787138 0.488273
vt 0.787138 0.470275
vt 0.844301 0.423154
vt 0.868504 0.423154
vt 0.819978 0.423154
vt 0.844235 0.423154
vt 0.885823 0.073507
vt 0.885823 0.003254
vt 0.932895 0.003142
vt 0.932895 0.073395
vt 0.495497 0.878678
vt 0.495497 0.948853
vt 0.461564 0.948795
vt 0.461564 0.878620
vt 0.047212 0.971821
vt 0.020755 0.971819
vt 0.021927 0.968420
vt 0.046040 0.968422
vt 0.047212 0.895088
vt 0.046040 0.898487
vt 0.020755 0.895087
vt 0.021927 0.898486
vt 0.069263 0.964926
vt 0.069263 0.895087
vt 0.074543 0.897185
vt 0.074542 0.962569
vt 0.570849 0.983205
vt 0.570849 0.917733
vt 0.576266 0.923111
vt 0.576266 0.977809
vt 0.585144 0.977810
vt 0.585144 0.923111
vt 0.590500 0.917734
vt 0.590500 0.983206
vt 0.112305 0.773939
vt 0.112305 0.708628
vt 0.117637 0.706568
vt 0.117637 0.776331
vt 0.961884 0.766653
vt 0.961884 0.747046
vt 0.967237 0.744975
vt 0.967237 0.769036
vt 0.953958 0.766851
vt 0.953958 0.747199
vt 0.959334 0.744976
vt 0.959334 0.769091
vt 0.066715 0.964932
vt 0.066715 0.895093
vt 0.961884 0.744976
vt 0.961884 0.769091
vt 0.969787 0.744978
vt 0.969787 0.769038
vt 0.120187 0.706572
vt 0.120187 0.776335
vt 0.933457 0.074255
vt 0.933457 0.002309
vt 0.934827 0.001752
vt 0.934827 0.074827
vt 0.936170 0.000965
vt 0.936170 0.075636
vt 0.937394 0.000001
vt 0.937394 0.076629
vt 0.245332 0.879785
vt 0.245332 0.803241
vt 0.246549 0.804197
vt 0.246549 0.878786
vt 0.247888 0.804977
vt 0.247888 0.877972
vt 0.249255 0.805530
vt 0.249255 0.877396
vt 0.118549 0.969994
vt 0.118549 0.943595
vt 0.119773 0.943867
vt 0.119773 0.969592
vt 0.121117 0.944090
vt 0.121117 0.969264
vt 0.122488 0.944247
vt 0.122488 0.969033
vt 0.485047 0.975312
vt 0.485047 0.948853
vt 0.486262 0.949187
vt 0.486262 0.974971
vt 0.487598 0.949460
vt 0.487598 0.974692
vt 0.488963 0.949653
vt 0.488963 0.974495
vt 0.244887 0.879784
vt 0.244887 0.803241
vt 0.484602 0.975312
vt 0.484602 0.948853
vt 0.243942 0.532464
vt 0.243942 0.508206
vt 0.244790 0.507914
vt 0.244790 0.532756
vt 0.937838 0.000000
vt 0.937838 0.076628
vt 0.122525 0.508535
vt 0.122525 0.532793
vt 0.121678 0.533085
vt 0.121678 0.508243
vt 0.118104 0.969994
vt 0.118104 0.943595
vt 0.590500 0.917776
vt 0.608480 0.917733
vt 0.608480 0.987986
vt 0.590500 0.988029
vt 0.864391 0.849619
vt 0.862404 0.852184
vt 0.780891 0.488274
vt 0.780891 0.470275
vt 0.907454 0.470269
vt 0.907436 0.488266
vt 0.870638 0.779271
vt 0.864391 0.779271
vt 0.862404 0.776711
vt 0.869106 0.776711
vt 0.903475 0.779273
vt 0.904335 0.776713
vt 0.887836 0.925941
vt 0.862404 0.925941
vt 0.862404 0.852188
vt 0.887836 0.852188
vt 0.922265 0.925941
vt 0.922265 0.852188
vt 0.928815 0.852188
vt 0.928815 0.925941
vt 0.936746 0.103003
vt 0.936747 0.137263
vt 0.935761 0.137197
vt 0.935761 0.103040
vt 0.934719 0.137290
vt 0.934720 0.102988
vt 0.933801 0.137525
vt 0.933803 0.102857
vt 0.982985 0.100781
vt 0.982985 0.173991
vt 0.982002 0.173871
vt 0.982002 0.100881
vt 0.980959 0.174034
vt 0.980959 0.100737
vt 0.980035 0.174451
vt 0.980035 0.100374
vt 0.979304 0.959178
vt 0.979304 0.984427
vt 0.978320 0.984306
vt 0.978320 0.959132
vt 0.977278 0.984473
vt 0.977278 0.959194
vt 0.976358 0.984900
vt 0.976357 0.959352
vt 0.936746 0.077697
vt 0.935760 0.077810
vt 0.934720 0.077652
vt 0.933804 0.077251
vt 0.979305 0.924996
vt 0.978320 0.925053
vt 0.977277 0.924971
vt 0.976355 0.924763
vt 0.457757 0.711367
vt 0.457757 0.638074
vt 0.458740 0.638177
vt 0.458740 0.711251
vt 0.459787 0.638026
vt 0.459787 0.711410
vt 0.460718 0.637647
vt 0.460718 0.711816
vt 0.976352 0.918181
vt 0.977275 0.918459
vt 0.978320 0.918569
vt 0.979307 0.918493
vt 0.933798 0.144122
vt 0.934717 0.143816
vt 0.935761 0.143696
vt 0.936749 0.143781
vt 0.933054 0.144588
vt 0.933054 0.137886
vt 0.937185 0.137371
vt 0.937185 0.143921
vt 0.933054 0.102654
vt 0.937185 0.102943
vt 0.975602 0.959597
vt 0.975602 0.924445
vt 0.979742 0.918367
vt 0.979742 0.924902
vt 0.975602 0.917758
vt 0.979742 0.959252
vt 0.937185 0.077511
vt 0.933054 0.076629
vt 0.983420 0.100614
vt 0.983420 0.174186
vt 0.979273 0.175099
vt 0.979273 0.099811
vt 0.979742 0.984626
vt 0.975602 0.985562
vt 0.457326 0.711556
vt 0.457326 0.637903
vt 0.461479 0.637069
vt 0.461479 0.712439
vt 0.594539 0.484391
vt 0.592219 0.484398
vt 0.592415 0.482928
vt 0.594536 0.482921
vt 0.588006 0.481454
vt 0.592219 0.482814
vt 0.591124 0.483610
vt 0.588425 0.482739
vt 0.574631 0.489285
vt 0.574629 0.481454
vt 0.578179 0.481465
vt 0.578318 0.489297
vt 0.585402 0.485037
vt 0.586756 0.485035
vt 0.605855 0.489301
vt 0.606019 0.481480
vt 0.610267 0.481454
vt 0.610267 0.489274
vt 0.592219 0.487236
vt 0.591124 0.486444
vt 0.596813 0.489286
vt 0.596898 0.481454
vt 0.601330 0.481454
vt 0.601416 0.489286
vt 0.588006 0.488610
vt 0.588425 0.487324
vt 0.596813 0.484398
vt 0.596615 0.482928
vt 0.601416 0.489281
vt 0.601418 0.481454
vt 0.605691 0.481454
vt 0.605855 0.489281
vt 0.570871 0.489297
vt 0.571009 0.481465
vt 0.581024 0.481454
vt 0.585402 0.482877
vt 0.585402 0.487480
vt 0.581024 0.488903
vt 0.578319 0.485179
vt 0.613106 0.484395
vt 0.610267 0.484395
vt 0.610388 0.482925
vt 0.612984 0.482925
vt 0.575238 0.490168
vt 0.575238 0.493001
vt 0.574440 0.492390
vt 0.574440 0.490683
vt 0.572539 0.493881
vt 0.572814 0.492920
vt 0.570871 0.491592
vt 0.571809 0.491541
vt 0.583477 0.490113
vt 0.580757 0.490170
vt 0.581076 0.489331
vt 0.582715 0.489297
vt 0.572539 0.489297
vt 0.572814 0.490158
vt 0.577219 0.491571
vt 0.577226 0.493890
vt 0.575245 0.493890
vt 0.575238 0.491571
vt 0.577226 0.489297
vt 0.575245 0.489297
vt 0.590068 0.489297
vt 0.590068 0.492034
vt 0.588090 0.492063
vt 0.588090 0.489325
vt 0.588090 0.489297
vt 0.588090 0.492136
vt 0.586109 0.492136
vt 0.586109 0.489297
vt 0.583477 0.492089
vt 0.580757 0.492146
vt 0.615843 0.484462
vt 0.613106 0.484422
vt 0.613267 0.482947
vt 0.615770 0.482983
vt 0.618564 0.484429
vt 0.615843 0.484486
vt 0.615912 0.483005
vt 0.618400 0.482953
vt 0.242707 0.566857
vt 0.244416 0.566857
vt 0.244416 0.568865
vt 0.242707 0.568865
vt 0.578930 0.491237
vt 0.577226 0.491228
vt 0.577294 0.489297
vt 0.578999 0.489305
vt 0.580706 0.493846
vt 0.578999 0.493834
vt 0.579050 0.491848
vt 0.580757 0.491860
vt 0.349965 0.579959
vt 0.351674 0.579956
vt 0.351681 0.581973
vt 0.349972 0.581976
vt 0.242707 0.556121
vt 0.244416 0.556121
vt 0.578999 0.493874
vt 0.577294 0.493866
vt 0.974562 0.758820
vt 0.975529 0.771116
vt 0.974097 0.772664
vt 0.971219 0.772664
vt 0.969787 0.771116
vt 0.970753 0.758820
vt 0.578999 0.489297
vt 0.580706 0.489309
vt 0.349972 0.569307
vt 0.351681 0.569304
vt 0.179097 0.962388
vt 0.178132 0.950108
vt 0.179562 0.948565
vt 0.182438 0.948572
vt 0.183868 0.950121
vt 0.182903 0.962397
vt 0.974097 0.744976
vt 0.975529 0.746524
vt 0.969787 0.746524
vt 0.971219 0.744975
vt 0.242707 0.544568
vt 0.244416 0.544568
vt 0.179562 0.976213
vt 0.178132 0.974664
vt 0.183868 0.974677
vt 0.182438 0.976220
vt 0.349969 0.557814
vt 0.351678 0.557811
vt 0.593128 0.481459
vt 0.594526 0.481454
vt 0.613856 0.481454
vt 0.615505 0.481478
vt 0.610831 0.481454
vt 0.612542 0.481454
vt 0.616162 0.481489
vt 0.617801 0.481454
vt 0.595896 0.481459
vt 0.594539 0.491890
vt 0.592219 0.491897
vt 0.584483 0.492058
vt 0.583477 0.490676
vt 0.584483 0.489297
vt 0.586109 0.489826
vt 0.586109 0.491532
vt 0.596813 0.491897
vt 0.615843 0.491950
vt 0.613106 0.491911
vt 0.613106 0.491894
vt 0.610267 0.491894
vt 0.618564 0.491909
vt 0.615843 0.491966
vt 0.134805 0.904272
vt 0.145913 0.904246
vt 0.145913 0.906170
vt 0.133749 0.905388
vt 0.145913 0.908095
vt 0.133312 0.908105
vt 0.145913 0.974594
vt 0.134805 0.974620
vt 0.133749 0.973481
vt 0.145913 0.972669
vt 0.133312 0.970755
vt 0.145913 0.970745
vt 0.888835 0.449003
vt 0.879484 0.442526
vt 0.880651 0.439989
vt 0.890901 0.447088
vt 0.123373 0.905418
vt 0.122559 0.908136
vt 0.808953 0.442529
vt 0.799574 0.449006
vt 0.797586 0.447080
vt 0.807867 0.439980
vt 0.123373 0.973511
vt 0.122559 0.970786
vt 0.895108 0.458743
vt 0.897752 0.457726
vt 0.837456 0.900241
vt 0.847771 0.899857
vt 0.848608 0.902616
vt 0.837932 0.903014
vt 0.793277 0.458747
vt 0.790708 0.457719
vt 0.847771 0.967858
vt 0.837456 0.968242
vt 0.837932 0.965579
vt 0.848608 0.965181
vt 0.825070 0.899331
vt 0.836306 0.898983
vt 0.825070 0.901253
vt 0.825070 0.903175
vt 0.787145 0.470284
vt 0.825070 0.967662
vt 0.825070 0.965740
vt 0.868490 0.436330
vt 0.461564 0.946876
vt 0.461564 0.944956
vt 0.461564 0.882460
vt 0.461564 0.880540
vt 0.825070 0.969584
vt 0.819978 0.436332
vt 0.915519 0.753641
vt 0.915519 0.765894
vt 0.913085 0.764886
vt 0.913085 0.754649
vt 0.916777 0.942805
vt 0.930069 0.942805
vt 0.930069 0.959668
vt 0.916777 0.959668
vt 0.931427 0.467858
vt 0.940338 0.467880
vt 0.940584 0.478976
vt 0.931672 0.478955
vt 0.889815 0.959658
vt 0.876555 0.959681
vt 0.876065 0.942654
vt 0.889324 0.942632
vt 0.941924 0.480649
vt 0.950848 0.480648
vt 0.950868 0.492032
vt 0.941944 0.492032
vt 0.876555 0.925964
vt 0.889815 0.925941
vt 0.941944 0.469392
vt 0.950868 0.469392
vt 0.903484 0.925942
vt 0.916777 0.925941
vt 0.916747 0.942708
vt 0.903455 0.942709
vt 0.936390 0.774567
vt 0.924164 0.774557
vt 0.915519 0.765886
vt 0.915519 0.753633
vt 0.924164 0.744976
vt 0.936390 0.744986
vt 0.945034 0.753657
vt 0.945034 0.765910
vt 0.931097 0.479063
vt 0.922196 0.479078
vt 0.922525 0.467873
vt 0.916777 0.959665
vt 0.903484 0.959666
vt 0.945034 0.744976
vt 0.953958 0.744976
vt 0.953958 0.756297
vt 0.945034 0.756297
vt 0.931427 0.490494
vt 0.922525 0.490509
vt 0.903089 0.925973
vt 0.903455 0.942502
vt 0.890180 0.942470
vt 0.906855 0.774559
vt 0.894601 0.774559
vt 0.895610 0.772125
vt 0.905846 0.772125
vt 0.953958 0.767618
vt 0.945034 0.767618
vt 0.903089 0.959665
vt 0.889815 0.959633
vt 0.940338 0.490498
vt 0.931427 0.490477
vt 0.930069 0.925941
vt 0.106008 0.943595
vt 0.087798 0.943580
vt 0.074921 0.930664
vt 0.074921 0.912412
vt 0.087798 0.899517
vt 0.106008 0.899531
vt 0.118885 0.912448
vt 0.118885 0.930699
vt 0.795413 0.902610
vt 0.810662 0.902610
vt 0.806589 0.912459
vt 0.799501 0.912459
vt 0.810662 0.939423
vt 0.795413 0.939423
vt 0.799501 0.929570
vt 0.806589 0.929571
vt 0.885936 0.765894
vt 0.885936 0.753640
vt 0.888371 0.754649
vt 0.888371 0.764886
vt 0.793911 0.898983
vt 0.812164 0.898984
vt 0.793911 0.943050
vt 0.781005 0.930143
vt 0.784631 0.928641
vt 0.825070 0.930143
vt 0.812164 0.943050
vt 0.821444 0.928641
vt 0.906855 0.744976
vt 0.905846 0.747410
vt 0.894601 0.744976
vt 0.895609 0.747410
vt 0.825070 0.911890
vt 0.821444 0.913392
vt 0.781005 0.911890
vt 0.784631 0.913392
vt 0.906479 0.757386
vt 0.906479 0.762145
vt 0.903115 0.765509
vt 0.898356 0.765509
vt 0.894992 0.762145
vt 0.894992 0.757386
vt 0.898356 0.754022
vt 0.903115 0.754022
vt 0.811601 0.917471
vt 0.811601 0.924559
vt 0.794490 0.924559
vt 0.794490 0.917471
s 1
usemtl Material.001
f 2/1/1 4/2/1 58/3/1 57/4/1
f 9/5/2 10/6/2 8/7/2 7/8/2
f 7/9/3 8/10/3 6/11/3 5/12/3
f 11/13/4 12/14/4 2/15/4 1/16/4
f 7/17/5 5/18/5 62/19/5 63/20/5
f 6/11/3 8/10/3 14/21/3 15/22/3
f 3/23/6 9/24/6 61/25/6 59/26/6
f 5/27/4 6/28/4 12/14/4 11/13/4
f 3/29/2 4/30/2 10/6/2 9/5/2
f 12/14/4 6/28/4 15/31/4 16/32/4
f 8/7/2 10/6/2 13/33/2 14/34/2
f 10/35/7 12/36/7 16/37/7 13/38/7
f 12/39/3 10/40/3 18/41/3 17/42/3
f 21/43/1 19/44/1 23/45/1 25/46/1
f 22/47/1 21/43/1 25/46/1 26/48/1
f 20/49/1 22/47/1 26/48/1 24/50/1
f 19/44/1 20/49/1 24/50/1 23/45/1
f 28/51/8 30/52/8 32/53/8 29/54/8
f 29/55/9 32/56/9 31/57/9 27/58/9
f 34/59/10 36/60/10 38/61/10 35/62/10
f 35/63/11 38/64/11 37/65/11 33/66/11
f 36/60/12 31/57/12 32/56/12 38/61/12
f 38/67/13 32/68/13 30/69/13 37/70/13
f 27/58/14 34/59/14 35/62/14 29/55/14
f 29/71/15 35/72/15 33/73/15 28/74/15
f 23/75/7 24/76/7 30/52/7 28/51/7
f 34/59/1 27/58/1 31/57/1 36/60/1
f 25/77/2 23/78/2 28/74/2 33/73/2
f 24/79/4 26/80/4 37/70/4 30/69/4
f 26/81/3 25/82/3 33/66/3 37/65/3
f 44/83/16 51/84/16 53/85/16 46/86/16
f 46/86/17 53/85/17 54/87/17 45/88/17
f 45/88/18 54/87/18 52/89/18 43/90/18
f 40/91/19 47/92/19 49/93/19 42/94/19
f 42/94/20 49/93/20 50/95/20 41/96/20
f 41/96/21 50/95/21 48/97/21 39/98/21
f 47/99/22 52/100/22 54/101/22 49/102/22
f 49/102/23 54/101/23 53/103/23 50/104/23
f 50/104/24 53/103/24 51/105/24 48/106/24
f 43/107/25 40/108/25 42/109/25 45/110/25
f 45/110/26 42/109/26 41/111/26 46/112/26
f 46/112/27 41/111/27 39/113/27 44/114/27
f 47/92/3 40/91/3 21/115/3 22/116/3
f 15/22/28 14/21/28 39/98/28 48/97/28
f 40/108/2 43/107/2 19/117/2 21/118/2
f 14/119/29 13/120/29 44/121/29 39/122/29
f 43/90/7 52/89/7 20/123/7 19/124/7
f 13/38/30 16/37/30 51/84/30 44/83/30
f 16/125/31 15/126/31 48/127/31 51/128/31
f 52/100/4 47/99/4 22/129/4 20/130/4
f 56/131/7 57/132/7 58/133/7 55/134/7
f 55/135/6 3/23/6 59/26/6 65/136/6
f 4/30/2 3/29/2 55/137/2 58/138/2
f 1/16/4 2/15/4 57/139/4 56/140/4
f 1/141/32 56/142/32 66/143/32 60/144/32
f 11/145/32 1/141/32 60/144/32 64/146/32
f 9/24/6 7/17/6 63/20/6 61/25/6
f 56/142/33 55/135/33 65/136/33 66/143/33
f 5/18/32 11/145/32 64/146/32 62/19/32
f 69/147/34 71/148/34 70/149/34 72/150/34
f 67/151/34 69/147/34 72/150/34 68/152/34
f 67/151/34 68/152/34 74/153/34 73/154/34
f 84/155/35 75/156/36 77/157/37 86/158/35
f 86/158/38 77/157/39 78/159/39 85/160/38
f 85/160/40 78/159/41 76/161/42 83/162/40
f 88/163/43 91/164/43 93/165/43 90/166/43
f 90/166/44 93/165/44 94/167/44 89/168/44
f 89/168/45 94/167/45 92/169/45 87/170/45
f 96/171/46 88/172/47 90/173/47 98/174/46
f 98/174/48 90/173/49 89/175/49 97/176/48
f 97/176/50 89/175/51 87/177/51 95/178/51
f 91/179/35 84/155/35 86/158/35 93/180/35
f 93/180/52 86/158/38 85/160/38 94/181/52
f 94/181/53 85/160/40 83/162/40 92/182/53
f 80/183/54 96/171/46 98/174/46 82/184/54
f 82/184/55 98/174/48 97/176/48 81/185/55
f 81/185/56 97/176/50 95/178/51 79/186/56
f 100/187/57 103/188/57 105/189/57 102/190/57
f 102/190/58 105/189/58 106/191/58 101/192/58
f 101/192/59 106/191/59 104/193/59 99/194/59
f 79/186/56 104/195/60 106/196/60 81/185/56
f 81/185/55 106/196/61 105/197/61 82/184/55
f 82/184/54 105/197/62 103/198/62 80/183/54
f 99/199/63 76/161/42 78/159/41 101/200/63
f 101/200/64 78/159/39 77/157/39 102/201/64
f 102/201/65 77/157/37 75/156/36 100/202/65
f 65/203/66 59/204/66 76/161/66 99/199/66
f 100/202/67 75/156/67 67/205/67 73/206/67
f 59/204/66 61/207/66 83/162/66 76/161/66
f 75/156/67 84/155/67 69/208/67 67/205/67
f 64/209/68 60/210/69 79/186/68 95/178/68
f 80/183/70 103/198/70 74/211/70 68/212/70
f 60/210/69 66/213/69 104/195/69 79/186/68
f 96/171/70 80/183/70 68/212/70 72/214/70
f 84/155/67 91/179/67 71/215/67 69/208/67
f 61/207/66 63/216/66 92/182/66 83/162/66
f 91/164/71 88/163/71 70/217/71 71/218/71
f 63/219/72 62/220/72 87/170/72 92/169/72
f 88/172/70 96/171/70 72/214/70 70/221/70
f 62/222/68 64/209/68 95/178/68 87/177/68
f 103/188/73 100/187/73 73/223/73 74/224/73
f 66/225/74 65/226/74 99/194/74 104/193/74
f 163/227/75 164/228/75 122/229/75 123/230/75
f 112/231/4 110/232/4 107/233/4 108/234/4
f 109/235/76 110/236/76 112/237/76 111/238/76
f 114/239/4 112/231/4 108/234/4 119/240/4
f 111/241/77 112/242/77 114/243/77 113/244/77
f 110/232/4 118/245/4 121/246/4 107/233/4
f 113/247/78 114/248/78 116/249/78 115/250/78
f 118/245/4 116/251/4 120/252/4 121/246/4
f 170/253/79 163/227/79 123/230/79 124/254/79
f 115/255/80 116/256/80 118/257/80 117/258/80
f 116/251/4 114/239/4 119/240/4 120/252/4
f 117/259/81 118/260/81 110/236/81 109/235/81
f 109/261/2 111/262/2 113/263/2 115/264/2 117/265/2
f 166/266/82 168/267/82 157/268/82 158/269/82
f 126/270/83 127/271/83 128/272/83 125/273/83
f 127/271/84 129/274/84 130/275/84 128/272/84
f 129/274/85 131/276/85 132/277/85 130/275/85
f 131/278/86 133/279/86 134/280/86 132/281/86
f 133/282/87 126/270/87 125/273/87 134/283/87
f 107/284/88 121/285/88 127/286/88 126/287/88
f 134/283/4 125/273/4 128/272/4 130/275/4 132/277/4
f 108/288/89 107/284/89 126/287/89 133/289/89
f 121/290/90 120/291/90 129/292/90 127/293/90
f 120/294/34 119/295/34 131/296/34 129/297/34
f 119/298/91 108/299/91 133/279/91 131/278/91
f 164/300/92 166/301/92 158/302/92 122/303/92
f 168/304/93 170/305/93 124/306/93 157/307/93
f 151/308/94 142/309/94 141/310/94 152/311/94
f 155/312/95 154/313/95 153/314/95 156/315/95
f 149/316/96 148/317/96 147/318/96 150/319/96
f 143/320/97 146/321/97 145/322/97 144/323/97
f 142/309/98 151/308/98 140/324/98 139/325/98
f 154/313/99 155/312/99 152/326/99 141/327/99
f 137/328/2 153/329/2 154/330/2 141/331/2 142/332/2 139/333/2
f 150/319/100 147/318/100 144/334/100 145/335/100
f 146/321/101 143/320/101 138/336/101 137/337/101
f 138/338/4 143/339/4 144/340/4 147/341/4 148/342/4 140/343/4
f 145/344/2 146/345/2 137/328/2 139/333/2 149/346/2 150/347/2
f 139/325/102 140/324/102 148/348/102 149/349/102
f 155/350/4 156/351/4 138/338/4 140/343/4 151/352/4 152/353/4
f 137/337/103 138/336/103 156/354/103 153/355/103
f 123/230/104 122/229/104 165/356/104 162/357/104
f 122/303/105 158/302/105 167/358/105 165/359/105
f 158/269/106 157/268/106 169/360/106 167/361/106
f 157/307/107 124/306/107 171/362/107 169/363/107
f 124/254/108 123/230/108 162/357/108 171/364/108
f 136/365/88 161/366/88 164/228/88 163/227/88
f 171/367/4 162/368/4 165/369/4 167/370/4 169/371/4
f 135/372/89 136/365/89 163/227/89 170/253/89
f 161/373/90 160/374/90 166/301/90 164/300/90
f 160/375/34 159/376/34 168/267/34 166/266/34
f 159/377/91 135/378/91 170/305/91 168/304/91
f 176/379/109 17/380/109 173/381/109 178/382/109
f 178/382/110 173/381/110 172/383/110 177/384/110
f 18/385/111 195/386/111 197/387/111 188/388/111
f 188/388/112 197/387/112 196/389/112 187/390/112
f 179/391/113 176/392/113 178/393/113 181/394/113
f 181/395/114 178/382/114 177/384/114 180/396/114
f 195/397/115 192/398/115 194/399/115 197/400/115
f 197/387/116 194/401/116 193/402/116 196/389/116
f 182/403/117 179/391/117 181/394/117 184/404/117
f 184/405/118 181/406/118 180/407/118 183/408/118
f 192/398/119 189/409/119 191/410/119 194/399/119
f 194/411/120 191/412/120 190/413/120 193/414/120
f 2/415/121 182/416/121 184/405/121 175/417/121
f 175/417/122 184/405/122 183/408/122 174/418/122
f 189/409/123 4/30/123 186/419/123 191/410/123
f 191/412/124 186/420/124 185/421/124 190/413/124
f 2/15/4 12/14/4 17/422/4 176/392/4 179/391/4 182/403/4
f 172/383/125 187/390/125 196/389/125 177/384/125
f 18/41/3 188/423/3 187/424/3 172/425/3 173/426/3 17/42/3
f 183/408/126 190/413/126 185/421/126 174/418/126
s 0
f 4/427/127 2/415/127 175/417/127 174/418/127 185/421/127 186/420/127
s 1
f 177/384/128 196/389/128 193/402/128 180/396/128
f 180/407/129 193/414/129 190/413/129 183/408/129
f 10/6/2 4/30/2 189/409/2 192/398/2 195/397/2 18/428/2
f 217/429/2 198/430/2 241/431/2 235/432/2
f 200/433/130 201/434/130 203/435/130 202/436/130
f 224/437/8 225/438/8 227/439/8 226/440/8
f 202/441/131 203/442/131 205/443/131 204/444/131
f 222/445/9 223/446/9 225/447/9 224/448/9
f 204/444/11 205/443/11 207/449/11 206/450/11
f 220/451/10 221/452/10 223/446/10 222/445/10
f 206/453/10 207/454/10 209/455/10 208/456/10
f 199/457/4 216/458/4 218/459/4 220/460/4 222/461/4 224/462/4 226/463/4 228/464/4
f 218/465/11 219/466/11 221/467/11 220/437/11
f 208/456/9 209/455/9 211/468/9 210/469/9
f 228/470/132 229/471/132 198/472/132 199/473/132
f 216/474/131 217/475/131 219/466/131 218/465/131
f 210/450/8 211/476/8 213/477/8 212/478/8
f 229/479/2 227/480/2 244/481/2 245/482/2
f 199/473/130 198/472/130 217/483/130 216/484/130
f 212/478/133 213/477/133 215/485/133 214/486/133
f 226/440/133 227/439/133 229/487/133 228/488/133
f 214/454/132 215/489/132 201/434/132 200/433/132
f 200/490/4 202/491/4 204/492/4 206/493/4 208/494/4 210/495/4 212/496/4 214/497/4
f 237/498/134 236/499/134 252/500/134 253/501/134
f 243/502/135 242/503/135 258/504/135 259/505/135
f 225/506/2 223/507/2 231/508/2 230/509/2
f 207/510/2 205/511/2 236/499/2 237/498/2
f 213/512/2 211/513/2 240/514/2 242/503/2
f 201/515/2 215/516/2 243/502/2 233/517/2
f 198/430/2 229/479/2 245/482/2 241/431/2
f 219/518/2 217/429/2 235/432/2 234/519/2
f 223/507/2 221/520/2 238/521/2 231/508/2
f 221/520/2 219/518/2 234/519/2 238/521/2
f 205/511/2 203/522/2 232/523/2 236/499/2
f 211/513/2 209/524/2 239/525/2 240/514/2
f 227/480/2 225/506/2 230/509/2 244/481/2
f 203/522/2 201/515/2 233/517/2 232/523/2
f 209/524/2 207/510/2 237/498/2 239/525/2
f 215/516/2 213/512/2 242/503/2 243/502/2
f 251/526/2 257/527/2 261/528/2 260/529/2 246/530/2 247/531/2 254/532/2 250/533/2
f 248/534/2 249/535/2 259/505/2 258/504/2 256/536/2 255/537/2 253/501/2 252/500/2
f 233/517/136 243/502/136 259/505/136 249/535/136
f 231/508/137 238/521/137 254/532/137 247/531/137
f 244/481/138 230/509/138 246/530/138 260/529/138
f 239/525/139 237/498/139 253/501/139 255/537/139
f 245/482/140 244/481/140 260/529/140 261/528/140
f 240/514/141 239/525/141 255/537/141 256/536/141
f 230/509/142 231/508/142 247/531/142 246/530/142
f 241/431/143 245/482/143 261/528/143 257/527/143
f 235/432/144 241/431/144 257/527/144 251/526/144
f 232/523/145 233/517/145 249/535/145 248/534/145
f 242/503/146 240/514/146 256/536/146 258/504/146
f 234/519/147 235/432/147 251/526/147 250/533/147
f 238/521/148 234/519/148 250/533/148 254/532/148
f 236/499/149 232/523/149 248/534/149 252/500/149
