# Blender 5.1.1
# www.blender.org
mtllib Crystal 1.mtl
o shelves.005
v 4.861561 0.129341 -0.557520
v 4.531317 -0.167965 -0.571205
v 4.692822 0.021103 -0.599551
v 4.606875 -0.234190 -0.582420
v 4.768380 -0.045122 -0.610765
v 4.645415 -0.253397 -0.490953
v 4.806920 -0.064329 -0.519299
v 4.593676 -0.199045 -0.423209
v 4.755181 -0.009977 -0.451555
v 4.523160 -0.146244 -0.472807
v 4.684664 0.042824 -0.501153
v 4.487504 -0.034206 -0.324073
v 4.427731 -0.231232 -0.466349
v 4.538608 -0.094931 -0.261452
v 4.478836 -0.291956 -0.403728
v 4.634118 -0.100286 -0.294158
v 4.574345 -0.297312 -0.436433
v 4.642041 -0.042875 -0.376992
v 4.582269 -0.239901 -0.519268
v 4.551428 -0.002035 -0.395480
v 4.491656 -0.199060 -0.537756
v 4.615139 0.091486 -0.224747
v 4.165089 0.212690 -0.567351
v 4.469940 -0.205935 -0.597902
v 4.331048 0.049776 -0.622525
v 4.485566 -0.186346 -0.482625
v 4.346673 0.069365 -0.507249
v 4.392826 -0.231182 -0.425131
v 4.253933 0.024527 -0.449754
v 4.319884 -0.278481 -0.504874
v 4.180992 -0.022770 -0.529498
v 4.367544 -0.262877 -0.611652
v 4.228652 -0.007166 -0.636276
v 4.340023 0.268923 -0.569301
v 4.340023 -0.234655 -0.569301
v 4.402884 0.268923 -0.375836
v 4.402884 -0.234655 -0.375836
v 4.606305 0.268923 -0.375836
v 4.606305 -0.234655 -0.375836
v 4.669165 0.268923 -0.569301
v 4.669165 -0.234655 -0.569301
v 4.504594 0.268923 -0.688869
v 4.504594 -0.234655 -0.688869
v 4.504594 0.642988 -0.515829
vn -0.4852 0.8445 -0.2267
vn -0.0655 0.6353 0.7695
vn 0.6620 -0.6270 -0.4106
vn -0.3115 0.3956 0.8640
vn -0.7596 0.6190 -0.1996
vn -0.1580 -0.0131 -0.9874
vn 0.7573 -0.0859 0.6473
vn 0.8462 -0.3225 -0.4243
vn 0.5671 -0.3745 0.7336
vn 0.0782 0.2526 -0.9644
vn 0.4336 0.7123 -0.5520
vn -0.2388 -0.7873 -0.5685
vn 0.9902 0.0509 0.1300
vn -0.6453 -0.7555 0.1133
vn -0.6065 0.7706 -0.1958
vn -0.8291 -0.1394 0.5414
vn -0.7370 0.5282 -0.4218
vn 0.2940 -0.2994 0.9077
vn 0.2246 -0.6143 0.7564
vn 0.3736 0.4659 -0.8021
vn -0.6928 0.1453 0.7063
vn -0.7527 0.0546 0.6561
vn 0.9679 -0.2402 -0.0739
vn -0.8985 -0.1282 -0.4198
vn -0.6257 -0.2694 0.7321
vn 0.3947 0.2981 0.8691
vn -0.0330 0.2903 -0.9564
vn 0.8696 0.4536 -0.1950
vn -0.7814 -0.4645 -0.4167
vn 0.6478 0.7317 -0.2121
vn 0.4756 -0.8756 0.0843
vn 0.8907 0.3505 0.2894
vn -0.0000 -1.0000 -0.0000
vn 0.1428 -0.0178 -0.9896
vn -0.5878 -0.0000 -0.8090
vn -0.9511 -0.0000 0.3090
vn 0.2030 0.5861 0.7844
vn -0.0000 -0.0000 1.0000
vn 0.5878 -0.0000 -0.8090
vn 0.9511 -0.0000 0.3090
vn 0.5505 0.3505 -0.7577
vn -0.8907 0.3505 0.2894
vn -0.5505 0.3505 -0.7577
vn -0.0000 0.3505 0.9366
vt 0.973922 0.823173
vt 0.976892 0.821760
vt 0.976892 0.827641
vt 0.914047 0.310857
vt 0.911000 0.310628
vt 0.911526 0.304947
vt 0.930190 0.742953
vt 0.928113 0.735474
vt 0.931155 0.735223
vt 0.933232 0.742701
vt 0.911000 0.318876
vt 0.914047 0.319105
vt 0.973922 0.387354
vt 0.973922 0.380566
vt 0.977268 0.380816
vt 0.977268 0.387605
vt 0.588827 0.968726
vt 0.588827 0.960405
vt 0.592198 0.960417
vt 0.592198 0.968738
vt 0.933232 0.733736
vt 0.928914 0.728774
vt 0.908680 0.319263
vt 0.908680 0.311015
vt 0.590608 0.954029
vt 0.978419 0.398223
vt 0.975207 0.397992
vt 0.978419 0.393036
vt 0.978287 0.413267
vt 0.978287 0.416540
vt 0.975589 0.417130
vt 0.973922 0.414221
vt 0.975589 0.411834
vt 0.629261 0.960176
vt 0.625908 0.960184
vt 0.627843 0.954029
vt 0.976912 0.345088
vt 0.978760 0.347312
vt 0.976912 0.350104
vt 0.973922 0.349606
vt 0.973922 0.346505
vt 0.973922 0.395137
vt 0.704110 0.962580
vt 0.704110 0.954350
vt 0.706912 0.954029
vt 0.706912 0.962259
vt 0.709566 0.954385
vt 0.709566 0.962615
vt 0.957066 0.161303
vt 0.953977 0.161282
vt 0.954792 0.154948
vt 0.955970 0.167933
vt 0.959059 0.167954
vt 0.973922 0.363353
vt 0.973922 0.356455
vt 0.977130 0.357045
vt 0.977130 0.363944
vt 0.959059 0.159369
vt 0.929852 0.849350
vt 0.927542 0.847124
vt 0.932511 0.841919
vt 0.625908 0.968535
vt 0.629261 0.968526
vt 0.933465 0.849356
vt 0.738853 0.944502
vt 0.738853 0.934761
vt 0.741921 0.934844
vt 0.741921 0.944585
vt 0.735558 0.944574
vt 0.735558 0.934833
vt 0.957859 0.047908
vt 0.953977 0.048000
vt 0.955465 0.040411
vt 0.968330 0.958862
vt 0.968330 0.952210
vt 0.972242 0.951885
vt 0.972242 0.958536
vt 0.927542 0.857192
vt 0.931155 0.857198
vt 0.977730 0.355827
vt 0.973922 0.350104
vt 0.973789 0.753586
vt 0.971704 0.756846
vt 0.968330 0.756606
vt 0.968330 0.753198
vt 0.971704 0.751331
vt 0.934463 0.513836
vt 0.927995 0.513175
vt 0.929808 0.503098
vt 0.749583 0.928080
vt 0.753518 0.933531
vt 0.749583 0.939051
vt 0.743215 0.937011
vt 0.743215 0.930230
vt 0.953977 0.057651
vt 0.957859 0.057558
vt 0.900842 0.368289
vt 0.900842 0.351488
vt 0.906604 0.351579
vt 0.906604 0.368380
vt 0.780655 0.401007
vt 0.780655 0.384255
vt 0.787124 0.384422
vt 0.787124 0.401174
vt 0.738688 0.927638
vt 0.414600 0.919002
vt 0.414600 0.902196
vt 0.421366 0.902203
vt 0.421366 0.919009
vt 0.911799 0.351468
vt 0.911799 0.368269
vt 0.927995 0.529101
vt 0.934463 0.529761
vt 0.906194 0.338952
vt 0.785307 0.371535
vt 0.418374 0.889660
s 1
usemtl Material.001
f 3/1/1 11/2/1 1/3/1
f 11/4/2 9/5/2 1/6/2
f 4/7/3 5/8/3 7/9/3 6/10/3
f 8/11/4 9/5/4 11/4/4 10/12/4
f 10/13/5 11/14/5 3/15/5 2/16/5
f 2/17/6 3/18/6 5/19/6 4/20/6
f 9/21/7 7/9/7 1/22/7
f 7/9/8 5/8/8 1/22/8
f 6/23/9 7/24/9 9/5/9 8/11/9
f 5/19/10 3/18/10 1/25/10
f 18/26/11 20/27/11 22/28/11
f 21/29/12 19/30/12 17/31/12 15/32/12 13/33/12
f 16/34/13 18/35/13 22/36/13
f 2/37/14 4/38/14 6/39/14 8/40/14 10/41/14
f 20/27/15 12/42/15 22/28/15
f 15/43/16 14/44/16 12/45/16 13/46/16
f 13/46/17 12/45/17 20/47/17 21/48/17
f 14/49/18 16/50/18 22/51/18
f 17/52/19 16/50/19 14/49/19 15/53/19
f 21/54/20 20/55/20 18/56/20 19/57/20
f 12/58/21 14/49/21 22/51/21
f 31/59/22 29/60/22 23/61/22
f 19/62/23 18/35/23 16/34/23 17/63/23
f 33/64/24 31/59/24 23/61/24
f 28/65/25 29/66/25 31/67/25 30/68/25
f 26/69/26 27/70/26 29/66/26 28/65/26
f 25/71/27 33/72/27 23/73/27
f 24/74/28 25/75/28 27/76/28 26/77/28
f 30/78/29 31/59/29 33/64/29 32/79/29
f 27/80/30 25/55/30 23/81/30
f 24/82/31 26/83/31 28/84/31 30/85/31 32/86/31
f 38/87/32 40/88/32 44/89/32
f 43/90/33 41/91/33 39/92/33 37/93/33 35/94/33
f 32/95/34 33/72/34 25/71/34 24/96/34
f 35/97/35 34/98/35 42/99/35 43/100/35
f 37/101/36 36/102/36 34/103/36 35/104/36
f 29/66/37 27/70/37 23/105/37
f 39/106/38 38/107/38 36/108/38 37/109/38
f 43/100/39 42/99/39 40/110/39 41/111/39
f 41/112/40 40/88/40 38/87/40 39/113/40
f 40/110/41 42/99/41 44/114/41
f 34/103/42 36/102/42 44/115/42
f 42/99/43 34/98/43 44/114/43
f 36/108/44 38/107/44 44/116/44
