# Blender 5.1.1
# www.blender.org
mtllib Crystal 2.mtl
o shelves.005
v 5.252333 -0.030962 -0.608110
v 5.031911 0.333557 -0.587307
v 5.282197 -0.021677 -0.454387
v 5.061775 0.342844 -0.433584
v 5.153873 -0.096386 -0.504988
v 4.933451 0.268135 -0.484185
v 4.894671 0.503992 -0.490898
v 5.180684 0.401318 -0.473872
v 5.222901 -0.042549 -0.604541
v 5.382044 -0.045725 -0.542336
v 5.339828 0.398142 -0.411667
v 5.250235 -0.087793 -0.442023
v 5.208018 0.356073 -0.311354
v 5.220937 0.615496 -0.331161
v 5.493695 0.209097 -0.492517
v 5.392482 -0.031578 -0.591297
v 5.435371 -0.081865 -0.512718
v 5.536583 0.158810 -0.413939
v 5.339845 -0.045191 -0.504194
v 5.441058 0.195484 -0.405415
v 5.542964 0.312681 -0.386034
v 5.275235 0.290110 -0.652999
v 5.268696 -0.104078 -0.564054
v 5.393733 -0.123743 -0.642015
v 5.400270 0.270443 -0.730960
v 5.400815 -0.091173 -0.497144
v 5.407352 0.303015 -0.586090
v 5.364344 0.492395 -0.702837
v 5.726272 0.281075 -0.427399
v 5.475068 -0.212337 -0.489497
v 5.314421 -0.119587 -0.576599
v 5.565625 0.373823 -0.514500
v 5.470500 -0.184465 -0.692473
v 5.721704 0.308945 -0.630374
v 5.801548 0.577307 -0.491869
vn 0.8347 0.5157 -0.1933
vn -0.2525 -0.2066 0.9453
vn -0.6740 -0.1315 -0.7269
vn -0.5822 -0.3091 -0.7520
vn 0.5168 -0.8547 -0.0488
vn 0.3530 0.2950 -0.8879
vn -0.3510 -0.0311 0.9359
vn 0.7141 0.6766 -0.1796
vn 0.6300 -0.1636 0.7592
vn -0.9812 0.0628 0.1825
vn -0.9829 -0.1314 0.1287
vn 0.0909 -0.9553 -0.2812
vn 0.5990 0.0313 0.8002
vn 0.3276 0.4805 -0.8135
vn 0.8331 -0.1297 -0.5377
vn -0.0548 -0.3593 0.9316
vn -0.6898 0.6519 -0.3150
vn -0.7783 0.4890 -0.3939
vn -0.3626 -0.8622 -0.3539
vn 0.0190 -0.1792 0.9836
vn 0.8889 0.0458 -0.4558
vn -0.5406 -0.1766 -0.8225
vn 0.9987 -0.0262 -0.0429
vn -0.4456 0.3943 0.8037
vn -0.4581 0.2029 0.8654
vn -0.0162 -0.9753 0.2201
vn 0.9817 0.1698 -0.0862
vn -0.5264 0.0225 -0.8499
vn -0.4269 0.1043 0.8983
vn -0.4655 0.3398 -0.8172
vn 0.9646 -0.2575 -0.0571
vn 0.8923 -0.4441 -0.0811
vn -0.4509 -0.8856 -0.1115
vn -0.3656 0.5105 -0.7783
vn -0.3278 0.2797 0.9024
vt 0.953977 0.191248
vt 0.953977 0.182041
vt 0.959037 0.181016
vt 0.959037 0.190222
vt 0.941383 0.433560
vt 0.941383 0.419400
vt 0.946438 0.419261
vt 0.946438 0.433421
vt 0.185468 0.903865
vt 0.181367 0.903833
vt 0.184357 0.896452
vt 0.181367 0.918066
vt 0.185468 0.918098
vt 0.957671 0.194077
vt 0.940675 0.341628
vt 0.940675 0.326613
vt 0.945787 0.327244
vt 0.945787 0.342260
vt 0.943518 0.411834
vt 0.973540 0.784493
vt 0.968330 0.784493
vt 0.970446 0.778829
vt 0.015082 0.920385
vt 0.015082 0.905590
vt 0.019278 0.906746
vt 0.019278 0.921542
vt 0.943994 0.192477
vt 0.938381 0.192305
vt 0.941480 0.184186
vt 0.938381 0.207587
vt 0.943994 0.207759
vt 0.978853 0.130108
vt 0.973922 0.132857
vt 0.973922 0.127575
vt 0.018296 0.898128
vt 0.942501 0.319506
vt 0.961960 0.478715
vt 0.961960 0.469421
vt 0.964805 0.469554
vt 0.964805 0.478848
vt 0.801591 0.967599
vt 0.801591 0.958813
vt 0.804965 0.959012
vt 0.804965 0.967798
vt 0.964871 0.553942
vt 0.961960 0.553419
vt 0.962893 0.549296
vt 0.961960 0.562337
vt 0.964871 0.562860
vt 0.985786 0.222677
vt 0.985786 0.225800
vt 0.982819 0.224214
vt 0.803451 0.954029
vt 0.963934 0.464607
vt 0.944817 0.605696
vt 0.944817 0.592612
vt 0.949185 0.593184
vt 0.949185 0.606268
vt 0.094067 0.945432
vt 0.094067 0.932554
vt 0.099027 0.932585
vt 0.099027 0.945463
vt 0.899685 0.580183
vt 0.895103 0.579785
vt 0.896844 0.573416
vt 0.895103 0.592976
vt 0.899685 0.593374
vt 0.978169 0.591733
vt 0.973922 0.594297
vt 0.973922 0.589459
vt 0.096517 0.926313
vt 0.947680 0.585802
vt 0.927527 0.469588
vt 0.927527 0.451059
vt 0.933924 0.450856
vt 0.933924 0.469385
vt 0.729382 0.929485
vt 0.729382 0.911026
vt 0.735283 0.910609
vt 0.735283 0.929068
vt 0.886002 0.910779
vt 0.879179 0.910709
vt 0.882729 0.900912
vt 0.879179 0.929108
vt 0.886002 0.929178
vt 0.961960 0.628064
vt 0.961960 0.621563
vt 0.967881 0.624762
vt 0.733331 0.901445
vt 0.930027 0.441188
s 1
usemtl Material.001
f 1/1/1 2/2/1 4/3/1 3/4/1
f 3/5/2 4/6/2 6/7/2 5/8/2
f 2/9/3 6/10/3 7/11/3
f 5/12/4 6/10/4 2/9/4 1/13/4
f 1/1/5 3/4/5 5/14/5
f 9/15/6 8/16/6 11/17/6 10/18/6
f 6/7/7 4/6/7 7/19/7
f 4/20/8 2/21/8 7/22/8
f 10/23/9 11/24/9 13/25/9 12/26/9
f 8/27/10 13/28/10 14/29/10
f 12/30/11 13/28/11 8/27/11 9/31/11
f 9/32/12 10/33/12 12/34/12
f 13/25/13 11/24/13 14/35/13
f 11/17/14 8/16/14 14/36/14
f 16/37/15 15/38/15 18/39/15 17/40/15
f 17/41/16 18/42/16 20/43/16 19/44/16
f 15/45/17 20/46/17 21/47/17
f 19/48/18 20/46/18 15/45/18 16/49/18
f 16/50/19 17/51/19 19/52/19
f 20/43/20 18/42/20 21/53/20
f 18/39/21 15/38/21 21/54/21
f 23/55/22 22/56/22 25/57/22 24/58/22
f 24/59/23 25/60/23 27/61/23 26/62/23
f 22/63/24 27/64/24 28/65/24
f 26/66/25 27/64/25 22/63/25 23/67/25
f 23/68/26 24/69/26 26/70/26
f 27/61/27 25/60/27 28/71/27
f 25/57/28 22/56/28 28/72/28
f 30/73/29 29/74/29 32/75/29 31/76/29
f 31/77/30 32/78/30 34/79/30 33/80/30
f 29/81/31 34/82/31 35/83/31
f 33/84/32 34/82/32 29/81/32 30/85/32
f 30/86/33 31/87/33 33/88/33
f 34/79/34 32/78/34 35/89/34
f 32/75/35 29/74/35 35/90/35
o shelves.001
v 5.058366 -0.222038 -0.394518
v 5.058366 -0.031155 -0.394518
v 5.058366 -0.222038 -0.685694
v 5.058366 -0.031155 -0.685694
v 5.581604 -0.222038 -0.394518
v 5.581604 -0.031155 -0.394518
v 5.581604 -0.222038 -0.685694
v 5.581604 -0.031155 -0.685694
v 5.023524 -0.234749 -0.540106
v 5.023524 -0.126596 -0.375129
v 5.023524 -0.018444 -0.540106
v 5.023524 -0.126596 -0.705083
v 5.319986 -0.234749 -0.705083
v 5.319986 -0.018444 -0.705083
v 5.616447 -0.126596 -0.705083
v 5.616447 -0.234749 -0.540106
v 5.616447 -0.018444 -0.540106
v 5.616447 -0.126596 -0.375129
v 5.319986 -0.234749 -0.375129
v 5.319986 -0.018444 -0.375129
v 5.319986 0.011961 -0.540106
v 5.319986 -0.265154 -0.540106
v 5.319986 -0.126596 -0.328748
v 5.699794 -0.126596 -0.540106
v 5.319986 -0.126596 -0.751465
v 4.940176 -0.126596 -0.540106
vn -0.8037 0.4976 -0.3262
vn 0.1180 0.3235 -0.9388
vn 0.8037 0.4976 0.3262
vn -0.1180 0.3235 0.9388
vn 0.0812 -0.9859 0.1460
vn -0.0812 0.9859 0.1460
vn 0.0812 0.9859 0.1460
vn 0.0812 0.9859 -0.1460
vn -0.0812 0.9859 -0.1460
vn -0.0812 -0.9859 0.1460
vn -0.0812 -0.9859 -0.1460
vn 0.0812 -0.9859 -0.1460
vn -0.1180 -0.3235 0.9388
vn 0.1180 -0.3235 0.9388
vn 0.1180 0.3235 0.9388
vn 0.8037 -0.4976 0.3262
vn 0.8037 -0.4976 -0.3262
vn 0.8037 0.4976 -0.3262
vn 0.1180 -0.3235 -0.9388
vn -0.1180 -0.3235 -0.9388
vn -0.1180 0.3235 -0.9388
vn -0.8037 -0.4976 -0.3262
vn -0.8037 -0.4976 0.3262
vn -0.8037 0.4976 0.3262
vt 0.947114 0.115582
vt 0.943298 0.115339
vt 0.943953 0.110521
vt 0.947258 0.110090
vt 0.938819 0.379244
vt 0.935170 0.379177
vt 0.935980 0.370543
vt 0.939233 0.369493
vt 0.458094 0.945830
vt 0.455563 0.945797
vt 0.456367 0.940938
vt 0.459018 0.940318
vt 0.939265 0.791158
vt 0.942895 0.791111
vt 0.942895 0.799876
vt 0.939758 0.801135
vt 0.873704 0.910805
vt 0.874412 0.920346
vt 0.869475 0.919494
vt 0.868198 0.911040
vt 0.617319 0.834757
vt 0.616628 0.825059
vt 0.621568 0.825893
vt 0.622836 0.834454
vt 0.618064 0.844675
vt 0.622836 0.843203
vt 0.613147 0.843933
vt 0.611857 0.835281
vt 0.611880 0.826623
vt 0.872965 0.900912
vt 0.868198 0.902344
vt 0.877889 0.901618
vt 0.879179 0.910218
vt 0.879166 0.918768
vt 0.935684 0.791461
vt 0.936532 0.800186
vt 0.935705 0.782803
vt 0.938821 0.781438
vt 0.942068 0.782494
vt 0.462404 0.945850
vt 0.462404 0.940985
vt 0.462343 0.950703
vt 0.458949 0.951329
vt 0.456307 0.950656
vt 0.942378 0.379526
vt 0.942341 0.370850
vt 0.941531 0.388250
vt 0.938315 0.389210
vt 0.935170 0.387943
vt 0.950477 0.115827
vt 0.950288 0.110951
vt 0.949633 0.120647
vt 0.946517 0.121077
vt 0.943298 0.120216
s 1
usemtl Material.001
f 61/91/36 46/92/36 39/93/36 47/94/36
f 60/95/37 49/96/37 43/97/37 50/98/37
f 59/99/38 52/100/38 41/101/38 53/102/38
f 58/103/39 55/104/39 37/105/39 45/106/39
f 57/107/40 51/108/40 40/109/40 54/110/40
f 56/111/41 46/112/41 37/113/41 55/114/41
f 52/115/42 56/111/42 55/114/42 41/116/42
f 43/117/43 49/118/43 56/111/43 52/115/43
f 49/118/44 39/119/44 46/112/44 56/111/44
f 44/120/45 57/107/45 54/110/45 36/121/45
f 38/122/46 48/123/46 57/107/46 44/120/46
f 48/123/47 42/124/47 51/108/47 57/107/47
f 54/125/48 58/103/48 45/106/48 36/126/48
f 40/127/49 53/128/49 58/103/49 54/125/49
f 53/128/50 41/129/50 55/104/50 58/103/50
f 51/130/51 59/99/51 53/102/51 40/131/51
f 42/132/52 50/133/52 59/99/52 51/130/52
f 50/133/53 43/134/53 52/100/53 59/99/53
f 48/135/54 60/95/54 50/98/54 42/136/54
f 38/137/55 47/138/55 60/95/55 48/135/55
f 47/138/56 39/139/56 49/96/56 60/95/56
f 44/140/57 61/91/57 47/94/57 38/141/57
f 36/142/58 45/143/58 61/91/58 44/140/58
f 45/143/59 37/144/59 46/92/59 61/91/59
