# Blender 5.1.1
# www.blender.org
mtllib Crystal 3.mtl
o shelves.005
v 6.168831 -0.087661 -1.210018
v 6.006226 -0.028478 -0.332375
v 6.006226 -0.028478 -0.835954
v 6.062297 -0.224019 -0.332376
v 6.062297 -0.224019 -0.835954
v 6.265594 -0.231118 -0.332376
v 6.265594 -0.231118 -0.835954
v 6.335169 -0.039965 -0.332375
v 6.335169 -0.039965 -0.835954
v 6.174870 0.085274 -0.332375
v 6.174870 0.085274 -0.835954
v 6.168831 -0.087661 0.031237
vn -0.5237 0.7764 -0.3505
vn -0.9613 -0.2756 -0.0000
vn 0.5766 0.7380 -0.3505
vn -0.0349 -0.9994 -0.0000
vn 0.8801 -0.3203 -0.3505
vn 0.9397 -0.3420 -0.0000
vn -0.9003 -0.2582 -0.3505
vn 0.6157 0.7880 -0.0000
vn -0.0327 -0.9360 -0.3505
vn -0.5592 0.8290 -0.0000
vn 0.8769 -0.3192 0.3593
vn -0.5219 0.7737 0.3593
vn -0.0326 -0.9327 0.3593
vn -0.8971 -0.2572 0.3593
vn 0.5745 0.7354 0.3593
vt 0.571882 0.856048
vt 0.566706 0.855965
vt 0.566270 0.843592
vt 0.911228 0.844846
vt 0.911228 0.828040
vt 0.917581 0.828054
vt 0.917581 0.844861
vt 0.560928 0.856032
vt 0.914934 0.668929
vt 0.914934 0.685736
vt 0.908211 0.685734
vt 0.908211 0.668927
vt 0.907987 0.614767
vt 0.914775 0.614766
vt 0.911270 0.627229
vt 0.914775 0.597960
vt 0.907987 0.597960
vt 0.912756 0.815589
vt 0.560928 0.872836
vt 0.566706 0.872769
vt 0.912223 0.698209
vt 0.571882 0.872852
vt 0.911270 0.585802
vt 0.566270 0.885011
vt 0.912223 0.656782
vt 0.912756 0.857015
s 1
usemtl Material.001
f 3/1/1 11/2/1 1/3/1
f 2/4/2 3/5/2 5/6/2 4/7/2
f 11/2/3 9/8/3 1/3/3
f 4/9/4 5/10/4 7/11/4 6/12/4
f 9/13/5 7/14/5 1/15/5
f 6/16/6 7/14/6 9/13/6 8/17/6
f 5/6/7 3/5/7 1/18/7
f 8/19/8 9/8/8 11/2/8 10/20/8
f 7/11/9 5/10/9 1/21/9
f 10/20/10 11/2/10 3/1/10 2/22/10
f 6/16/11 8/17/11 12/23/11
f 10/20/12 2/22/12 12/24/12
f 4/9/13 6/12/13 12/25/13
f 2/4/14 4/7/14 12/26/14
f 8/19/15 10/20/15 12/24/15
