# Blender 5.1.1
# www.blender.org
mtllib Jar 2.mtl
o shelves.004
v 6.076418 -0.333704 -0.169728
v 6.248548 -0.333704 0.235856
v 6.111616 -0.389116 -0.135375
v 6.076418 -0.333704 0.166269
v 6.248548 -0.389116 0.187274
v 6.005119 -0.333704 -0.001729
v 6.054897 -0.389116 -0.001729
v 6.111616 -0.389116 0.131916
v 6.420677 -0.333704 0.166269
v 6.385479 -0.389116 0.131916
v 6.491976 -0.333704 -0.001729
v 6.442198 -0.389116 -0.001729
v 6.420677 -0.333704 -0.169728
v 6.385479 -0.389116 -0.135375
v 6.248548 -0.333704 -0.239315
v 6.248548 -0.389116 -0.190732
v 6.248548 0.197514 0.179471
v 6.248548 0.133203 0.235856
v 6.076418 0.133203 0.166269
v 6.117269 0.197514 0.126399
v 6.005119 0.133203 -0.001729
v 6.062891 0.197514 -0.001729
v 6.076418 0.133203 -0.169728
v 6.117269 0.197514 -0.129858
v 6.248548 0.133203 -0.239315
v 6.248548 0.197514 -0.182930
v 6.420677 0.133203 -0.169728
v 6.379827 0.197514 -0.129858
v 6.491976 0.133203 -0.001729
v 6.434204 0.197514 -0.001729
v 6.420677 0.133203 0.166269
v 6.379827 0.197514 0.126399
v 6.384518 0.286212 0.130977
v 6.399152 0.243177 0.145260
v 6.440838 0.286212 -0.001729
v 6.461535 0.243177 -0.001729
v 6.384518 0.286212 -0.134436
v 6.399152 0.243177 -0.148719
v 6.248548 0.286212 -0.189405
v 6.248548 0.243177 -0.209604
v 6.112577 0.286212 -0.134436
v 6.097943 0.243177 -0.148719
v 6.056257 0.286212 -0.001729
v 6.035561 0.243177 -0.001729
v 6.248548 0.286212 0.185946
v 6.248548 0.243177 0.206146
v 6.112577 0.286212 0.130977
v 6.097943 0.243177 0.145260
v 6.366482 0.286212 0.113375
v 6.415333 0.286212 -0.001729
v 6.366482 0.286212 -0.116834
v 6.248548 0.286212 -0.164511
v 6.130613 0.286212 -0.116834
v 6.081763 0.286212 -0.001729
v 6.130612 0.286212 0.113375
v 6.248548 0.286212 0.161053
v 6.316896 0.242254 0.064979
v 6.345207 0.242254 -0.001729
v 6.316896 0.242254 -0.068438
v 6.248548 0.242254 -0.096069
v 6.180199 0.242254 -0.068438
v 6.151888 0.242254 -0.001729
v 6.180199 0.242254 0.064979
v 6.248548 0.242254 0.092610
vn 0.3437 0.3990 0.8501
vn -0.3437 0.3990 0.8501
vn 0.8417 0.4048 -0.3572
vn 0.3437 0.3990 -0.8501
vn -0.8417 0.4048 -0.3572
vn 0.3748 -0.0000 -0.9271
vn 0.8417 0.4048 0.3572
vn -0.9205 -0.0000 -0.3907
vn 0.3748 -0.0000 0.9271
vn 0.2908 0.6308 0.7194
vn -0.3748 -0.0000 -0.9271
vn -0.9205 -0.0000 0.3907
vn -0.3748 -0.0000 0.9271
vn 0.2908 0.6308 -0.7194
vn 0.2908 -0.6308 0.7194
vn -0.7094 0.6373 -0.3011
vn 0.7094 0.6373 0.3011
vn -0.7094 0.6373 0.3011
vn -0.2908 0.6308 -0.7194
vn -0.2908 -0.6307 0.7194
vn -0.7094 -0.6373 0.3011
vn 0.7094 0.6373 -0.3011
vn -0.7094 -0.6373 -0.3011
vn -0.0000 -1.0000 -0.0000
vn -0.2908 -0.6308 -0.7194
vn -0.2908 0.6308 0.7194
vn 0.2908 -0.6308 -0.7194
vn 0.7094 -0.6373 0.3011
vn 0.7094 -0.6373 -0.3011
vn -0.3437 0.3990 -0.8501
vn -0.8417 0.4048 0.3572
vn 0.8063 -0.4826 0.3422
vn 0.3296 -0.4762 0.8152
vn -0.0000 1.0000 -0.0000
vn 0.8063 -0.4826 -0.3422
vn 0.3296 -0.4762 -0.8152
vn -0.3296 -0.4762 -0.8152
vn -0.8063 -0.4826 -0.3422
vn -0.8063 -0.4826 0.3422
vn -0.3296 -0.4762 0.8152
vn 0.5181 0.8266 -0.2199
vn -0.5181 0.8266 0.2199
vn 0.2134 0.8220 -0.5279
vn -0.2134 0.8220 0.5280
vn 0.2134 0.8220 0.5280
vn -0.2134 0.8220 -0.5279
vn 0.5181 0.8266 0.2199
vn -0.5181 0.8266 -0.2199
vn 0.9205 -0.0000 -0.3907
vn 0.9205 -0.0000 0.3907
vt 0.158458 0.000017
vt 0.162580 0.022712
vt 0.075815 0.022693
vt 0.080124 0.000000
vt 0.214358 0.001571
vt 0.224496 0.024434
vt 0.453575 0.001529
vt 0.463791 0.024387
vt 0.403003 0.022693
vt 0.398694 0.000000
vt 0.316237 0.022712
vt 0.320359 0.000017
vt 0.334477 0.360588
vt 0.338522 0.383252
vt 0.253235 0.383232
vt 0.257476 0.360570
vt 0.409341 0.330283
vt 0.310174 0.330305
vt 0.310174 0.081015
vt 0.409341 0.080992
vt 0.015026 0.024387
vt 0.025243 0.001529
vt 0.246996 0.441485
vt 0.344474 0.441507
vt 0.344474 0.690780
vt 0.246996 0.690758
vt 0.069476 0.080992
vt 0.168642 0.081014
vt 0.168642 0.330305
vt 0.069476 0.330283
vt 0.081505 0.047449
vt 0.157137 0.047465
vt 0.239409 0.082982
vt 0.239409 0.332272
vt 0.178743 0.443620
vt 0.178743 0.692893
vt 0.321680 0.047465
vt 0.397312 0.047449
vt 0.158729 0.360570
vt 0.079841 0.360552
vt 0.258836 0.408024
vt 0.333180 0.408042
vt 1.000000 0.896319
vt 0.969142 0.896319
vt 0.940097 0.827881
vt 0.961917 0.806586
vt 0.635548 0.749243
vt 0.665853 0.752588
vt 0.685106 0.824398
vt 0.660792 0.843398
vt 0.149963 0.782637
vt 0.177885 0.794884
vt 0.177885 0.870518
vt 0.149964 0.881806
vt 0.714121 0.594406
vt 0.690063 0.583853
vt 0.690063 0.504962
vt 0.714121 0.495236
vt 0.645202 0.663345
vt 0.635237 0.638695
vt 0.961917 0.986053
vt 0.940097 0.964757
vt 0.334742 0.721113
vt 0.257198 0.721095
vt 0.557701 0.637363
vt 0.502875 0.580637
vt 0.502875 0.501747
vt 0.557701 0.446904
vt 0.635237 0.448236
vt 0.478817 0.590363
vt 0.547736 0.661670
vt 0.685106 0.663345
vt 0.703650 0.687075
vt 0.398977 0.360552
vt 0.320088 0.360570
vt 0.645202 0.423929
vt 0.547736 0.422255
vt 0.478817 0.491194
vt 0.254321 0.024434
vt 0.264459 0.001571
vt 0.193517 0.385101
vt 0.203562 0.362257
vt 0.028517 0.048925
vt 0.848196 0.289389
vt 0.835869 0.294373
vt 0.788649 0.245516
vt 0.793755 0.233062
vt 0.450300 0.048925
vt 0.267709 0.048965
vt 0.206781 0.409653
vt 0.211108 0.048965
vt 0.774610 0.279760
vt 0.735909 0.279095
vt 0.721871 0.244369
vt 0.716764 0.231739
vt 0.662323 0.286196
vt 0.674650 0.291603
vt 0.674650 0.359549
vt 0.662323 0.364533
vt 0.716764 0.420860
vt 0.721870 0.408405
vt 0.788649 0.409553
vt 0.793755 0.422183
vt 0.848196 0.367726
vt 0.835869 0.362319
vt 0.801977 0.308075
vt 0.801977 0.347453
vt 0.774611 0.374827
vt 0.735909 0.374162
vt 0.708543 0.345847
vt 0.708543 0.306469
vt 0.478817 0.332219
vt 0.478817 0.082928
vt 0.000000 0.332219
vt 0.000000 0.082929
s 1
usemtl Material.001
f 45/1/1 46/2/1 34/3/1 33/4/1
f 47/5/2 48/6/2 46/2/2 45/1/2
f 35/7/3 36/8/3 38/9/3 37/10/3
f 37/10/4 38/9/4 40/11/4 39/12/4
f 41/13/5 42/14/5 44/15/5 43/16/5
f 13/17/6 15/18/6 25/19/6 27/20/6
f 33/4/7 34/3/7 36/21/7 35/22/7
f 21/23/8 23/24/8 1/25/8 6/26/8
f 31/27/9 18/28/9 2/29/9 9/30/9
f 31/27/10 32/31/10 17/32/10 18/28/10
f 23/33/11 25/19/11 15/18/11 1/34/11
f 19/35/12 21/23/12 6/26/12 4/36/12
f 18/28/13 19/33/13 4/34/13 2/29/13
f 25/19/14 26/37/14 28/38/14 27/20/14
f 2/29/15 5/39/15 10/40/15 9/30/15
f 21/23/16 22/41/16 24/42/16 23/24/16
f 29/43/17 30/44/17 32/45/17 31/46/17
f 19/47/18 20/48/18 22/49/18 21/50/18
f 23/51/19 24/52/19 26/53/19 25/54/19
f 4/55/20 8/56/20 5/57/20 2/58/20
f 6/59/21 7/60/21 8/56/21 4/55/21
f 27/61/22 28/62/22 30/44/22 29/43/22
f 1/25/23 3/63/23 7/64/23 6/26/23
f 8/56/24 7/60/24 3/65/24 16/66/24 14/67/24 12/68/24 10/69/24 5/57/24
f 15/70/25 16/66/25 3/65/25 1/71/25
f 18/72/26 17/73/26 20/48/26 19/47/26
f 13/17/27 14/74/27 16/75/27 15/18/27
f 9/76/28 10/69/28 12/68/28 11/77/28
f 11/77/29 12/68/29 14/67/29 13/78/29
f 39/12/30 40/11/30 42/79/30 41/80/30
f 43/16/31 44/15/31 48/81/31 47/82/31
f 30/83/32 36/21/32 34/3/32 32/31/32
f 32/31/33 34/3/33 46/2/33 17/32/33
f 45/84/34 56/85/34 55/86/34 47/87/34
f 28/38/35 38/9/35 36/8/35 30/88/35
f 26/37/36 40/11/36 38/9/36 28/38/36
f 24/89/37 42/79/37 40/11/37 26/37/37
f 22/41/38 44/15/38 42/14/38 24/42/38
f 20/90/39 48/81/39 44/15/39 22/41/39
f 17/32/40 46/2/40 48/6/40 20/91/40
f 55/86/41 63/92/41 62/93/41 54/94/41
f 47/87/34 55/86/34 54/94/34 43/95/34
f 41/96/34 53/97/34 52/98/34 39/99/34
f 43/95/34 54/94/34 53/97/34 41/96/34
f 37/100/34 51/101/34 50/102/34 35/103/34
f 33/104/34 49/105/34 56/85/34 45/84/34
f 39/99/34 52/98/34 51/101/34 37/100/34
f 35/103/34 50/102/34 49/105/34 33/104/34
f 64/106/34 57/107/34 58/108/34 59/109/34 60/110/34 61/111/34 62/93/34 63/92/34
f 51/101/42 59/109/42 58/108/42 50/102/42
f 56/85/43 64/106/43 63/92/43 55/86/43
f 52/98/44 60/110/44 59/109/44 51/101/44
f 53/97/45 61/111/45 60/110/45 52/98/45
f 49/105/46 57/107/46 64/106/46 56/85/46
f 54/94/47 62/93/47 61/111/47 53/97/47
f 50/102/48 58/108/48 57/107/48 49/105/48
f 11/112/49 13/17/49 27/20/49 29/113/49
f 9/30/50 11/114/50 29/115/50 31/27/50
