# Blender 5.1.1
# www.blender.org
mtllib Jar 1.mtl
o shelves.004
v 5.813566 -0.334360 -0.154426
v 5.813566 -0.369974 -0.123202
v 5.702938 -0.334360 -0.109703
v 5.725560 -0.369974 -0.087624
v 5.657114 -0.334360 -0.001729
v 5.689106 -0.369974 -0.001729
v 5.702938 -0.334360 0.106244
v 5.725560 -0.369974 0.084165
v 5.813566 -0.334360 0.150968
v 5.813566 -0.369974 0.119743
v 5.875690 0.035810 -0.001729
v 5.857494 0.035810 0.041144
v 5.813566 0.064062 0.102891
v 5.737769 0.064062 0.072248
v 5.706373 0.064062 -0.001729
v 5.737769 0.064062 -0.075707
v 5.813566 0.064062 -0.106350
v 5.889363 0.064062 -0.075707
v 5.920759 0.064062 -0.001729
v 5.889363 0.064062 0.072248
v 5.716773 0.036403 0.092741
v 5.726178 0.064062 0.083561
v 5.813566 0.036403 0.131872
v 5.813566 0.064062 0.118890
v 5.676679 0.036403 -0.001729
v 5.689981 0.064062 -0.001729
v 5.716773 0.036403 -0.096200
v 5.726178 0.064062 -0.087020
v 5.813566 0.036403 -0.135331
v 5.813566 0.064062 -0.122349
v 5.910360 0.036403 -0.096200
v 5.900954 0.064062 -0.087020
v 5.950454 0.036403 -0.001729
v 5.937152 0.064062 -0.001729
v 5.910360 0.036403 0.092741
v 5.900954 0.064062 0.083561
v 5.897940 0.007056 0.080619
v 5.924194 -0.034278 0.106244
v 5.932888 0.007056 -0.001729
v 5.970018 -0.034278 -0.001729
v 5.897940 0.007056 -0.084078
v 5.924194 -0.034278 -0.109703
v 5.813566 0.007056 -0.118188
v 5.813566 -0.034278 -0.154426
v 5.729193 0.007056 -0.084078
v 5.702938 -0.034278 -0.109703
v 5.694244 0.007056 -0.001729
v 5.657114 -0.034278 -0.001729
v 5.729193 0.007056 0.080619
v 5.702938 -0.034278 0.106244
v 5.813566 -0.034278 0.150968
v 5.813566 0.007056 0.114729
v 5.924194 -0.334360 0.106244
v 5.901572 -0.369974 0.084165
v 5.970018 -0.334360 -0.001729
v 5.938026 -0.369974 -0.001729
v 5.924194 -0.334360 -0.109703
v 5.901572 -0.369974 -0.087624
v 5.857494 0.035810 -0.044603
v 5.813566 0.035810 -0.062362
v 5.769639 0.035810 -0.044603
v 5.751443 0.035810 -0.001729
v 5.769639 0.035810 0.041144
v 5.813566 0.035810 0.058903
vn 0.7094 -0.6373 -0.3011
vn -0.7094 -0.6373 -0.3011
vn -0.7094 -0.6373 0.3011
vn -0.2908 -0.6307 -0.7194
vn -0.2908 -0.6308 0.7194
vn 0.2908 -0.6307 -0.7194
vn 0.7094 -0.6373 0.3011
vn 0.9205 -0.0000 0.3907
vn 0.9205 -0.0000 -0.3907
vn 0.5181 0.8266 0.2199
vn 0.2134 0.8220 0.5279
vn -0.5181 0.8265 -0.2199
vn -0.2134 0.8220 -0.5280
vn -0.2134 0.8220 0.5280
vn 0.2134 0.8220 -0.5279
vn -0.5181 0.8266 0.2199
vn -0.0000 1.0000 -0.0000
vn 0.5181 0.8266 -0.2199
vn -0.8063 -0.4826 0.3422
vn -0.3296 -0.4762 0.8152
vn -0.3296 -0.4762 -0.8152
vn 0.8063 -0.4826 -0.3422
vn 0.3296 -0.4762 0.8152
vn -0.8063 -0.4826 -0.3422
vn 0.3296 -0.4762 -0.8152
vn 0.8062 -0.4826 0.3422
vn -0.8417 0.4048 0.3572
vn -0.3437 0.3990 -0.8501
vn 0.8417 0.4048 -0.3572
vn 0.3437 0.3990 0.8501
vn -0.3437 0.3990 0.8501
vn -0.8417 0.4048 -0.3572
vn 0.8417 0.4048 0.3572
vn 0.3748 -0.0000 -0.9271
vn 0.3437 0.3990 -0.8501
vn -0.9205 -0.0000 -0.3907
vn -0.3748 -0.0000 -0.9271
vn 0.3748 -0.0000 0.9271
vn 0.2908 0.6307 0.7194
vn 0.7094 0.6373 -0.3011
vn -0.9205 -0.0000 0.3907
vn -0.3748 -0.0000 0.9271
vn 0.7094 0.6373 0.3011
vn -0.7094 0.6373 0.3011
vn -0.7094 0.6373 -0.3011
vn 0.2908 0.6307 -0.7194
vn -0.2908 0.6307 -0.7194
vn -0.2908 0.6307 0.7194
vn -0.0000 -1.0000 -0.0000
vn 0.2908 -0.6308 0.7194
vt 0.223038 0.721113
vt 0.229442 0.736956
vt 0.194206 0.772203
vt 0.178743 0.765421
vt 0.820636 0.866221
vt 0.814382 0.885716
vt 0.764544 0.885705
vt 0.757987 0.866207
vt 0.285680 0.876063
vt 0.279275 0.860220
vt 0.314512 0.824973
vt 0.329974 0.831755
vt 0.178744 0.829157
vt 0.194206 0.822906
vt 0.229442 0.859364
vt 0.223038 0.874986
vt 0.314512 0.774270
vt 0.329974 0.768019
vt 0.771539 0.212274
vt 0.764877 0.231728
vt 0.714176 0.231739
vt 0.707804 0.212288
vt 0.285680 0.722189
vt 0.279275 0.737812
vt 0.758773 0.634528
vt 0.714121 0.635773
vt 0.714121 0.475553
vt 0.758773 0.474309
vt 0.816192 0.213518
vt 0.771539 0.052054
vt 0.816192 0.053298
vt 0.858908 0.814703
vt 0.867930 0.837022
vt 0.850342 0.854615
vt 0.828559 0.845060
vt 0.850342 0.879923
vt 0.828559 0.888729
vt 0.901827 0.920867
vt 0.892804 0.898548
vt 0.910392 0.880955
vt 0.932175 0.890510
vt 0.910392 0.855647
vt 0.932175 0.846841
vt 0.867930 0.898121
vt 0.858907 0.920129
vt 0.892804 0.837449
vt 0.901826 0.815441
vt 0.905108 0.928984
vt 0.940097 0.893985
vt 0.820636 0.891932
vt 0.855626 0.928134
vt 0.940097 0.843638
vt 0.855626 0.806585
vt 0.820636 0.841585
vt 0.905108 0.807436
vt 0.732141 0.685540
vt 0.723616 0.669760
vt 0.761997 0.668560
vt 0.765597 0.684493
vt 0.815113 0.452761
vt 0.818611 0.436852
vt 0.858405 0.437958
vt 0.849801 0.453725
vt 0.680512 0.031470
vt 0.671907 0.015704
vt 0.711701 0.014597
vt 0.715199 0.030506
vt 0.763808 0.030495
vt 0.767465 0.014585
vt 0.806534 0.015674
vt 0.797863 0.031444
vt 0.766504 0.452750
vt 0.762847 0.436839
vt 0.816811 0.668572
vt 0.813378 0.684504
vt 0.732449 0.453699
vt 0.723778 0.437928
vt 0.764723 0.653994
vt 0.730072 0.655078
vt 0.714350 0.000011
vt 0.678423 0.001010
vt 0.799968 0.000983
vt 0.764696 0.000000
vt 0.815962 0.422266
vt 0.765617 0.422255
vt 0.851889 0.423264
vt 0.814211 0.654006
vt 0.730344 0.423237
vt 0.707804 0.052068
vt 0.757987 0.705998
vt 0.820636 0.706013
vt 0.662323 0.053332
vt 0.662323 0.213552
vt 0.822508 0.474323
vt 0.822508 0.634542
vt 0.580013 0.967539
vt 0.565990 0.953852
vt 0.584657 0.909867
vt 0.604490 0.909867
vt 0.714121 0.707371
vt 0.714121 0.867579
vt 0.867989 0.475587
vt 0.867989 0.635807
vt 0.565990 0.865882
vt 0.580013 0.852194
vt 0.478817 0.907402
vt 0.498295 0.909552
vt 0.510669 0.955704
vt 0.495041 0.967915
vt 0.837961 0.152592
vt 0.855907 0.160463
vt 0.855906 0.209074
vt 0.837961 0.216328
vt 0.510669 0.852195
vt 0.522587 0.867447
vt 0.816136 0.653994
vt 0.765435 0.653983
s 1
usemtl Material.001
f 55/1/1 56/2/1 58/3/1 57/4/1
f 3/5/2 4/6/2 6/7/2 5/8/2
f 5/9/3 6/10/3 8/11/3 7/12/3
f 1/13/4 2/14/4 4/15/4 3/16/4
f 7/12/5 8/11/5 10/17/5 9/18/5
f 57/19/6 58/20/6 2/21/6 1/22/6
f 53/23/7 54/24/7 56/2/7 55/1/7
f 53/25/8 55/26/8 40/27/8 38/28/8
f 55/29/9 57/19/9 42/30/9 40/31/9
f 15/32/10 62/33/10 61/34/10 16/35/10
f 16/35/11 61/34/11 60/36/11 17/37/11
f 19/38/12 11/39/12 12/40/12 20/41/12
f 20/41/13 12/40/13 64/42/13 13/43/13
f 17/37/14 60/36/14 59/44/14 18/45/14
f 13/43/15 64/42/15 63/46/15 14/47/15
f 18/45/16 59/44/16 11/39/16 19/38/16
f 64/42/17 12/40/17 11/39/17 59/44/17 60/36/17 61/34/17 62/33/17 63/46/17
f 34/48/17 19/38/17 20/41/17 36/49/17
f 30/50/17 17/37/17 18/45/17 32/51/17
f 36/49/17 20/41/17 13/43/17 24/52/17
f 26/53/17 15/32/17 16/35/17 28/54/17
f 28/54/17 16/35/17 17/37/17 30/50/17
f 32/51/17 18/45/17 19/38/17 34/48/17
f 14/47/18 63/46/18 62/33/18 15/32/18
f 22/55/17 14/47/17 15/32/17 26/53/17
f 49/56/19 21/57/19 25/58/19 47/59/19
f 52/60/20 23/61/20 21/62/20 49/63/20
f 45/64/21 27/65/21 29/66/21 43/67/21
f 41/68/22 31/69/22 33/70/22 39/71/22
f 37/72/23 35/73/23 23/61/23 52/60/23
f 47/59/24 25/58/24 27/74/24 45/75/24
f 43/67/25 29/66/25 31/69/25 41/68/25
f 24/52/17 13/43/17 14/47/17 22/55/17
f 39/76/26 33/77/26 35/73/26 37/72/26
f 26/78/27 25/58/27 21/57/27 22/79/27
f 30/80/28 29/66/28 27/65/28 28/81/28
f 34/82/29 33/70/29 31/69/29 32/83/29
f 24/84/30 23/61/30 35/73/30 36/85/30
f 22/86/31 21/62/31 23/61/31 24/84/31
f 28/87/32 27/74/32 25/58/32 26/78/32
f 36/85/33 35/73/33 33/77/33 34/88/33
f 57/19/34 1/22/34 44/89/34 42/30/34
f 32/83/35 31/69/35 29/66/35 30/80/35
f 48/90/36 46/91/36 3/5/36 5/8/36
f 46/92/37 44/89/37 1/22/37 3/93/37
f 38/28/38 51/94/38 9/95/38 53/25/38
f 38/28/39 37/72/39 52/60/39 51/94/39
f 42/96/40 41/97/40 39/98/40 40/99/40
f 50/100/41 48/90/41 5/8/41 7/101/41
f 51/94/42 50/102/42 7/103/42 9/95/42
f 40/99/43 39/98/43 37/104/43 38/105/43
f 50/106/44 49/107/44 47/108/44 48/109/44
f 48/90/45 47/59/45 45/75/45 46/91/45
f 44/89/46 43/67/46 41/68/46 42/30/46
f 46/110/47 45/111/47 43/112/47 44/113/47
f 51/114/48 52/115/48 49/107/48 50/106/48
f 8/11/49 6/10/49 4/15/49 2/14/49 58/3/49 56/2/49 54/24/49 10/17/49
f 9/95/50 10/116/50 54/117/50 53/25/50
