# Blender 5.1.1
# www.blender.org
mtllib Jar 3.mtl
o shelves.004
v 4.893892 -0.335287 -0.108798
v 5.003593 -0.335287 0.149688
v 4.916325 -0.370602 -0.086904
v 4.893892 -0.335287 0.105339
v 5.003593 -0.370602 0.118725
v 4.848453 -0.335287 -0.001729
v 4.880177 -0.370602 -0.001729
v 4.916325 -0.370602 0.083445
v 5.113296 -0.335287 0.105339
v 5.090863 -0.370602 0.083445
v 5.158734 -0.335287 -0.001729
v 5.127010 -0.370602 -0.001729
v 5.113296 -0.335287 -0.108798
v 5.090863 -0.370602 -0.086904
v 5.003593 -0.335287 -0.153147
v 5.003593 -0.370602 -0.122184
v 5.003593 -0.187986 0.113753
v 5.003593 -0.228972 0.149688
v 4.893892 -0.228972 0.105339
v 4.919927 -0.187986 0.079929
v 4.848453 -0.228972 -0.001729
v 4.885272 -0.187986 -0.001729
v 4.893892 -0.228972 -0.108798
v 4.919927 -0.187986 -0.083388
v 5.003593 -0.228972 -0.153147
v 5.003593 -0.187986 -0.117212
v 5.113296 -0.228972 -0.108798
v 5.087260 -0.187986 -0.083388
v 5.158734 -0.228972 -0.001729
v 5.121916 -0.187986 -0.001729
v 5.113296 -0.228972 0.105339
v 5.087260 -0.187986 0.079929
v 5.090250 -0.131457 0.082847
v 5.099576 -0.158885 0.091950
v 5.126144 -0.131457 -0.001729
v 5.139334 -0.158885 -0.001729
v 5.090250 -0.131457 -0.086306
v 5.099576 -0.158885 -0.095408
v 5.003593 -0.131457 -0.121338
v 5.003593 -0.158885 -0.134212
v 4.916938 -0.131457 -0.086306
v 4.907611 -0.158885 -0.095408
v 4.881043 -0.131457 -0.001729
v 4.867853 -0.158885 -0.001729
v 5.003593 -0.131457 0.117880
v 5.003593 -0.158885 0.130753
v 4.916938 -0.131457 0.082847
v 4.907611 -0.158885 0.091950
v 5.078755 -0.131457 0.071629
v 5.109889 -0.131457 -0.001729
v 5.078755 -0.131457 -0.075088
v 5.003593 -0.131457 -0.105473
v 4.928432 -0.131457 -0.075088
v 4.897299 -0.131457 -0.001729
v 4.928432 -0.131457 0.071629
v 5.003593 -0.131457 0.102014
v 5.047153 -0.159473 0.040785
v 5.065197 -0.159473 -0.001729
v 5.047153 -0.159473 -0.044244
v 5.003593 -0.159473 -0.061854
v 4.960034 -0.159473 -0.044244
v 4.941991 -0.159473 -0.001729
v 4.960034 -0.159473 0.040785
v 5.003593 -0.159473 0.058395
vn 0.7094 -0.6373 0.3011
vn 0.7094 -0.6373 -0.3011
vn -0.2908 0.6308 0.7194
vn 0.2908 -0.6308 -0.7194
vn -0.0000 -1.0000 -0.0000
vn -0.2908 -0.6308 -0.7194
vn -0.7094 -0.6373 -0.3011
vn -0.7094 -0.6373 0.3011
vn -0.2908 -0.6308 0.7194
vn 0.7094 0.6373 -0.3011
vn -0.2908 0.6308 -0.7194
vn -0.7094 0.6373 0.3011
vn 0.7094 0.6373 0.3011
vn -0.7094 0.6373 -0.3011
vn 0.2908 -0.6308 0.7194
vn 0.2908 0.6308 -0.7194
vn 0.2908 0.6308 0.7194
vn -0.3748 -0.0000 0.9271
vn 0.3748 -0.0000 0.9271
vn -0.9205 -0.0000 0.3907
vn -0.9205 -0.0000 -0.3907
vn -0.3748 -0.0000 -0.9271
vn 0.3748 -0.0000 -0.9271
vn 0.8417 0.4048 0.3572
vn 0.3437 0.3990 -0.8501
vn -0.8417 0.4048 -0.3572
vn -0.3437 0.3990 0.8501
vn 0.3437 0.3990 0.8501
vn 0.8417 0.4048 -0.3572
vn -0.3437 0.3990 -0.8501
vn -0.8417 0.4048 0.3572
vn 0.8062 -0.4826 0.3422
vn 0.3296 -0.4762 0.8152
vn -0.0000 1.0000 -0.0000
vn 0.8062 -0.4826 -0.3422
vn 0.3296 -0.4762 -0.8152
vn -0.3296 -0.4762 -0.8152
vn -0.8063 -0.4826 -0.3422
vn -0.8062 -0.4826 0.3422
vn -0.3296 -0.4762 0.8152
vn 0.5181 0.8265 -0.2199
vn -0.5181 0.8266 0.2199
vn 0.2134 0.8220 -0.5280
vn -0.2134 0.8220 0.5280
vn 0.2134 0.8220 0.5280
vn -0.2134 0.8220 -0.5280
vn 0.5181 0.8265 0.2199
vn -0.5181 0.8265 -0.2199
vn 0.9205 -0.0000 -0.3907
vn 0.9205 -0.0000 0.3907
vt 0.106040 0.783704
vt 0.099689 0.799195
vt 0.050274 0.798346
vt 0.043923 0.782637
vt 0.015333 0.833298
vt -0.000000 0.826572
vt 0.554172 0.852194
vt 0.565990 0.867318
vt 0.541901 0.909070
vt 0.522587 0.906938
vt 0.929019 0.698284
vt 0.948309 0.704894
vt 0.948309 0.755171
vt 0.929019 0.761485
vt 0.134631 0.885626
vt 0.099689 0.920578
vt 0.050274 0.919729
vt 0.015333 0.883576
vt 0.134631 0.835348
vt -0.000000 0.889775
vt 0.043923 0.935220
vt 0.973612 0.530597
vt 0.967410 0.549928
vt 0.917990 0.549917
vt 0.911488 0.530582
vt 0.106040 0.936288
vt 0.149963 0.892352
vt 0.149963 0.829149
vt 0.962215 0.768372
vt 0.948309 0.754799
vt 0.966820 0.711183
vt 0.986486 0.711183
vt 0.848196 0.353112
vt 0.865991 0.360918
vt 0.865991 0.409121
vt 0.848196 0.416314
vt 0.554172 0.954836
vt 0.538675 0.966945
vt 0.948309 0.667566
vt 0.962215 0.653994
vt 0.911488 0.473823
vt 0.919034 0.452498
vt 0.966414 0.452509
vt 0.973612 0.473837
vt 0.835481 0.107491
vt 0.816192 0.101177
vt 0.816192 0.050900
vt 0.835481 0.044291
vt 0.872256 0.761472
vt 0.850876 0.754135
vt 0.850876 0.705934
vt 0.872256 0.698272
vt 0.892245 0.044278
vt 0.913624 0.051940
vt 0.913624 0.100141
vt 0.892244 0.107479
vt 0.891001 0.152579
vt 0.834238 0.152592
vt 0.867989 0.475184
vt 0.867989 0.531943
vt 0.873499 0.806573
vt 0.930263 0.806586
vt 0.943864 0.051053
vt 0.929401 0.048310
vt 0.928312 0.009568
vt 0.942882 0.016076
vt 0.820636 0.705047
vt 0.835100 0.702303
vt 0.835100 0.757600
vt 0.820636 0.754970
vt 0.967241 0.422266
vt 0.969819 0.436711
vt 0.915464 0.436698
vt 0.918167 0.422255
vt 0.942881 0.136603
vt 0.928312 0.143067
vt 0.929400 0.103606
vt 0.943864 0.100976
vt 0.821619 0.670070
vt 0.836188 0.663562
vt 0.836188 0.797061
vt 0.821619 0.790596
vt 0.877405 0.437889
vt 0.883806 0.423330
vt 0.912676 0.018170
vt 0.966656 0.268481
vt 0.958799 0.271657
vt 0.928706 0.240520
vt 0.931960 0.232582
vt 0.851824 0.672163
vt 0.851824 0.788532
vt 0.885858 0.453536
vt 0.912676 0.134538
vt 0.919758 0.262344
vt 0.895093 0.261920
vt 0.886146 0.239789
vt 0.882892 0.231739
vt 0.848196 0.266446
vt 0.856052 0.269892
vt 0.856052 0.313195
vt 0.848196 0.316371
vt 0.882892 0.352270
vt 0.886146 0.344332
vt 0.928706 0.345063
vt 0.931960 0.353113
vt 0.966656 0.318406
vt 0.958800 0.314960
vt 0.937199 0.280389
vt 0.937199 0.305486
vt 0.919759 0.322932
vt 0.895093 0.322508
vt 0.877652 0.304463
vt 0.877652 0.279367
vt 0.930262 0.654007
vt 0.873499 0.653994
vt 0.834238 0.000013
vt 0.891001 0.000000
s 1
usemtl Material.001
f 9/1/1 10/2/1 12/3/1 11/4/1
f 11/4/2 12/3/2 14/5/2 13/6/2
f 18/7/3 17/8/3 20/9/3 19/10/3
f 13/11/4 14/12/4 16/13/4 15/14/4
f 8/15/5 7/16/5 3/17/5 16/18/5 14/5/5 12/3/5 10/2/5 5/19/5
f 15/20/6 16/18/6 3/17/6 1/21/6
f 1/22/7 3/23/7 7/24/7 6/25/7
f 6/26/8 7/16/8 8/15/8 4/27/8
f 4/27/9 8/15/9 5/19/9 2/28/9
f 27/29/10 28/30/10 30/31/10 29/32/10
f 23/33/11 24/34/11 26/35/11 25/36/11
f 19/10/12 20/9/12 22/37/12 21/38/12
f 29/32/13 30/31/13 32/39/13 31/40/13
f 21/41/14 22/42/14 24/43/14 23/44/14
f 2/45/15 5/46/15 10/47/15 9/48/15
f 25/49/16 26/50/16 28/51/16 27/52/16
f 31/53/17 32/54/17 17/55/17 18/56/17
f 18/56/18 19/57/18 4/58/18 2/45/18
f 31/53/19 18/56/19 2/45/19 9/48/19
f 19/59/20 21/41/20 6/25/20 4/60/20
f 21/41/21 23/44/21 1/22/21 6/25/21
f 23/61/22 25/49/22 15/14/22 1/62/22
f 13/11/23 15/14/23 25/49/23 27/52/23
f 33/63/24 34/64/24 36/65/24 35/66/24
f 37/67/25 38/68/25 40/69/25 39/70/25
f 41/71/26 42/72/26 44/73/26 43/74/26
f 47/75/27 48/76/27 46/77/27 45/78/27
f 45/78/28 46/77/28 34/64/28 33/63/28
f 35/79/29 36/80/29 38/68/29 37/67/29
f 39/70/30 40/69/30 42/81/30 41/82/30
f 43/74/31 44/73/31 48/83/31 47/84/31
f 30/85/32 36/65/32 34/64/32 32/54/32
f 32/54/33 34/64/33 46/77/33 17/55/33
f 45/86/34 56/87/34 55/88/34 47/89/34
f 28/51/35 38/68/35 36/80/35 30/90/35
f 26/50/36 40/69/36 38/68/36 28/51/36
f 24/91/37 42/81/37 40/69/37 26/50/37
f 22/42/38 44/73/38 42/72/38 24/43/38
f 20/92/39 48/83/39 44/73/39 22/42/39
f 17/55/40 46/77/40 48/76/40 20/93/40
f 55/88/41 63/94/41 62/95/41 54/96/41
f 47/89/34 55/88/34 54/96/34 43/97/34
f 41/98/34 53/99/34 52/100/34 39/101/34
f 43/97/34 54/96/34 53/99/34 41/98/34
f 37/102/34 51/103/34 50/104/34 35/105/34
f 33/106/34 49/107/34 56/87/34 45/86/34
f 39/101/34 52/100/34 51/103/34 37/102/34
f 35/105/34 50/104/34 49/107/34 33/106/34
f 64/108/34 57/109/34 58/110/34 59/111/34 60/112/34 61/113/34 62/95/34 63/94/34
f 51/103/42 59/111/42 58/110/42 50/104/42
f 56/87/43 64/108/43 63/94/43 55/88/43
f 52/100/44 60/112/44 59/111/44 51/103/44
f 53/99/45 61/113/45 60/112/45 52/100/45
f 49/107/46 57/109/46 64/108/46 56/87/46
f 54/96/47 62/95/47 61/113/47 53/99/47
f 50/104/48 58/110/48 57/109/48 49/107/48
f 11/114/49 13/11/49 27/52/49 29/115/49
f 9/48/50 11/116/50 29/117/50 31/53/50
