# Blender 5.1.1
# www.blender.org
mtllib Open book Stand.mtl
o Cube.001
v 15.837193 -0.350314 5.790941
v 15.500771 -0.350314 5.454519
v 15.668982 -0.350314 5.745870
v 15.545842 -0.350314 5.622730
v 19.722422 3.292064 5.436049
v 19.691860 3.292064 5.550106
v 19.507828 3.292064 5.650641
v 19.621887 3.292064 5.620080
v 15.500771 -0.350314 3.735723
v 15.837193 -0.350314 3.399300
v 15.545842 -0.350314 3.567512
v 15.668982 -0.350314 3.444373
v 19.507828 3.292064 3.539600
v 19.621885 3.292064 3.570162
v 19.722422 3.292064 3.754192
v 19.691860 3.292064 3.640136
v 19.862720 -0.350314 5.454519
v 19.526299 -0.350314 5.790941
v 19.817650 -0.350314 5.622730
v 19.694511 -0.350314 5.745870
v 15.641070 3.292064 3.754192
v 15.671631 3.292064 3.640136
v 15.855663 3.292064 3.539600
v 15.741606 3.292064 3.570162
v 19.526299 -0.350314 3.399300
v 19.862720 -0.350314 3.735723
v 19.694511 -0.350314 3.444373
v 19.817650 -0.350314 3.567512
v 15.641070 3.292064 5.436049
v 15.671631 3.292064 5.550106
v 15.741606 3.292064 5.620080
v 15.855662 3.292064 5.650641
v 15.641070 1.170436 5.436049
v 15.500771 1.030137 5.454519
v 15.541863 1.129344 5.449109
v 15.855662 1.170436 5.650641
v 15.837193 1.030137 5.790941
v 15.842603 1.129344 5.749848
v 15.671631 1.170436 5.550106
v 15.545842 1.030137 5.622730
v 15.582685 1.129344 5.601459
v 15.741606 1.170436 5.620080
v 15.668982 1.030137 5.745870
v 15.690253 1.129344 5.709026
v 15.855663 1.170436 3.539600
v 15.837193 1.030137 3.399300
v 15.842603 1.129344 3.440393
v 15.641070 1.170436 3.754192
v 15.500771 1.030137 3.735723
v 15.541863 1.129344 3.741132
v 15.741606 1.170436 3.570162
v 15.668982 1.030137 3.444373
v 15.690252 1.129344 3.481215
v 15.671631 1.170436 3.640136
v 15.545842 1.030137 3.567512
v 15.582685 1.129344 3.588783
v 19.507828 1.170436 5.650641
v 19.526299 1.030137 5.790941
v 19.520889 1.129344 5.749848
v 19.722422 1.170436 5.436049
v 19.862720 1.030137 5.454519
v 19.821629 1.129344 5.449109
v 19.621887 1.170436 5.620080
v 19.694511 1.030137 5.745870
v 19.673239 1.129344 5.709026
v 19.691860 1.170436 5.550106
v 19.817650 1.030137 5.622730
v 19.780807 1.129344 5.601460
v 19.722422 1.170436 3.754192
v 19.862720 1.030137 3.735723
v 19.821629 1.129344 3.741132
v 19.507828 1.170436 3.539600
v 19.526299 1.030137 3.399300
v 19.520889 1.129344 3.440392
v 19.691860 1.170436 3.640136
v 19.817650 1.030137 3.567512
v 19.780807 1.129344 3.588782
v 19.621885 1.170436 3.570162
v 19.694511 1.030137 3.444373
v 19.673241 1.129344 3.481215
v 15.573687 3.586924 3.376610
v 19.789806 3.586924 3.376610
v 20.002254 3.586924 3.492671
v 20.037537 3.586924 3.624339
v 15.325956 3.586924 3.624339
v 15.361237 3.586924 3.492671
v 15.361237 3.586924 5.697571
v 15.325956 3.586924 5.565903
v 15.442017 3.586924 5.778351
v 15.573686 3.586924 5.813631
v 15.442016 3.586924 3.411891
v 20.037537 3.586924 5.565903
v 19.789806 3.586924 5.813631
v 19.921474 3.586924 5.778351
v 19.921474 3.586924 3.411891
v 20.002254 3.586924 5.697571
v 15.767632 3.292064 3.488715
v 15.573687 3.489054 3.376610
v 15.715049 3.369267 3.458321
v 15.649695 3.435647 3.420545
v 19.789806 3.489054 3.376610
v 19.595861 3.292064 3.488715
v 19.713797 3.435647 3.420545
v 19.648445 3.369267 3.458321
v 19.797152 3.292064 3.590114
v 20.002254 3.489054 3.492671
v 19.852758 3.369267 3.563695
v 19.921873 3.435647 3.530860
v 20.037537 3.489054 3.624339
v 19.830591 3.292064 3.709618
v 19.956432 3.435647 3.657760
v 19.886700 3.369267 3.686497
v 15.532902 3.292064 3.709618
v 15.325956 3.489054 3.624339
v 15.476795 3.369267 3.686497
v 15.407061 3.435647 3.657761
v 15.361237 3.489054 3.492671
v 15.566340 3.292064 3.590113
v 15.441619 3.435647 3.530859
v 15.510733 3.369267 3.563694
v 15.566340 3.292064 5.600128
v 15.361237 3.489054 5.697571
v 15.510733 3.369267 5.626547
v 15.441619 3.435647 5.659382
v 15.325956 3.489054 5.565903
v 15.532902 3.292064 5.480624
v 15.407061 3.435647 5.532481
v 15.476795 3.369267 5.503745
v 15.642950 3.292064 5.672200
v 15.442017 3.489054 5.778351
v 15.588473 3.369267 5.700979
v 15.520765 3.435647 5.736749
v 15.767630 3.292064 5.701526
v 15.573686 3.489054 5.813631
v 15.715048 3.369267 5.731920
v 15.649693 3.435647 5.769696
v 15.442016 3.489054 3.411891
v 15.642948 3.292064 3.518042
v 15.520763 3.435647 3.453493
v 15.588471 3.369267 3.489263
v 20.037537 3.489054 5.565903
v 19.830591 3.292064 5.480624
v 19.956432 3.435647 5.532482
v 19.886700 3.369267 5.503745
v 19.595861 3.292064 5.701526
v 19.789806 3.489054 5.813631
v 19.648445 3.369267 5.731920
v 19.713799 3.435647 5.769696
v 19.720543 3.292064 5.672200
v 19.921474 3.489054 5.778351
v 19.775021 3.369267 5.700979
v 19.842728 3.435647 5.736749
v 19.921474 3.489054 3.411891
v 19.720543 3.292064 3.518043
v 19.842728 3.435647 3.453493
v 19.775019 3.369267 3.489263
v 20.002254 3.489054 5.697571
v 19.797152 3.292064 5.600128
v 19.921871 3.435647 5.659382
v 19.852758 3.369267 5.626546
v 16.460995 0.918526 5.421645
v 16.460995 3.499161 5.421645
v 16.081228 0.918526 5.421645
v 16.081228 3.499161 5.421645
v 16.460997 0.918526 3.502206
v 16.460997 3.499161 3.502206
v 16.081230 0.918526 3.502206
v 16.081230 3.499161 3.502206
v 16.370935 2.208843 5.421645
v 16.171289 2.208843 5.421645
v 16.171289 2.208843 3.502206
v 16.370935 2.208843 3.502206
v 17.460995 0.918526 5.421645
v 17.460995 3.499161 5.421645
v 17.081228 0.918526 5.421645
v 17.081228 3.499161 5.421645
v 17.460997 0.918526 3.502206
v 17.460997 3.499161 3.502206
v 17.081230 0.918526 3.502206
v 17.081230 3.499161 3.502206
v 17.370935 2.208843 5.421645
v 17.171289 2.208843 5.421645
v 17.171289 2.208843 3.502206
v 17.370935 2.208843 3.502206
v 18.460995 0.918526 5.421645
v 18.460995 3.499161 5.421645
v 18.081228 0.918526 5.421645
v 18.081228 3.499161 5.421645
v 18.460997 0.918526 3.502206
v 18.460997 3.499161 3.502206
v 18.081230 0.918526 3.502206
v 18.081230 3.499161 3.502206
v 18.370935 2.208843 5.421645
v 18.171289 2.208843 5.421645
v 18.171289 2.208843 3.502206
v 18.370935 2.208843 3.502206
v 19.460995 0.918526 5.421645
v 19.460995 3.499161 5.421645
v 19.081228 0.918526 5.421645
v 19.081228 3.499161 5.421645
v 19.460997 0.918526 3.502206
v 19.460997 3.499161 3.502206
v 19.081230 0.918526 3.502206
v 19.081230 3.499161 3.502206
v 19.370935 2.208843 5.421645
v 19.171289 2.208843 5.421645
v 19.171289 2.208843 3.502206
v 19.370935 2.208843 3.502206
v 17.518534 0.918526 4.071497
v 17.518534 3.499161 4.071497
v 17.518534 0.918526 4.451264
v 17.518534 3.499161 4.451264
v 15.599094 0.918526 4.071496
v 15.599094 3.499161 4.071496
v 15.599094 0.918526 4.451262
v 15.599094 3.499161 4.451262
v 17.518534 2.208843 4.161557
v 17.518534 2.208843 4.361203
v 15.599094 2.208843 4.361203
v 15.599094 2.208843 4.161557
v 17.518534 0.918526 4.884943
v 17.518534 3.499161 4.884943
v 17.518534 0.918526 5.264710
v 17.518534 3.499161 5.264710
v 15.599094 0.918526 4.884942
v 15.599094 3.499161 4.884942
v 15.599094 0.918526 5.264708
v 15.599094 3.499161 5.264708
v 17.518534 2.208843 4.975003
v 17.518534 2.208843 5.174649
v 15.599094 2.208843 5.174649
v 15.599094 2.208843 4.975003
v 19.818493 0.918526 4.071497
v 19.818493 3.499161 4.071497
v 19.818493 0.918526 4.451264
v 19.818493 3.499161 4.451264
v 17.899054 0.918526 4.071496
v 17.899054 3.499161 4.071496
v 17.899054 0.918526 4.451262
v 17.899054 3.499161 4.451262
v 19.818493 2.208843 4.161557
v 19.818493 2.208843 4.361203
v 17.899054 2.208843 4.361203
v 17.899054 2.208843 4.161557
v 19.818493 0.918526 4.884943
v 19.818493 3.499161 4.884943
v 19.818493 0.918526 5.264710
v 19.818493 3.499161 5.264710
v 17.899054 0.918526 4.884942
v 17.899054 3.499161 4.884942
v 17.899054 0.918526 5.264708
v 17.899054 3.499161 5.264708
v 19.818493 2.208843 4.975003
v 19.818493 2.208843 5.174649
v 17.899054 2.208843 5.174649
v 17.899054 2.208843 4.975003
v 16.175533 3.587801 3.376610
v 19.220493 3.587801 3.376610
v 19.303387 3.587801 3.492671
v 19.317150 3.587801 3.624339
v 16.078875 3.587801 3.624339
v 16.092642 3.587801 3.492671
v 16.092642 3.587801 5.697571
v 16.078875 3.587801 5.565903
v 16.124159 3.587801 5.778351
v 16.175533 3.587801 5.813631
v 16.124159 3.587801 3.411891
v 19.317150 3.587801 5.565903
v 19.220493 3.587801 5.813631
v 19.271866 3.587801 5.778351
v 19.271866 3.587801 3.411891
v 19.303387 3.587801 5.697571
v 16.175533 3.627774 3.388176
v 16.190119 3.685993 3.448261
v 19.205908 3.685993 3.448261
v 19.220493 3.627774 3.388176
v 19.303387 3.651141 3.505755
v 19.257296 3.702367 3.526817
v 19.270145 3.727450 3.647164
v 19.317150 3.678388 3.637635
v 16.078875 3.678388 3.637635
v 16.125879 3.727450 3.647164
v 16.138733 3.702368 3.526814
v 16.092642 3.651140 3.505755
v 16.092642 4.103068 5.676312
v 16.138733 4.147705 5.663426
v 16.125879 4.122620 5.543078
v 16.078875 4.076262 5.547266
v 16.124159 4.119526 5.755476
v 16.162691 4.160235 5.723541
v 16.175533 4.126719 5.790050
v 16.190121 4.164078 5.741981
v 16.162689 3.689835 3.466702
v 16.124159 3.634571 3.424045
v 19.270145 4.122621 5.543078
v 19.317150 4.076262 5.547266
v 19.220493 4.126719 5.790050
v 19.205908 4.164078 5.741981
v 19.271866 4.119526 5.755476
v 19.233334 4.160234 5.723541
v 19.233334 3.689835 3.466701
v 19.271866 3.634571 3.424045
v 19.257296 4.147704 5.663425
v 19.303387 4.103068 5.676312
v 17.403967 4.714729 5.799468
v 17.912525 4.715548 5.799181
v 17.403967 3.939924 3.593280
v 17.912525 3.940743 3.592992
v 17.352409 4.708625 5.703349
v 17.964081 4.709440 5.703063
v 17.352409 3.995260 3.672109
v 17.964081 3.996078 3.671822
v 16.148056 4.849725 5.752058
v 16.016788 4.827396 5.618628
v 16.055237 4.852228 5.709795
v 19.299702 4.828212 5.618340
v 19.168436 4.850542 5.751771
v 19.261253 4.853045 5.709508
v 16.016788 4.140925 3.663962
v 16.148056 4.074921 3.545870
v 16.055237 4.103301 3.577286
v 19.168436 4.075737 3.545584
v 19.299702 4.141743 3.663675
v 19.261253 4.104117 3.576999
v 16.030191 4.899111 5.593442
v 16.161457 4.921440 5.726872
v 16.131187 4.912704 5.637767
v 16.068640 4.923944 5.684609
v 19.155033 4.922258 5.726584
v 19.286297 4.899930 5.593154
v 19.185303 4.913519 5.637481
v 19.247852 4.924761 5.684322
v 16.161457 4.146634 3.520685
v 16.030191 4.212641 3.638776
v 16.131187 4.195532 3.595685
v 16.068640 4.175015 3.552100
v 19.286297 4.213459 3.638489
v 19.155033 4.147454 3.520397
v 19.185303 4.196348 3.595398
v 19.247852 4.175833 3.551813
v 17.418163 4.638422 5.826267
v 17.420132 4.630782 5.828950
v 17.438581 4.668956 5.815544
v 17.895630 4.630783 5.828950
v 17.898327 4.639239 5.825980
v 17.877911 4.669773 5.815256
v 17.420130 3.855978 3.622762
v 17.418163 3.863618 3.620079
v 17.438581 3.894152 3.609356
v 17.898327 3.864435 3.619792
v 17.895630 3.855979 3.622762
v 17.877911 3.894969 3.609069
v 19.306633 4.340911 4.070202
v 19.329182 4.283434 4.090388
v 16.010105 4.341409 4.070027
v 15.987556 4.283932 4.090213
v 18.703068 4.037417 3.527212
v 18.725613 3.979940 3.547398
v 19.306633 4.200723 3.671027
v 19.119715 4.106733 3.502869
v 19.251886 4.147143 3.547598
v 19.142262 4.049256 3.523055
v 19.329182 4.143245 3.691213
v 19.274433 4.089665 3.567783
v 18.703068 4.082032 3.654247
v 19.174038 4.318851 4.077950
v 18.873898 4.127590 3.693067
v 19.017557 4.187002 3.785790
v 19.123100 4.252898 3.917259
v 19.196585 4.261374 4.098135
v 18.725613 4.024554 3.674433
v 19.145649 4.195421 3.937445
v 19.040106 4.129526 3.805975
v 18.896446 4.070113 3.713252
v 16.591125 3.980438 3.547223
v 16.613670 4.037915 3.527038
v 15.987556 4.143744 3.691038
v 16.174475 4.049755 3.522880
v 16.042301 4.090164 3.567608
v 16.197021 4.107232 3.502694
v 16.010105 4.201221 3.670852
v 16.064850 4.147641 3.547422
v 16.591125 4.025053 3.674258
v 16.120152 4.261872 4.097960
v 16.420292 4.070613 3.713077
v 16.276632 4.130024 3.805800
v 16.171089 4.195919 3.937270
v 16.142700 4.319349 4.077774
v 16.613670 4.082530 3.654073
v 16.193636 4.253396 3.917084
v 16.299179 4.187502 3.785615
v 16.442841 4.128088 3.692892
v 18.703068 4.832179 5.790227
v 18.725613 4.774702 5.810412
v 16.613670 4.832677 5.790052
v 16.591122 4.775200 5.810238
v 19.306633 4.729511 5.176708
v 19.329182 4.672034 5.196894
v 19.119715 4.901495 5.765883
v 19.306633 4.869700 5.575883
v 19.251886 4.905064 5.705710
v 19.329182 4.812222 5.596069
v 19.142262 4.844018 5.786069
v 19.274433 4.847586 5.725896
v 19.174038 4.707452 5.184456
v 18.703068 4.787565 5.663192
v 19.123100 4.756457 5.351099
v 19.017557 4.787235 5.494901
v 18.873898 4.798847 5.604411
v 18.725613 4.730088 5.683378
v 19.196585 4.649975 5.204641
v 18.896446 4.741369 5.624597
v 19.040106 4.729758 5.515086
v 19.145649 4.698979 5.371284
v 15.987556 4.672532 5.196719
v 16.010105 4.730010 5.176534
v 16.174475 4.844517 5.785894
v 15.987556 4.812721 5.595894
v 16.042301 4.848084 5.725721
v 16.010105 4.870198 5.575708
v 16.197021 4.901994 5.765708
v 16.064850 4.905561 5.705535
v 16.120152 4.650473 5.204466
v 16.591125 4.730586 5.683203
v 16.171089 4.699478 5.371109
v 16.276632 4.730257 5.514911
v 16.420292 4.741869 5.624422
v 16.613670 4.788063 5.663017
v 16.142700 4.707951 5.184280
v 16.442841 4.799345 5.604236
v 16.299179 4.787734 5.494725
v 16.193636 4.756955 5.350924
v 17.420132 4.503721 5.467155
v 17.369596 4.551403 5.450410
v 17.566174 4.584814 5.845094
v 17.749590 4.584814 5.845094
v 17.749588 3.810010 3.638906
v 17.566172 3.810010 3.638906
v 17.895630 4.503722 5.467155
v 17.946167 4.551403 5.450410
v 17.420130 4.458429 5.338191
v 17.369596 4.506110 5.321445
v 17.946167 4.506110 5.321445
v 17.895630 4.458430 5.338191
v 17.566174 4.457753 5.483299
v 17.749590 4.457753 5.483299
v 17.749588 4.412461 5.354334
v 17.566172 4.412461 5.354334
v 17.352070 4.502422 5.472016
v 17.352070 4.454376 5.335210
v 17.910086 4.451842 5.489779
v 17.963696 4.502422 5.472016
v 17.963696 4.454376 5.335210
v 17.910086 4.403797 5.352973
v 17.405674 4.451842 5.489779
v 17.405674 4.403797 5.352973
v 17.560596 4.355033 5.370099
v 17.755165 4.355033 5.370099
v 17.755165 4.403079 5.506906
v 17.560596 4.403079 5.506906
v 17.420132 4.036983 4.138161
v 17.369596 4.084665 4.121415
v 17.895630 4.036984 4.138160
v 17.946167 4.084665 4.121415
v 17.420130 3.991692 4.009196
v 17.369596 4.039373 3.992450
v 17.946167 4.039373 3.992450
v 17.895630 3.991693 4.009195
v 17.566174 3.991016 4.154305
v 17.749590 3.991016 4.154305
v 17.749588 3.945724 4.025340
v 17.566172 3.945724 4.025340
v 17.352070 4.035685 4.143022
v 17.352070 3.987638 4.006215
v 17.910086 3.985105 4.160785
v 17.963696 4.035685 4.143022
v 17.963696 3.987638 4.006215
v 17.910086 3.937059 4.023978
v 17.405674 3.985105 4.160785
v 17.405674 3.937059 4.023978
v 17.560596 3.888295 4.041104
v 17.755165 3.888295 4.041104
v 17.755165 3.936341 4.177910
v 17.560596 3.936341 4.177910
v 17.657881 4.704904 5.802919
v 17.657881 3.930099 3.596731
v 17.657883 4.726365 5.697119
v 17.657881 4.013001 3.665878
v 17.657879 3.810010 3.638906
v 17.657881 4.584814 5.845094
v 17.660217 4.412461 5.354334
v 17.660219 4.457753 5.483299
v 17.660358 4.355033 5.370099
v 17.660360 4.403079 5.506906
v 17.657879 3.945724 4.025340
v 17.657881 3.991016 4.154305
v 17.657879 3.888295 4.041104
v 17.657881 3.936341 4.177910
v 17.352409 4.876445 5.644411
v 17.657883 4.808040 5.668435
v 17.964081 4.877261 5.644125
v 17.352409 4.163081 3.613171
v 17.964081 4.163898 3.612884
v 17.657881 4.094676 3.637194
v 16.225658 4.896076 5.637517
v 16.137856 4.881590 5.549545
v 16.131210 4.912697 5.637751
v 16.163574 4.897884 5.609626
v 19.178635 4.882407 5.549259
v 19.090834 4.896894 5.637230
v 19.185282 4.913512 5.637464
v 19.152918 4.898700 5.609339
v 16.137856 4.226413 3.683988
v 16.225658 4.182713 3.606277
v 16.131210 4.195537 3.595701
v 16.163574 4.201562 3.626913
v 19.090834 4.183531 3.605989
v 19.178635 4.227231 3.683700
v 19.185282 4.196354 3.595414
v 19.152918 4.202380 3.626625
v 16.218239 5.049411 5.490607
v 16.301399 5.063897 5.578579
v 16.242596 5.065704 5.550688
v 19.015093 5.064714 5.578292
v 19.098253 5.050228 5.490321
v 19.073896 5.066521 5.550401
v 16.301399 4.350533 3.547338
v 16.218239 4.394234 3.625050
v 16.242596 4.369383 3.567975
v 19.098253 4.395052 3.624763
v 19.015093 4.351352 3.547050
v 19.073896 4.370201 3.567687
v 18.530964 4.803750 5.669941
v 18.492859 5.013982 5.596109
v 18.527456 4.089804 3.638906
v 18.489586 4.300035 3.565073
v 16.789034 4.088986 3.639193
v 16.826904 4.299217 3.565360
v 16.789034 4.802350 5.670433
v 16.826904 5.012582 5.596601
vn 0.9659 -0.0000 0.2588
vn -0.9659 -0.0000 0.2588
vn -0.0000 -0.0000 1.0000
vn -0.2588 -0.0000 -0.9659
vn -0.7071 -0.0000 -0.7071
vn 0.2588 -0.0000 -0.9659
vn 1.0000 -0.0000 -0.0000
vn -1.0000 -0.0000 -0.0000
vn -0.2588 -0.0000 0.9659
vn -0.9659 -0.0000 -0.2588
vn 0.2588 -0.0000 0.9659
vn 0.7071 -0.0000 0.7071
vn -0.0000 -1.0000 -0.0000
vn 0.9659 -0.0000 -0.2588
vn 0.7071 -0.0000 -0.7071
vn -0.0000 -0.0000 -1.0000
vn -0.0990 0.9239 0.3696
vn -0.2391 0.3827 0.8924
vn -0.2706 0.9239 0.2706
vn -0.6533 0.3827 0.6533
vn -0.3696 0.9239 0.0990
vn -0.8924 0.3827 0.2391
vn -0.0990 0.9239 -0.3696
vn -0.2391 0.3827 -0.8924
vn -0.2706 0.9239 -0.2706
vn -0.6533 0.3827 -0.6533
vn -0.3696 0.9239 -0.0990
vn -0.8924 0.3827 -0.2391
vn 0.3696 0.9239 -0.0990
vn 0.8924 0.3827 -0.2391
vn 0.2706 0.9239 -0.2706
vn 0.6533 0.3827 -0.6533
vn 0.0990 0.9239 -0.3696
vn 0.2391 0.3827 -0.8924
vn 0.0990 0.9239 0.3696
vn 0.2391 0.3827 0.8924
vn 0.2706 0.9239 0.2706
vn 0.6533 0.3827 0.6533
vn 0.3696 0.9239 0.0990
vn 0.8924 0.3827 0.2391
vn -0.3827 0.9239 -0.0000
vn -0.9239 0.3827 -0.0000
vn -0.0000 0.9239 0.3827
vn -0.0000 0.3827 0.9239
vn 0.9239 0.3827 -0.0000
vn 0.3827 0.9239 -0.0000
vn -0.0000 0.3827 -0.9239
vn -0.0000 0.9239 -0.3827
vn -0.7071 -0.0000 0.7071
vn 0.0013 1.0000 -0.0009
vn -0.0000 -0.6353 -0.7723
vn -0.0000 -0.4946 -0.8691
vn -0.0000 -0.3663 -0.9305
vn 0.5039 -0.8530 -0.1361
vn 0.6387 -0.7492 -0.1752
vn 0.7586 -0.6165 -0.2109
vn -0.5039 -0.8530 -0.1361
vn -0.6387 -0.7492 -0.1752
vn -0.7586 -0.6165 -0.2109
vn -0.5039 -0.8530 0.1361
vn -0.6387 -0.7492 0.1752
vn -0.7586 -0.6165 0.2109
vn -0.3763 -0.8448 0.3805
vn -0.4705 -0.7363 0.4863
vn -0.5507 -0.6001 0.5802
vn -0.1669 -0.7522 0.6374
vn -0.1912 -0.6153 0.7647
vn -0.2057 -0.4713 0.8576
vn -0.3763 -0.8448 -0.3805
vn -0.4706 -0.7363 -0.4863
vn -0.5507 -0.6001 -0.5802
vn -0.1669 -0.7522 -0.6374
vn -0.1912 -0.6153 -0.7647
vn -0.2057 -0.4713 -0.8576
vn 0.5500 -0.8352 -0.0000
vn 0.6895 -0.7243 -0.0000
vn 0.8089 -0.5879 -0.0000
vn -0.0000 -0.6353 0.7723
vn -0.0000 -0.4946 0.8691
vn -0.0000 -0.3663 0.9305
vn 0.1669 -0.7522 0.6374
vn 0.1912 -0.6153 0.7647
vn 0.2057 -0.4713 0.8576
vn 0.1669 -0.7522 -0.6374
vn 0.1912 -0.6153 -0.7647
vn 0.2057 -0.4713 -0.8576
vn 0.3763 -0.8448 -0.3805
vn 0.4706 -0.7363 -0.4863
vn 0.5507 -0.6001 -0.5802
vn -0.5500 -0.8352 -0.0000
vn -0.6895 -0.7243 -0.0000
vn -0.8089 -0.5879 -0.0000
vn 0.5039 -0.8530 0.1361
vn 0.6387 -0.7492 0.1752
vn 0.7586 -0.6165 0.2109
vn 0.3763 -0.8448 0.3805
vn 0.4706 -0.7363 0.4863
vn 0.5507 -0.6001 0.5802
vn -0.9976 -0.0696 -0.0000
vn 0.9976 -0.0696 -0.0000
vn -0.0000 1.0000 -0.0000
vn 0.9976 0.0696 -0.0000
vn -0.9976 0.0696 -0.0000
vn -0.0000 -0.0696 0.9976
vn -0.0000 -0.0696 -0.9976
vn -0.0000 0.0696 -0.9976
vn -0.0000 0.0696 0.9976
vn -0.0014 1.0000 0.0035
vn -0.0012 1.0000 -0.0000
vn -0.0012 1.0000 -0.0009
vn 0.0012 1.0000 0.0002
vn -0.0014 1.0000 -0.0035
vn -0.0000 -0.0003 -1.0000
vn 0.0013 1.0000 0.0009
vn 0.0012 1.0000 -0.0000
vn 0.0012 1.0000 -0.0002
vn -0.0000 -0.0006 1.0000
vn -0.0012 1.0000 -0.0002
vn 0.0014 1.0000 0.0037
vn -0.0012 1.0000 0.0002
vn 0.0014 1.0000 -0.0037
vn -0.0012 1.0000 0.0009
vn -0.0000 0.7182 -0.6959
vn 0.6816 0.6989 -0.2169
vn -0.6816 0.6988 -0.2169
vn -0.7039 0.7067 -0.0719
vn -0.6740 0.7295 0.1166
vn -0.4253 0.7725 0.4714
vn -0.6004 0.7040 -0.3793
vn -0.3295 0.7138 -0.6180
vn 0.7007 0.6985 -0.1456
vn -0.0000 0.7896 0.6137
vn 0.4254 0.7725 0.4714
vn 0.3296 0.7138 -0.6180
vn 0.6004 0.7040 -0.3793
vn -0.7007 0.6985 -0.1456
vn 0.7039 0.7067 -0.0719
vn 0.6740 0.7295 0.1166
vn -0.0000 0.2780 -0.9606
vn -0.0000 0.9790 -0.2040
vn -0.5453 0.2211 -0.8086
vn 0.5453 0.2211 -0.8086
vn 0.9942 0.0181 -0.1057
vn 0.9261 0.0843 -0.3679
vn -0.9942 0.0181 -0.1057
vn -0.9261 0.0843 -0.3678
vn -0.9945 0.0042 0.1046
vn -0.9308 0.0154 0.3652
vn -0.5636 0.0358 0.8253
vn -0.0000 0.0437 0.9990
vn 0.9945 0.0042 0.1046
vn 0.5636 0.0358 0.8253
vn 0.9308 0.0154 0.3653
vn -0.0137 0.7283 -0.6851
vn 0.0109 0.9968 0.0786
vn -0.0178 0.9666 -0.2558
vn 0.0838 0.9886 -0.1254
vn -0.0837 0.9886 -0.1254
vn 0.0178 0.9666 -0.2558
vn 0.0838 0.8499 -0.5203
vn -0.0178 0.9142 -0.4048
vn 0.0178 0.9142 -0.4048
vn -0.0838 0.8499 -0.5202
vn 0.9098 0.0246 -0.4142
vn 0.3769 -0.2434 -0.8937
vn -0.3769 0.3688 0.8496
vn -0.9098 0.2782 0.3079
vn -0.3769 -0.2434 -0.8937
vn -0.9098 0.0246 -0.4142
vn 0.9098 0.2782 0.3079
vn 0.3769 0.3688 0.8496
vn -0.9848 0.1638 -0.0575
vn 0.9848 0.1638 -0.0575
vn 0.0001 0.3312 0.9436
vn 0.0001 0.3315 0.9435
vn -0.0000 -0.3314 -0.9435
vn 0.0001 -0.3313 -0.9435
vn -0.9717 -0.2227 0.0782
vn 0.9576 -0.2720 0.0955
vn -0.0000 0.9435 -0.3314
vn 0.7071 0.6671 -0.2343
vn -0.0000 0.3313 0.9435
vn -0.1736 -0.9292 0.3263
vn -0.0000 0.3314 0.9435
vn 0.1736 -0.9292 0.3263
vn -0.3165 0.8950 -0.3143
vn -0.9378 0.3275 -0.1150
vn -0.3639 -0.1783 -0.9142
vn 0.3639 -0.1783 -0.9142
vn 0.8685 0.1782 -0.4626
vn 0.9378 0.3275 -0.1150
vn -0.8685 0.1782 -0.4626
vn -0.8999 -0.2210 0.3760
vn -0.7601 -0.0713 0.6459
vn -0.5611 0.0695 0.8248
vn -0.2720 0.2221 0.9363
vn -0.1737 0.9292 -0.3263
vn -0.9378 -0.3275 0.1150
vn 0.8999 -0.2210 0.3760
vn 0.7601 -0.0713 0.6459
vn 0.5611 0.0695 0.8248
vn 0.2720 0.2221 0.9363
vn 0.9378 -0.3275 0.1150
vn 0.1736 0.9292 -0.3263
vn -0.8685 0.4283 0.2495
vn 0.8685 0.4283 0.2496
vn 0.3639 0.4325 0.8250
vn -0.3639 0.4325 0.8250
vn -0.2720 -0.4121 -0.8696
vn -0.5611 -0.4615 -0.6872
vn -0.7601 -0.4595 -0.4595
vn -0.8999 -0.4075 -0.1552
vn -0.1736 0.9292 -0.3263
vn 0.2720 -0.4121 -0.8696
vn 0.5611 -0.4615 -0.6872
vn 0.7601 -0.4595 -0.4595
vn 0.8999 -0.4075 -0.1552
vn -0.7071 0.6672 -0.2343
vn -0.0000 -0.9435 0.3314
vn 0.3165 -0.8950 0.3143
vn -0.3165 -0.8950 0.3143
vn 0.3165 0.8950 -0.3143
vn -0.7071 -0.6671 0.2343
vn 0.7071 -0.6672 0.2343
vn 0.9501 0.2944 -0.1034
vn -0.0226 0.3944 0.9187
vn 0.0584 -0.2751 -0.9596
vn -0.0584 0.3853 0.9209
vn -0.0000 0.3964 0.9181
vn 0.0226 0.3943 0.9187
vn -0.0584 -0.2751 -0.9596
vn -0.9501 0.2944 -0.1034
vn -0.0000 -0.2647 -0.9643
vn 0.0226 -0.2667 -0.9635
vn 0.0584 0.3853 0.9209
vn -0.0226 -0.2667 -0.9635
vn -0.0226 0.3943 0.9187
vn -0.0137 0.9968 0.0793
vn 0.0109 0.7288 -0.6846
vn 0.1643 0.9381 -0.3050
vn 0.1514 0.9357 -0.3186
vn -0.1514 0.9357 -0.3186
vn -0.1643 0.9381 -0.3050
vn 0.1514 0.9294 -0.3365
vn 0.1643 0.9228 -0.3485
vn -0.1643 0.9228 -0.3485
vn -0.1514 0.9294 -0.3365
vn -0.8479 0.2360 -0.4747
vn -0.3623 -0.1557 -0.9190
vn 0.8479 0.4810 0.2229
vn 0.3623 0.4531 0.8145
vn 0.8479 0.2360 -0.4747
vn 0.3623 -0.1557 -0.9190
vn -0.3623 0.4531 0.8145
vn -0.8479 0.4810 0.2229
vn 0.0184 0.9433 -0.3313
vn 0.1709 0.9733 -0.1535
vn -0.9113 0.3886 -0.1365
vn -0.1709 0.9733 -0.1535
vn 0.9113 0.3885 -0.1365
vn -0.0185 0.9433 -0.3313
vn 0.1709 0.8555 -0.4888
vn -0.1709 0.8555 -0.4888
vn -0.1136 0.9374 -0.3293
vn -0.2330 0.9175 -0.3222
vn 0.2309 0.9180 -0.3224
vn 0.1138 0.9374 -0.3292
vn 0.2648 0.9098 -0.3195
vn -0.2645 0.9099 -0.3195
vt 0.662337 0.898802
vt 0.655419 0.898930
vt 0.655419 0.770031
vt 0.662337 0.769903
vt 0.677655 0.897229
vt 0.670738 0.897099
vt 0.670738 0.768209
vt 0.677655 0.768339
vt 0.271800 0.272521
vt 0.271800 0.494883
vt 0.145575 0.494883
vt 0.145575 0.272521
vt 0.417242 0.489880
vt 0.417542 0.496825
vt 0.290048 0.496825
vt 0.289749 0.489880
vt 0.791335 0.896930
vt 0.787015 0.897208
vt 0.787015 0.768318
vt 0.791335 0.768039
vt 0.417542 0.260574
vt 0.417242 0.267518
vt 0.289749 0.267518
vt 0.290048 0.260574
vt 0.553029 0.899022
vt 0.553029 0.770123
vt 0.780045 0.897325
vt 0.780045 0.768435
vt 0.271405 0.265577
vt 0.145180 0.265577
vt 0.271405 0.501828
vt 0.145180 0.501828
vt 0.666538 0.898520
vt 0.666538 0.769621
vt 0.165515 0.265577
vt 0.155347 0.262833
vt 0.147904 0.255335
vt 0.145179 0.245094
vt 0.145180 0.020483
vt 0.147904 0.010241
vt 0.155347 0.002744
vt 0.165515 -0.000000
vt 0.269413 0.000000
vt 0.279581 0.002744
vt 0.287024 0.010241
vt 0.289749 0.020483
vt 0.289749 0.245094
vt 0.287024 0.255336
vt 0.279581 0.262833
vt 0.269413 0.265577
vt 0.546059 0.898907
vt 0.546059 0.770008
vt 0.541741 0.898632
vt 0.541741 0.769733
vt 0.295284 0.241468
vt 0.297118 0.248413
vt 0.292199 0.251539
vt 0.289749 0.242264
vt 0.430291 0.018068
vt 0.429763 0.008792
vt 0.436142 0.007497
vt 0.436725 0.017739
vt 0.301319 0.252673
vt 0.298656 0.258089
vt 0.428371 0.002243
vt 0.434549 -0.000000
vt 0.308165 0.254534
vt 0.307800 0.260574
vt 0.873865 0.464777
vt 0.873692 0.474017
vt 0.867499 0.473652
vt 0.867691 0.463451
vt 0.420163 0.248412
vt 0.421997 0.241467
vt 0.428371 0.242262
vt 0.425921 0.251538
vt 0.519254 0.243799
vt 0.518854 0.234523
vt 0.524413 0.234852
vt 0.524855 0.245094
vt 0.415963 0.252672
vt 0.419464 0.258088
vt 0.873751 0.587307
vt 0.874179 0.593948
vt 0.868064 0.596172
vt 0.867574 0.588570
vt 0.409116 0.254533
vt 0.410320 0.260573
vt 0.873594 0.577997
vt 0.867401 0.578291
vt 0.415962 0.007901
vt 0.409116 0.006040
vt 0.410320 -0.000000
vt 0.419464 0.002485
vt 0.890885 0.269438
vt 0.890731 0.278747
vt 0.884540 0.278452
vt 0.884710 0.268174
vt 0.420163 0.012161
vt 0.425921 0.009034
vt 0.891307 0.262799
vt 0.885193 0.260574
vt 0.421997 0.019105
vt 0.428371 0.018310
vt 0.518854 0.010571
vt 0.519254 0.001295
vt 0.524855 -0.000000
vt 0.524413 0.010242
vt 0.297118 0.012162
vt 0.295284 0.019106
vt 0.289749 0.018311
vt 0.292199 0.009036
vt 0.429763 0.251296
vt 0.430291 0.242020
vt 0.436725 0.242350
vt 0.436142 0.252591
vt 0.301319 0.007902
vt 0.298655 0.002486
vt 0.428371 0.257846
vt 0.434549 0.260089
vt 0.308165 0.006041
vt 0.307800 0.000001
vt 0.890824 0.382727
vt 0.890995 0.391968
vt 0.884823 0.393294
vt 0.884634 0.383091
vt 0.666538 0.896813
vt 0.666538 0.767922
vt 0.783828 0.463451
vt 0.783636 0.473652
vt 0.783538 0.578291
vt 0.518854 0.242350
vt 0.518854 0.017739
vt 0.518271 0.007497
vt 0.784332 0.456060
vt 0.868195 0.456060
vt 0.607368 0.234852
vt 0.607809 0.245094
vt 0.607368 0.010242
vt 0.783710 0.588570
vt 0.784201 0.596172
vt 0.518271 0.252591
vt 0.800954 0.393294
vt 0.800765 0.383091
vt 0.800671 0.278452
vt 0.885319 0.400687
vt 0.801450 0.400687
vt 0.800841 0.268174
vt 0.607809 0.000000
vt 0.801324 0.260574
vt 0.465139 0.925809
vt 0.460221 0.930657
vt 0.420669 0.930648
vt 0.422588 0.925799
vt 0.125280 0.749832
vt 0.125280 0.493134
vt 0.128919 0.497761
vt 0.128919 0.745204
vt 0.133278 0.501740
vt 0.133278 0.741225
vt 0.138215 0.504942
vt 0.138215 0.738023
vt 0.004883 0.002148
vt 0.012842 0.000000
vt 0.014473 0.004938
vt 0.006802 0.007042
vt 0.015727 0.009184
vt 0.008304 0.011250
vt 0.285146 0.622409
vt 0.285281 0.614905
vt 0.289749 0.613548
vt 0.289615 0.620852
vt 0.012842 0.286864
vt 0.004883 0.284716
vt 0.006802 0.279822
vt 0.014473 0.281926
vt 0.008304 0.275614
vt 0.015727 0.277680
vt 0.143671 0.740807
vt 0.143808 0.748312
vt 0.139343 0.746756
vt 0.139208 0.739452
vt 0.138164 0.284716
vt 0.130205 0.286864
vt 0.127796 0.281926
vt 0.135467 0.279822
vt 0.125575 0.277680
vt 0.132998 0.275614
vt 0.143808 0.622728
vt 0.143671 0.630175
vt 0.139208 0.631635
vt 0.139343 0.624388
vt 0.143047 0.279798
vt 0.140143 0.275003
vt 0.137497 0.270881
vt 0.130839 0.272228
vt 0.135195 0.267564
vt 0.145180 0.271781
vt 0.142135 0.267153
vt 0.139368 0.263174
vt 0.410209 0.504531
vt 0.409809 0.496825
vt 0.414029 0.500141
vt 0.414409 0.507733
vt 0.000000 0.279798
vt 0.002126 0.275003
vt 0.003804 0.270881
vt 0.134310 0.753664
vt 0.133581 0.748931
vt 0.138502 0.745615
vt 0.139208 0.750279
vt 0.125625 0.757848
vt 0.129242 0.753054
vt 0.130205 0.000000
vt 0.127796 0.004938
vt 0.125575 0.009184
vt 0.285281 0.504272
vt 0.289748 0.505731
vt 0.145179 0.015083
vt 0.142135 0.019711
vt 0.406748 0.747995
vt 0.406748 0.500552
vt 0.410209 0.744016
vt 0.414409 0.740814
vt 0.143047 0.007066
vt 0.140143 0.011861
vt 0.139368 0.023690
vt 0.137497 0.015983
vt 0.409809 0.751722
vt 0.414029 0.748405
vt 0.125625 0.485117
vt 0.129242 0.489911
vt 0.133581 0.494034
vt 0.138502 0.497351
vt 0.000000 0.007066
vt 0.002126 0.011861
vt 0.003804 0.015983
vt 0.134310 0.489301
vt 0.139208 0.492686
vt 0.138164 0.002148
vt 0.135466 0.007042
vt 0.132998 0.011250
vt 0.285146 0.496825
vt 0.289615 0.498484
vt 0.135195 0.019300
vt 0.130839 0.014636
vt 0.119398 0.749832
vt 0.119398 0.493134
vt 0.006285 0.032251
vt 0.006285 0.254613
vt 0.003209 0.259973
vt 0.003209 0.026891
vt 0.119744 0.757848
vt 0.008132 0.261557
vt 0.004982 0.267564
vt 0.008132 0.025307
vt 0.004982 0.019300
vt 0.119744 0.485117
vt 0.880587 0.587103
vt 0.880446 0.595148
vt 0.874500 0.595143
vt 0.874641 0.587098
vt 0.019256 0.019186
vt 0.012362 0.021046
vt 0.009338 0.014636
vt 0.016562 0.012600
vt 0.880125 0.600133
vt 0.874179 0.600128
vt 0.120921 0.019186
vt 0.123615 0.012600
vt 0.880587 0.468902
vt 0.874641 0.468897
vt 0.283247 0.404663
vt 0.283105 0.396617
vt 0.289050 0.396611
vt 0.289193 0.404658
vt 0.012362 0.265818
vt 0.019256 0.267678
vt 0.016562 0.274264
vt 0.009338 0.272228
vt 0.283105 0.278417
vt 0.289050 0.278411
vt 0.120921 0.267678
vt 0.123615 0.274264
vt 0.283574 0.409650
vt 0.289519 0.409644
vt 0.283247 0.270431
vt 0.289193 0.270426
vt 0.127815 0.265818
vt 0.283574 0.265583
vt 0.289519 0.265577
vt 0.132045 0.261557
vt 0.931938 0.260574
vt 0.932394 0.268591
vt 0.926572 0.268591
vt 0.926115 0.260574
vt 0.133892 0.254613
vt 0.136968 0.259973
vt 0.932394 0.525289
vt 0.926572 0.525289
vt 0.133892 0.032251
vt 0.136968 0.026891
vt 0.127815 0.021046
vt 0.880446 0.460916
vt 0.874500 0.460910
vt 0.931938 0.533305
vt 0.926115 0.533305
vt 0.132045 0.025307
vt 0.880125 0.456065
vt 0.874179 0.456060
vt 0.387720 0.883911
vt 0.382237 0.807144
vt 0.405359 0.807144
vt 0.399875 0.883911
vt 0.566953 0.338598
vt 0.566802 0.260574
vt 0.683655 0.260574
vt 0.683806 0.338598
vt 0.295232 0.884683
vt 0.289749 0.807144
vt 0.312871 0.807144
vt 0.307387 0.884683
vt 0.145180 0.579862
vt 0.145325 0.501828
vt 0.262179 0.501828
vt 0.262033 0.579862
vt 0.973243 0.116026
vt 0.973243 0.232051
vt 0.950121 0.232051
vt 0.950121 0.116026
vt 0.955514 0.492651
vt 0.955514 0.377439
vt 0.978636 0.377439
vt 0.978636 0.492652
vt 0.145184 0.658613
vt 0.262038 0.658613
vt 0.289749 0.962221
vt 0.312871 0.962221
vt 0.566949 0.417349
vt 0.683802 0.417349
vt 0.382237 0.960678
vt 0.405359 0.960678
vt 0.173785 0.888914
vt 0.168302 0.812147
vt 0.191424 0.812147
vt 0.185940 0.888914
vt 0.607960 0.078024
vt 0.607809 0.000000
vt 0.724663 0.000000
vt 0.724813 0.078024
vt 0.318354 0.884683
vt 0.335993 0.807144
vt 0.330509 0.884683
vt -0.000000 0.563151
vt 0.000146 0.485117
vt 0.117000 0.485117
vt 0.116854 0.563151
vt 0.969750 0.584374
vt 0.969750 0.700399
vt 0.946627 0.700399
vt 0.946627 0.584374
vt 0.951504 0.883134
vt 0.951504 0.767922
vt 0.974626 0.767922
vt 0.974626 0.883135
vt 0.000005 0.641903
vt 0.116859 0.641903
vt 0.335993 0.962221
vt 0.607956 0.156775
vt 0.724810 0.156775
vt 0.168302 0.965681
vt 0.191424 0.965681
vt 0.196907 0.888914
vt 0.191424 0.812147
vt 0.214546 0.812147
vt 0.209062 0.888914
vt 0.549685 0.690869
vt 0.549534 0.612846
vt 0.666388 0.612846
vt 0.666538 0.690869
vt 0.341476 0.884683
vt 0.359115 0.807144
vt 0.353631 0.884683
vt 0.549534 0.534094
vt 0.549680 0.456060
vt 0.666534 0.456060
vt 0.666388 0.534094
vt 0.973243 0.000000
vt 0.973243 0.116026
vt 0.950121 0.116026
vt 0.950121 0.000000
vt 0.969750 0.699586
vt 0.969750 0.584374
vt 0.992872 0.584374
vt 0.992872 0.699586
vt 0.549539 0.612846
vt 0.666393 0.612846
vt 0.359115 0.962221
vt 0.549681 0.769621
vt 0.666535 0.769621
vt 0.214546 0.965681
vt 0.150663 0.888914
vt 0.145180 0.812147
vt 0.168302 0.812147
vt 0.162818 0.888914
vt 0.666685 0.534084
vt 0.666534 0.456060
vt 0.783387 0.456060
vt 0.783538 0.534084
vt 0.364598 0.884683
vt 0.359115 0.807144
vt 0.382237 0.807144
vt 0.376753 0.884683
vt 0.289749 0.574859
vt 0.289894 0.496825
vt 0.406748 0.496824
vt 0.406602 0.574859
vt 0.237668 0.812147
vt 0.237668 0.928173
vt 0.214546 0.928173
vt 0.214546 0.812147
vt 0.973243 0.232077
vt 0.973243 0.116865
vt 0.996365 0.116865
vt 0.996365 0.232078
vt 0.289753 0.653610
vt 0.406607 0.653610
vt 0.359115 0.962221
vt 0.382237 0.962221
vt 0.666681 0.612835
vt 0.783534 0.612835
vt 0.145180 0.965681
vt 0.928990 0.662782
vt 0.923508 0.584394
vt 0.946628 0.584374
vt 0.941145 0.662772
vt 0.289749 0.729212
vt 0.289749 0.653610
vt 0.406613 0.653610
vt 0.406613 0.729212
vt 0.057553 0.875372
vt 0.052071 0.796979
vt 0.075190 0.797001
vt 0.069708 0.875383
vt 0.666538 0.691266
vt 0.666538 0.612846
vt 0.783403 0.612846
vt 0.783403 0.691266
vt 0.887590 0.141949
vt 0.887590 0.258814
vt 0.864634 0.258814
vt 0.864634 0.141949
vt 0.955514 0.377439
vt 0.955514 0.260574
vt 0.978309 0.260574
vt 0.978309 0.377439
vt 0.666538 0.767922
vt 0.783403 0.767922
vt 0.052071 0.953755
vt 0.075190 0.953776
vt 0.406613 0.807144
vt 0.923508 0.741180
vt 0.946628 0.741159
vt 0.932483 0.078409
vt 0.927001 0.000021
vt 0.950121 0.000000
vt 0.944638 0.078398
vt 0.145180 0.734215
vt 0.145180 0.658613
vt 0.262044 0.658613
vt 0.262044 0.734215
vt 0.937877 0.495764
vt 0.932394 0.417371
vt 0.955514 0.417393
vt 0.950031 0.495775
vt 0.417542 0.709830
vt 0.417542 0.631409
vt 0.534406 0.631409
vt 0.534406 0.709830
vt 0.910546 0.141949
vt 0.910546 0.258814
vt 0.974626 0.884787
vt 0.974626 0.767922
vt 0.997421 0.767922
vt 0.997421 0.884787
vt 0.417542 0.786486
vt 0.534406 0.786486
vt 0.932394 0.574147
vt 0.955514 0.574168
vt 0.145180 0.812147
vt 0.262044 0.812147
vt 0.927001 0.156807
vt 0.950121 0.156786
vt 0.933867 0.846331
vt 0.928384 0.767943
vt 0.951504 0.767922
vt 0.946021 0.846320
vt 0.783403 0.688448
vt 0.783403 0.612846
vt 0.900268 0.612846
vt 0.900268 0.688448
vt 0.080673 0.875372
vt 0.075190 0.796979
vt 0.098310 0.797001
vt 0.092827 0.875383
vt 0.000000 0.720323
vt 0.000000 0.641903
vt 0.116865 0.641903
vt 0.116865 0.720323
vt 0.260624 0.812147
vt 0.260624 0.929012
vt 0.237668 0.929012
vt 0.237668 0.812147
vt 0.973243 0.116865
vt 0.973243 0.000000
vt 0.996038 -0.000000
vt 0.996038 0.116865
vt 0.000000 0.796979
vt 0.116865 0.796979
vt 0.075190 0.953755
vt 0.098310 0.953776
vt 0.783403 0.766380
vt 0.900268 0.766380
vt 0.928384 0.924729
vt 0.951504 0.924708
vt 0.034434 0.875388
vt 0.028951 0.797000
vt 0.052071 0.796979
vt 0.046588 0.875377
vt 0.724813 0.075602
vt 0.724813 0.000000
vt 0.841678 0.000000
vt 0.841678 0.075602
vt 0.937877 0.338967
vt 0.932394 0.260574
vt 0.955514 0.260596
vt 0.950031 0.338978
vt 0.683806 0.338994
vt 0.683806 0.260574
vt 0.800671 0.260574
vt 0.800671 0.338994
vt 0.864634 0.141949
vt 0.864634 0.258814
vt 0.841678 0.258814
vt 0.841678 0.141949
vt 0.951504 1.000000
vt 0.951504 0.883135
vt 0.974299 0.883135
vt 0.974299 1.000000
vt 0.683806 0.415651
vt 0.800671 0.415651
vt 0.932394 0.417349
vt 0.955514 0.417371
vt 0.724813 0.153534
vt 0.841678 0.153534
vt 0.028951 0.953786
vt 0.052071 0.953765
vt 0.883724 0.770048
vt 0.891740 0.767931
vt 0.928384 0.767922
vt 0.925256 0.770040
vt 0.876657 0.899341
vt 0.876657 0.782800
vt 0.922499 0.782792
vt 0.922499 0.899332
vt 0.883724 0.912093
vt 0.878805 0.907244
vt 0.923337 0.907235
vt 0.925256 0.912084
vt 0.465139 0.793462
vt 0.467287 0.801365
vt 0.423427 0.801356
vt 0.422588 0.793452
vt 0.891740 0.914210
vt 0.928384 0.914202
vt 0.119346 0.713188
vt 0.119346 0.527796
vt 0.460221 0.788613
vt 0.420669 0.788604
vt 0.467287 0.917905
vt 0.423427 0.917896
vt 0.926519 0.490626
vt 0.926519 0.305234
vt 0.452204 0.786495
vt 0.417542 0.786486
vt 0.878805 0.774897
vt 0.923337 0.774889
vt 0.452204 0.932775
vt 0.417542 0.932766
vt 0.562602 0.450125
vt 0.562602 0.266509
vt 0.566802 0.265621
vt 0.566802 0.451013
vt 0.526769 0.923339
vt 0.525485 0.915964
vt 0.528638 0.916589
vt 0.530032 0.924669
vt 0.479152 0.915959
vt 0.477871 0.923334
vt 0.474607 0.924665
vt 0.475996 0.916584
vt 0.501531 0.792574
vt 0.500146 0.799930
vt 0.497133 0.799715
vt 0.498612 0.791828
vt 0.502294 0.788913
vt 0.499614 0.787007
vt 0.420046 0.450125
vt 0.421192 0.451795
vt 0.419690 0.454141
vt 0.417542 0.451013
vt 0.557719 0.453254
vt 0.561456 0.451795
vt 0.564580 0.454141
vt 0.559506 0.456060
vt 0.504444 0.799944
vt 0.507454 0.799729
vt 0.891307 0.489738
vt 0.891307 0.306122
vt 0.894152 0.305234
vt 0.894152 0.490626
vt 0.421192 0.264839
vt 0.420046 0.266509
vt 0.417542 0.265621
vt 0.419690 0.262493
vt 0.561456 0.264839
vt 0.564580 0.262493
vt 0.557719 0.263380
vt 0.559506 0.260574
vt 0.503057 0.792588
vt 0.505972 0.791842
vt 0.502294 0.788927
vt 0.504970 0.787021
vt 0.117057 0.713188
vt 0.117057 0.527796
vt 0.550240 0.262598
vt 0.550240 0.454036
vt 0.432408 0.454036
vt 0.424928 0.453253
vt 0.424928 0.263380
vt 0.432408 0.262597
vt 0.119691 0.716316
vt 0.117000 0.716316
vt 0.119691 0.524668
vt 0.117000 0.524668
vt 0.534119 0.917544
vt 0.533858 0.925568
vt 0.533606 0.930507
vt 0.530784 0.929692
vt 0.537149 0.799382
vt 0.470781 0.925565
vt 0.470516 0.917541
vt 0.467440 0.799381
vt 0.471037 0.930505
vt 0.473858 0.929688
vt 0.467287 0.791378
vt 0.467287 0.786486
vt 0.926063 0.302106
vt 0.894132 0.302106
vt 0.537299 0.791379
vt 0.926063 0.493754
vt 0.894132 0.493754
vt 0.537299 0.786486
vt 0.140329 0.386011
vt 0.140437 0.401470
vt 0.135141 0.404609
vt 0.135333 0.386011
vt -0.000000 0.386016
vt 0.000115 0.370512
vt 0.005946 0.367373
vt 0.006131 0.386016
vt 0.010597 0.485117
vt 0.004871 0.482776
vt 0.007797 0.478968
vt 0.002360 0.477125
vt 0.002360 0.294861
vt 0.004871 0.289210
vt 0.007797 0.293018
vt 0.010596 0.286869
vt 0.142689 0.477119
vt 0.140514 0.482771
vt 0.137688 0.478963
vt 0.134928 0.485112
vt 0.134927 0.286864
vt 0.140514 0.289205
vt 0.137688 0.293013
vt 0.142689 0.294856
vt 0.139208 0.617006
vt 0.143880 0.617011
vt 0.144136 0.622728
vt 0.139465 0.622724
vt 0.262179 0.502642
vt 0.266735 0.501828
vt 0.268132 0.507479
vt 0.263575 0.508294
vt 0.279170 0.886572
vt 0.283762 0.885755
vt 0.284459 0.891406
vt 0.279867 0.892224
vt 0.284459 0.697030
vt 0.289132 0.697026
vt 0.289386 0.702784
vt 0.284714 0.702789
vt 0.263579 0.690557
vt 0.268134 0.691375
vt 0.266735 0.697026
vt 0.262179 0.696208
vt 0.289132 0.834633
vt 0.284459 0.834637
vt 0.284714 0.828919
vt 0.289386 0.828915
vt 0.143880 0.490880
vt 0.139208 0.490875
vt 0.139465 0.485117
vt 0.144136 0.485121
vt 0.279867 0.697026
vt 0.284459 0.697840
vt 0.283765 0.703492
vt 0.279172 0.702677
vt 0.265617 0.809246
vt 0.265128 0.809126
vt 0.267572 0.808002
vt 0.265120 0.780175
vt 0.265662 0.780011
vt 0.267618 0.781254
vt 0.282065 0.613928
vt 0.281579 0.614048
vt 0.279640 0.612804
vt 0.281535 0.584813
vt 0.282072 0.584978
vt 0.279595 0.586056
vt 0.143707 0.286865
vt 0.143707 0.429227
vt 0.143223 0.429225
vt 0.143223 0.286864
vt 0.142689 0.429227
vt 0.142689 0.286866
vt 0.143223 0.286864
vt 0.143223 0.429225
vt 0.652419 0.244622
vt 0.652419 0.250348
vt 0.644216 0.250348
vt 0.644216 0.244622
vt 0.567900 0.245094
vt 0.571174 0.245119
vt 0.571174 0.253441
vt 0.567901 0.253416
vt 0.270504 0.810109
vt 0.868665 0.770869
vt 0.874317 0.773405
vt 0.876657 0.779097
vt 0.876657 0.902252
vt 0.874317 0.907766
vt 0.868665 0.909871
vt 0.791335 0.906925
vt 0.791335 0.767922
vt 0.270548 0.779145
vt 0.849670 0.141949
vt 0.844019 0.139843
vt 0.841678 0.134330
vt 0.841678 0.011175
vt 0.844019 0.005483
vt 0.849670 0.002947
vt 0.927001 0.000000
vt 0.927001 0.139003
vt 0.652419 0.239180
vt 0.644216 0.239180
vt 0.644716 0.230288
vt 0.652919 0.230288
vt 0.276731 0.614911
vt 0.276688 0.583947
vt 0.693187 0.156826
vt 0.696979 0.156775
vt 0.697254 0.182532
vt 0.693462 0.182582
vt 0.286949 0.418590
vt 0.283105 0.417928
vt 0.283547 0.409650
vt 0.287392 0.410312
vt 0.287392 0.452611
vt 0.283547 0.453273
vt 0.283105 0.444995
vt 0.286949 0.444333
vt 0.693187 0.190728
vt 0.689395 0.190677
vt 0.689117 0.182532
vt 0.692909 0.182583
vt 0.287392 0.444333
vt 0.283547 0.443671
vt 0.689395 0.156775
vt 0.693187 0.156826
vt 0.286949 0.478354
vt 0.283105 0.479016
vt 0.696979 0.190677
vt 0.693187 0.190727
vt 0.620205 0.233511
vt 0.623790 0.233099
vt 0.624289 0.243702
vt 0.620704 0.244113
vt 0.623790 0.252761
vt 0.620205 0.253172
vt 0.281092 0.481662
vt 0.284991 0.482148
vt 0.284738 0.491198
vt 0.280840 0.490712
vt 0.284991 0.501828
vt 0.281092 0.501342
vt 0.676965 0.442729
vt 0.673869 0.450780
vt 0.665918 0.454114
vt 0.640539 0.454114
vt 0.640299 0.446038
vt 0.650612 0.442935
vt 0.659172 0.436506
vt 0.665341 0.427755
vt 0.668134 0.417349
vt 0.676211 0.417349
vt 0.541210 0.253305
vt 0.537602 0.253291
vt 0.537602 0.245094
vt 0.541210 0.245108
vt 0.522716 0.254008
vt 0.518854 0.253290
vt 0.518854 0.245094
vt 0.522716 0.245812
vt 0.677932 0.454097
vt 0.676965 0.428730
vt 0.679963 0.420683
vt 0.687814 0.417349
vt 0.712965 0.417349
vt 0.713272 0.425422
vt 0.703079 0.428524
vt 0.694652 0.434950
vt 0.688614 0.443696
vt 0.685935 0.454097
vt 0.624786 0.233099
vt 0.628372 0.233509
vt 0.627876 0.244112
vt 0.624289 0.243702
vt 0.628372 0.253169
vt 0.624786 0.252759
vt 0.607809 0.233585
vt 0.611708 0.233099
vt 0.611960 0.242149
vt 0.608062 0.242635
vt 0.611708 0.252779
vt 0.607809 0.253265
vt 0.655066 0.230288
vt 0.647214 0.226955
vt 0.644216 0.218908
vt 0.645183 0.193540
vt 0.653187 0.193540
vt 0.655865 0.203941
vt 0.661903 0.212688
vt 0.670330 0.219114
vt 0.680524 0.222215
vt 0.680216 0.230288
vt 0.537602 0.253291
vt 0.533992 0.253305
vt 0.533992 0.245108
vt 0.537602 0.245094
vt 0.288853 0.489858
vt 0.284991 0.490576
vt 0.284991 0.482380
vt 0.288853 0.481662
vt 0.680642 0.193540
vt 0.655263 0.193540
vt 0.647312 0.190205
vt 0.644216 0.182155
vt 0.644971 0.156775
vt 0.653047 0.156775
vt 0.655841 0.167181
vt 0.662009 0.175932
vt 0.670569 0.182361
vt 0.680882 0.185463
vt 0.289312 0.656262
vt 0.285459 0.657027
vt 0.285146 0.631276
vt 0.289000 0.630511
vt 0.289214 0.665261
vt 0.285421 0.665231
vt 0.285146 0.657027
vt 0.288939 0.657058
vt 0.688840 0.164979
vt 0.685048 0.165010
vt 0.685325 0.156806
vt 0.689117 0.156775
vt 0.680882 0.156775
vt 0.684735 0.157540
vt 0.685048 0.165642
vt 0.681195 0.164877
vt 0.288939 0.691018
vt 0.285146 0.690987
vt 0.684735 0.191393
vt 0.680882 0.190629
vt 0.689117 0.190736
vt 0.685326 0.190767
vt 0.285459 0.623174
vt 0.289312 0.622409
vt 0.620205 0.252316
vt 0.616451 0.253375
vt 0.616083 0.242905
vt 0.619838 0.241846
vt 0.616451 0.234158
vt 0.620205 0.233099
vt 0.628372 0.233099
vt 0.631953 0.233542
vt 0.632456 0.242492
vt 0.628875 0.242049
vt 0.631953 0.253041
vt 0.628372 0.252598
vt 0.592170 0.418103
vt 0.600217 0.421678
vt 0.603551 0.429832
vt 0.603551 0.455222
vt 0.595477 0.454982
vt 0.592376 0.444480
vt 0.585950 0.435534
vt 0.577203 0.428843
vt 0.566802 0.425430
vt 0.566802 0.417349
vt 0.526549 0.245822
vt 0.530382 0.245094
vt 0.530382 0.253288
vt 0.526549 0.254016
vt 0.544818 0.253305
vt 0.541210 0.253291
vt 0.541210 0.245094
vt 0.544818 0.245108
vt 0.644216 0.233099
vt 0.619084 0.232142
vt 0.611112 0.228502
vt 0.607809 0.220323
vt 0.607809 0.194937
vt 0.615807 0.195242
vt 0.618880 0.205768
vt 0.625246 0.214763
vt 0.633912 0.221524
vt 0.644216 0.225020
vt 0.615715 0.253375
vt 0.611960 0.252316
vt 0.612328 0.241846
vt 0.611960 0.233099
vt 0.615715 0.234158
vt 0.632957 0.233540
vt 0.636540 0.233099
vt 0.636039 0.242048
vt 0.632456 0.242489
vt 0.636540 0.252597
vt 0.632957 0.253038
vt 0.644216 0.182161
vt 0.640914 0.190340
vt 0.632942 0.193980
vt 0.607809 0.194937
vt 0.607809 0.186858
vt 0.618114 0.183362
vt 0.626779 0.176601
vt 0.633146 0.167606
vt 0.636218 0.157080
vt 0.644216 0.156775
vt 0.522716 0.245094
vt 0.526549 0.245822
vt 0.526549 0.254016
vt 0.522716 0.253288
vt 0.533992 0.253291
vt 0.530382 0.253305
vt 0.530382 0.245108
vt 0.533992 0.245094
vt 0.603551 0.455223
vt 0.603551 0.429832
vt 0.606884 0.421679
vt 0.614931 0.418103
vt 0.640299 0.417349
vt 0.640299 0.425430
vt 0.629898 0.428843
vt 0.621151 0.435535
vt 0.614725 0.444480
vt 0.611624 0.454983
vt 0.564627 0.253416
vt 0.561350 0.253441
vt 0.561350 0.245119
vt 0.564627 0.245094
vt 0.014475 0.935982
vt 0.014475 0.796979
vt 0.020059 0.796979
vt 0.020059 0.935982
vt 0.008892 0.935982
vt 0.000000 0.936623
vt 0.000000 0.797620
vt 0.008892 0.796979
vt 0.262182 0.800235
vt 0.262181 0.794652
vt 0.269871 0.794649
vt 0.028951 0.936623
vt 0.028951 0.797620
vt 0.284991 0.593870
vt 0.284989 0.599454
vt 0.277360 0.599452
vt 0.652919 0.259239
vt 0.644716 0.259239
vt 0.273186 0.449261
vt 0.281805 0.449260
vt 0.281805 0.455335
vt 0.273186 0.455335
vt 0.280420 0.468031
vt 0.271800 0.468031
vt 0.272506 0.464767
vt 0.281125 0.464767
vt 0.273186 0.443488
vt 0.272506 0.434056
vt 0.281125 0.434056
vt 0.281805 0.443488
vt 0.271800 0.430792
vt 0.280420 0.430792
vt 0.554760 0.253662
vt 0.554760 0.245340
vt 0.558073 0.245094
vt 0.558073 0.253922
vt 0.693132 0.226635
vt 0.696076 0.217743
vt 0.699634 0.218083
vt 0.696512 0.227515
vt 0.709189 0.229712
vt 0.712219 0.226635
vt 0.715646 0.227515
vt 0.712433 0.230779
vt 0.690079 0.229712
vt 0.693273 0.230779
vt 0.696076 0.212302
vt 0.696076 0.206576
vt 0.699634 0.206236
vt 0.699634 0.212310
vt 0.693132 0.197684
vt 0.696512 0.196804
vt 0.712219 0.197684
vt 0.709189 0.194607
vt 0.712433 0.193540
vt 0.715646 0.196804
vt 0.551446 0.245340
vt 0.551446 0.253662
vt 0.548132 0.253922
vt 0.548132 0.245094
vt 0.715139 0.212017
vt 0.715139 0.206576
vt 0.718744 0.206237
vt 0.718744 0.212009
vt 0.715139 0.217743
vt 0.718744 0.218083
vt 0.690079 0.194607
vt 0.693273 0.193540
vt 0.280003 0.482506
vt 0.280003 0.488090
vt 0.271800 0.488090
vt 0.271800 0.482506
vt 0.564627 0.245094
vt 0.567900 0.245119
vt 0.567900 0.253441
vt 0.564627 0.253416
vt 0.280003 0.476923
vt 0.271800 0.476923
vt 0.272300 0.468031
vt 0.280503 0.468031
vt 0.561350 0.253416
vt 0.558073 0.253441
vt 0.558073 0.245119
vt 0.561350 0.245094
vt 0.280503 0.496982
vt 0.272300 0.496981
vt 0.273186 0.412173
vt 0.281805 0.412172
vt 0.281805 0.418096
vt 0.273186 0.418096
vt 0.280420 0.430792
vt 0.271800 0.430792
vt 0.272506 0.427528
vt 0.281125 0.427528
vt 0.273186 0.406249
vt 0.272506 0.396817
vt 0.281125 0.396817
vt 0.281805 0.406249
vt 0.271800 0.393553
vt 0.280420 0.393553
vt 0.554760 0.245094
vt 0.554760 0.253922
vt 0.687026 0.197684
vt 0.684082 0.206576
vt 0.680524 0.206236
vt 0.683646 0.196804
vt 0.699634 0.229712
vt 0.702664 0.226635
vt 0.706091 0.227515
vt 0.702878 0.230779
vt 0.690079 0.194607
vt 0.686885 0.193540
vt 0.684082 0.212160
vt 0.684082 0.217743
vt 0.680524 0.218083
vt 0.680524 0.212160
vt 0.687026 0.226635
vt 0.683646 0.227515
vt 0.702664 0.197684
vt 0.699634 0.194607
vt 0.702878 0.193540
vt 0.706091 0.196804
vt 0.548132 0.245340
vt 0.548132 0.253661
vt 0.544818 0.253922
vt 0.544818 0.245094
vt 0.705584 0.212160
vt 0.705584 0.206576
vt 0.709189 0.206237
vt 0.709189 0.212160
vt 0.705584 0.217743
vt 0.709189 0.218083
vt 0.690079 0.229712
vt 0.686885 0.230779
vt 0.000108 0.401476
vt 0.005939 0.404615
vt 0.140444 0.370507
vt 0.135148 0.367368
vt 0.284988 0.605037
vt 0.262179 0.789068
vt 0.900268 0.694001
vt 0.901398 0.675402
vt 0.906629 0.675401
vt 0.911015 0.693998
vt 0.140481 0.830234
vt 0.139400 0.848877
vt 0.134211 0.848876
vt 0.129819 0.830231
vt 0.140522 0.867476
vt 0.129860 0.867473
vt 0.900309 0.656760
vt 0.911056 0.656756
vt 0.007982 0.473216
vt 0.009638 0.476996
vt 0.007798 0.478966
vt 0.013410 0.478562
vt 0.013410 0.293424
vt 0.009638 0.294990
vt 0.007798 0.293020
vt 0.007982 0.298770
vt 0.132073 0.478557
vt 0.135752 0.476991
vt 0.137687 0.478961
vt 0.137183 0.473211
vt 0.137184 0.298765
vt 0.135752 0.294985
vt 0.137687 0.293014
vt 0.132073 0.293419
vt 0.271970 0.389787
vt 0.283105 0.389751
vt 0.282929 0.393518
vt 0.271800 0.393553
vt 0.127660 0.939854
vt 0.117000 0.935040
vt 0.117931 0.931460
vt 0.128592 0.936075
vt 0.545536 0.635239
vt 0.534406 0.635202
vt 0.534584 0.631409
vt 0.545708 0.631445
vt 0.912759 0.584374
vt 0.923508 0.589182
vt 0.923041 0.592762
vt 0.912292 0.588154
vt 0.534406 0.755583
vt 0.545536 0.755620
vt 0.545708 0.759386
vt 0.534584 0.759350
vt 0.117000 0.762656
vt 0.127663 0.757848
vt 0.128592 0.761629
vt 0.117929 0.766237
vt 0.912293 0.762600
vt 0.923038 0.757985
vt 0.923508 0.761565
vt 0.912762 0.766380
vt 0.271800 0.265612
vt 0.282929 0.265577
vt 0.283105 0.269370
vt 0.271970 0.269406
vt 0.906280 0.728300
vt 0.919742 0.725991
vt 0.006961 0.438915
vt 0.906338 0.622243
vt 0.919801 0.624559
vt 0.006971 0.332858
vt 0.136162 0.438910
vt 0.134557 0.901775
vt 0.121201 0.899466
vt 0.134537 0.795932
vt 0.121180 0.798233
vt 0.136166 0.333066
vt 0.425761 0.456060
vt 0.544424 0.456060
vt 0.548103 0.457543
vt 0.549534 0.461123
vt 0.548976 0.493119
vt 0.419781 0.492919
vt 0.420333 0.461123
vt 0.421988 0.457543
vt 0.417542 0.543758
vt 0.418294 0.525115
vt 0.547496 0.525115
vt 0.546743 0.543758
vt 0.547487 0.562356
vt 0.418286 0.562356
vt 0.544416 0.631409
vt 0.425754 0.631409
vt 0.421981 0.629926
vt 0.420325 0.626346
vt 0.419767 0.594351
vt 0.548968 0.594351
vt 0.549527 0.626346
vt 0.548096 0.629926
s 0
usemtl 
f 66/1/1 60/2/1 5/3/1 6/4/1
f 33/5/2 39/6/2 30/7/2 29/8/2
f 36/9/3 57/10/3 7/11/3 32/12/3
f 45/13/4 51/14/4 24/15/4 23/16/4
f 51/17/5 54/18/5 22/19/5 24/20/5
f 78/21/6 72/22/6 13/23/6 14/24/6
f 60/2/7 69/25/7 15/26/7 5/3/7
f 48/27/8 33/5/8 29/8/8 21/28/8
f 42/29/9 36/9/9 32/12/9 31/30/9
f 54/18/10 48/27/10 21/28/10 22/19/10
f 57/10/11 63/31/11 8/32/11 7/11/11
f 63/33/12 66/1/12 6/4/12 8/34/12
f 9/35/13 11/36/13 12/37/13 10/38/13 25/39/13 27/40/13 28/41/13 26/42/13 17/43/13 19/44/13 20/45/13 18/46/13 1/47/13 3/48/13 4/49/13 2/50/13
f 69/25/14 75/51/14 16/52/14 15/26/14
f 75/51/15 78/53/15 14/54/15 16/52/15
f 72/22/16 45/13/16 23/16/16 13/23/16
f 36/55/17 42/56/17 44/57/17 38/58/17
f 38/59/18 44/60/18 43/61/18 37/62/18
f 42/56/19 39/63/19 41/64/19 44/57/19
f 44/60/20 41/65/20 40/66/20 43/61/20
f 39/63/21 33/67/21 35/68/21 41/64/21
f 41/69/22 35/70/22 34/71/22 40/72/22
f 51/73/23 45/74/23 47/75/23 53/76/23
f 53/77/24 47/78/24 46/79/24 52/80/24
f 54/81/25 51/73/25 53/76/25 56/82/25
f 56/83/26 53/84/26 52/85/26 55/86/26
f 48/87/27 54/81/27 56/82/27 50/88/27
f 50/89/28 56/83/28 55/86/28 49/90/28
f 75/91/29 69/92/29 71/93/29 77/94/29
f 77/95/30 71/96/30 70/97/30 76/98/30
f 78/99/31 75/91/31 77/94/31 80/100/31
f 80/101/32 77/95/32 76/98/32 79/102/32
f 72/103/33 78/99/33 80/100/33 74/104/33
f 74/105/34 80/106/34 79/107/34 73/108/34
f 63/109/35 57/110/35 59/111/35 65/112/35
f 65/113/36 59/114/36 58/115/36 64/116/36
f 66/117/37 63/109/37 65/112/37 68/118/37
f 68/119/38 65/113/38 64/116/38 67/120/38
f 60/121/39 66/117/39 68/118/39 62/122/39
f 62/123/40 68/124/40 67/125/40 61/126/40
f 33/67/41 48/87/41 50/88/41 35/68/41
f 35/70/42 50/89/42 49/90/42 34/71/42
f 57/110/43 36/55/43 38/58/43 59/111/43
f 59/114/44 38/59/44 37/62/44 58/115/44
f 61/126/45 70/97/45 71/96/45 62/123/45
f 62/122/46 71/93/46 69/92/46 60/121/46
f 73/108/47 46/79/47 47/78/47 74/105/47
f 74/104/48 47/75/48 45/74/48 72/103/48
f 39/6/49 42/127/49 31/128/49 30/7/49
f 4/129/2 40/72/2 34/71/2 2/130/2
f 2/130/8 34/71/8 49/90/8 9/131/8
f 18/132/3 58/115/3 37/62/3 1/133/3
f 1/133/9 37/62/9 43/61/9 3/134/9
f 3/135/49 43/136/49 40/72/49 4/129/49
f 46/79/4 10/137/4 12/138/4 52/80/4
f 10/137/16 46/79/16 73/108/16 25/139/16
f 55/86/10 11/140/10 9/131/10 49/90/10
f 52/85/5 12/141/5 11/140/5 55/86/5
f 58/115/11 18/132/11 20/142/11 64/116/11
f 67/125/1 19/143/1 17/144/1 61/126/1
f 26/145/7 70/97/7 61/126/7 17/144/7
f 64/146/12 20/147/12 19/143/12 67/125/12
f 70/97/14 26/145/14 28/148/14 76/98/14
f 79/107/6 27/149/6 25/139/6 73/108/6
f 76/98/15 28/148/15 27/150/15 79/102/15
f 83/151/50 95/152/50 271/153/50 259/154/50
f 98/155/51 101/156/51 103/157/51 100/158/51
f 100/158/52 103/157/52 104/159/52 99/160/52
f 99/160/53 104/159/53 102/161/53 97/162/53
f 106/163/54 109/164/54 111/165/54 108/166/54
f 108/166/55 111/165/55 112/167/55 107/168/55
f 107/169/56 112/170/56 110/171/56 105/172/56
f 114/173/57 117/174/57 119/175/57 116/176/57
f 116/176/58 119/175/58 120/177/58 115/178/58
f 115/179/59 120/180/59 118/181/59 113/182/59
f 122/183/60 125/184/60 127/185/60 124/186/60
f 124/186/61 127/185/61 128/187/61 123/188/61
f 123/189/62 128/190/62 126/191/62 121/192/62
f 130/193/63 122/183/63 124/186/63 132/194/63
f 132/194/64 124/186/64 123/188/64 131/195/64
f 131/195/65 123/188/65 121/196/65 129/197/65
f 134/198/66 130/193/66 132/194/66 136/199/66
f 136/199/67 132/194/67 131/195/67 135/200/67
f 135/201/68 131/202/68 129/203/68 133/204/68
f 117/174/69 137/205/69 139/206/69 119/175/69
f 119/175/70 139/206/70 140/207/70 120/177/70
f 120/208/71 140/209/71 138/210/71 118/211/71
f 137/212/72 98/155/72 100/158/72 139/213/72
f 139/213/73 100/158/73 99/160/73 140/209/73
f 140/209/74 99/160/74 97/162/74 138/210/74
f 109/164/75 141/214/75 143/215/75 111/165/75
f 111/165/76 143/215/76 144/216/76 112/167/76
f 112/170/77 144/217/77 142/218/77 110/171/77
f 146/219/78 134/198/78 136/199/78 148/220/78
f 148/221/79 136/222/79 135/201/79 147/223/79
f 147/223/80 135/201/80 133/204/80 145/224/80
f 150/225/81 146/219/81 148/220/81 152/226/81
f 152/226/82 148/220/82 147/227/82 151/228/82
f 151/229/83 147/223/83 145/224/83 149/230/83
f 101/156/84 153/231/84 155/232/84 103/157/84
f 103/157/85 155/232/85 156/233/85 104/159/85
f 104/159/86 156/233/86 154/234/86 102/161/86
f 153/235/87 106/163/87 108/166/87 155/236/87
f 155/236/88 108/166/88 107/168/88 156/237/88
f 156/233/89 107/238/89 105/239/89 154/234/89
f 125/184/90 114/173/90 116/176/90 127/185/90
f 127/185/91 116/176/91 115/178/91 128/187/91
f 128/190/92 115/179/92 113/182/92 126/191/92
f 141/214/93 157/240/93 159/241/93 143/215/93
f 143/215/94 159/241/94 160/242/94 144/216/94
f 144/217/95 160/243/95 158/244/95 142/218/95
f 157/240/96 150/225/96 152/226/96 159/241/96
f 159/241/97 152/226/97 151/228/97 160/242/97
f 160/242/98 151/228/98 149/245/98 158/246/98
f 101/156/16 98/155/16 81/247/16 82/248/16
f 13/249/13 23/250/13 97/251/13 102/252/13
f 98/155/4 137/212/4 91/253/4 81/247/4
f 23/250/13 24/254/13 138/255/13 97/251/13
f 14/256/13 13/249/13 102/252/13 154/257/13
f 153/231/6 101/156/6 82/248/6 95/258/6
f 109/259/14 106/260/14 83/261/14 84/262/14
f 15/263/13 16/264/13 105/265/13 110/266/13
f 106/260/15 153/267/15 95/268/15 83/261/15
f 16/264/13 14/256/13 154/257/13 105/265/13
f 5/269/13 15/263/13 110/266/13 142/270/13
f 141/271/7 109/259/7 84/262/7 92/272/7
f 117/273/10 114/274/10 85/275/10 86/276/10
f 22/277/13 21/278/13 113/279/13 118/280/13
f 114/274/8 125/281/8 88/282/8 85/275/8
f 21/278/13 29/283/13 126/284/13 113/279/13
f 24/254/13 22/277/13 118/280/13 138/255/13
f 137/285/5 117/273/5 86/276/5 91/286/5
f 125/281/2 122/287/2 87/288/2 88/282/2
f 29/283/13 30/289/13 121/196/13 126/284/13
f 122/287/49 130/290/49 89/291/49 87/288/49
f 30/289/13 31/292/13 129/197/13 121/196/13
f 130/293/9 134/294/9 90/295/9 89/296/9
f 31/292/13 32/297/13 133/298/13 129/197/13
f 134/294/3 146/299/3 93/300/3 90/295/3
f 32/297/13 7/301/13 145/302/13 133/298/13
f 6/303/13 5/269/13 142/270/13 158/246/13
f 157/304/1 141/271/1 92/272/1 96/305/1
f 146/299/11 150/306/11 94/307/11 93/300/11
f 7/301/13 8/308/13 149/245/13 145/302/13
f 150/309/12 157/304/12 96/305/12 94/310/12
f 8/308/13 6/303/13 158/246/13 149/245/13
f 169/311/3 162/312/3 164/313/3 170/314/3
f 170/315/99 164/316/99 168/317/99 171/318/99
f 171/319/16 168/320/16 166/321/16 172/322/16
f 172/323/100 166/324/100 162/325/100 169/326/100
f 163/327/13 167/328/13 165/329/13 161/330/13
f 168/331/101 164/332/101 162/333/101 166/334/101
f 165/335/102 172/323/102 169/326/102 161/336/102
f 167/337/16 171/319/16 172/322/16 165/338/16
f 163/339/103 170/315/103 171/318/103 167/340/103
f 161/341/3 169/311/3 170/314/3 163/342/3
f 181/343/3 174/344/3 176/345/3 182/346/3
f 182/347/99 176/348/99 180/349/99 183/350/99
f 183/351/16 180/321/16 178/352/16 184/353/16
f 184/354/100 178/355/100 174/356/100 181/357/100
f 175/358/13 179/359/13 177/360/13 173/361/13
f 180/362/101 176/363/101 174/364/101 178/365/101
f 177/366/102 184/354/102 181/357/102 173/367/102
f 179/338/16 183/351/16 184/353/16 177/368/16
f 175/369/103 182/347/103 183/350/103 179/370/103
f 173/371/3 181/343/3 182/346/3 175/372/3
f 193/373/3 186/374/3 188/375/3 194/376/3
f 194/377/99 188/378/99 192/379/99 195/380/99
f 195/381/16 192/352/16 190/382/16 196/383/16
f 196/384/100 190/385/100 186/386/100 193/387/100
f 187/388/13 191/389/13 189/390/13 185/391/13
f 192/392/101 188/393/101 186/394/101 190/395/101
f 189/396/102 196/384/102 193/387/102 185/397/102
f 191/368/16 195/381/16 196/383/16 189/398/16
f 187/399/103 194/377/103 195/380/103 191/400/103
f 185/372/3 193/373/3 194/376/3 187/401/3
f 205/402/3 198/403/3 200/404/3 206/405/3
f 206/406/99 200/407/99 204/408/99 207/409/99
f 207/410/16 204/411/16 202/412/16 208/413/16
f 208/414/100 202/415/100 198/416/100 205/417/100
f 199/418/13 203/419/13 201/420/13 197/421/13
f 204/422/101 200/423/101 198/424/101 202/425/101
f 201/426/102 208/414/102 205/417/102 197/427/102
f 203/428/16 207/410/16 208/413/16 201/429/16
f 199/430/103 206/406/103 207/409/103 203/431/103
f 197/432/3 205/402/3 206/405/3 199/371/3
f 217/433/7 210/434/7 212/435/7 218/436/7
f 218/437/104 212/438/104 216/439/104 219/440/104
f 219/441/8 216/442/8 214/443/8 220/444/8
f 220/445/105 214/446/105 210/447/105 217/448/105
f 211/449/13 215/450/13 213/451/13 209/452/13
f 216/453/101 212/454/101 210/455/101 214/456/101
f 213/457/106 220/445/106 217/448/106 209/458/106
f 215/459/8 219/441/8 220/444/8 213/460/8
f 211/320/107 218/437/107 219/440/107 215/461/107
f 209/462/7 217/433/7 218/436/7 211/463/7
f 229/464/7 222/465/7 224/466/7 230/467/7
f 230/468/104 224/469/104 228/470/104 231/471/104
f 231/472/8 228/473/8 226/474/8 232/475/8
f 232/476/105 226/477/105 222/478/105 229/479/105
f 223/480/13 227/481/13 225/450/13 221/449/13
f 228/482/101 224/483/101 222/484/101 226/485/101
f 225/486/106 232/476/106 229/479/106 221/487/106
f 227/488/8 231/472/8 232/475/8 225/489/8
f 223/490/107 230/468/107 231/471/107 227/491/107
f 221/492/7 229/464/7 230/467/7 223/493/7
f 241/494/7 234/495/7 236/496/7 242/497/7
f 242/498/104 236/499/104 240/500/104 243/501/104
f 243/502/8 240/503/8 238/504/8 244/505/8
f 244/506/105 238/507/105 234/508/105 241/509/105
f 235/510/13 239/511/13 237/512/13 233/513/13
f 240/514/101 236/515/101 234/516/101 238/517/101
f 237/518/106 244/506/106 241/509/106 233/519/106
f 239/520/8 243/502/8 244/505/8 237/521/8
f 235/522/107 242/498/107 243/501/107 239/523/107
f 233/524/7 241/494/7 242/497/7 235/525/7
f 253/526/7 246/527/7 248/528/7 254/529/7
f 254/530/104 248/531/104 252/532/104 255/533/104
f 255/534/8 252/535/8 250/536/8 256/537/8
f 256/538/105 250/539/105 246/540/105 253/541/105
f 247/542/13 251/543/13 249/544/13 245/545/13
f 252/546/101 248/547/101 246/548/101 250/549/101
f 249/550/106 256/538/106 253/541/106 245/551/106
f 251/552/8 255/534/8 256/537/8 249/553/8
f 247/554/107 254/530/107 255/533/107 251/555/107
f 245/556/7 253/526/7 254/529/7 247/557/7
f 89/558/108 90/559/108 266/560/108 265/561/108
f 85/562/109 88/563/109 264/564/109 261/565/109
f 91/566/110 86/567/110 262/568/110 267/569/110
f 96/570/111 92/571/111 268/572/111 272/573/111
f 81/574/112 91/566/112 267/569/112 257/575/112
f 82/248/113 81/247/113 257/576/113 258/577/113
f 94/578/114 96/570/114 272/573/114 270/579/114
f 92/571/115 84/580/115 260/581/115 268/572/115
f 84/580/116 83/151/116 259/154/116 260/581/116
f 90/295/117 93/300/117 269/582/117 266/583/117
f 86/567/118 85/562/118 261/565/118 262/568/118
f 93/584/119 94/578/119 270/579/119 269/585/119
f 88/563/120 87/586/120 263/587/120 264/564/120
f 95/152/121 82/588/121 258/589/121 271/153/121
f 87/586/122 89/558/122 265/561/122 263/587/122
f 274/590/123 275/591/123 276/592/123 273/593/123
f 278/594/124 279/595/124 280/596/124 277/597/124
f 282/598/125 283/599/125 284/600/125 281/601/125
f 286/602/126 287/603/126 288/604/126 285/605/126
f 290/606/127 286/602/127 285/605/127 289/607/127
f 292/608/128 290/609/128 289/610/128 291/611/128
f 283/612/129 293/613/129 294/614/129 284/615/129
f 293/613/130 274/590/130 273/593/130 294/614/130
f 279/595/131 295/616/131 296/617/131 280/596/131
f 298/618/132 292/619/132 291/620/132 297/621/132
f 300/622/133 298/623/133 297/624/133 299/625/133
f 275/591/134 301/626/134 302/627/134 276/592/134
f 301/626/135 278/628/135 277/629/135 302/627/135
f 287/603/136 282/598/136 281/601/136 288/604/136
f 295/616/137 303/630/137 304/631/137 296/617/137
f 303/630/138 300/632/138 299/633/138 304/631/138
f 258/577/139 257/576/139 273/634/139 276/635/139
f 279/636/140 278/628/140 301/626/140 275/591/140 274/590/140 293/613/140 283/612/140 282/637/140 287/638/140 286/639/140 290/609/140 292/608/140 298/623/140 300/622/140 303/640/140 295/641/140
f 257/576/141 267/642/141 294/643/141 273/634/141
f 271/644/142 258/577/142 276/635/142 302/645/142
f 260/646/143 259/647/143 277/597/143 280/596/143
f 259/647/144 271/648/144 302/649/144 277/597/144
f 268/650/7 260/646/7 280/596/7 296/617/7
f 262/651/145 261/652/145 281/601/145 284/600/145
f 261/652/8 264/653/8 288/604/8 281/601/8
f 267/654/146 262/651/146 284/600/146 294/655/146
f 264/653/147 263/656/147 285/605/147 288/604/147
f 263/656/148 265/657/148 289/607/148 285/605/148
f 265/658/149 266/583/149 291/620/149 289/659/149
f 266/583/150 269/582/150 297/621/150 291/620/150
f 272/660/151 268/650/151 296/617/151 304/631/151
f 269/582/152 270/661/152 299/662/152 297/621/152
f 270/663/153 272/660/153 304/631/153 299/633/153
f 486/664/154 307/665/154 311/666/154 488/667/154
f 485/668/155 306/669/155 310/670/155 487/671/155
f 325/672/156 328/673/156 327/674/156
f 328/673/157 326/675/157 327/674/157
f 329/676/158 332/677/158 331/678/158
f 332/677/159 330/679/159 331/678/159
f 333/680/160 336/681/160 335/682/160
f 336/681/161 334/683/161 335/682/161
f 337/684/162 340/685/162 339/686/162
f 340/685/163 338/687/163 339/686/163
f 337/688/164 323/689/164 324/690/164 340/691/164
f 340/692/165 324/693/165 322/694/165 338/695/165
f 313/696/166 326/697/166 328/698/166 315/699/166
f 315/700/167 328/701/167 325/702/167 314/703/167
f 333/704/168 320/705/168 321/706/168 336/707/168
f 336/708/169 321/709/169 319/710/169 334/711/169
f 316/712/170 330/713/170 332/714/170 318/715/170
f 318/716/171 332/717/171 329/718/171 317/719/171
f 319/710/172 314/703/172 325/702/172 334/711/172
f 316/712/173 323/689/173 337/688/173 330/713/173
f 341/720/174 342/721/174 343/722/174
f 344/723/175 345/724/175 346/725/175
f 347/726/176 348/727/176 349/728/176
f 350/729/177 351/730/177 352/731/177
f 341/732/178 348/733/178 347/734/178 342/735/178
f 350/736/179 345/737/179 344/738/179 351/739/179
f 491/740/180 448/741/180 445/742/180 492/743/180
f 434/744/181 433/745/181 441/746/181 442/747/181
f 313/696/182 341/720/182 343/722/182 305/748/182 326/697/182
f 313/749/183 315/750/183 314/751/183 319/752/183 321/753/183 320/754/183 348/755/183 341/756/183
f 346/725/184 345/724/184 317/719/184 329/718/184 306/757/184
f 322/758/185 324/759/185 323/760/185 316/761/185 318/762/185 317/763/185 345/764/185 350/765/185
f 447/766/186 446/767/186 439/768/186 444/769/186
f 349/728/176 348/727/176 320/705/176 333/704/176 307/770/176
f 322/694/176 350/729/176 352/731/176 308/771/176 338/695/176
f 356/772/187 355/773/187 381/774/187 377/775/187
f 380/776/188 378/777/188 379/778/188 382/779/188
f 362/780/189 360/781/189 361/782/189 364/783/189
f 364/784/190 361/785/190 359/786/190 363/787/190
f 378/777/176 380/776/176 376/788/176 375/789/176
f 353/790/191 354/791/191 363/787/191 359/786/191
f 360/781/176 362/780/176 358/792/176 357/793/176
f 382/794/192 379/795/192 377/775/192 381/774/192
f 370/796/193 366/797/193 369/798/193 372/799/193
f 372/799/194 369/798/194 368/800/194 373/801/194
f 373/802/195 368/803/195 367/804/195 374/805/195
f 374/805/196 367/804/196 365/806/196 371/807/196
f 359/808/197 361/809/197 360/810/197 357/811/197 365/812/197 367/813/197 368/814/197 369/815/197 366/816/197 353/817/197
f 357/818/198 358/819/198 371/820/198 365/821/198
f 366/822/184 370/823/184 354/824/184 353/825/184
f 358/826/185 362/827/185 364/828/185 363/829/185 354/830/185 370/831/185 372/832/185 373/833/185 374/834/185 371/835/185
f 388/836/199 384/837/199 387/838/199 390/839/199
f 390/839/200 387/838/200 386/840/200 391/841/200
f 391/842/201 386/843/201 385/844/201 392/845/201
f 392/845/202 385/844/202 383/846/202 389/847/202
f 377/848/183 379/849/183 378/850/183 375/851/183 383/852/183 385/853/183 386/854/183 387/855/183 384/856/183 356/857/183
f 375/858/203 376/859/203 389/860/203 383/861/203
f 384/862/184 388/863/184 355/864/184 356/865/184
f 376/866/204 380/867/204 382/868/204 381/869/204 355/870/204 388/871/204 390/872/204 391/873/204 392/874/204 389/875/204
f 396/876/184 395/877/184 421/878/184 417/879/184
f 420/880/205 418/881/205 419/882/205 422/883/205
f 402/884/206 400/885/206 401/886/206 404/887/206
f 404/888/207 401/889/207 399/890/207 403/891/207
f 418/881/187 420/880/187 416/892/187 415/893/187
f 393/894/184 394/895/184 403/891/184 399/890/184
f 400/885/191 402/884/191 398/896/191 397/897/191
f 422/898/208 419/899/208 417/879/208 421/878/208
f 410/900/209 406/901/209 409/902/209 412/903/209
f 412/903/210 409/902/210 408/904/210 413/905/210
f 413/906/211 408/907/211 407/908/211 414/909/211
f 414/909/212 407/908/212 405/910/212 411/911/212
f 399/912/213 401/913/213 400/914/213 397/915/213 405/916/213 407/917/213 408/918/213 409/919/213 406/920/213 393/921/213
f 397/922/176 398/923/176 411/924/176 405/925/176
f 406/926/198 410/927/198 394/928/198 393/929/198
f 398/930/185 402/931/185 404/932/185 403/933/185 394/934/185 410/935/185 412/936/185 413/937/185 414/938/185 411/939/185
f 428/940/214 424/941/214 427/942/214 430/902/214
f 430/902/215 427/942/215 426/943/215 431/944/215
f 431/945/216 426/946/216 425/947/216 432/948/216
f 432/948/217 425/947/217 423/949/217 429/950/217
f 417/951/183 419/952/183 418/953/183 415/954/183 423/955/183 425/956/183 426/957/183 427/958/183 424/959/183 396/960/183
f 415/961/176 416/962/176 429/963/176 423/964/176
f 424/965/203 428/966/203 395/967/203 396/968/203
f 416/969/204 420/970/204 422/971/204 421/972/204 395/973/204 428/974/204 430/975/204 431/976/204 432/977/204 429/978/204
f 443/979/218 444/980/218 439/981/218 440/982/218
f 489/983/219 490/984/219 435/985/219 438/986/219
f 437/987/220 351/988/220 344/989/220 436/990/220
f 343/722/184 342/721/184 435/991/184 490/992/184 485/993/184 305/748/184
f 347/994/221 438/986/221 435/985/221 342/995/221
f 352/731/176 351/730/176 437/996/176 489/997/176 486/998/176 308/771/176
f 441/999/222 433/1000/222 445/742/222 448/741/222
f 493/1001/219 494/1002/219 460/1003/219 457/1004/219
f 449/1005/223 450/1006/223 456/1007/223 455/1008/223
f 458/1009/220 454/1010/220 451/1011/220 459/1012/220
f 453/1013/224 452/1014/224 451/1011/224 454/1010/224
f 456/1007/221 457/1004/221 460/1003/221 455/1008/221
f 443/1015/225 440/1016/225 452/1017/225 453/1018/225
f 439/1019/226 446/1020/226 459/1021/226 451/1022/226
f 442/1023/227 441/1024/227 456/1025/227 450/1026/227
f 440/1027/228 439/1019/228 451/1022/228 452/1028/228
f 492/1029/229 445/1030/229 460/1031/229 494/1032/229
f 445/1030/230 433/1033/230 455/1034/230 460/1031/230
f 444/1035/231 443/1036/231 453/1037/231 454/1038/231
f 434/1039/232 442/1040/232 450/1041/232 449/1042/232
f 491/1043/233 447/1044/233 458/1045/233 493/1046/233
f 441/1024/234 448/1047/234 457/1048/234 456/1025/234
f 433/1033/235 434/1049/235 449/1050/235 455/1034/235
f 447/1044/236 444/1035/236 454/1038/236 458/1045/236
f 495/1051/180 472/1052/180 469/1053/180 496/1054/180
f 462/1055/181 461/1056/181 465/1057/181 466/1058/181
f 471/1059/186 470/1060/186 463/1061/186 468/1062/186
f 467/1063/218 468/1064/218 463/1065/218 464/1066/218
f 465/1067/222 461/1068/222 469/1053/222 472/1052/222
f 497/1069/219 498/1070/219 484/1071/219 481/1072/219
f 473/1073/223 474/1074/223 480/1075/223 479/1076/223
f 482/1077/220 478/1078/220 475/1079/220 483/1080/220
f 477/1081/224 476/1082/224 475/1079/224 478/1078/224
f 480/1075/221 481/1072/221 484/1071/221 479/1076/221
f 467/1040/225 464/1039/225 476/1083/225 477/1084/225
f 463/1085/237 470/1086/237 483/1087/237 475/1088/237
f 466/1089/227 465/1090/227 480/1091/227 474/1092/227
f 464/1093/228 463/1085/228 475/1088/228 476/1094/228
f 496/1095/229 469/1096/229 484/1097/229 498/1098/229
f 469/1096/230 461/1099/230 479/1100/230 484/1097/230
f 468/1101/231 467/1102/231 477/1103/231 478/1104/231
f 462/1105/232 466/1106/232 474/1107/232 473/1108/232
f 495/1109/233 471/1110/233 482/1111/233 497/1112/233
f 465/1090/234 472/1113/234 481/1114/234 480/1091/234
f 461/1099/235 462/1115/235 473/1116/235 479/1100/235
f 471/1110/236 468/1101/236 478/1104/236 482/1111/236
f 305/1117/238 485/668/238 487/671/238 309/1118/238
f 308/1119/239 486/664/239 488/667/239 312/1120/239
f 437/987/219 436/990/219 490/984/219 489/983/219
f 448/1047/233 491/1043/233 493/1046/233 457/1048/233
f 486/998/176 489/997/176 438/1121/176 347/726/176 349/728/176 307/770/176
f 485/993/184 490/992/184 436/1122/184 344/723/184 346/725/184 306/757/184
f 446/1020/229 492/1029/229 494/1032/229 459/1021/229
f 458/1009/219 459/1012/219 494/1002/219 493/1001/219
f 447/766/180 491/740/180 492/743/180 446/767/180
f 472/1113/233 495/1109/233 497/1112/233 481/1114/233
f 470/1086/229 496/1095/229 498/1098/229 483/1087/229
f 482/1077/219 483/1080/219 498/1070/219 497/1069/219
f 471/1059/180 495/1051/180 496/1054/180 470/1060/180
f 309/1123/184 487/1124/184 500/1125/184 499/1126/184
f 312/1127/176 488/1128/176 504/1129/176 503/1130/176
f 488/1128/176 311/1131/176 502/1132/176 504/1129/176
f 487/1124/184 310/1133/184 501/1134/184 500/1125/184
f 505/1135/240 508/1136/240 507/1137/240
f 508/1136/241 506/1138/241 507/1137/241
f 509/1139/242 512/1140/242 511/1141/242
f 512/1140/243 510/1142/243 511/1141/243
f 513/1143/244 516/1144/244 515/1145/244
f 516/1144/245 514/1146/245 515/1145/245
f 517/1147/246 520/1148/246 519/1149/246
f 520/1148/247 518/1150/247 519/1149/247
f 513/1151/248 528/1152/248 529/1153/248 516/1154/248
f 516/1155/249 529/1156/249 527/1157/249 514/1158/249
f 509/1159/250 525/1160/250 526/1161/250 512/1162/250
f 512/1163/251 526/1164/251 524/1165/251 510/1166/251
f 530/1167/252 518/1168/252 520/1169/252 532/1170/252
f 532/1171/253 520/1172/253 517/1173/253 531/1174/253
f 505/1175/254 522/1176/254 523/1177/254 508/1178/254
f 508/1179/255 523/1180/255 521/1181/255 506/1182/255
f 539/1183/184 309/1123/184 499/1126/184 540/1184/184
f 335/682/256 334/683/256 325/672/256 327/674/256 507/1137/256 506/1138/256 513/1143/256 515/1145/256
f 327/674/257 326/675/257 305/1117/257 309/1118/257 539/1185/257 505/1135/257 507/1137/257
f 513/1151/258 506/1182/258 521/1181/258 528/1152/258
f 533/1186/184 510/1166/184 524/1165/184 534/1187/184
f 306/669/259 329/676/259 331/678/259 511/1141/259 510/1142/259 533/1188/259 310/670/259
f 509/1159/260 518/1168/260 530/1167/260 525/1160/260
f 331/678/261 330/679/261 337/684/261 339/686/261 519/1149/261 518/1150/261 509/1139/261 511/1141/261
f 307/665/262 333/680/262 335/682/262 515/1145/262 514/1146/262 537/1189/262 311/666/262
f 537/1190/176 514/1158/176 527/1157/176 538/1191/176
f 535/1192/176 312/1127/176 503/1130/176 536/1193/176
f 339/686/263 338/687/263 308/1119/263 312/1120/263 535/1194/263 517/1147/263 519/1149/263
f 525/1195/264 530/1196/264 532/1197/264 531/1198/264 536/1199/264 534/1200/264 524/1201/264 526/1202/264
f 500/1203/265 501/1204/265 503/1205/265 504/1206/265
f 504/1206/266 502/1207/266 499/1208/266 500/1203/266
f 528/1209/267 521/1210/267 523/1211/267 522/1212/267 540/1213/267 538/1214/267 527/1215/267 529/1216/267
f 310/1133/184 533/1186/184 534/1187/184 501/1134/184
f 517/1173/176 535/1192/176 536/1193/176 531/1174/176
f 311/1131/176 537/1190/176 538/1191/176 502/1132/176
f 505/1175/184 539/1183/184 540/1184/184 522/1176/184
f 538/1214/268 540/1213/268 499/1208/268 502/1207/268
f 534/1200/269 536/1199/269 503/1205/269 501/1204/269
