# Blender 5.1.1
# www.blender.org
mtllib Outside Roofs.mtl
o Roof.003
v -9.817909 6.675922 8.993078
v -9.130293 6.001556 8.993078
v -9.817909 8.545882 8.993078
v -5.471888 8.522021 8.993080
v -5.471888 12.213773 8.993080
v -9.130316 7.618407 2.291035
v -9.817909 8.292570 2.291034
v -9.817909 10.162749 2.291034
v -5.471886 10.138888 2.291035
v -5.471886 13.830640 2.291035
v -1.125868 13.782656 8.993082
v -1.125868 17.528469 8.993082
v 3.212298 22.997726 8.993082
v -1.125866 15.399523 2.291035
v -1.125866 19.145338 2.291035
v 3.212297 27.279249 8.993082
v 7.566169 35.179436 8.993082
v 7.150709 38.298538 8.993082
v 7.566169 38.148247 8.993082
v 7.566136 38.779999 8.993082
v 3.212298 24.614595 2.291037
v 3.212298 28.896116 2.291037
v 7.150771 39.915581 2.291037
v 7.566137 40.396973 2.291037
v -9.817905 9.046892 -4.411010
v -9.130337 8.372930 -4.411010
v -9.817905 10.917287 -4.411010
v -5.471886 10.893426 -4.411010
v -5.471886 14.585177 -4.411010
v -9.130316 7.618407 -11.113056
v -9.817905 8.292570 -11.113056
v -9.817905 10.162749 -11.113056
v -9.817902 6.675922 -16.731438
v -9.130293 6.001556 -16.731438
v -9.817902 8.545882 -16.731438
v -5.471886 8.132220 -15.987795
v -5.471886 10.138888 -15.987795
v -5.471886 13.830640 -11.113056
v -5.471884 8.084678 -16.731438
v -5.471884 8.522021 -16.731438
v -5.471884 12.213773 -16.731438
v -1.125866 16.154060 -4.411009
v -1.125866 19.899876 -4.411009
v -1.125866 8.286906 -15.987795
v 3.212300 8.557873 -15.987793
v -1.125864 8.239363 -16.731438
v 3.212301 8.510330 -16.731438
v -1.125864 13.782656 -16.731438
v -1.125866 15.399523 -15.987795
v -1.125866 19.145338 -11.113056
v -1.125864 17.528469 -16.731438
v 3.212301 22.997726 -16.731438
v 3.212299 25.369133 -4.411008
v 3.212299 29.650656 -4.411008
v 7.150833 40.670284 -4.411008
v 7.566139 41.151611 -4.411008
v 3.212300 24.614595 -15.987793
v 3.212300 28.896116 -11.113054
v 3.212302 27.279249 -16.731438
v 7.150774 39.915581 -11.113054
v 7.566140 40.396973 -11.113054
v 7.150713 38.298538 -16.731436
v 7.566141 38.779999 -16.731436
v 16.258207 13.782656 8.993082
v 16.258209 14.668732 5.819347
v 11.912188 23.015514 8.993082
v 16.258207 17.528469 8.993082
v 14.713366 17.950659 4.040254
v 16.258209 18.414547 3.153548
v 14.713366 20.245628 2.495078
v 15.443563 20.245628 2.582237
v 14.713366 18.681452 2.291039
v 15.768692 20.245628 2.291039
v 20.604227 8.522021 8.993084
v 20.604227 12.213773 8.993084
v 20.604229 9.408097 5.819347
v 20.604229 13.099849 5.819347
v 24.262636 6.001555 8.993086
v 24.950245 6.675922 8.993086
v 24.950245 8.545882 8.993086
v 24.262648 6.887624 5.819347
v 24.950245 7.561879 5.819347
v 24.950245 9.431959 5.819347
v 11.912188 27.297037 8.993082
v 7.981517 38.298450 8.993082
v 11.912189 24.632383 2.291037
v 11.912189 28.913904 2.291037
v 7.566171 36.796303 2.291037
v 7.981458 39.915489 2.291037
v 14.713366 19.435989 -2.764949
v 16.104385 20.245628 -2.764949
v 14.713366 19.231234 -3.304735
v 14.713366 20.245628 -3.304735
v 16.013288 20.245628 -3.119506
v 7.566172 8.916073 -15.987793
v 7.566173 8.868527 -16.731436
v 11.912191 8.558396 -15.987793
v 11.912191 8.510854 -16.731434
v 11.912191 23.015514 -16.731434
v 24.262674 8.168179 -6.229715
v 24.950245 8.842195 -6.229715
v 20.604229 10.688670 -6.229715
v 20.604229 14.380422 -5.531288
v 24.950245 10.712531 -6.229715
v 16.258209 15.949305 -6.229715
v 16.258209 19.695120 -3.304735
v 16.258209 8.286906 -15.987791
v 16.258211 8.239363 -16.731434
v 16.258211 13.782656 -16.731434
v 20.604229 8.132220 -15.987791
v 20.604229 10.138888 -15.987791
v 24.262661 7.618407 -11.113052
v 24.950245 8.292570 -11.113050
v 24.950245 10.162749 -11.113050
v 20.604229 13.830640 -11.113052
v 20.604231 8.084678 -16.731434
v 20.604231 8.522021 -16.731434
v 24.262636 6.001556 -16.731434
v 24.950249 6.675922 -16.731434
v 24.950249 8.545882 -16.731434
v 20.604231 12.213773 -16.731434
v 16.258209 15.399523 -15.987791
v 16.258209 19.145338 -11.113052
v 16.258211 17.528469 -16.731434
v 11.912190 25.386921 -4.411007
v 11.912190 29.668444 -4.411007
v 7.566171 37.550842 -4.411008
v 7.981399 40.670197 -4.411008
v 11.912191 24.632383 -15.987793
v 11.912191 28.913904 -11.113054
v 11.912192 27.297037 -16.731434
v 7.566172 36.796303 -15.987793
v 7.981461 39.915489 -11.113054
v 7.566173 35.179436 -16.731436
v 7.566173 38.148247 -16.731436
v 7.981523 38.298447 -16.731436
v 25.488985 8.789445 8.292783
v 17.313049 10.530603 6.440927
v 25.488985 10.318516 8.292783
v 25.488985 10.530336 6.135510
v 25.488985 12.059407 6.135510
v 17.313049 13.340672 6.440927
v 17.241219 10.530336 6.135510
v 16.570108 10.530336 6.135510
v 17.313049 10.530336 6.135510
v 15.914558 10.530336 6.135510
v 12.883726 10.955293 6.135510
v 17.313049 13.340405 6.135510
v 25.488985 14.264279 4.003226
v 25.488985 15.793349 4.003226
v 17.375797 13.159606 4.003226
v 18.046907 14.264279 4.003226
v 12.883726 11.832338 4.003226
v 15.914558 14.264279 4.003226
v 17.313049 17.074347 4.003226
v 8.233713 10.530603 6.440925
v 8.233713 12.059674 6.440925
v 8.233713 10.530336 6.135510
v 8.233713 12.059407 6.135510
v 8.233713 14.264279 4.003226
v 8.233713 15.793349 4.003226
v 25.488985 18.970385 1.858450
v 12.883726 12.315328 1.858450
v 18.318901 17.852028 1.858450
v 18.990011 18.970385 1.858450
v 15.914558 18.970385 1.858450
v 25.488993 18.951971 -2.437628
v 12.883726 12.385791 -0.286330
v 12.883726 12.316534 -2.437628
v 18.318901 17.833784 -2.437628
v 18.990011 18.951971 -2.437628
v 15.914558 18.951971 -2.437628
v 8.233713 18.970385 1.858450
v 8.233713 18.951971 -2.437628
v 25.488993 14.264279 -4.575887
v 25.488993 15.793349 -4.575887
v 17.375797 13.159846 -4.575887
v 18.046907 14.264279 -4.575887
v 12.883726 11.594195 -4.575887
v 15.914558 14.264279 -4.575887
v 17.313059 17.074347 -4.575887
v 25.488993 10.514392 -6.720663
v 25.488993 12.043462 -6.720663
v 17.241219 10.514392 -6.720663
v 16.570108 10.514392 -6.720663
v 17.313059 10.514392 -6.720663
v 15.914558 10.514392 -6.720663
v 12.883726 10.718191 -6.720663
v 17.313059 13.324459 -6.720663
v 8.233713 14.264279 -4.575887
v 8.233713 15.793349 -4.575887
v 8.233717 10.514392 -6.720663
v 8.233717 12.043462 -6.720663
v 25.488985 20.949442 1.858450
v 17.313049 22.230436 1.858450
v 25.488993 20.931028 -2.437628
v 25.488993 25.926424 -0.286330
v 25.488993 27.905478 -0.286330
v 19.805714 24.795946 -0.286330
v 17.313059 22.212023 -2.437628
v 20.476824 25.926424 -0.286330
v 15.914558 25.926424 -0.286330
v 17.313049 29.186480 -0.286330
v 8.233713 20.949442 1.858450
v 8.233713 20.931028 -2.437628
v 8.233713 25.926424 -0.286330
v 8.233713 27.905478 -0.286330
v 25.488993 8.789445 -8.865443
v 17.313059 8.789445 -8.865443
v 25.488993 10.318516 -8.865443
v 17.313059 11.599513 -8.865443
v 8.233717 8.789445 -8.865443
v 8.233717 10.318516 -8.865443
v 12.773382 10.933553 6.440926
v 12.773382 13.103123 6.440926
v 12.773382 21.992889 1.858450
v 12.773382 16.836798 4.003226
v 12.773382 13.102855 6.135510
v 12.773388 11.361964 -8.865443
v 12.773388 13.086909 -6.720663
v 12.773382 28.948929 -0.286330
v 12.773386 21.974476 -2.437628
v 12.773388 9.192394 -8.865443
v 12.773386 16.836798 -4.575887
v 14.693378 11.077294 6.135510
v 16.414976 10.598064 6.135510
v 14.693396 11.954342 4.003226
v 16.144718 12.581289 4.003226
v 15.765245 13.481472 1.858450
v 14.693436 12.437337 1.858450
v 14.693459 12.507803 -0.286330
v 15.669739 13.563216 -0.286330
v 15.765854 13.482567 -2.437628
v 14.693436 12.438543 -2.437628
v 14.693396 11.716199 -4.575887
v 16.144566 12.581219 -4.575887
v 16.410572 10.586821 -6.720663
v 14.693380 10.840194 -6.720663
v -37.698322 11.025062 10.457910
v -37.698322 11.025062 -4.690025
v -37.698322 11.937075 10.457910
v -35.391266 12.063416 10.457910
v -35.391266 12.975429 10.457910
v -37.698322 12.701125 -4.690025
v -35.391266 12.063416 10.064878
v -35.391266 12.063416 7.840259
v -35.391266 12.174840 7.840259
v -35.391266 12.063416 -4.690025
v -35.391266 12.063416 -18.036348
v -35.391266 12.174840 -18.036348
v -35.391266 13.739480 -4.690025
v -33.110935 14.290524 10.457910
v -33.110935 15.202538 10.457910
v -33.110935 12.514733 7.840259
v -33.110935 13.631642 7.840259
v -33.110935 14.290524 10.064878
v -33.110935 12.514733 -18.036348
v -33.110935 14.290524 -18.036348
v -33.110935 15.966588 -4.690025
v -37.698322 11.025062 -19.776527
v -37.698322 11.937075 -19.776527
v -35.391266 12.063416 -19.776527
v -35.391266 12.975429 -19.776527
v -33.110935 14.290524 -19.776527
v -33.110935 15.202538 -19.776527
v -30.817242 17.097479 10.457910
v -30.817242 12.566485 7.840259
v -30.817242 12.566485 -18.036348
v -30.817242 16.430437 7.840259
v -30.817242 17.097479 10.064878
v -30.817242 17.097479 -18.036348
v -26.222885 17.086496 10.457910
v -28.523550 12.608512 7.840259
v -28.523550 12.608512 -18.036348
v -26.222885 12.567204 7.840259
v -26.222885 12.567204 -18.036348
v -26.222885 16.419556 7.840259
v -26.222885 17.086496 10.064878
v -26.222885 17.086496 -18.036348
v -30.817242 17.097479 -19.776527
v -26.222885 17.086496 -19.776527
v -23.936165 14.290524 10.457910
v -23.936165 15.202538 10.457910
v -23.936165 12.514733 7.840259
v -23.936165 13.631786 7.840259
v -23.936165 14.290524 10.064878
v -23.936165 12.514733 -18.036348
v -23.936165 14.290524 -18.036348
v -23.936165 15.966588 -4.690025
v -21.642473 12.053905 10.457910
v -21.642473 12.965919 10.457910
v -21.642473 12.053905 10.064878
v -21.642473 12.053905 7.840259
v -21.642473 12.175462 7.840259
v -21.642473 12.053905 -4.690025
v -21.642473 12.053905 -18.036348
v -21.642473 12.175462 -18.036348
v -21.642473 13.729969 -4.690025
v -23.936165 14.290524 -19.776527
v -23.936165 15.202538 -19.776527
v -21.642473 12.053905 -19.776527
v -21.642473 12.965919 -19.776527
v -30.817242 18.277889 10.457910
v -30.817242 19.041939 -4.690025
v -26.222885 18.266905 10.457910
v -28.523550 21.246407 10.457910
v -28.523550 22.426815 10.457910
v -28.523550 20.572138 7.840259
v -26.222885 19.030956 -4.690025
v -28.523550 21.246407 10.064878
v -28.523550 21.246407 -18.036348
v -28.523550 23.190866 -4.690025
v -30.817242 18.277889 -19.776527
v -26.222885 18.266905 -19.776527
v -28.523550 21.246407 -19.776527
v -28.523550 22.426815 -19.776527
v -19.348780 11.025062 10.457910
v -19.348780 11.025062 -4.690025
v -19.348780 11.937075 10.457910
v -19.348780 12.701125 -4.690025
v -19.348780 11.025062 -19.776527
v -19.348780 11.937075 -19.776527
vn 0.6299 0.7464 -0.2148
vn -0.0000 -0.0000 -1.0000
vn -0.0000 -0.0000 1.0000
vn 1.0000 -0.0000 -0.0000
vn 0.9075 0.4037 -0.1162
vn -0.7616 0.6228 -0.1792
vn 0.7616 0.6228 -0.1792
vn -0.6299 0.7464 -0.2148
vn -0.9075 0.4037 -0.1162
vn -0.9127 0.4061 0.0457
vn 0.9410 -0.3363 -0.0379
vn -0.9004 -0.4315 -0.0554
vn 0.7690 -0.6353 -0.0715
vn -0.6426 0.7614 0.0857
vn 0.9037 -0.4254 -0.0479
vn -0.7722 0.6314 0.0711
vn 0.9106 0.4099 0.0523
vn -0.9410 -0.3362 -0.0379
vn -0.9127 0.4061 -0.0457
vn 0.9414 -0.3365 0.0219
vn -0.9059 -0.4227 0.0241
vn 0.7703 -0.6364 0.0415
vn -0.6426 0.7614 -0.0857
vn 0.7676 0.6387 -0.0525
vn 0.9044 -0.4258 0.0278
vn -0.7722 0.6314 -0.0711
vn 0.9155 0.4003 -0.0396
vn -0.7704 -0.6365 0.0359
vn -0.9415 -0.3364 0.0219
vn 0.6391 0.7649 -0.0804
vn 0.6308 0.7474 0.2087
vn -0.9386 -0.3354 -0.0809
vn -0.7590 -0.6271 -0.1751
vn 0.9143 0.3948 0.0901
vn -0.7653 0.6258 0.1510
vn 0.9000 -0.4237 -0.1022
vn 0.7520 0.6468 0.1272
vn -0.6343 0.7515 0.1813
vn 0.7620 -0.6295 -0.1519
vn -0.9010 -0.4222 -0.0994
vn 0.9386 -0.3355 -0.0809
vn -0.9093 0.4045 0.0976
vn 0.7442 0.6419 -0.1847
vn -0.7441 0.6420 -0.1848
vn 0.7552 0.6514 0.0733
vn -0.7551 0.6515 0.0734
vn 0.7552 0.6514 -0.0733
vn -0.7551 0.6515 -0.0734
vn 0.7480 0.6452 0.1557
vn -0.7479 0.6453 0.1557
vn 0.9386 0.3354 0.0809
vn -0.9386 0.3355 0.0809
vn -0.9373 0.3350 -0.0964
vn 0.9373 0.3349 -0.0964
vn -0.9410 0.3363 0.0379
vn -0.9410 0.3363 -0.0379
vn 0.9410 0.3362 0.0379
vn 0.9410 0.3362 -0.0379
vn 0.6858 -0.6994 0.2013
vn -0.6900 -0.7036 -0.1697
vn -0.6978 -0.7118 0.0801
vn 0.6978 -0.7118 0.0801
vn -0.6858 -0.6994 0.2013
vn -0.6978 -0.7118 -0.0801
vn 0.6867 -0.7002 -0.1955
vn -0.6755 -0.6573 0.3341
vn -0.5529 -0.8025 -0.2241
vn 0.6755 -0.6573 0.3341
vn -1.0000 -0.0000 -0.0000
vn 0.5565 -0.8077 -0.1949
vn -0.5932 -0.8028 0.0603
vn 0.5956 -0.8006 0.0661
vn 0.5649 -0.8200 -0.0923
vn -0.0819 -0.9946 0.0636
vn -0.0355 -0.9973 0.0638
vn 0.0622 -0.9960 0.0637
vn 0.0355 -0.9973 0.0638
vn -0.0622 -0.9960 0.0637
vn 0.0818 -0.9946 0.0636
vn -0.1310 -0.3217 0.9377
vn -0.1002 -0.2489 -0.9633
vn -0.0000 -1.0000 -0.0000
vn -0.0000 -0.7792 0.6267
vn 0.1479 0.8076 0.5708
vn 0.0461 0.2944 -0.9546
vn -0.0000 -0.4147 -0.9100
vn 0.0601 0.3834 0.9216
vn 0.0776 0.4950 -0.8654
vn -0.0000 -0.2948 0.9556
vn 0.0461 0.2943 0.9546
vn -0.0201 0.3840 0.9231
vn -0.1132 0.4927 0.8628
vn 0.0601 0.3835 -0.9216
vn -0.0216 -0.8164 -0.5770
vn 0.0775 0.4944 0.8658
vn 0.1212 0.7735 -0.6221
vn -0.8665 0.2601 0.4260
vn -0.2209 -0.0000 0.9753
vn -0.0407 0.7786 -0.6262
vn -0.0676 0.2941 -0.9534
vn -0.2193 0.6625 0.7163
vn -0.0676 0.2940 0.9534
vn -0.0000 -0.8344 0.5512
vn -0.0000 -0.4150 0.9098
vn -0.0000 -0.4959 -0.8684
vn -0.0000 -0.4965 0.8680
vn -0.0000 -0.8153 0.5791
vn -0.0000 -0.2946 -0.9556
vn -0.6907 0.4607 0.5574
vn -0.2240 0.9746 -0.0009
vn -0.6895 0.4491 -0.5682
vn -0.1134 0.4933 -0.8624
vn -0.0880 0.3828 -0.9197
vn -0.2666 0.6553 -0.7067
vn -0.8664 0.2603 -0.4261
vn 0.5876 -0.3507 -0.7292
vn 0.4695 -0.5705 -0.6738
vn 0.6835 -0.4127 0.6021
vn 0.6829 -0.4123 -0.6031
vn 0.5873 -0.3505 0.7296
vn 0.4693 -0.5704 0.6741
vn -0.0201 0.3842 -0.9230
vn -0.0260 0.4963 -0.8678
vn -0.0523 0.9986 -0.0009
vn -0.0154 0.2946 0.9555
vn -0.0154 0.2947 -0.9555
vn -0.1763 0.7670 -0.6169
vn -0.0259 0.4957 0.8681
vn -0.0879 0.3826 0.9197
vn 0.7152 -0.6977 -0.0407
vn 0.0386 -0.8287 -0.5583
vn 0.5683 -0.7513 0.3356
vn 0.5263 -0.7946 -0.3028
vn 0.7151 -0.6978 0.0403
vn 0.1576 -0.8162 0.5559
vn 0.2479 -0.6730 -0.6968
vn 0.0622 -0.9230 -0.3797
vn 0.0656 -0.9735 -0.2192
vn 0.6545 -0.5006 -0.5666
vn 0.8682 -0.3722 -0.3281
vn 0.0672 -0.9972 -0.0328
vn 0.0672 -0.9972 0.0321
vn 0.8677 -0.3724 0.3292
vn 0.6532 -0.5014 0.5674
vn 0.0637 -0.9455 0.3194
vn 0.0623 -0.9240 0.3774
vn 0.2451 -0.6734 0.6975
vn -0.4093 -0.9124 -0.0000
vn -0.4100 0.9109 0.0459
vn 0.8748 0.4838 0.0244
vn 0.7743 -0.6328 -0.0000
vn -0.8012 0.5976 0.0301
vn 0.6977 0.7155 0.0361
vn -0.8751 -0.4840 -0.0000
vn -0.8749 0.4837 0.0244
vn -0.8012 0.5976 -0.0303
vn -0.6983 0.7149 -0.0362
vn 0.8011 0.5978 0.0302
vn 0.4104 -0.9119 -0.0000
vn -0.6983 0.7149 0.0361
vn 0.4088 0.9114 0.0460
vn 0.4088 0.9114 -0.0462
vn 0.8748 0.4838 -0.0245
vn -0.8749 0.4837 -0.0245
vn -0.7741 -0.6331 -0.0000
vn 0.6987 -0.7154 -0.0000
vn -0.6981 -0.7160 -0.0000
vn 0.8752 -0.4838 -0.0000
vn 0.0183 -0.9998 -0.0000
vn 0.1474 -0.9891 -0.0000
vn -0.0229 -0.9997 -0.0000
vn 0.0226 -0.9997 -0.0000
vn -0.0180 -0.9998 -0.0000
vn -0.1463 -0.9892 -0.0000
vn -0.4100 0.9109 -0.0461
vn 0.6977 0.7155 -0.0362
vn 0.8011 0.5978 -0.0303
vn 0.8658 -0.4791 0.1444
vn 0.6356 -0.7637 0.1131
vn -0.7602 -0.6226 0.1855
vn 0.7605 -0.6223 0.1855
vn -0.8657 -0.4792 0.1445
vn -0.6353 -0.7640 0.1131
vn 0.7744 -0.6328 -0.0000
vt 0.043814 0.503857
vt 0.043839 0.540799
vt 0.000039 0.552878
vt 0.000015 0.515936
vt 0.235912 0.101618
vt 0.233124 0.135491
vt 0.028062 0.135488
vt 0.122865 0.101617
vt 0.345306 0.067743
vt 0.316112 0.067744
vt 0.275112 0.033873
vt 0.303885 0.033872
vt 0.861590 0.422294
vt 0.849851 0.378402
vt 0.864862 0.378531
vt 0.864862 0.422322
vt 0.043813 0.372014
vt 0.043800 0.454595
vt 0.000000 0.466674
vt 0.000014 0.384093
vt 0.165630 0.067744
vt 0.194824 0.067745
vt 0.089496 0.101616
vt 0.235824 0.237109
vt 0.207052 0.237108
vt 0.165630 0.203235
vt 0.194824 0.203235
vt 0.401045 0.456240
vt 0.401031 0.498260
vt 0.357236 0.485677
vt 0.357250 0.443657
vt 0.570408 0.493176
vt 0.536596 0.491064
vt 0.536593 0.365922
vt 0.570406 0.437742
vt 0.345306 0.203233
vt 0.316112 0.203234
vt 0.387932 0.169421
vt 0.421301 0.169420
vt 0.207052 0.033872
vt 0.235824 0.033873
vt 0.849551 0.593603
vt 0.882447 0.593601
vt 0.882869 0.637391
vt 0.849974 0.637394
vt 0.239233 0.033873
vt 0.238027 0.067745
vt 0.303885 0.237107
vt 0.275112 0.237108
vt 0.421440 0.101614
vt 0.388071 0.101615
vt 0.235916 0.169424
vt 0.123004 0.169423
vt 0.238027 0.203236
vt 0.239233 0.237109
vt 0.089634 0.169423
vt 0.401045 0.379652
vt 0.357250 0.367070
vt 0.305013 0.361210
vt 0.305013 0.437798
vt 0.252780 0.443698
vt 0.252779 0.367110
vt 0.670013 0.499953
vt 0.670034 0.581564
vt 0.617793 0.575993
vt 0.617772 0.494381
vt 0.563176 0.146026
vt 0.563177 0.100042
vt 0.615415 0.094186
vt 0.602585 0.140165
vt 0.105810 0.619123
vt 0.147904 0.619268
vt 0.146605 0.671478
vt 0.104511 0.671333
vt 0.882249 0.541365
vt 0.849354 0.541367
vt 0.849551 0.489132
vt 0.882447 0.489130
vt 0.670034 0.641017
vt 0.617793 0.635445
vt 0.304999 0.479818
vt 0.252765 0.485718
vt 0.148284 0.372054
vt 0.148272 0.445333
vt 0.108870 0.446052
vt 0.096053 0.366389
vt 0.615427 0.000000
vt 0.563189 0.005855
vt 0.565563 0.581711
vt 0.565542 0.500099
vt 0.667648 0.100091
vt 0.667647 0.171436
vt 0.629588 0.167134
vt 0.606792 0.141763
vt 0.147904 0.723738
vt 0.105810 0.723593
vt 0.104661 0.450505
vt 0.087322 0.499761
vt 0.565563 0.641163
vt 0.106105 0.445852
vt 0.667660 0.211827
vt 0.629601 0.207525
vt 0.667660 0.005904
vt 0.081903 0.536700
vt 0.200535 0.552954
vt 0.175805 0.546316
vt 0.175780 0.509374
vt 0.200510 0.516012
vt 0.510936 0.112617
vt 0.510948 0.018431
vt 0.510935 0.183962
vt 0.535674 0.177069
vt 0.535687 0.217460
vt 0.510948 0.224353
vt 0.200496 0.466750
vt 0.154988 0.460104
vt 0.150538 0.444623
vt 0.200509 0.384169
vt 0.200535 0.498338
vt 0.200549 0.456318
vt 0.722281 0.593587
vt 0.722281 0.653039
vt 0.849974 0.436898
vt 0.882869 0.436895
vt 0.108594 0.566943
vt 0.150688 0.567088
vt 0.549541 0.151715
vt 0.722260 0.511975
vt 0.200549 0.379730
vt 0.506011 0.135484
vt 0.507182 0.132247
vt 0.510935 0.135484
vt 0.507182 0.138722
vt 0.003752 0.138726
vt 0.000000 0.135488
vt 0.004924 0.135488
vt 0.003753 0.132250
vt 0.000038 0.288687
vt 0.043837 0.276607
vt 0.043839 0.281117
vt 0.000039 0.293198
vt 0.401038 0.293235
vt 0.357244 0.280651
vt 0.357245 0.276842
vt 0.401040 0.289425
vt 0.096078 0.270981
vt 0.148308 0.276647
vt 0.148310 0.281157
vt 0.096079 0.275491
vt 0.305006 0.274790
vt 0.252773 0.280691
vt 0.252774 0.276882
vt 0.305007 0.270981
vt 0.200534 0.288763
vt 0.200535 0.293274
vt 0.200542 0.293313
vt 0.200544 0.289503
vt 0.482873 0.135484
vt 0.401831 0.898289
vt 0.401045 0.854364
vt 0.407425 0.854672
vt 0.408212 0.898597
vt 0.823742 0.489136
vt 0.811143 0.436901
vt 0.816302 0.436896
vt 0.828900 0.489131
vt 0.823742 0.593607
vt 0.829622 0.541371
vt 0.834779 0.541366
vt 0.828900 0.593602
vt 0.408212 0.816589
vt 0.401832 0.816281
vt 0.811143 0.637396
vt 0.816302 0.637391
vt 0.535674 0.225958
vt 0.535636 0.232346
vt 0.510935 0.230741
vt 0.510973 0.224353
vt 0.043827 0.554790
vt 0.000028 0.566867
vt 0.250213 0.000000
vt 0.255468 0.005359
vt 0.235639 -0.000000
vt 0.430875 0.855626
vt 0.431661 0.899551
vt 0.255468 0.005360
vt 0.260724 0.000000
vt 0.275298 0.000000
vt 0.535674 0.255815
vt 0.510973 0.254210
vt 0.200523 0.566943
vt 0.175793 0.560306
vt 0.250213 0.270981
vt 0.235638 0.270981
vt 0.255468 0.265622
vt 0.180053 0.723795
vt 0.182837 0.767639
vt 0.150688 0.767582
vt 0.843474 0.593602
vt 0.830874 0.637391
vt 0.830874 0.436895
vt 0.843474 0.489131
vt 0.182837 0.567145
vt 0.180053 0.619325
vt 0.260724 0.270980
vt 0.255468 0.265621
vt 0.275298 0.270980
vt 0.081891 0.550692
vt 0.431661 0.817544
vt 0.849354 0.541366
vt 0.178754 0.671535
vt 0.792026 0.065338
vt 0.792038 0.097757
vt 0.748248 0.097795
vt 0.748235 0.065375
vt 0.792011 -0.000000
vt 0.792016 0.032769
vt 0.748225 0.032807
vt 0.748220 0.000038
vt 0.792026 0.131470
vt 0.792016 0.164912
vt 0.748225 0.164950
vt 0.748235 0.131507
vt 0.792011 0.198214
vt 0.748220 0.198252
vt 0.502663 0.488272
vt 0.502657 0.270981
vt 0.582978 0.268277
vt 0.582978 0.224486
vt 0.598615 0.224353
vt 0.586386 0.268248
vt 0.434918 0.493176
vt 0.401045 0.494381
vt 0.401045 0.478742
vt 0.434916 0.437742
vt 0.468790 0.491060
vt 0.468787 0.365784
vt 0.604280 0.478742
vt 0.604280 0.494381
vt 0.714225 0.930395
vt 0.699278 0.945099
vt 0.702420 0.930753
vt 0.701483 0.890958
vt 0.699278 0.887061
vt 0.706763 0.885812
vt 0.868941 -0.000000
vt 0.874352 0.005764
vt 0.883017 0.032471
vt 0.886382 0.085546
vt 0.879038 0.119383
vt 0.871535 0.119220
vt 0.861558 0.108593
vt 0.866704 0.064612
vt 0.863099 0.011369
vt 0.861558 0.006946
vt 0.873136 0.133079
vt 0.884920 0.119728
vt 0.889194 0.123484
vt 0.884543 0.138364
vt 0.882658 0.191708
vt 0.889194 0.235546
vt 0.879563 0.246486
vt 0.872068 0.246890
vt 0.863646 0.213304
vt 0.865312 0.160148
vt 0.783373 0.200524
vt 0.785844 0.198252
vt 0.791395 0.198926
vt 0.791395 0.244129
vt 0.781514 0.242695
vt 0.780821 0.239932
vt 0.557276 0.717872
vt 0.540453 0.716162
vt 0.552124 0.681784
vt 0.563980 0.682990
vt 0.799103 0.387675
vt 0.797757 0.375836
vt 0.815885 0.387303
vt 0.817232 0.399142
vt 0.076336 0.768728
vt 0.088253 0.768728
vt 0.088253 0.832451
vt 0.066352 0.832451
vt 0.699278 0.784607
vt 0.699273 0.796046
vt 0.682465 0.783022
vt 0.682470 0.771583
vt 0.931616 0.254590
vt 0.931616 0.317285
vt 0.931616 0.322386
vt 0.931616 0.316739
vt 0.914839 0.319692
vt 0.914839 0.257544
vt 0.930754 0.572785
vt 0.914086 0.570544
vt 0.920899 0.506886
vt 0.923266 0.507139
vt 0.411078 0.681784
vt 0.465545 0.681795
vt 0.455512 0.745510
vt 0.401045 0.745499
vt 0.632474 0.653039
vt 0.632467 0.667844
vt 0.615676 0.720020
vt 0.615683 0.705215
vt 0.725219 0.329758
vt 0.723476 0.314435
vt 0.733958 0.258687
vt 0.735701 0.274010
vt 0.699531 0.398875
vt 0.698184 0.387036
vt 0.711408 0.356247
vt 0.712754 0.368086
vt 0.877107 0.312791
vt 0.877105 0.349360
vt 0.817241 0.349409
vt 0.817243 0.312840
vt 0.280151 0.749469
vt 0.239836 0.749468
vt 0.229765 0.685759
vt 0.270079 0.685761
vt 0.665864 0.743650
vt 0.665859 0.755089
vt 0.649159 0.719882
vt 0.649166 0.705077
vt 0.598999 0.743650
vt 0.598994 0.755089
vt 0.582265 0.783141
vt 0.582270 0.771703
vt 0.505696 0.681794
vt 0.535032 0.681784
vt 0.524999 0.745499
vt 0.495664 0.745509
vt 0.338113 0.788362
vt 0.338134 0.734134
vt 0.397997 0.734223
vt 0.397977 0.788450
vt 0.758504 0.326117
vt 0.756761 0.310794
vt 0.777845 0.348690
vt 0.779191 0.360530
vt 0.324422 0.685743
vt 0.334493 0.749451
vt 0.278348 0.784854
vt 0.238033 0.784852
vt 0.208803 0.784835
vt 0.229949 0.820245
vt 0.200720 0.820229
vt 0.199589 0.805654
vt 0.185218 0.864789
vt 0.182837 0.864788
vt 0.182837 0.870435
vt 0.182837 0.865333
vt 0.182837 0.802639
vt 0.697165 0.399142
vt 0.695818 0.387303
vt 0.200535 0.685743
vt 0.210606 0.749451
vt 0.914840 0.190568
vt 0.931557 0.190118
vt 0.931556 0.254140
vt 0.914839 0.254590
vt 0.565542 0.796046
vt 0.565548 0.784607
vt 0.138327 0.873538
vt 0.121632 0.874551
vt 0.120203 0.822288
vt 0.135408 0.767639
vt 0.535032 0.751175
vt 0.556820 0.753390
vt 0.563980 0.818219
vt 0.552124 0.817014
vt 0.914839 0.155268
vt 0.931557 0.154818
vt 0.402869 0.780883
vt 0.457337 0.780893
vt 0.465442 0.816281
vt 0.410974 0.816271
vt 0.582934 0.250225
vt 0.559319 0.253583
vt 0.559319 0.224353
vt 0.582978 0.243261
vt 0.332691 0.784835
vt 0.324607 0.820229
vt 0.270264 0.820247
vt 0.182837 0.875418
vt 0.185232 0.898603
vt 0.185218 0.933805
vt 0.182837 0.933803
vt 0.338118 0.824768
vt 0.397982 0.824856
vt 0.877096 0.378353
vt 0.817232 0.378402
vt 0.397997 0.853952
vt 0.338134 0.853864
vt 0.931616 0.327369
vt 0.931616 0.385754
vt 0.914839 0.388707
vt 0.914853 0.353506
vt 0.877096 0.258687
vt 0.817232 0.258736
vt 0.105027 0.878777
vt 0.104511 0.859411
vt 0.068203 0.867832
vt 0.085112 0.867833
vt 0.088253 0.903215
vt 0.076336 0.903215
vt 0.927022 0.472039
vt 0.924655 0.471786
vt 0.928388 0.436895
vt 0.930754 0.437149
vt 0.171918 0.878777
vt 0.155103 0.873613
vt 0.153677 0.821503
vt 0.171350 0.857556
vt 0.497488 0.780892
vt 0.526823 0.780883
vt 0.534928 0.816271
vt 0.505593 0.816280
vt 0.535674 0.245138
vt 0.559319 0.224353
vt 0.559319 0.253689
vt 0.535698 0.252075
vt 0.822478 0.000035
vt 0.810906 0.054150
vt 0.805683 0.062871
vt 0.817255 0.008850
vt 0.803555 0.090725
vt 0.797269 0.119724
vt 0.792039 0.119728
vt 0.798332 0.099339
vt 0.846144 0.743766
vt 0.838793 0.707348
vt 0.844010 0.716071
vt 0.851361 0.752382
vt 0.827233 0.653102
vt 0.832450 0.661921
vt 0.857666 0.772881
vt 0.852435 0.772872
vt 0.861558 0.054104
vt 0.861558 0.090673
vt 0.861543 -0.000000
vt 0.788141 0.707267
vt 0.788169 0.653039
vt 0.861552 0.119666
vt 0.788141 0.743672
vt 0.788153 0.772769
vt 0.914839 0.120179
vt 0.931556 0.119728
vt 0.668531 0.829346
vt 0.668341 0.846060
vt 0.659103 0.845994
vt 0.658586 0.829279
vt 0.671009 0.796067
vt 0.669431 0.812650
vt 0.657320 0.812591
vt 0.658748 0.796047
vt 0.668392 0.862829
vt 0.669569 0.879524
vt 0.657048 0.879455
vt 0.658443 0.862761
vt 0.671009 0.896276
vt 0.658392 0.896246
vt 0.657685 0.796046
vt 0.646966 0.812538
vt 0.684975 0.796114
vt 0.683397 0.812697
vt 0.337393 0.699578
vt 0.335558 0.713385
vt 0.335203 0.714656
vt 0.336007 0.720390
vt 0.334493 0.709596
vt 0.334493 0.685742
vt 0.682497 0.829394
vt 0.631650 0.829041
vt 0.493894 0.892062
vt 0.477176 0.891270
vt 0.477138 0.816281
vt 0.493894 0.864950
vt 0.682308 0.846107
vt 0.682359 0.862876
vt 0.460411 0.892111
vt 0.460411 0.865142
vt 0.646693 0.879402
vt 0.631545 0.862524
vt 0.683535 0.879571
vt 0.684975 0.896323
vt 0.657304 0.896245
vt 0.335657 0.754941
vt 0.336046 0.749163
vt 0.335566 0.747885
vt 0.334493 0.734399
vt 0.336388 0.720390
vt 0.336388 0.744065
vt 0.889194 0.237791
vt 0.902255 0.237791
vt 0.896301 0.355374
vt 0.889194 0.355374
vt 0.780122 0.670916
vt 0.773014 0.670916
vt 0.781033 0.653039
vt 0.788141 0.653039
vt 0.899616 0.653039
vt 0.906439 0.653042
vt 0.906439 0.771105
vt 0.893900 0.771099
vt 0.729388 0.637396
vt 0.722280 0.637397
vt 0.730373 0.619415
vt 0.737481 0.619415
vt 0.198501 0.566943
vt 0.198501 0.570006
vt 0.198501 0.587345
vt 0.198501 0.685004
vt 0.182837 0.685057
vt 0.182837 0.566996
vt 0.876200 0.653040
vt 0.893900 0.653039
vt 0.893701 0.771101
vt 0.876001 0.771102
vt 0.609996 0.258736
vt 0.646147 0.258723
vt 0.640431 0.376782
vt 0.604280 0.376795
vt 0.811143 0.565887
vt 0.801943 0.565887
vt 0.769522 0.547957
vt 0.778721 0.547956
vt 0.740814 0.742423
vt 0.731614 0.742423
vt 0.699278 0.724546
vt 0.708478 0.724546
vt 0.780048 0.778073
vt 0.772940 0.778073
vt 0.755583 0.760300
vt 0.762691 0.760300
vt 0.338113 0.720419
vt 0.360382 0.720496
vt 0.360382 0.734059
vt 0.338113 0.733982
vt 0.715570 0.118094
vt 0.691286 0.118078
vt 0.685332 0.000016
vt 0.709616 0.000032
vt 0.754838 0.601642
vt 0.747730 0.601642
vt 0.769607 0.583765
vt 0.778807 0.583764
vt 0.754839 0.530134
vt 0.747730 0.530135
vt 0.730299 0.512258
vt 0.737407 0.512258
vt 0.674071 0.258706
vt 0.695818 0.258687
vt 0.690103 0.376747
vt 0.668355 0.376766
vt 0.914086 0.604882
vt 0.914092 0.572785
vt 0.927655 0.572795
vt 0.927649 0.604892
vt 0.740899 0.706615
vt 0.731699 0.706615
vt 0.755583 0.688793
vt 0.762691 0.688793
vt 0.742266 0.000048
vt 0.748220 0.118110
vt 0.709616 0.235678
vt 0.685332 0.235662
vt 0.673614 0.118062
vt 0.667660 0.235646
vt 0.400875 0.498491
vt 0.400875 0.616552
vt 0.381550 0.616535
vt 0.381550 0.518875
vt 0.381550 0.501537
vt 0.381550 0.498473
vt 0.788141 0.796055
vt 0.781033 0.796054
vt 0.667660 0.000000
vt 0.875801 0.771102
vt 0.857666 0.771101
vt 0.857865 0.653039
vt 0.876001 0.653040
vt 0.722280 0.494382
vt 0.729388 0.494381
vt 0.796324 0.173253
vt 0.795984 0.155376
vt 0.831298 0.155352
vt 0.863646 0.173207
vt 0.889194 0.119728
vt 0.896301 0.119728
vt 0.876001 0.888686
vt 0.857865 0.888685
vt 0.646147 0.494369
vt 0.609996 0.494381
vt 0.792907 0.119728
vt 0.792039 0.119729
vt 0.809408 0.137490
vt 0.795568 0.137499
vt 0.742266 0.235694
vt 0.381550 0.720554
vt 0.400875 0.734135
vt 0.381550 0.734117
vt 0.914087 0.626353
vt 0.927650 0.626363
vt 0.927655 0.643473
vt 0.914092 0.643464
vt 0.198501 0.789024
vt 0.198501 0.802587
vt 0.182837 0.802639
vt 0.805601 0.226886
vt 0.805601 0.252909
vt 0.792038 0.252931
vt 0.792038 0.226908
vt 0.051560 0.566981
vt 0.069067 0.566965
vt 0.069067 0.768644
vt 0.051560 0.768660
vt 0.086592 0.566949
vt 0.104511 0.566943
vt 0.104511 0.768622
vt 0.086592 0.768628
vt 0.016851 0.567019
vt 0.034143 0.567000
vt 0.034143 0.768679
vt 0.016851 0.768699
vt -0.000000 0.567048
vt -0.000000 0.768728
vt 0.906439 0.888688
vt 0.899616 0.888685
vt 0.893900 0.888685
vt 0.876200 0.888686
vt 0.795618 0.209007
vt 0.796014 0.191184
vt 0.831237 0.191160
vt 0.809458 0.208998
vt 0.695818 0.494333
vt 0.674071 0.494352
vt 0.792039 0.226886
vt 0.792986 0.226886
vt 0.615948 0.224358
vt 0.615948 0.250381
vt 0.598615 0.255399
vt 0.598615 0.229430
vt 0.360382 0.501479
vt 0.361516 0.518839
vt 0.885932 0.419771
vt 0.885932 0.398301
vt 0.903267 0.403511
vt 0.903267 0.424918
vt 0.338113 0.501401
vt 0.339262 0.518762
vt 0.885940 0.366203
vt 0.903275 0.371471
vt 0.903275 0.436895
vt 0.885936 0.436882
vt 0.062406 0.804375
vt 0.062066 0.822252
vt -0.000000 0.822211
vt 0.032292 0.804355
vt 0.054117 0.786493
vt 0.062822 0.786499
vt 0.338113 0.498338
vt 0.360382 0.498415
vt 0.619011 0.224353
vt 0.619011 0.250376
vt 0.882869 0.398298
vt 0.882877 0.366201
vt 0.062376 0.840183
vt 0.032352 0.840163
vt 0.066352 0.768728
vt 0.065483 0.768728
vt 0.199448 0.566943
vt 0.200282 0.566943
vt 0.200282 0.664604
vt 0.200282 0.768624
vt 0.199448 0.768624
vt 0.882869 0.419769
vt 0.054066 0.858000
vt 0.062772 0.858006
vt 0.882873 0.436880
vt 0.065404 0.875885
vt 0.066352 0.875885
vt 0.198501 0.664604
vt 0.198501 0.566943
vt 0.199448 0.566943
vt 0.199448 0.768624
vt 0.198501 0.768624
s 0
usemtl Material
f 115/1/1 114/2/1 120/3/1 121/4/1
f 98/5/2 96/6/2 134/7/2 99/8/2
f 67/9/3 64/10/3 74/11/3 75/12/3
f 117/13/4 111/14/4 110/15/4 116/16/4
f 130/17/5 123/18/5 124/19/5 131/20/5
f 124/21/2 109/22/2 99/8/2 131/23/2
f 40/24/2 41/25/2 51/26/2 48/27/2
f 51/28/6 41/29/6 38/30/6 50/31/6
f 44/32/3 45/33/3 57/34/3 49/35/3
f 12/36/3 11/37/3 13/38/3 16/39/3
f 123/18/7 115/1/7 121/4/7 124/19/7
f 109/22/2 124/21/2 121/40/2 117/41/2
f 32/42/8 38/43/8 41/44/8 35/45/8
f 116/46/2 108/47/2 109/22/2 117/41/2
f 5/48/3 4/49/3 11/37/3 12/36/3
f 84/50/3 66/51/3 64/10/3 67/9/3
f 96/6/2 47/52/2 52/53/2 134/7/2
f 46/54/2 39/55/2 40/24/2 48/27/2
f 48/27/2 51/26/2 59/56/2 52/53/2
f 59/57/9 51/28/9 50/31/9 58/58/9
f 54/59/10 43/60/10 15/61/10 22/62/10
f 88/63/11 21/64/11 53/65/11 127/66/11
f 72/67/12 86/68/12 125/69/12 90/70/12
f 14/71/13 9/72/13 28/73/13 42/74/13
f 29/75/14 27/76/14 8/77/14 10/78/14
f 21/64/15 14/79/15 42/80/15 53/65/15
f 43/60/16 29/81/16 10/82/16 15/61/16
f 87/83/17 73/84/17 91/85/17 126/86/17
f 127/87/18 125/69/18 86/68/18 88/88/18
f 58/58/19 50/31/19 43/60/19 54/59/19
f 127/66/20 53/65/20 57/89/20 132/90/20
f 90/70/21 125/69/21 129/91/21 122/92/21 105/93/21 92/94/21
f 42/74/22 28/73/22 37/95/22 49/96/22
f 38/43/23 32/42/23 27/76/23 29/75/23
f 123/18/24 106/97/24 103/98/24 115/1/24
f 53/65/25 42/80/25 49/99/25 57/89/25
f 50/31/26 38/30/26 29/81/26 43/60/26
f 106/97/27 123/18/27 130/17/27 126/86/27 91/85/27 94/100/27
f 105/93/28 122/92/28 111/101/28 102/102/28
f 132/103/29 129/91/29 125/69/29 127/87/29
f 115/1/30 103/98/30 104/104/30 114/2/30
f 80/105/31 83/106/31 77/107/31 75/108/31
f 66/109/32 17/110/32 88/88/32 86/68/32
f 64/111/33 65/112/33 76/113/33 74/114/33
f 67/115/34 69/116/34 71/117/34 73/84/34 87/83/34 84/118/34
f 5/119/35 12/120/35 15/61/35 10/82/35
f 13/121/36 11/122/36 14/79/36 21/64/36
f 75/108/37 77/107/37 69/116/37 67/115/37
f 3/123/38 5/124/38 10/78/38 8/77/38
f 11/125/39 4/126/39 9/72/39 14/71/39
f 65/112/40 64/111/40 66/109/40 86/68/40 72/67/40 68/127/40
f 17/128/41 13/121/41 21/64/41 88/63/41
f 22/62/42 15/61/42 12/120/42 16/129/42
f 19/130/3 85/131/3 20/132/3
f 18/133/3 19/130/3 20/132/3
f 62/134/2 63/135/2 135/136/2
f 63/135/2 136/137/2 135/136/2
f 63/138/43 61/139/43 133/140/43 136/141/43
f 62/142/44 60/143/44 61/144/44 63/145/44
f 56/146/45 24/147/45 89/148/45 128/149/45
f 55/150/46 23/151/46 24/152/46 56/153/46
f 61/139/47 56/146/47 128/149/47 133/140/47
f 60/143/48 55/150/48 56/153/48 61/144/48
f 24/147/49 20/154/49 85/155/49 89/148/49
f 23/151/50 18/156/50 20/157/50 24/152/50
f 85/155/51 84/118/51 87/83/51 89/148/51
f 19/130/3 17/158/3 66/51/3 84/50/3 85/131/3
f 16/39/3 13/38/3 17/158/3 19/130/3 18/133/3
f 16/129/52 18/156/52 23/151/52 22/62/52
f 52/53/2 59/56/2 62/134/2 135/136/2 134/7/2
f 131/23/2 99/8/2 134/7/2 135/136/2 136/137/2
f 62/142/53 59/57/53 58/58/53 60/143/53
f 133/140/54 130/17/54 131/20/54 136/141/54
f 55/150/55 54/59/55 22/62/55 23/151/55
f 60/143/56 58/58/56 54/59/56 55/150/56
f 126/86/57 128/149/57 89/148/57 87/83/57
f 130/17/58 133/140/58 128/149/58 126/86/58
f 119/159/59 113/160/59 112/161/59 118/162/59
f 6/163/60 2/164/60 1/165/60 7/166/60
f 30/167/61 26/168/61 25/169/61 31/170/61
f 100/171/62 112/161/62 113/160/62 101/172/62
f 34/173/63 30/167/63 31/170/63 33/174/63
f 26/168/64 6/163/64 7/166/64 25/169/64
f 79/175/65 78/176/65 81/177/65 82/178/65
f 114/2/4 113/179/4 119/180/4 120/3/4
f 119/181/2 118/182/2 117/41/2 121/40/2 120/183/2
f 112/161/66 111/184/66 117/185/66 118/162/66
f 75/12/3 74/11/3 78/186/3 79/187/3 80/188/3
f 74/189/67 76/190/67 81/177/67 78/176/67
f 80/105/4 79/191/4 82/192/4 83/106/4
f 33/193/2 35/194/2 41/25/2 40/24/2 34/195/2
f 37/95/68 30/196/68 34/197/68 40/198/68
f 31/170/69 32/199/69 35/200/69 33/174/69
f 1/165/69 3/201/69 8/202/69 7/166/69
f 4/126/70 2/203/70 6/204/70 9/72/70
f 1/205/3 2/206/3 4/49/3 5/48/3 3/207/3
f 114/2/4 104/104/4 101/208/4 113/179/4
f 102/209/71 111/184/71 112/161/71 100/171/71
f 25/169/69 27/210/69 32/199/69 31/170/69
f 7/166/69 8/202/69 27/210/69 25/169/69
f 28/73/72 26/211/72 30/196/72 37/95/72
f 9/72/73 6/204/73 26/211/73 28/73/73
f 97/212/74 95/213/74 96/214/74 98/215/74
f 110/216/75 107/217/75 108/218/75 116/219/75
f 45/220/76 44/221/76 46/222/76 47/223/76
f 44/221/77 36/224/77 39/225/77 46/222/77
f 107/217/78 97/212/78 98/215/78 108/218/78
f 95/213/79 45/220/79 47/223/79 96/214/79
f 45/33/3 95/226/3 132/227/3 57/34/3
f 39/228/69 36/229/69 37/230/69 40/231/69
f 107/232/3 110/233/3 111/234/3 122/235/3
f 97/236/3 107/232/3 122/235/3 129/237/3
f 95/226/3 97/236/3 129/237/3 132/227/3
f 49/35/3 37/238/3 36/239/3 44/32/3
f 108/47/2 98/5/2 99/8/2 109/22/2
f 47/52/2 46/54/2 48/27/2 52/53/2
f 70/240/4 68/241/4 72/242/4 90/243/4 92/244/4 93/245/4
f 93/246/80 92/247/80 105/248/80 102/249/80 100/250/80 101/251/80 104/252/80 103/253/80 106/254/80 94/255/80
f 68/256/81 70/257/81 71/258/81 69/259/81 77/260/81 83/261/81 82/262/81 81/263/81 76/264/81 65/265/81
f 73/266/82 71/267/82 70/268/82 93/269/82 94/270/82 91/271/82
f 214/272/3 215/273/3 157/274/3 156/275/3
f 192/276/69 193/277/69 213/278/69 212/279/69
f 210/280/2 208/281/2 209/282/2 211/283/2
f 139/284/4 137/285/4 140/286/4 141/287/4
f 182/288/83 184/289/83 185/290/83 186/291/83 209/292/83 208/293/83
f 139/294/84 141/295/84 148/296/84 142/297/84
f 198/298/85 196/299/85 200/300/85 203/301/85
f 198/302/4 197/303/4 167/304/4 196/305/4
f 173/306/69 204/307/69 207/308/69 206/309/69
f 158/310/69 159/311/69 161/312/69 160/313/69
f 166/314/86 154/315/86 160/316/86 173/317/86
f 195/318/87 155/319/87 150/320/87 194/321/87
f 150/322/4 149/323/4 162/324/4 194/325/4
f 176/326/4 175/327/4 182/328/4 183/329/4
f 176/330/88 183/331/88 189/332/88 181/333/88
f 172/334/89 202/335/89 206/336/89 174/337/89
f 174/338/69 205/339/69 191/340/69 190/341/69
f 194/325/4 162/324/4 197/303/4 198/302/4
f 194/321/90 198/342/90 203/343/90 195/318/90
f 160/313/69 161/312/69 204/307/69 173/306/69
f 216/344/91 217/345/91 155/319/91 195/318/91
f 205/339/69 174/338/69 206/309/69 207/308/69
f 218/346/92 217/345/92 161/347/92 159/348/92
f 196/305/4 167/304/4 175/327/4 176/326/4
f 196/299/93 176/330/93 181/333/93 200/300/93
f 137/349/94 138/350/94 145/351/94 144/352/94 143/353/94 140/354/94
f 156/355/69 157/356/69 159/311/69 158/310/69
f 141/357/95 150/320/95 155/319/95 148/358/95
f 141/287/4 140/286/4 149/323/4 150/322/4
f 211/359/96 189/360/96 183/361/96 210/362/96
f 183/329/4 182/328/4 208/363/4 210/364/4
f 193/277/69 192/276/69 190/341/69 191/340/69
f 168/365/97 163/366/97 166/367/97 202/368/97
f 142/369/98 138/370/98 137/371/98 139/372/98
f 219/373/99 220/374/99 189/360/99 211/359/99
f 221/375/100 222/376/100 205/377/100 207/378/100
f 147/379/101 146/380/101 154/381/101 153/382/101
f 216/344/102 221/383/102 207/384/102 204/385/102
f 146/386/103 145/351/103 138/350/103 214/387/103 156/388/103 158/389/103
f 180/390/104 172/334/104 174/337/104 190/391/104
f 154/315/105 146/392/105 158/393/105 160/316/105
f 190/391/106 192/394/106 187/395/106 180/390/106
f 186/291/107 187/396/107 192/397/107 212/398/107 223/399/107 209/292/107
f 202/400/108 166/314/108 173/317/108 206/401/108
f 163/366/109 153/402/109 154/403/109 166/367/109
f 219/404/2 223/405/2 212/406/2 213/407/2
f 215/408/110 218/409/110 159/410/110 157/411/110
f 179/412/111 169/413/111 172/414/111 180/415/111
f 224/416/112 220/417/112 193/418/112 191/419/112
f 222/376/113 224/416/113 191/419/113 205/377/113
f 179/420/114 180/421/114 187/422/114 188/423/114
f 169/413/115 168/365/115 202/368/115 172/414/115
f 201/424/116 165/425/116 164/426/116 199/427/116
f 152/428/117 143/429/117 144/430/117 151/431/117
f 178/432/118 171/433/118 170/434/118 177/435/118
f 165/425/119 152/428/119 151/431/119 164/426/119
f 171/433/120 201/436/120 199/437/120 170/434/120
f 177/435/121 185/438/121 184/439/121 178/432/121
f 162/440/86 149/441/86 152/428/86 165/425/86
f 197/442/108 162/440/108 165/425/108 201/424/108
f 167/443/89 197/444/89 201/436/89 171/433/89
f 149/441/105 140/445/105 143/429/105 152/428/105
f 175/446/104 167/443/104 171/433/104 178/432/104
f 178/432/106 184/439/106 182/447/106 175/446/106
f 200/300/122 181/333/122 224/416/122 222/376/122
f 181/333/123 189/332/123 220/417/123 224/416/123
f 142/297/124 148/296/124 218/409/124 215/408/124
f 211/283/2 209/282/2 223/405/2 219/404/2
f 195/318/125 203/343/125 221/383/125 216/344/125
f 203/301/126 200/300/126 222/376/126 221/375/126
f 213/448/127 193/449/127 220/374/127 219/373/127
f 148/358/128 155/319/128 217/345/128 218/346/128
f 204/385/129 161/347/129 217/345/129 216/344/129
f 138/370/3 142/369/3 215/273/3 214/272/3
f 230/450/130 231/451/130 232/452/130 229/453/130
f 225/454/131 227/455/131 228/456/131 226/457/131
f 234/458/132 235/459/132 236/460/132 233/461/132
f 227/455/133 230/450/133 229/453/133 228/456/133
f 231/451/134 234/458/134 233/461/134 232/452/134
f 235/459/135 238/462/135 237/463/135 236/460/135
f 144/464/136 226/457/136 228/456/136 151/465/136
f 227/455/137 225/454/137 147/466/137 153/467/137
f 225/468/2 226/469/2 144/470/2 145/471/2 146/472/2 147/473/2
f 230/450/138 227/455/138 153/467/138 163/474/138
f 164/475/139 151/465/139 228/456/139 229/453/139
f 229/476/140 232/477/140 199/478/140 164/479/140
f 231/451/141 230/450/141 163/474/141 168/480/141
f 234/458/142 231/451/142 168/480/142 169/481/142
f 232/477/143 233/482/143 170/483/143 199/478/143
f 177/484/144 170/485/144 233/461/144 236/460/144
f 235/459/145 234/458/145 169/481/145 179/486/145
f 238/462/146 235/459/146 179/486/146 188/487/146
f 177/484/147 236/460/147 237/463/147 185/488/147
f 186/489/3 185/490/3 237/491/3 238/492/3 188/493/3 187/494/3
f 240/495/69 244/496/69 261/497/69 260/498/69
f 301/499/2 302/500/2 322/501/2 321/502/2
f 319/503/4 317/504/4 318/505/4 320/506/4
f 241/507/3 239/508/3 242/509/3 243/510/3
f 290/511/148 292/512/148 293/513/148 295/514/148 318/515/148 317/516/148
f 241/517/149 243/518/149 251/519/149 244/520/149
f 307/521/150 305/522/150 309/523/150 312/524/150
f 307/525/3 306/526/3 272/527/3 305/528/3
f 280/529/2 313/530/2 316/531/2 315/532/2
f 262/533/2 263/534/2 265/535/2 264/536/2
f 271/537/151 258/538/151 264/539/151 280/540/151
f 304/541/152 259/542/152 253/543/152 303/544/152
f 253/545/3 252/546/3 266/547/3 303/548/3
f 283/549/3 282/550/3 290/551/3 291/552/3
f 283/553/153 291/554/153 298/555/153 289/556/153
f 279/557/154 311/558/154 315/559/154 281/560/154
f 281/561/2 314/562/2 300/563/2 299/564/2
f 303/548/3 266/547/3 306/526/3 307/525/3
f 303/544/155 307/565/155 312/566/155 304/541/155
f 264/536/2 265/535/2 313/530/2 280/529/2
f 313/567/156 265/568/156 259/542/156 304/541/156
f 314/562/2 281/561/2 315/532/2 316/531/2
f 251/569/157 259/542/157 265/568/157 263/570/157
f 305/528/3 272/527/3 282/550/3 283/549/3
f 305/522/158 283/553/158 289/556/158 309/523/158
f 239/571/159 240/572/159 248/573/159 246/574/159 245/575/159 242/576/159
f 260/577/2 261/578/2 263/534/2 262/533/2
f 243/579/160 253/543/160 259/542/160 251/569/160
f 243/510/3 242/509/3 252/546/3 253/545/3
f 320/580/161 298/581/161 291/582/161 319/583/161
f 291/552/3 290/551/3 317/584/3 319/585/3
f 302/500/2 301/499/2 299/564/2 300/563/2
f 274/586/2 268/587/2 271/588/2 311/589/2
f 244/496/69 240/495/69 239/590/69 241/591/69
f 322/592/162 302/593/162 298/581/162 320/580/162
f 312/524/163 309/523/163 314/594/163 316/595/163
f 250/596/2 249/597/2 258/598/2 257/599/2
f 304/541/164 312/566/164 316/600/164 313/567/164
f 249/601/159 248/573/159 240/572/159 260/602/159 262/603/159
f 288/604/165 279/557/165 281/560/165 299/605/165
f 258/538/166 249/601/166 262/603/166 264/539/166
f 299/605/167 301/606/167 296/607/167 288/604/167
f 295/514/148 296/608/148 301/609/148 321/610/148 318/515/148
f 311/611/168 271/612/168 280/613/168 315/614/168
f 273/615/169 267/616/169 268/617/169 274/618/169
f 254/619/170 247/620/170 250/621/170 257/622/170
f 284/623/171 275/624/171 276/625/171 287/626/171
f 267/616/172 254/619/172 257/622/172 268/617/172
f 275/624/173 273/615/173 274/618/173 276/625/173
f 294/627/174 284/623/174 287/626/174 297/628/174
f 268/587/2 257/599/2 258/598/2 271/588/2
f 320/506/4 318/505/4 321/629/4 322/630/4
f 244/520/175 251/519/175 263/631/175 261/632/175
f 287/633/2 276/634/2 279/635/2 288/636/2
f 289/556/176 298/555/176 302/637/176 300/638/176
f 309/523/177 289/556/177 300/638/177 314/594/177
f 287/633/2 288/636/2 296/639/2 297/640/2
f 276/634/2 274/586/2 311/589/2 279/635/2
f 310/641/178 270/642/178 269/643/178 308/644/178
f 256/645/179 245/575/179 246/574/179 255/646/179
f 286/647/180 278/648/180 277/649/180 285/650/180
f 270/651/181 256/645/181 255/646/181 269/652/181
f 278/648/182 310/653/182 308/654/182 277/649/182
f 285/650/183 293/655/183 292/656/183 286/647/183
f 267/657/3 273/658/3 308/659/3 269/660/3
f 269/660/3 255/661/3 254/662/3 267/657/3
f 266/663/184 252/664/184 256/645/184 270/651/184
f 306/665/168 266/666/168 270/642/168 310/641/168
f 272/667/154 306/668/154 310/653/154 278/648/154
f 273/658/3 275/669/3 277/670/3 308/659/3
f 246/671/3 247/672/3 254/662/3 255/661/3
f 252/664/166 242/576/166 245/575/166 256/645/166
f 247/673/4 246/674/4 248/675/4 249/676/4 250/677/4
f 282/678/165 272/667/165 278/648/165 286/647/165
f 285/679/3 277/670/3 275/669/3 284/680/3
f 286/647/167 292/656/167 290/681/167 282/678/167
f 285/679/3 284/680/3 294/682/3 293/683/3
f 295/684/69 293/685/69 294/686/69 297/687/69 296/688/69
