# Blender 5.1.1
# www.blender.org
mtllib oUTSIDE LOGS.mtl
o Roof.004
v 22.764505 1.000000 -7.832120
v 22.764505 1.000000 7.832119
v 23.471613 0.707107 -7.832120
v 23.471613 0.707107 7.832119
v 23.764505 -0.000000 -7.832119
v 23.764505 0.000000 7.832119
v 23.471613 -0.707107 -7.832119
v 23.471613 -0.707107 7.832120
v 22.764505 -1.000000 -7.832119
v 22.764505 -1.000000 7.832120
v 22.057398 -0.707107 -7.832119
v 22.057398 -0.707107 7.832120
v 21.764505 -0.000000 -7.832119
v 21.764505 0.000000 7.832119
v 22.057398 0.707107 -7.832120
v 22.057398 0.707107 7.832119
v 25.277029 0.857960 -8.563627
v 25.277029 0.857960 7.100612
v 25.733234 0.243417 -8.563627
v 25.733234 0.243417 7.100613
v 25.621273 -0.513717 -8.563626
v 25.621273 -0.513716 7.100613
v 25.006731 -0.969923 -8.563626
v 25.006731 -0.969923 7.100614
v 24.249598 -0.857962 -8.563626
v 24.249598 -0.857961 7.100614
v 23.793390 -0.243419 -8.563626
v 23.793390 -0.243419 7.100614
v 23.905352 0.513714 -8.563626
v 23.905352 0.513715 7.100613
v 24.519894 0.969921 -8.563627
v 24.519894 0.969921 7.100613
v 27.396149 0.857960 -7.832120
v 27.396149 0.857960 7.832119
v 27.852354 0.243417 -7.832120
v 27.852354 0.243417 7.832119
v 27.740393 -0.513717 -7.832119
v 27.740393 -0.513716 7.832119
v 27.125851 -0.969923 -7.832119
v 27.125851 -0.969923 7.832120
v 26.368717 -0.857962 -7.832119
v 26.368717 -0.857961 7.832120
v 25.912510 -0.243419 -7.832119
v 25.912510 -0.243419 7.832120
v 26.024471 0.513714 -7.832119
v 26.024471 0.513715 7.832119
v 26.639013 0.969921 -7.832120
v 26.639013 0.969921 7.832119
v 24.334354 2.498762 -8.130733
v 24.334354 2.498762 7.533506
v 24.790560 1.884219 -8.130733
v 24.790560 1.884219 7.533506
v 24.678598 1.127085 -8.130733
v 24.678598 1.127086 7.533506
v 24.064056 0.670879 -8.130733
v 24.064056 0.670879 7.533507
v 23.306923 0.782840 -8.130732
v 23.306923 0.782841 7.533507
v 22.850716 1.397383 -8.130733
v 22.850716 1.397383 7.533507
v 22.962677 2.154516 -8.130733
v 22.962677 2.154517 7.533506
v 23.577219 2.610723 -8.130733
v 23.577219 2.610723 7.533506
v 26.398624 2.498762 -7.446589
v 26.398624 2.498762 8.217650
v 26.854830 1.884219 -7.446589
v 26.854830 1.884219 8.217651
v 26.742868 1.127085 -7.446588
v 26.742868 1.127086 8.217651
v 26.128326 0.670879 -7.446588
v 26.128326 0.670879 8.217651
v 25.371193 0.782840 -7.446588
v 25.371193 0.782841 8.217651
v 24.914986 1.397383 -7.446588
v 24.914986 1.397383 8.217651
v 25.026947 2.154516 -7.446588
v 25.026947 2.154517 8.217651
v 25.641489 2.610723 -7.446589
v 25.641489 2.610723 8.217651
v 23.462751 3.802765 -8.438424
v 23.462751 3.802765 7.225816
v 23.687500 3.071142 -8.438424
v 23.687500 3.071142 7.225816
v 23.329086 2.394884 -8.438423
v 23.329086 2.394884 7.225816
v 22.597464 2.170132 -8.438423
v 22.597464 2.170132 7.225817
v 21.921206 2.528546 -8.438422
v 21.921206 2.528546 7.225817
v 21.696453 3.260170 -8.438423
v 21.696453 3.260170 7.225817
v 22.054867 3.936429 -8.438423
v 22.054867 3.936429 7.225816
v 22.786489 4.161180 -8.438424
v 22.786489 4.161180 7.225816
v 25.510416 3.990990 -8.883967
v 25.510416 3.990990 6.780272
v 25.741343 3.261292 -8.883967
v 25.741343 3.261292 6.780272
v 25.388660 2.582028 -8.883966
v 25.388660 2.582028 6.780272
v 24.658964 2.351099 -8.883966
v 24.658964 2.351099 6.780273
v 23.979700 2.703782 -8.883965
v 23.979700 2.703782 6.780273
v 23.748770 3.433480 -8.883966
v 23.748770 3.433480 6.780273
v 24.101454 4.112745 -8.883966
v 24.101454 4.112745 6.780272
v 24.831148 4.343674 -8.883967
v 24.831148 4.343674 6.780272
v 24.275846 5.503943 -8.233662
v 24.275846 5.503943 7.430578
v 24.500595 4.772320 -8.233662
v 24.500595 4.772320 7.430578
v 24.142181 4.096062 -8.233661
v 24.142181 4.096062 7.430578
v 23.410559 3.871310 -8.233661
v 23.410559 3.871310 7.430579
v 22.734301 4.229723 -8.233661
v 22.734301 4.229724 7.430579
v 22.509548 4.961349 -8.233661
v 22.509548 4.961349 7.430579
v 22.867962 5.637607 -8.233661
v 22.867962 5.637607 7.430578
v 23.599585 5.862359 -8.233662
v 23.599585 5.862359 7.430578
v 28.029076 -0.068509 5.604943
v 28.029076 -0.068509 4.788863
v 28.458382 0.232095 5.604943
v 28.458382 0.232095 4.788863
v 27.576061 -1.062350 4.788863
v 27.576061 -1.062350 5.604943
v 28.099762 -1.082465 4.788863
v 28.099762 -1.082465 5.604943
v 28.453642 -0.599001 5.601709
v 28.453642 -0.599001 4.785628
v 27.961634 -0.530806 5.601709
v 27.961634 -0.530806 4.785628
v 21.486828 6.684549 5.604943
v 21.486828 6.684549 4.788863
v 21.542414 7.205679 4.788863
v 21.542414 7.205679 5.604943
v 24.139080 5.486981 5.604943
v 22.739151 6.388052 5.604943
v 22.739151 6.388052 4.788863
v 24.139080 5.486981 4.788863
v 23.215479 6.722859 5.604943
v 24.568386 5.787584 5.604943
v 23.215479 6.722859 4.788863
v 24.568386 5.787584 4.788863
v 28.029076 -0.068509 -5.299073
v 28.029076 -0.068509 -6.115153
v 28.458382 0.232095 -5.299073
v 28.458382 0.232095 -6.115153
v 27.576061 -1.062350 -6.115153
v 27.576061 -1.062350 -5.299073
v 28.099762 -1.082465 -6.115153
v 28.099762 -1.082465 -5.299073
v 28.453642 -0.599001 -5.302307
v 28.453642 -0.599001 -6.118387
v 27.961634 -0.530806 -5.302307
v 27.961634 -0.530806 -6.118387
v 21.486828 6.684549 -5.299073
v 21.486828 6.684549 -6.115153
v 21.542414 7.205679 -6.115153
v 21.542414 7.205679 -5.299073
v 24.139080 5.486981 -5.299073
v 22.739151 6.388052 -5.299073
v 22.739151 6.388052 -6.115153
v 24.139080 5.486981 -6.115153
v 23.215479 6.722859 -5.299073
v 24.568386 5.787584 -5.299073
v 23.215479 6.722859 -6.115153
v 24.568386 5.787584 -6.115153
v 28.029076 -0.068509 0.207811
v 28.029076 -0.068509 -0.608269
v 28.458382 0.232095 0.207811
v 28.458382 0.232095 -0.608269
v 27.576061 -1.062350 -0.608269
v 27.576061 -1.062350 0.207811
v 28.099762 -1.082465 -0.608269
v 28.099762 -1.082465 0.207811
v 28.453642 -0.599001 0.204577
v 28.453642 -0.599001 -0.611503
v 27.961634 -0.530806 0.204577
v 27.961634 -0.530806 -0.611503
v 21.486828 6.684549 0.207811
v 21.486828 6.684549 -0.608269
v 21.542414 7.205679 -0.608269
v 21.542414 7.205679 0.207811
v 24.139080 5.486981 0.207811
v 22.739151 6.388052 0.207811
v 22.739151 6.388052 -0.608269
v 24.139080 5.486981 -0.608269
v 23.215479 6.722859 0.207811
v 24.568386 5.787584 0.207811
v 23.215479 6.722859 -0.608269
v 24.568386 5.787584 -0.608269
vn 0.3827 0.9239 -0.0000
vn 0.9239 0.3827 -0.0000
vn 0.9239 -0.3827 -0.0000
vn 0.3827 -0.9239 -0.0000
vn -0.3827 -0.9239 -0.0000
vn -0.9239 -0.3827 -0.0000
vn -0.0000 -0.0000 1.0000
vn -0.9239 0.3827 -0.0000
vn -0.3827 0.9239 -0.0000
vn -0.0000 -0.0000 -1.0000
vn 0.8029 0.5961 -0.0000
vn 0.9892 -0.1463 -0.0000
vn 0.5961 -0.8029 -0.0000
vn -0.1463 -0.9892 -0.0000
vn -0.8029 -0.5961 -0.0000
vn -0.9892 0.1463 -0.0000
vn -0.5961 0.8029 -0.0000
vn 0.1463 0.9892 -0.0000
vn 0.9559 0.2936 -0.0000
vn 0.8836 -0.4683 -0.0000
vn 0.2937 -0.9559 -0.0000
vn -0.4683 -0.8836 -0.0000
vn -0.9559 -0.2937 -0.0000
vn -0.8836 0.4683 -0.0000
vn -0.2937 0.9559 -0.0000
vn 0.4683 0.8836 -0.0000
vn 0.9534 0.3017 -0.0000
vn 0.8875 -0.4608 -0.0000
vn 0.3017 -0.9534 -0.0000
vn -0.4608 -0.8875 -0.0000
vn -0.9534 -0.3017 -0.0000
vn -0.8875 0.4608 -0.0000
vn -0.3017 0.9534 -0.0000
vn 0.4608 0.8875 -0.0000
vn 0.8069 -0.5906 -0.0000
vn -0.0384 -0.9993 -0.0000
vn 0.0005 0.0060 1.0000
vn -0.0005 -0.0060 -1.0000
vn -0.8095 0.5872 -0.0000
vn -0.9895 0.1444 -0.0000
vn -0.0013 0.0051 -1.0000
vn 0.0013 -0.0051 1.0000
vn 1.0000 -0.0057 -0.0000
vn -0.9944 0.1061 -0.0000
vn -0.5412 -0.8409 -0.0000
vn 0.5687 0.8226 -0.0000
vn -0.8192 -0.5736 -0.0000
vn -0.2304 -0.9731 -0.0000
vn 0.2773 0.9608 -0.0000
vn 0.8192 0.5736 -0.0000
vt 0.354564 0.976039
vt 0.354564 0.853952
vt 0.360149 0.853953
vt 0.360149 0.976039
vt 0.031785 0.997973
vt 0.031785 0.875886
vt 0.037715 0.875885
vt 0.037715 0.997972
vt 0.042364 0.875891
vt 0.042364 0.997978
vt 0.171918 0.889735
vt 0.171918 0.767650
vt 0.177797 0.767654
vt 0.177797 0.889740
vt 0.182668 0.767639
vt 0.182668 0.889724
vt 0.957038 0.241817
vt 0.957038 0.119730
vt 0.962508 0.119728
vt 0.962508 0.241815
vt 0.775666 0.637396
vt 0.779884 0.641614
vt 0.779884 0.647580
vt 0.775666 0.651798
vt 0.769701 0.651798
vt 0.765483 0.647580
vt 0.765483 0.641615
vt 0.769701 0.637396
vt 0.968059 0.119730
vt 0.968059 0.241817
vt 0.349132 0.976039
vt 0.349132 0.853953
vt 0.692928 0.241822
vt 0.697146 0.237604
vt 0.703111 0.237604
vt 0.707329 0.241822
vt 0.707329 0.247787
vt 0.703111 0.252006
vt 0.697146 0.252006
vt 0.692928 0.247788
vt 0.371163 0.976042
vt 0.371163 0.853956
vt 0.376758 0.853952
vt 0.376758 0.976039
vt 0.382177 0.853956
vt 0.382177 0.976043
vt 0.962203 0.772723
vt 0.962203 0.650638
vt 0.967660 0.650648
vt 0.967660 0.772734
vt 0.973222 0.650639
vt 0.973222 0.772724
vt 0.978489 0.558985
vt 0.978489 0.436899
vt 0.983215 0.436895
vt 0.983215 0.558982
vt 0.989130 0.436896
vt 0.989130 0.558983
vt 0.726498 0.637396
vt 0.732463 0.637397
vt 0.736681 0.641615
vt 0.736681 0.647580
vt 0.732463 0.651798
vt 0.726498 0.651798
vt 0.722281 0.647580
vt 0.722281 0.641614
vt 0.000000 0.997972
vt 0.000000 0.875886
vt 0.004668 0.875885
vt 0.004668 0.997972
vt 0.010595 0.875885
vt 0.010595 0.997972
vt 0.515153 0.255815
vt 0.521118 0.255815
vt 0.525336 0.260033
vt 0.525336 0.265998
vt 0.521118 0.270216
vt 0.515153 0.270216
vt 0.510935 0.265998
vt 0.510935 0.260033
vt 0.382177 0.976042
vt 0.382177 0.853956
vt 0.387772 0.853952
vt 0.387772 0.976039
vt 0.393191 0.853956
vt 0.393191 0.976043
vt 0.957098 0.376676
vt 0.957098 0.254590
vt 0.962554 0.254601
vt 0.962554 0.376686
vt 0.968117 0.254591
vt 0.968117 0.376677
vt 0.979066 0.241818
vt 0.979066 0.119732
vt 0.983792 0.119728
vt 0.983792 0.241815
vt 0.989707 0.119729
vt 0.989707 0.241815
vt 0.725948 0.237604
vt 0.731913 0.237604
vt 0.736131 0.241822
vt 0.736131 0.247788
vt 0.731913 0.252006
vt 0.725948 0.252005
vt 0.721730 0.247787
vt 0.721730 0.241822
vt 0.010595 0.997972
vt 0.010595 0.875886
vt 0.015263 0.875885
vt 0.015263 0.997972
vt 0.021190 0.875885
vt 0.021190 0.997972
vt 0.569881 0.253689
vt 0.575846 0.253689
vt 0.580064 0.257907
vt 0.580064 0.263872
vt 0.575846 0.268090
vt 0.569881 0.268090
vt 0.565663 0.263872
vt 0.565663 0.257907
vt 0.360149 0.976042
vt 0.360149 0.853956
vt 0.365743 0.853952
vt 0.365743 0.976039
vt 0.371163 0.853956
vt 0.371163 0.976043
vt 0.338113 0.976038
vt 0.338113 0.853952
vt 0.343570 0.853963
vt 0.343570 0.976048
vt 0.349132 0.853954
vt 0.349132 0.976039
vt 0.983198 0.895289
vt 0.983198 0.773203
vt 0.987923 0.773199
vt 0.987923 0.895286
vt 0.993839 0.773200
vt 0.993839 0.895287
vt 0.728839 0.478734
vt 0.734803 0.478734
vt 0.739021 0.482952
vt 0.739022 0.488917
vt 0.734804 0.493135
vt 0.728839 0.493135
vt 0.724621 0.488917
vt 0.724621 0.482952
vt 0.021190 0.997972
vt 0.021190 0.875886
vt 0.025858 0.875885
vt 0.025858 0.997972
vt 0.031785 0.875885
vt 0.031785 0.997972
vt 0.682745 0.237604
vt 0.688710 0.237604
vt 0.692928 0.241822
vt 0.692928 0.247787
vt 0.688710 0.252005
vt 0.682745 0.252006
vt 0.678527 0.247788
vt 0.678527 0.241822
vt 0.967475 0.558985
vt 0.967475 0.436899
vt 0.973070 0.436895
vt 0.973070 0.558982
vt 0.978489 0.436899
vt 0.978489 0.558986
vt 0.961177 0.895285
vt 0.961177 0.773199
vt 0.966633 0.773210
vt 0.966633 0.895295
vt 0.972196 0.773200
vt 0.972196 0.895286
vt 0.979119 0.376680
vt 0.979119 0.254594
vt 0.983844 0.254590
vt 0.983844 0.376677
vt 0.989760 0.254591
vt 0.989760 0.376677
vt 0.740899 0.637397
vt 0.746864 0.637397
vt 0.751082 0.641615
vt 0.751082 0.647580
vt 0.746864 0.651798
vt 0.740899 0.651798
vt 0.736681 0.647580
vt 0.736681 0.641614
vt 0.984212 0.772724
vt 0.984212 0.650638
vt 0.988880 0.650637
vt 0.988880 0.772724
vt 0.994807 0.650638
vt 0.994807 0.772724
vt 0.555480 0.253689
vt 0.561445 0.253689
vt 0.565663 0.257907
vt 0.565663 0.263872
vt 0.561445 0.268090
vt 0.555480 0.268090
vt 0.551262 0.263872
vt 0.551262 0.257907
vt 0.989760 0.376677
vt 0.989760 0.254590
vt 0.995725 0.254590
vt 0.995725 0.376677
vt 1.000000 0.254597
vt 1.000000 0.376683
vt 0.052865 0.997986
vt 0.052865 0.875901
vt 0.058813 0.875903
vt 0.058813 0.997988
vt 0.063336 0.875885
vt 0.063336 0.997971
vt 0.973222 0.772726
vt 0.973222 0.650639
vt 0.978893 0.650637
vt 0.978893 0.772724
vt 0.984212 0.650640
vt 0.984212 0.772726
vt 0.757640 0.478734
vt 0.763605 0.478734
vt 0.767823 0.482952
vt 0.767823 0.488917
vt 0.763605 0.493135
vt 0.757640 0.493135
vt 0.753422 0.488917
vt 0.753422 0.482952
vt 0.968117 0.376677
vt 0.968117 0.254590
vt 0.973757 0.254590
vt 0.973757 0.376677
vt 0.979119 0.254591
vt 0.979119 0.376677
vt 0.700036 0.478734
vt 0.706002 0.478734
vt 0.710220 0.482952
vt 0.710220 0.488917
vt 0.706002 0.493135
vt 0.700036 0.493135
vt 0.695818 0.488917
vt 0.695818 0.482952
vt 0.989707 0.241815
vt 0.989707 0.119728
vt 0.995671 0.119728
vt 0.995671 0.241815
vt 0.999982 0.119735
vt 0.999982 0.241821
vt 0.042364 0.997986
vt 0.042364 0.875900
vt 0.048309 0.875902
vt 0.048309 0.997988
vt 0.052865 0.875885
vt 0.052865 0.997971
vt 0.906439 0.984170
vt 0.906439 0.862083
vt 0.912093 0.862082
vt 0.912093 0.984168
vt 0.917435 0.862084
vt 0.917435 0.984170
vt 0.755300 0.637397
vt 0.761265 0.637397
vt 0.765483 0.641615
vt 0.765483 0.647580
vt 0.761265 0.651798
vt 0.755300 0.651798
vt 0.751082 0.647580
vt 0.751082 0.641615
vt 0.968059 0.241815
vt 0.968059 0.119728
vt 0.973683 0.119728
vt 0.973683 0.241815
vt 0.979066 0.119728
vt 0.979066 0.241815
vt 0.711547 0.237604
vt 0.717512 0.237604
vt 0.721730 0.241822
vt 0.721730 0.247787
vt 0.717512 0.252006
vt 0.711547 0.252006
vt 0.707329 0.247787
vt 0.707329 0.241822
vt 0.928458 0.984171
vt 0.928458 0.862084
vt 0.934423 0.862084
vt 0.934423 0.984170
vt 0.938698 0.862091
vt 0.938698 0.984177
vt 0.989130 0.558996
vt 0.989130 0.436911
vt 0.995079 0.436913
vt 0.995079 0.558998
vt 0.999602 0.436895
vt 0.999602 0.558981
vt 0.917435 0.984170
vt 0.917435 0.862083
vt 0.923106 0.862081
vt 0.923106 0.984168
vt 0.928425 0.862084
vt 0.928425 0.984170
vt 0.743240 0.478734
vt 0.749205 0.478734
vt 0.753422 0.482952
vt 0.753422 0.488917
vt 0.749205 0.493135
vt 0.743240 0.493135
vt 0.739022 0.488917
vt 0.739022 0.482952
vt 0.972196 0.895286
vt 0.972196 0.773199
vt 0.977836 0.773199
vt 0.977836 0.895286
vt 0.983198 0.773200
vt 0.983198 0.895286
vt 0.714437 0.478734
vt 0.720403 0.478734
vt 0.724621 0.482952
vt 0.724621 0.488917
vt 0.720403 0.493135
vt 0.714437 0.493135
vt 0.914086 0.643473
vt 0.920446 0.643481
vt 0.920454 0.647003
vt 0.914093 0.646996
vt 0.914093 0.650942
vt 0.920454 0.650950
vt 0.809657 0.960214
vt 0.812343 0.957427
vt 0.817266 0.958827
vt 0.814154 0.961473
vt 0.950240 0.642900
vt 0.952926 0.645687
vt 0.948429 0.646945
vt 0.945317 0.644299
vt 0.407465 0.945915
vt 0.413826 0.945918
vt 0.413796 0.950114
vt 0.407435 0.950111
vt 0.407443 0.942303
vt 0.413803 0.942306
vt 0.952880 0.640392
vt 0.956958 0.640617
vt 0.805625 0.955145
vt 0.809703 0.954919
vt 0.945886 0.427218
vt 0.952247 0.427218
vt 0.952219 0.433425
vt 0.945858 0.433425
vt 0.863283 0.435044
vt 0.859214 0.435043
vt 0.859214 0.428683
vt 0.863283 0.428683
vt 0.945069 0.938822
vt 0.938709 0.938800
vt 0.938698 0.929711
vt 0.945059 0.929732
vt 0.951563 0.575351
vt 0.956094 0.575594
vt 0.959879 0.587841
vt 0.955801 0.587615
vt 0.904858 0.638764
vt 0.911218 0.638764
vt 0.911218 0.649547
vt 0.904857 0.649547
vt 0.806489 0.890122
vt 0.811020 0.889879
vt 0.806782 0.902143
vt 0.802703 0.902369
vt 0.407435 0.899551
vt 0.413796 0.899554
vt 0.814415 0.879106
vt 0.817266 0.882031
vt 0.945059 0.947831
vt 0.938698 0.947809
vt 0.945317 0.567502
vt 0.948168 0.564577
vt 0.904857 0.625606
vt 0.911218 0.625605
vt 0.945858 0.377152
vt 0.952219 0.377152
vt 0.431661 0.935453
vt 0.438022 0.935461
vt 0.438029 0.938983
vt 0.431669 0.938976
vt 0.431669 0.942922
vt 0.438029 0.942929
vt 0.824219 0.960214
vt 0.826905 0.957427
vt 0.831828 0.958827
vt 0.828716 0.961473
vt 0.935677 0.642900
vt 0.938364 0.645687
vt 0.933867 0.646945
vt 0.930754 0.644299
vt 0.413856 0.945915
vt 0.420217 0.945918
vt 0.420187 0.950114
vt 0.413826 0.950111
vt 0.413833 0.942303
vt 0.420194 0.942306
vt 0.938317 0.640392
vt 0.942396 0.640617
vt 0.820187 0.955145
vt 0.824265 0.954919
vt 0.668321 0.946389
vt 0.674682 0.946389
vt 0.674654 0.952596
vt 0.668293 0.952596
vt 0.849391 0.431459
vt 0.845322 0.431458
vt 0.845322 0.425098
vt 0.849391 0.425098
vt 0.100995 0.938288
vt 0.094635 0.938266
vt 0.094624 0.929176
vt 0.100984 0.929198
vt 0.937000 0.575351
vt 0.941531 0.575594
vt 0.945317 0.587841
vt 0.941238 0.587615
vt 0.898497 0.638764
vt 0.904857 0.638764
vt 0.904857 0.649547
vt 0.898497 0.649547
vt 0.821051 0.890122
vt 0.825582 0.889879
vt 0.821344 0.902143
vt 0.817266 0.902369
vt 0.413826 0.899551
vt 0.420187 0.899554
vt 0.828978 0.879106
vt 0.831828 0.882031
vt 0.100984 0.947296
vt 0.094624 0.947275
vt 0.930754 0.567502
vt 0.933605 0.564577
vt 0.898497 0.625606
vt 0.904857 0.625605
vt 0.668293 0.896323
vt 0.674654 0.896323
vt 0.920454 0.643473
vt 0.926814 0.643481
vt 0.926821 0.647003
vt 0.920461 0.646996
vt 0.920461 0.650942
vt 0.926821 0.650949
vt 0.838781 0.960214
vt 0.841468 0.957427
vt 0.846391 0.958827
vt 0.843278 0.961473
vt 0.793064 0.957428
vt 0.795750 0.960216
vt 0.791253 0.961474
vt 0.788141 0.958828
vt 0.401075 0.945915
vt 0.407435 0.945918
vt 0.407405 0.950114
vt 0.401045 0.950111
vt 0.401052 0.942303
vt 0.407412 0.942306
vt 0.795704 0.954920
vt 0.799782 0.955146
vt 0.834749 0.955145
vt 0.838828 0.954919
vt 0.876162 0.428468
vt 0.882522 0.428468
vt 0.882494 0.434675
vt 0.876134 0.434675
vt 0.863283 0.428683
vt 0.859214 0.428682
vt 0.859214 0.422322
vt 0.863283 0.422322
vt 0.094624 0.938287
vt 0.088263 0.938266
vt 0.088253 0.929176
vt 0.094613 0.929198
vt 0.794387 0.889880
vt 0.798918 0.890122
vt 0.802703 0.902369
vt 0.798625 0.902143
vt 0.441565 0.917855
vt 0.447926 0.917854
vt 0.447925 0.928637
vt 0.441565 0.928638
vt 0.835614 0.890122
vt 0.840145 0.889879
vt 0.835907 0.902143
vt 0.831828 0.902369
vt 0.401045 0.899551
vt 0.407405 0.899554
vt 0.843540 0.879106
vt 0.846391 0.882031
vt 0.094613 0.947296
vt 0.088253 0.947275
vt 0.788141 0.882031
vt 0.790992 0.879106
vt 0.441565 0.904696
vt 0.447925 0.904696
vt 0.876134 0.378402
vt 0.882494 0.378402
s 0
usemtl 
f 1/1/1 2/2/1 4/3/1 3/4/1
f 3/5/2 4/6/2 6/7/2 5/8/2
f 5/8/3 6/7/3 8/9/3 7/10/3
f 7/11/4 8/12/4 10/13/4 9/14/4
f 9/14/5 10/13/5 12/15/5 11/16/5
f 11/17/6 12/18/6 14/19/6 13/20/6
f 4/21/7 2/22/7 16/23/7 14/24/7 12/25/7 10/26/7 8/27/7 6/28/7
f 13/20/8 14/19/8 16/29/8 15/30/8
f 15/31/9 16/32/9 2/2/9 1/1/9
f 1/33/10 3/34/10 5/35/10 7/36/10 9/37/10 11/38/10 13/39/10 15/40/10
f 17/41/11 18/42/11 20/43/11 19/44/11
f 19/44/12 20/43/12 22/45/12 21/46/12
f 21/47/13 22/48/13 24/49/13 23/50/13
f 23/50/14 24/49/14 26/51/14 25/52/14
f 25/53/15 26/54/15 28/55/15 27/56/15
f 27/56/16 28/55/16 30/57/16 29/58/16
f 20/59/7 18/60/7 32/61/7 30/62/7 28/63/7 26/64/7 24/65/7 22/66/7
f 29/67/17 30/68/17 32/69/17 31/70/17
f 31/70/18 32/69/18 18/71/18 17/72/18
f 17/73/10 19/74/10 21/75/10 23/76/10 25/77/10 27/78/10 29/79/10 31/80/10
f 33/81/11 34/82/11 36/83/11 35/84/11
f 35/84/12 36/83/12 38/85/12 37/86/12
f 37/87/13 38/88/13 40/89/13 39/90/13
f 39/90/14 40/89/14 42/91/14 41/92/14
f 41/93/15 42/94/15 44/95/15 43/96/15
f 43/96/16 44/95/16 46/97/16 45/98/16
f 36/99/7 34/100/7 48/101/7 46/102/7 44/103/7 42/104/7 40/105/7 38/106/7
f 45/107/17 46/108/17 48/109/17 47/110/17
f 47/110/18 48/109/18 34/111/18 33/112/18
f 33/113/10 35/114/10 37/115/10 39/116/10 41/117/10 43/118/10 45/119/10 47/120/10
f 49/121/11 50/122/11 52/123/11 51/124/11
f 51/124/12 52/123/12 54/125/12 53/126/12
f 53/127/13 54/128/13 56/129/13 55/130/13
f 55/130/14 56/129/14 58/131/14 57/132/14
f 57/133/15 58/134/15 60/135/15 59/136/15
f 59/136/16 60/135/16 62/137/16 61/138/16
f 52/139/7 50/140/7 64/141/7 62/142/7 60/143/7 58/144/7 56/145/7 54/146/7
f 61/147/17 62/148/17 64/149/17 63/150/17
f 63/150/18 64/149/18 50/151/18 49/152/18
f 49/153/10 51/154/10 53/155/10 55/156/10 57/157/10 59/158/10 61/159/10 63/160/10
f 65/161/11 66/162/11 68/163/11 67/164/11
f 67/164/12 68/163/12 70/165/12 69/166/12
f 69/167/13 70/168/13 72/169/13 71/170/13
f 71/170/14 72/169/14 74/171/14 73/172/14
f 73/173/15 74/174/15 76/175/15 75/176/15
f 75/176/16 76/175/16 78/177/16 77/178/16
f 68/179/7 66/180/7 80/181/7 78/182/7 76/183/7 74/184/7 72/185/7 70/186/7
f 77/187/17 78/188/17 80/189/17 79/190/17
f 79/190/18 80/189/18 66/191/18 65/192/18
f 65/193/10 67/194/10 69/195/10 71/196/10 73/197/10 75/198/10 77/199/10 79/200/10
f 81/201/19 82/202/19 84/203/19 83/204/19
f 83/204/20 84/203/20 86/205/20 85/206/20
f 85/207/21 86/208/21 88/209/21 87/210/21
f 87/210/22 88/209/22 90/211/22 89/212/22
f 89/213/23 90/214/23 92/215/23 91/216/23
f 91/216/24 92/215/24 94/217/24 93/218/24
f 84/219/7 82/220/7 96/221/7 94/222/7 92/223/7 90/224/7 88/225/7 86/226/7
f 93/227/25 94/228/25 96/229/25 95/230/25
f 95/230/26 96/229/26 82/231/26 81/232/26
f 81/233/10 83/234/10 85/235/10 87/236/10 89/237/10 91/238/10 93/239/10 95/240/10
f 97/241/27 98/242/27 100/243/27 99/244/27
f 99/244/28 100/243/28 102/245/28 101/246/28
f 101/247/29 102/248/29 104/249/29 103/250/29
f 103/250/30 104/249/30 106/251/30 105/252/30
f 105/253/31 106/254/31 108/255/31 107/256/31
f 107/256/32 108/255/32 110/257/32 109/258/32
f 100/259/7 98/260/7 112/261/7 110/262/7 108/263/7 106/264/7 104/265/7 102/266/7
f 109/267/33 110/268/33 112/269/33 111/270/33
f 111/270/34 112/269/34 98/271/34 97/272/34
f 97/273/10 99/274/10 101/275/10 103/276/10 105/277/10 107/278/10 109/279/10 111/280/10
f 113/281/19 114/282/19 116/283/19 115/284/19
f 115/284/20 116/283/20 118/285/20 117/286/20
f 117/287/21 118/288/21 120/289/21 119/290/21
f 119/290/22 120/289/22 122/291/22 121/292/22
f 121/293/23 122/294/23 124/295/23 123/296/23
f 123/296/24 124/295/24 126/297/24 125/298/24
f 116/299/7 114/300/7 128/301/7 126/302/7 124/303/7 122/304/7 120/305/7 118/306/7
f 125/307/25 126/308/25 128/309/25 127/310/25
f 127/310/26 128/309/26 114/311/26 113/312/26
f 113/313/10 115/314/10 117/315/10 119/316/10 121/317/10 123/318/10 125/236/10 127/235/10
f 138/319/35 137/320/35 136/321/35 135/322/35
f 133/323/36 135/322/36 136/321/36 134/324/36
f 137/325/37 139/326/37 134/327/37 136/328/37
f 140/329/38 138/330/38 135/331/38 133/332/38
f 139/333/39 140/334/39 133/335/39 134/336/39
f 129/337/40 130/338/40 140/334/40 139/333/40
f 130/339/41 132/340/41 138/330/41 140/329/41
f 131/341/42 129/342/42 139/326/42 137/325/42
f 132/343/43 131/344/43 137/345/43 138/346/43
f 143/347/44 142/348/44 141/349/44 144/350/44
f 146/351/45 147/352/45 148/353/45 145/354/45
f 147/355/10 151/356/10 152/357/10 148/358/10
f 151/359/46 149/360/46 150/361/46 152/362/46
f 149/363/7 146/364/7 145/365/7 150/366/7
f 131/341/7 150/366/7 145/365/7 129/342/7
f 129/337/47 145/367/47 148/368/47 130/338/47
f 146/364/7 149/363/7 144/369/7 141/370/7
f 147/352/48 146/351/48 141/371/48 142/372/48
f 130/339/10 148/358/10 152/357/10 132/340/10
f 151/356/10 147/355/10 142/373/10 143/374/10
f 149/360/49 151/359/49 143/375/49 144/376/49
f 132/343/50 152/377/50 150/378/50 131/344/50
f 162/379/35 161/380/35 160/381/35 159/382/35
f 157/383/36 159/382/36 160/381/36 158/384/36
f 161/385/37 163/386/37 158/387/37 160/388/37
f 164/389/38 162/390/38 159/391/38 157/392/38
f 163/393/39 164/394/39 157/395/39 158/396/39
f 153/397/40 154/398/40 164/394/40 163/393/40
f 154/399/41 156/400/41 162/390/41 164/389/41
f 155/401/42 153/402/42 163/386/42 161/385/42
f 156/403/43 155/404/43 161/405/43 162/406/43
f 167/407/44 166/408/44 165/409/44 168/410/44
f 170/411/45 171/412/45 172/413/45 169/414/45
f 171/415/10 175/416/10 176/417/10 172/418/10
f 175/419/46 173/420/46 174/421/46 176/422/46
f 173/423/7 170/424/7 169/425/7 174/426/7
f 155/401/7 174/426/7 169/425/7 153/402/7
f 153/397/47 169/427/47 172/428/47 154/398/47
f 170/424/7 173/423/7 168/429/7 165/430/7
f 171/412/48 170/411/48 165/431/48 166/432/48
f 154/399/10 172/418/10 176/417/10 156/400/10
f 175/416/10 171/415/10 166/433/10 167/434/10
f 173/420/49 175/419/49 167/435/49 168/436/49
f 156/403/50 176/437/50 174/438/50 155/404/50
f 186/439/35 185/440/35 184/441/35 183/442/35
f 181/443/36 183/442/36 184/441/36 182/444/36
f 185/445/37 187/446/37 182/447/37 184/448/37
f 188/449/38 186/450/38 183/451/38 181/452/38
f 187/453/39 188/454/39 181/455/39 182/456/39
f 177/457/40 178/458/40 188/454/40 187/453/40
f 178/459/41 180/460/41 186/450/41 188/449/41
f 179/461/42 177/462/42 187/446/42 185/445/42
f 180/463/43 179/464/43 185/465/43 186/466/43
f 191/467/44 190/468/44 189/469/44 192/470/44
f 194/471/45 195/472/45 196/473/45 193/474/45
f 195/475/10 199/476/10 200/477/10 196/478/10
f 199/479/46 197/480/46 198/481/46 200/482/46
f 197/483/7 194/484/7 193/485/7 198/486/7
f 179/461/7 198/486/7 193/485/7 177/462/7
f 177/457/47 193/487/47 196/488/47 178/458/47
f 194/484/7 197/483/7 192/489/7 189/490/7
f 195/472/48 194/471/48 189/491/48 190/492/48
f 178/459/10 196/478/10 200/477/10 180/460/10
f 199/476/10 195/475/10 190/493/10 191/494/10
f 197/480/49 199/479/49 191/495/49 192/496/49
f 180/463/50 200/497/50 198/498/50 179/464/50
