# Blender 5.1.1
# www.blender.org
mtllib Scroll.mtl
o shelves.006
v 5.530316 0.033979 0.029802
v 5.570568 -0.071338 0.047428
v 5.295754 -0.281459 -0.478155
v 5.820093 0.099273 0.599281
v 5.244356 -0.146977 -0.500664
v 5.768694 0.233754 0.576772
v 5.344560 -0.072456 -0.575762
v 5.868898 0.308275 0.501674
v 5.457888 -0.160882 -0.599666
v 5.982226 0.219849 0.477769
v 5.427725 -0.290053 -0.539342
v 5.952063 0.090678 0.538093
v 5.608789 0.092338 -0.029010
v 5.697540 0.023089 -0.047731
v 5.673918 -0.078068 -0.000489
v 5.416303 -0.043005 -0.192051
v 5.499503 0.018869 -0.254404
v 5.593598 -0.054550 -0.274252
v 5.458978 -0.154664 -0.173362
v 5.568552 -0.161799 -0.224166
v 5.786231 -0.003740 0.223128
v 5.811275 0.103508 0.173042
v 5.676657 0.003395 0.273931
v 5.717179 0.176929 0.192889
v 5.633980 0.115055 0.255243
v 5.525581 0.035851 0.031444
v 5.568051 -0.075269 0.050042
v 5.503966 -0.126455 -0.064433
v 5.621010 -0.041468 0.176074
v 5.456591 -0.002503 -0.085178
v 5.573636 0.082485 0.155329
v 5.548951 0.066184 -0.154397
v 5.665995 0.151171 0.086109
v 5.653407 -0.015319 -0.176430
v 5.770450 0.069668 0.064077
v 5.625605 -0.134377 -0.120829
v 5.742648 -0.049389 0.119679
v 5.608379 0.097427 -0.030609
v 5.702021 0.024362 -0.050361
v 5.677097 -0.082371 -0.000516
v 5.492310 0.017816 -0.023811
v 5.580095 0.083100 -0.089600
v 5.679376 0.005634 -0.110543
v 5.537338 -0.099997 -0.004093
v 5.652951 -0.107527 -0.057695
v 5.708575 -0.067137 0.056602
v 5.735000 0.046023 0.003754
v 5.592962 -0.059609 0.110205
v 5.635718 0.123489 0.024696
v 5.547934 0.058205 0.090486
vn 0.9033 -0.3357 -0.2670
vn -0.5867 0.8096 0.0206
vn -0.8560 -0.2516 0.4515
vn 0.4891 0.7481 -0.4484
vn 0.4778 0.7403 -0.4730
vn -0.6130 0.7894 -0.0346
vn -0.8175 -0.2236 0.5308
vn 0.8924 -0.3445 -0.2914
vn 0.4506 0.7201 -0.5277
vn 0.4170 0.3028 0.8570
vn 0.0842 -0.9456 0.3143
vn 0.8648 -0.3637 -0.3463
vn 0.0958 -0.9362 0.3382
vn -0.8300 -0.2323 0.5071
vn 0.0572 -0.9642 0.2589
vn -0.4170 -0.3028 -0.8570
vn -0.5744 0.8174 0.0447
vn 0.0690 -0.9566 0.2833
vn 0.8773 -0.3555 -0.3225
vn 0.4627 0.7293 -0.5040
vn -0.6018 0.7986 -0.0105
vn -0.8451 -0.2433 0.4761
vn 0.9092 -0.3306 -0.2532
vn -0.5615 0.8246 0.0690
vn -0.8619 -0.2562 0.4376
vn 0.4953 0.7523 -0.4345
vn 0.5002 0.7554 -0.4233
vn -0.6190 0.7839 -0.0481
vn -0.8102 -0.2186 0.5439
vn 0.9137 -0.3265 -0.2422
vn 0.4436 0.7147 -0.5408
vn 0.1075 -0.9260 0.3620
vn 0.8574 -0.3682 -0.3596
vn 0.1023 -0.9306 0.3514
vn -0.8042 -0.2146 0.5543
vn 0.0506 -0.9682 0.2451
vn -0.5673 0.8215 0.0582
vn 0.0453 -0.9712 0.2341
vn 0.8514 -0.3717 -0.3701
vn 0.4379 0.7102 -0.5512
vn -0.6238 0.7794 -0.0589
vn -0.8664 -0.2598 0.4264
vt 0.347701 0.999999
vt 0.357535 0.707572
vt 0.453766 0.707573
vt 0.463601 0.999999
vt 0.009835 0.707573
vt 0.012567 0.500000
vt 0.103332 0.499999
vt 0.106065 0.707573
vt 0.473435 0.292427
vt 0.463601 -0.000000
vt 0.579500 -0.000000
vt 0.569666 0.292427
vt 0.231801 0.999999
vt 0.241636 0.707572
vt 0.337866 0.707573
vt 0.347701 0.999999
vt 0.244370 0.499999
vt 0.335134 0.500000
vt 0.009835 0.292427
vt -0.000000 -0.000000
vt 0.115900 0.000000
vt 0.106065 0.292427
vt 0.463600 0.999999
vt 0.473435 0.707573
vt 0.569665 0.707573
vt 0.579500 0.999999
vt 0.360268 0.499999
vt 0.451032 0.499999
vt 0.241636 0.292427
vt 0.231801 -0.000000
vt 0.347701 -0.000000
vt 0.337867 0.292427
vt 0.757851 0.223345
vt 0.757851 0.339244
vt 0.647623 0.375059
vt 0.579500 0.281294
vt 0.647623 0.187530
vt 0.125737 0.707573
vt 0.128468 0.500000
vt 0.219234 0.500000
vt 0.221968 0.707573
vt 0.357536 0.292426
vt 0.347701 0.000000
vt 0.463601 0.000000
vt 0.453766 0.292426
vt 0.115900 0.999999
vt 0.231801 0.999999
vt 0.476168 0.500000
vt 0.566932 0.499999
vt 0.125736 0.292427
vt 0.115901 0.000000
vt 0.231801 -0.000000
vt 0.221966 0.292427
vt 0.579500 0.035815
vt 0.689727 0.000000
vt 0.757851 0.093764
vt 0.689727 0.187530
vt 0.579500 0.151715
vt 0.000000 0.999999
vt 0.115900 0.999999
vt 0.757852 0.446444
vt 0.760497 0.387875
vt 0.862033 0.387875
vt 0.864676 0.446444
vt 0.760497 0.164653
vt 0.763380 0.111612
vt 0.859147 0.111612
vt 0.862032 0.164652
vt 0.760497 0.728235
vt 0.757851 0.669666
vt 0.864677 0.669666
vt 0.862031 0.728235
vt 0.757851 0.669666
vt 0.760497 0.611095
vt 0.862031 0.611097
vt 0.864677 0.669665
vt 0.763381 0.558055
vt 0.859148 0.558055
vt 0.760497 0.058571
vt 0.757850 0.000002
vt 0.864677 0.000001
vt 0.862031 0.058571
vt 0.757852 0.892888
vt 0.760498 0.834318
vt 0.862031 0.834317
vt 0.864677 0.892887
vt 0.763381 0.334834
vt 0.859148 0.334834
vt 0.760497 0.505014
vt 0.757851 0.446445
vt 0.864677 0.446445
vt 0.862032 0.505014
vt 0.743887 0.580920
vt 0.743887 0.687745
vt 0.642290 0.720755
vt 0.579499 0.634331
vt 0.642290 0.547908
vt 0.582146 0.885408
vt 0.585029 0.832366
vt 0.680796 0.832366
vt 0.683681 0.885408
vt 0.760497 0.281792
vt 0.757852 0.223223
vt 0.864678 0.223223
vt 0.862032 0.281792
vt 0.579500 0.943977
vt 0.686327 0.943977
vt 0.763382 0.781276
vt 0.859148 0.781276
vt 0.582144 0.779325
vt 0.579500 0.720755
vt 0.686324 0.720755
vt 0.683679 0.779324
vt 0.579499 0.461483
vt 0.642288 0.375059
vt 0.743886 0.408070
vt 0.743886 0.514896
vt 0.642289 0.547907
vt 0.757851 0.223223
vt 0.864677 0.223222
s 0
usemtl 
f 9/1/1 18/2/1 20/3/1 11/4/1
f 16/5/2 1/6/2 13/7/2 17/8/2
f 23/9/3 4/10/3 6/11/3 25/12/3
f 7/13/4 17/14/4 18/15/4 9/16/4
f 17/14/5 13/17/5 14/18/5 18/15/5
f 25/19/6 6/20/6 8/21/6 24/22/6
f 3/23/7 19/24/7 16/25/7 5/26/7
f 18/2/8 14/27/8 15/28/8 20/3/8
f 24/29/9 8/30/9 10/31/9 22/32/9
f 6/33/10 4/34/10 12/35/10 10/36/10 8/37/10
f 20/38/11 15/39/11 2/40/11 19/41/11
f 22/42/12 10/43/12 12/44/12 21/45/12
f 11/46/13 20/38/13 19/41/13 3/47/13
f 19/24/14 2/48/14 1/49/14 16/25/14
f 21/50/15 12/51/15 4/52/15 23/53/15
f 3/54/16 5/55/16 7/56/16 9/57/16 11/58/16
f 5/59/17 16/5/17 17/8/17 7/60/17
f 15/39/18 21/50/18 23/53/18 2/40/18
f 14/27/19 22/42/19 21/45/19 15/28/19
f 13/17/20 24/29/20 22/32/20 14/18/20
f 1/6/21 25/19/21 24/22/21 13/7/21
f 2/48/22 23/9/22 25/12/22 1/49/22
f 34/61/23 43/62/23 45/63/23 36/64/23
f 41/65/24 26/66/24 38/67/24 42/68/24
f 48/69/25 29/70/25 31/71/25 50/72/25
f 32/73/26 42/74/26 43/75/26 34/76/26
f 42/74/27 38/77/27 39/78/27 43/75/27
f 50/79/28 31/80/28 33/81/28 49/82/28
f 28/83/29 44/84/29 41/85/29 30/86/29
f 43/62/30 39/87/30 40/88/30 45/63/30
f 49/89/31 33/90/31 35/91/31 47/92/31
f 31/93/10 29/94/10 37/95/10 35/96/10 33/97/10
f 45/98/32 40/99/32 27/100/32 44/101/32
f 47/102/33 35/103/33 37/104/33 46/105/33
f 36/106/34 45/98/34 44/101/34 28/107/34
f 44/84/35 27/108/35 26/109/35 41/85/35
f 46/110/36 37/111/36 29/112/36 48/113/36
f 28/114/16 30/115/16 32/116/16 34/117/16 36/118/16
f 30/119/37 41/65/37 42/68/37 32/120/37
f 40/99/38 46/110/38 48/113/38 27/100/38
f 39/87/39 47/102/39 46/105/39 40/88/39
f 38/77/40 49/89/40 47/92/40 39/78/40
f 26/66/41 50/79/41 49/82/41 38/67/41
f 27/108/42 48/69/42 50/72/42 26/109/42
