# Blender 5.1.1
# www.blender.org
mtllib Shelf.mtl
o shelves.009
v 5.871155 -1.000000 -5.703241
v 5.247455 -1.000000 -6.326941
v 5.632476 -1.000000 -5.750718
v 5.430133 -1.000000 -5.885919
v 5.294931 -1.000000 -6.088262
v 5.247455 -1.000000 -6.666387
v 5.871155 -1.000000 -7.290087
v 5.294931 -1.000000 -6.905066
v 5.430133 -1.000000 -7.107409
v 5.632476 -1.000000 -7.242611
v 11.814352 -1.000000 -6.326941
v 11.190653 -1.000000 -5.703241
v 11.766876 -1.000000 -6.088262
v 11.631675 -1.000000 -5.885919
v 11.429333 -1.000000 -5.750718
v 11.190653 -1.000000 -7.290087
v 11.814352 -1.000000 -6.666387
v 11.429333 -1.000000 -7.242611
v 11.631675 -1.000000 -7.107409
v 11.766876 -1.000000 -6.905066
v 5.400982 4.468307 -6.940466
v 5.511301 4.468307 -7.141503
v 5.676403 4.468307 -7.275832
v 5.247455 4.355724 -6.703327
v 5.360038 4.468307 -6.689825
v 5.882243 4.468307 -7.131638
v 5.632476 4.355724 -5.588364
v 5.676403 4.468307 -5.717497
v 5.430133 4.355724 -5.752992
v 5.511301 4.468307 -5.851825
v 5.294931 4.355724 -5.999374
v 5.400982 4.468307 -6.052862
v 5.871155 4.355724 -5.530555
v 5.882243 4.468307 -5.667642
v 5.247455 4.355724 -6.290001
v 5.360038 4.468307 -6.303504
v 5.398578 0.923171 -6.341825
v 5.247455 0.772048 -6.326941
v 5.886040 0.923171 -5.854364
v 5.871155 0.772048 -5.703241
v 5.437286 0.923171 -6.147227
v 5.294931 0.772048 -6.088262
v 5.539086 0.923171 -5.994872
v 5.430133 0.772048 -5.885919
v 5.691441 0.923171 -5.893072
v 5.632476 0.772048 -5.750718
v 5.398578 0.923171 -6.651503
v 5.247455 0.772048 -6.666387
v 11.175768 0.923171 -5.854364
v 11.190653 0.772048 -5.703241
v 11.663230 0.923171 -6.341827
v 11.814352 0.772048 -6.326941
v 11.370367 0.923171 -5.893072
v 11.429333 0.772048 -5.750718
v 11.522722 0.923171 -5.994873
v 11.631675 0.772048 -5.885919
v 11.624521 0.923171 -6.147226
v 11.766876 0.772048 -6.088262
v 11.663230 0.923171 -6.651501
v 11.814352 0.772048 -6.666387
v 6.274854 0.923171 -6.129629
v 6.107917 0.923171 -6.151749
v 5.977220 0.923171 -6.209921
v 5.889891 0.923171 -6.296982
v 5.856685 0.923171 -6.408184
v 5.889891 0.923171 -6.696346
v 5.856685 0.923171 -6.585145
v 11.171917 0.923171 -6.696346
v 11.205122 0.923171 -6.585144
v 10.953890 0.923171 -6.151748
v 10.786955 0.923171 -6.129629
v 11.084588 0.923171 -6.209921
v 11.171917 0.923171 -6.296982
v 11.205122 0.923171 -6.408185
v 6.274854 5.331151 -6.129629
v 6.107917 5.331151 -6.151749
v 5.977220 5.331151 -6.209921
v 5.889891 5.331151 -6.296982
v 5.856685 5.331151 -6.408184
v 5.889891 5.331151 -6.696346
v 5.856685 5.331151 -6.585145
v 11.171917 5.331151 -6.696346
v 11.205122 5.331151 -6.585144
v 10.953890 5.331151 -6.151748
v 10.786955 5.331151 -6.129629
v 11.084588 5.331151 -6.209921
v 11.171917 5.331151 -6.296982
v 11.205122 5.331151 -6.408185
v 6.047544 5.874987 -5.909319
v 5.864435 5.874987 -5.944715
v 5.721076 5.874987 -6.037805
v 5.625287 5.874987 -6.177124
v 5.588864 5.874987 -6.355073
v 5.864435 5.874987 -7.048614
v 6.047544 5.874987 -7.084009
v 5.721076 5.874987 -6.955523
v 5.625287 5.874987 -6.816204
v 5.588864 5.874987 -6.638255
v 11.436521 5.874987 -6.816205
v 11.472942 5.874987 -6.638253
v 11.340732 5.874987 -6.955523
v 11.197373 5.874987 -7.048614
v 11.014265 5.874987 -7.084009
v 11.197372 5.874987 -5.944715
v 11.014265 5.874987 -5.909319
v 11.340732 5.874987 -6.037806
v 11.436521 5.874987 -6.177124
v 11.472942 5.874987 -6.355075
v 6.188366 5.401367 -6.045805
v 6.047544 5.735297 -5.909319
v 6.165423 5.525224 -6.023568
v 6.115025 5.644733 -5.974721
v 5.864435 5.735297 -5.944715
v 6.017320 5.399818 -6.074713
v 5.937696 5.643992 -6.007009
v 5.992411 5.523928 -6.053533
v 5.721076 5.735297 -6.037805
v 5.888853 5.394817 -6.150543
v 5.801473 5.641594 -6.091828
v 5.861518 5.519741 -6.132175
v 5.625287 5.735297 -6.177124
v 5.806949 5.388998 -6.259412
v 5.712337 5.638806 -6.216556
v 5.777352 5.514870 -6.246005
v 5.588864 5.735297 -6.355073
v 5.776834 5.386173 -6.392349
v 5.678937 5.637453 -6.372935
v 5.746209 5.512506 -6.386276
v 5.776834 5.386173 -6.600980
v 5.588864 5.735297 -6.638255
v 5.746209 5.512506 -6.607053
v 5.678937 5.637453 -6.620393
v 11.472942 5.735297 -6.638253
v 11.284973 5.386173 -6.600979
v 11.382870 5.637453 -6.620392
v 11.315598 5.512506 -6.607052
v 11.044488 5.399818 -6.074713
v 11.197372 5.735297 -5.944715
v 11.069397 5.523928 -6.053533
v 11.124111 5.643992 -6.007009
v 11.014265 5.735297 -5.909319
v 10.873442 5.401367 -6.045805
v 10.946784 5.644733 -5.974721
v 10.896385 5.525224 -6.023568
v 11.172955 5.394817 -6.150543
v 11.340732 5.735297 -6.037806
v 11.200289 5.519741 -6.132175
v 11.260334 5.641594 -6.091828
v 11.254859 5.388998 -6.259411
v 11.436521 5.735297 -6.177124
v 11.284456 5.514870 -6.246005
v 11.349470 5.638806 -6.216555
v 11.284973 5.386173 -6.392350
v 11.472942 5.735297 -6.355075
v 11.315598 5.512506 -6.386277
v 11.382870 5.637453 -6.372937
v 5.360038 2.730361 -6.303504
v 5.247455 2.617778 -6.290001
v 5.882243 2.730361 -5.667642
v 5.871155 2.617778 -5.530555
v 5.400982 2.730361 -6.052862
v 5.294931 2.617778 -5.999374
v 5.511301 2.730361 -5.851825
v 5.430133 2.617778 -5.752992
v 5.676403 2.730361 -5.717497
v 5.632476 2.617778 -5.588364
v 5.882243 2.730361 -7.131638
v 5.360038 2.730361 -6.689825
v 5.247455 2.617778 -6.703327
v 5.676403 2.730361 -7.275832
v 5.511301 2.730361 -7.141503
v 5.400982 2.730361 -6.940466
v 11.179565 2.730361 -5.667642
v 11.190653 2.617778 -5.530555
v 11.701769 2.730361 -6.303503
v 11.814352 2.617778 -6.290001
v 11.385405 2.730361 -5.717497
v 11.429333 2.617778 -5.588364
v 11.550507 2.730361 -5.851825
v 11.631675 2.617778 -5.752992
v 11.660826 2.730361 -6.052862
v 11.766876 2.617778 -5.999374
v 11.701769 2.730361 -6.689826
v 11.814352 2.617778 -6.703327
v 11.179565 2.730361 -7.131638
v 11.660826 2.730361 -6.940466
v 11.550507 2.730361 -7.141503
v 11.385405 2.730361 -7.275832
v 5.882243 2.399983 -5.667642
v 5.871155 2.512566 -5.530555
v 5.247455 2.512566 -6.290001
v 5.360038 2.399983 -6.303504
v 5.632475 2.512566 -5.588364
v 5.676403 2.399983 -5.717497
v 5.430133 2.512566 -5.752992
v 5.511301 2.399983 -5.851825
v 5.294931 2.512566 -5.999374
v 5.400982 2.399983 -6.052862
v 5.360038 2.399983 -6.689825
v 5.247455 2.512566 -6.703327
v 5.882243 2.399983 -7.131638
v 5.400982 2.399983 -6.940466
v 5.511301 2.399983 -7.141503
v 5.676403 2.399983 -7.275832
v 11.701769 2.399983 -6.303503
v 11.814352 2.512566 -6.290001
v 11.190653 2.512566 -5.530555
v 11.179565 2.399983 -5.667642
v 11.660826 2.399983 -6.052862
v 11.766876 2.512566 -5.999374
v 11.550507 2.399983 -5.851825
v 11.631675 2.512566 -5.752992
v 11.385405 2.399983 -5.717497
v 11.429333 2.512566 -5.588364
v 11.179565 2.399983 -7.131638
v 11.814352 2.512566 -6.703327
v 11.701769 2.399983 -6.689826
v 11.385405 2.399983 -7.275832
v 11.550507 2.399983 -7.141503
v 11.660826 2.399983 -6.940466
v 11.179565 4.468307 -5.667642
v 11.190653 4.355724 -5.530555
v 11.701769 4.468307 -6.303503
v 11.814352 4.355724 -6.290001
v 11.385405 4.468307 -5.717497
v 11.429333 4.355724 -5.588364
v 11.550507 4.468307 -5.851825
v 11.631675 4.355724 -5.752992
v 11.660826 4.468307 -6.052862
v 11.766876 4.355724 -5.999374
v 11.701769 4.468307 -6.689826
v 11.814352 4.355724 -6.703327
v 11.179565 4.468307 -7.131638
v 11.660826 4.468307 -6.940466
v 11.550507 4.468307 -7.141503
v 11.385405 4.468307 -7.275832
v 5.882243 4.137930 -5.667642
v 5.871155 4.250513 -5.530555
v 5.247455 4.250513 -6.290001
v 5.360038 4.137930 -6.303504
v 5.632475 4.250513 -5.588364
v 5.676403 4.137930 -5.717497
v 5.430133 4.250513 -5.752992
v 5.511301 4.137930 -5.851825
v 5.294931 4.250513 -5.999374
v 5.400982 4.137930 -6.052862
v 5.360038 4.137930 -6.689825
v 5.247455 4.250513 -6.703327
v 5.882243 4.137930 -7.131638
v 5.400982 4.137930 -6.940466
v 5.511301 4.137930 -7.141503
v 5.676403 4.137930 -7.081783
v 11.701769 4.137930 -6.303503
v 11.814352 4.250513 -6.290001
v 11.190653 4.250513 -5.530555
v 11.179565 4.137930 -5.667642
v 11.660826 4.137930 -6.052862
v 11.766876 4.250513 -5.999374
v 11.550507 4.137930 -5.851825
v 11.631675 4.250513 -5.752992
v 11.385405 4.137930 -5.717497
v 11.429333 4.250513 -5.588364
v 11.179565 4.137930 -7.131638
v 11.814352 4.250513 -6.703327
v 11.701769 4.137930 -6.689826
v 11.385405 4.137930 -7.275832
v 11.550507 4.137930 -7.141503
v 11.660826 4.137930 -6.940466
v 6.405566 0.755115 -6.063855
v 6.405566 5.684327 -6.063855
v 6.405566 0.755115 -6.937921
v 6.405566 5.684327 -6.937921
v 6.635004 0.755115 -6.063855
v 6.635004 5.684327 -6.063855
v 6.635004 0.755115 -6.937921
v 6.635004 5.684327 -6.937921
v 7.405566 0.755115 -6.063855
v 7.405566 5.684327 -6.063855
v 7.405566 0.755115 -6.937921
v 7.405566 5.684327 -6.937921
v 7.635004 0.755115 -6.063855
v 7.635004 5.684327 -6.063855
v 7.635004 0.755115 -6.937921
v 7.635004 5.684327 -6.937921
v 8.405566 0.755115 -6.063855
v 8.405566 5.684327 -6.063855
v 8.405566 0.755115 -6.937921
v 8.405566 5.684327 -6.937921
v 8.635004 0.755115 -6.063855
v 8.635004 5.684327 -6.063855
v 8.635004 0.755115 -6.937921
v 8.635004 5.684327 -6.937921
v 9.405566 0.755115 -6.063855
v 9.405566 5.684327 -6.063855
v 9.405566 0.755115 -6.937921
v 9.405566 5.684327 -6.937921
v 9.635004 0.755115 -6.063855
v 9.635004 5.684327 -6.063855
v 9.635004 0.755115 -6.937921
v 9.635004 5.684327 -6.937921
v 10.405566 0.755115 -6.063855
v 10.405566 5.684327 -6.063855
v 10.405566 0.755115 -6.937921
v 10.405566 5.684327 -6.937921
v 10.635004 0.755115 -6.063855
v 10.635004 5.684327 -6.063855
v 10.635004 0.755115 -6.937921
v 10.635004 5.684327 -6.937921
v 5.247455 -1.000000 -7.034503
v 5.247455 4.355724 -7.071443
v 5.360038 4.468307 -7.057941
v 5.398578 0.923171 -7.019619
v 5.247455 0.772048 -7.034503
v 5.889891 0.923171 -7.064462
v 5.856685 0.923171 -6.953261
v 5.889891 5.331151 -7.064462
v 5.856685 5.331151 -6.953261
v 5.588864 5.874987 -7.006371
v 5.776834 5.386173 -6.969096
v 5.588864 5.735297 -7.006371
v 5.746209 5.512506 -6.975169
v 5.678937 5.637453 -6.988509
v 5.360038 2.730361 -7.057941
v 5.247455 2.617778 -7.071443
v 5.360038 2.399983 -7.057941
v 5.247455 2.512566 -7.071443
v 5.360038 4.137930 -7.057941
v 5.247455 4.250513 -7.071443
vn -0.0000 -1.0000 -0.0000
vn -0.1379 0.7071 0.6935
vn -0.3928 0.7071 0.5879
vn -0.5879 0.7071 0.3928
vn -0.6935 0.7071 0.1379
vn 0.1379 0.7071 0.6935
vn 0.3928 0.7071 0.5879
vn 0.5879 0.7071 0.3928
vn 0.6935 0.7071 0.1379
vn -0.7071 0.7071 -0.0000
vn -0.0000 0.7071 0.7071
vn 0.7071 0.7071 -0.0000
vn -0.0000 1.0000 -0.0000
vn -0.9808 -0.0000 0.1951
vn -1.0000 -0.0000 -0.0000
vn -0.0000 -0.0000 1.0000
vn -0.1951 -0.0000 0.9808
vn -0.8315 -0.0000 0.5556
vn -0.5556 -0.0000 0.8315
vn 0.1951 -0.0000 0.9808
vn 0.9808 -0.0000 0.1951
vn 1.0000 -0.0000 -0.0000
vn 0.5556 -0.0000 0.8315
vn 0.8315 -0.0000 0.5556
vn 0.4066 -0.0000 0.9136
vn 0.7060 -0.0000 0.7082
vn -0.9582 -0.0000 -0.2861
vn -0.1314 -0.0000 0.9913
vn 0.9582 -0.0000 0.2861
vn 0.9582 -0.0000 -0.2861
vn -0.4066 -0.0000 0.9136
vn -0.7060 -0.0000 0.7082
vn -0.9582 -0.0000 0.2861
vn 0.1314 -0.0000 0.9913
vn -0.1406 -0.6395 0.7558
vn -0.1561 -0.4237 0.8923
vn -0.1636 -0.2007 0.9659
vn -0.3804 -0.6976 0.6071
vn -0.4484 -0.4828 0.7522
vn -0.4910 -0.2362 0.8385
vn -0.5751 -0.7078 0.4102
vn -0.6929 -0.5001 0.5194
vn -0.7706 -0.2492 0.5866
vn -0.7081 -0.6898 0.1507
vn -0.8526 -0.4861 0.1916
vn -0.9456 -0.2425 0.2166
vn 0.1406 -0.6395 0.7558
vn 0.1561 -0.4237 0.8923
vn 0.1636 -0.2007 0.9659
vn 0.3804 -0.6976 0.6071
vn 0.4484 -0.4828 0.7522
vn 0.4910 -0.2362 0.8385
vn 0.5751 -0.7078 0.4102
vn 0.6929 -0.5001 0.5194
vn 0.7706 -0.2492 0.5866
vn 0.7081 -0.6898 0.1507
vn 0.8526 -0.4861 0.1916
vn 0.9456 -0.2425 0.2166
vn -0.7357 -0.6773 -0.0000
vn -0.8805 -0.4741 -0.0000
vn -0.9719 -0.2356 -0.0000
vn -0.0000 -0.5855 0.8107
vn -0.0000 -0.3783 0.9257
vn -0.0000 -0.1767 0.9843
vn 0.7357 -0.6773 -0.0000
vn 0.8805 -0.4741 -0.0000
vn 0.9719 -0.2356 -0.0000
vn -0.1898 -0.0000 0.9818
vn -0.0862 -0.7991 0.5950
vn -0.0000 -0.7666 0.6421
vn -0.2399 -0.8350 0.4952
vn -0.5446 -0.0000 0.8387
vn -0.3928 -0.8444 0.3643
vn -0.8240 -0.0000 0.5666
vn -0.5305 -0.8348 0.1472
vn -0.9797 -0.0000 0.2005
vn -0.5674 -0.8234 -0.0000
vn 0.5674 -0.8234 -0.0000
vn 0.1898 -0.0000 0.9818
vn 0.0862 -0.7991 0.5950
vn 0.5446 -0.0000 0.8387
vn 0.2399 -0.8350 0.4952
vn 0.8240 -0.0000 0.5666
vn 0.3928 -0.8444 0.3643
vn 0.9797 -0.0000 0.2005
vn 0.5305 -0.8348 0.1472
vn -0.1502 0.7699 0.6202
vn -0.4170 0.7506 0.5125
vn -0.6033 0.7256 0.3311
vn -0.6957 0.7093 0.1136
vn 0.1502 0.7699 0.6202
vn 0.4170 0.7506 0.5125
vn 0.6033 0.7256 0.3311
vn 0.6957 0.7093 0.1136
vn -0.0000 0.7728 0.6347
vn -0.1502 -0.7699 0.6202
vn -0.4170 -0.7506 0.5125
vn -0.6033 -0.7256 0.3311
vn -0.6957 -0.7093 0.1136
vn 0.1502 -0.7699 0.6202
vn 0.4170 -0.7506 0.5125
vn 0.6033 -0.7256 0.3311
vn 0.6957 -0.7093 0.1136
vn -0.7071 -0.7071 -0.0000
vn 0.7071 -0.7071 -0.0000
vn -0.0000 -0.7728 0.6347
vn -0.2354 -0.0000 0.9719
vn -0.9869 -0.0000 0.1612
vn -0.6311 -0.0000 0.7757
vn -0.8767 -0.0000 0.4811
vn 0.9869 -0.0000 0.1612
vn 0.2354 -0.0000 0.9719
vn 0.8767 -0.0000 0.4811
vn 0.6311 -0.0000 0.7757
vt 0.181271 0.337838
vt 0.197014 0.340978
vt 0.210361 0.349922
vt 0.219279 0.363306
vt 0.222411 0.379094
vt 0.222411 0.730964
vt 0.219279 0.746752
vt 0.210361 0.760136
vt 0.197014 0.769079
vt 0.181271 0.772220
vt 0.158881 0.772220
vt 0.143137 0.769079
vt 0.129790 0.760136
vt 0.120872 0.746752
vt 0.117741 0.730964
vt 0.117741 0.379094
vt 0.120872 0.363306
vt 0.129790 0.349922
vt 0.143137 0.340978
vt 0.158881 0.337838
vt 0.763300 0.389777
vt 0.765136 0.402772
vt 0.755516 0.406139
vt 0.753264 0.390200
vt 0.771295 0.413211
vt 0.763696 0.420003
vt 0.780980 0.420498
vt 0.776559 0.429682
vt 0.793689 0.423775
vt 0.792147 0.433701
vt 0.786160 0.027716
vt 0.782883 0.040425
vt 0.772958 0.038882
vt 0.776977 0.023295
vt 0.793448 0.018031
vt 0.786655 0.010432
vt 0.803886 0.011872
vt 0.800519 0.002252
vt 0.816882 0.010036
vt 0.816458 -0.000000
vt 0.814141 0.424922
vt 0.814565 0.434957
vt 0.838876 0.001257
vt 0.837334 0.011182
vt 0.783762 0.376224
vt 0.787120 0.385071
vt 0.013616 0.865185
vt 0.013616 0.748236
vt 0.029481 0.748052
vt 0.029481 0.865001
vt 0.051927 0.748092
vt 0.051927 0.865041
vt 0.116989 0.718880
vt 0.000000 0.718880
vt 0.000000 0.367010
vt 0.116989 0.367010
vt 0.000195 0.351222
vt 0.117184 0.351222
vt 0.000000 0.865764
vt 0.000000 0.748816
vt 0.000752 0.337838
vt 0.117741 0.337838
vt 0.117184 0.734668
vt 0.000195 0.734668
vt 0.260741 0.704047
vt 0.260741 0.821093
vt 0.244849 0.820956
vt 0.244849 0.703909
vt 0.222411 0.821000
vt 0.222411 0.703953
vt 0.117741 0.748052
vt 0.000752 0.748052
vt 0.274444 0.704500
vt 0.274444 0.821547
vt 0.831255 0.041192
vt 0.819568 0.040536
vt 0.812101 0.042318
vt 0.806028 0.047763
vt 0.801702 0.056179
vt 0.792546 0.391161
vt 0.799768 0.393766
vt 0.811455 0.394421
vt 0.782919 0.365117
vt 0.799623 0.067122
vt 0.000239 0.008645
vt 0.000000 0.000000
vt 0.291010 0.000000
vt 0.291250 0.008645
vt 0.959020 0.727877
vt 0.953054 0.727578
vt 0.953054 0.436424
vt 0.959020 0.436722
vt 0.496992 0.725474
vt 0.489697 0.725312
vt 0.489697 0.434403
vt 0.496992 0.434564
vt 0.000240 0.329193
vt 0.000331 0.318150
vt 0.291341 0.318150
vt 0.291250 0.329193
vt 0.945622 0.727475
vt 0.945622 0.436320
vt 0.933925 0.727498
vt 0.926655 0.727630
vt 0.926655 0.436476
vt 0.933925 0.436343
vt 0.000000 0.337838
vt 0.291010 0.337838
vt 0.477996 0.725291
vt 0.477996 0.434382
vt 0.470585 0.725427
vt 0.464675 0.725806
vt 0.464675 0.434897
vt 0.470585 0.434517
vt 0.000331 0.019688
vt 0.291341 0.019688
vt 0.686127 0.427990
vt 0.697897 0.430399
vt 0.707113 0.436735
vt 0.713271 0.446218
vt 0.715612 0.458330
vt 0.715612 0.786864
vt 0.713271 0.798976
vt 0.707113 0.808459
vt 0.697897 0.814795
vt 0.686127 0.817205
vt 0.667395 0.817205
vt 0.655624 0.814795
vt 0.646409 0.808459
vt 0.640251 0.798976
vt 0.637910 0.786864
vt 0.637910 0.458330
vt 0.640251 0.446218
vt 0.646409 0.436735
vt 0.655624 0.430399
vt 0.667395 0.427990
vt 0.724834 0.449584
vt 0.724980 0.437472
vt 0.731264 0.442318
vt 0.731082 0.454048
vt 0.739382 0.445937
vt 0.739173 0.457382
vt 0.747663 0.447585
vt 0.747442 0.458899
vt 0.519431 0.748721
vt 0.521386 0.759848
vt 0.514816 0.758693
vt 0.512791 0.748275
vt 0.731772 0.433307
vt 0.739983 0.437279
vt 0.748306 0.439087
vt 0.518966 0.770744
vt 0.512791 0.768621
vt 0.481422 0.729266
vt 0.481636 0.737669
vt 0.473166 0.739518
vt 0.473112 0.731844
vt 0.464727 0.740368
vt 0.464745 0.733026
vt 0.488393 0.735202
vt 0.488556 0.747032
vt 0.481696 0.748068
vt 0.473150 0.748848
vt 0.464675 0.749211
vt 0.724980 0.790231
vt 0.724834 0.778119
vt 0.731082 0.773655
vt 0.731264 0.785385
vt 0.739173 0.770322
vt 0.739382 0.781766
vt 0.747442 0.768804
vt 0.747663 0.780118
vt 0.512791 0.737379
vt 0.514746 0.726252
vt 0.521386 0.725806
vt 0.519361 0.736224
vt 0.731772 0.794396
vt 0.739983 0.790424
vt 0.748305 0.788616
vt 0.515211 0.748275
vt 0.521386 0.746152
vt 0.092307 0.759920
vt 0.092440 0.751460
vt 0.100702 0.753997
vt 0.100725 0.761726
vt 0.109051 0.755162
vt 0.109144 0.762557
vt 0.085495 0.769363
vt 0.085625 0.757511
vt 0.092278 0.770338
vt 0.100770 0.771074
vt 0.109224 0.771418
vt 0.488556 0.765757
vt 0.481696 0.764431
vt 0.473150 0.763446
vt 0.464675 0.763006
vt 0.085495 0.788081
vt 0.092278 0.786696
vt 0.100770 0.785668
vt 0.109224 0.785209
vt 0.715612 0.449584
vt 0.715758 0.437472
vt 0.274476 0.678491
vt 0.275197 0.667376
vt 0.281442 0.672693
vt 0.280284 0.684110
vt 0.715612 0.778119
vt 0.255351 0.369573
vt 0.260835 0.363474
vt 0.271222 0.687372
vt 0.275834 0.692923
vt 0.725363 0.427989
vt 0.716141 0.427989
vt 0.265876 0.693517
vt 0.269000 0.698808
vt 0.487965 0.725823
vt 0.497184 0.725806
vt 0.497612 0.735185
vt 0.258703 0.696197
vt 0.260369 0.701379
vt 0.497775 0.747015
vt 0.247057 0.696973
vt 0.246638 0.702295
vt 0.497775 0.765741
vt 0.235178 0.343196
vt 0.223532 0.343972
vt 0.222411 0.338753
vt 0.236142 0.337838
vt 0.076268 0.788063
vt 0.076268 0.769344
vt 0.715758 0.790231
vt 0.253161 0.358653
vt 0.258172 0.352313
vt 0.725363 0.799714
vt 0.716141 0.799714
vt 0.248757 0.350282
vt 0.252591 0.344168
vt 0.085965 0.748071
vt 0.076398 0.757493
vt 0.076738 0.748052
vt 0.242643 0.344900
vt 0.245037 0.339242
vt 0.300409 0.392392
vt 0.303706 0.406008
vt 0.295165 0.408914
vt 0.291341 0.393126
vt 0.312592 0.416929
vt 0.306054 0.422298
vt 0.325890 0.424226
vt 0.322352 0.431241
vt 0.342469 0.426935
vt 0.341576 0.434382
vt 0.303706 0.028374
vt 0.300409 0.041989
vt 0.291341 0.041256
vt 0.295165 0.025468
vt 0.312592 0.017453
vt 0.306054 0.012084
vt 0.325890 0.010155
vt 0.322352 0.003140
vt 0.342469 0.007447
vt 0.341576 -0.000000
vt 0.368023 0.426935
vt 0.368916 0.434382
vt 0.368916 -0.000000
vt 0.368023 0.007447
vt 0.384602 0.010155
vt 0.397900 0.017453
vt 0.406786 0.028374
vt 0.397248 0.041989
vt 0.397248 0.392392
vt 0.406786 0.406008
vt 0.397900 0.416929
vt 0.384602 0.424226
vt 0.428037 0.416929
vt 0.441335 0.424226
vt 0.437797 0.431241
vt 0.421499 0.422298
vt 0.415854 0.392392
vt 0.419152 0.406008
vt 0.410610 0.408914
vt 0.406786 0.393126
vt 0.483468 0.007447
vt 0.500048 0.010155
vt 0.513346 0.017453
vt 0.522231 0.028374
vt 0.512693 0.041989
vt 0.512693 0.392392
vt 0.522231 0.406008
vt 0.513346 0.416929
vt 0.500048 0.424226
vt 0.483468 0.426935
vt 0.457914 0.426935
vt 0.415854 0.041989
vt 0.419152 0.028374
vt 0.428037 0.017453
vt 0.441335 0.010155
vt 0.457914 0.007447
vt 0.457021 0.000000
vt 0.484361 0.000000
vt 0.406786 0.041256
vt 0.484361 0.434382
vt 0.457021 0.434382
vt 0.437797 0.003140
vt 0.421499 0.012084
vt 0.410610 0.025468
vt 0.535120 0.025233
vt 0.531832 0.038849
vt 0.522231 0.038116
vt 0.526044 0.022328
vt 0.543981 0.014312
vt 0.536903 0.008943
vt 0.557241 0.007015
vt 0.553155 -0.000000
vt 0.512654 0.776796
vt 0.512791 0.793442
vt 0.504878 0.796785
vt 0.504718 0.777485
vt 0.531832 0.389252
vt 0.535120 0.402868
vt 0.526044 0.405773
vt 0.522231 0.389985
vt 0.543981 0.413789
vt 0.536903 0.419158
vt 0.557241 0.421086
vt 0.553155 0.428101
vt 0.537247 0.797189
vt 0.537335 0.780522
vt 0.545174 0.781130
vt 0.545071 0.800456
vt 0.504794 0.750154
vt 0.512724 0.751251
vt 0.545079 0.753808
vt 0.537247 0.754985
vt 0.288388 0.367010
vt 0.281442 0.367010
vt 0.281680 0.351222
vt 0.288626 0.351222
vt 0.599256 0.004307
vt 0.615789 0.007015
vt 0.629049 0.014312
vt 0.637910 0.025233
vt 0.628398 0.038849
vt 0.628398 0.389252
vt 0.637910 0.402868
vt 0.629049 0.413789
vt 0.615789 0.421086
vt 0.599256 0.423794
vt 0.573774 0.423794
vt 0.573774 0.004307
vt 0.288388 0.718880
vt 0.281442 0.718880
vt 0.497934 0.796779
vt 0.497775 0.777478
vt 0.497850 0.750148
vt 0.282358 0.337838
vt 0.289304 0.337838
vt 0.505436 0.813314
vt 0.498493 0.813307
vt 0.552021 0.800446
vt 0.552123 0.781119
vt 0.552029 0.753798
vt 0.288626 0.734668
vt 0.281680 0.734668
vt 0.551597 0.817061
vt 0.544648 0.817071
vt 0.289304 0.748052
vt 0.282358 0.748052
vt 0.659111 0.024816
vt 0.655513 0.038353
vt 0.645931 0.037401
vt 0.650103 0.021704
vt 0.668218 0.014099
vt 0.661265 0.008570
vt 0.681642 0.007106
vt 0.677716 -0.000000
vt 0.537110 0.804788
vt 0.537247 0.821433
vt 0.529334 0.824777
vt 0.529175 0.805476
vt 0.647525 0.388665
vt 0.650502 0.402352
vt 0.641362 0.405050
vt 0.637910 0.389179
vt 0.659111 0.413472
vt 0.651913 0.418678
vt 0.672202 0.421070
vt 0.667956 0.427990
vt 0.552123 0.797189
vt 0.552211 0.780522
vt 0.560050 0.781130
vt 0.559948 0.800456
vt 0.529250 0.778145
vt 0.537180 0.779243
vt 0.559955 0.753808
vt 0.552123 0.754985
vt 0.996319 0.465493
vt 0.989374 0.465493
vt 0.989612 0.449705
vt 0.996557 0.449705
vt 0.723707 0.005356
vt 0.740174 0.008441
vt 0.753264 0.016039
vt 0.749077 0.026867
vt 0.752054 0.040554
vt 0.744066 0.390866
vt 0.753264 0.404695
vt 0.744157 0.415411
vt 0.730734 0.422404
vt 0.714144 0.424735
vt 0.688668 0.424154
vt 0.698232 0.004776
vt 0.996319 0.817362
vt 0.989374 0.817362
vt 0.522390 0.824770
vt 0.522231 0.805469
vt 0.522306 0.778139
vt 0.990289 0.436320
vt 0.997235 0.436320
vt 0.529892 0.841305
vt 0.522949 0.841299
vt 0.566897 0.800446
vt 0.566999 0.781119
vt 0.566905 0.753798
vt 0.996557 0.833150
vt 0.989612 0.833150
vt 0.566474 0.817061
vt 0.559524 0.817071
vt 0.997235 0.846535
vt 0.990289 0.846535
vt 0.753264 0.761629
vt 0.753264 0.436320
vt 0.811061 0.436423
vt 0.811061 0.761733
vt 0.522231 0.753797
vt 0.522231 0.428215
vt 0.580009 0.428101
vt 0.580009 0.753684
vt 0.954470 0.325421
vt 0.954470 0.000000
vt 0.969647 0.000000
vt 0.969647 0.325421
vt 0.321694 0.817733
vt 0.306517 0.817733
vt 0.306517 0.760078
vt 0.321694 0.760078
vt 0.597352 0.811615
vt 0.582176 0.811615
vt 0.582176 0.753798
vt 0.597352 0.753798
vt 0.811061 0.761629
vt 0.811061 0.436320
vt 0.868858 0.436423
vt 0.868858 0.761733
vt 0.349119 0.760078
vt 0.349119 0.434495
vt 0.406897 0.434382
vt 0.406897 0.759965
vt 0.959020 0.761742
vt 0.959020 0.436320
vt 0.974197 0.436320
vt 0.974197 0.761742
vt 0.291341 0.817733
vt 0.276164 0.817733
vt 0.276164 0.760078
vt 0.291341 0.760078
vt 0.582176 0.811615
vt 0.566999 0.811615
vt 0.566999 0.753798
vt 0.582176 0.753798
vt 0.838876 0.325309
vt 0.838876 0.000000
vt 0.896673 0.000103
vt 0.896673 0.325412
vt 0.406897 0.760078
vt 0.406897 0.434495
vt 0.464675 0.434382
vt 0.464675 0.759965
vt 0.984823 0.000000
vt 0.984823 0.325421
vt 0.336871 0.817733
vt 0.321694 0.817733
vt 0.321694 0.760078
vt 0.336871 0.760078
vt 0.612529 0.811615
vt 0.612529 0.753798
vt 0.868858 0.761629
vt 0.868858 0.436320
vt 0.926655 0.436423
vt 0.926655 0.761733
vt 0.580009 0.753797
vt 0.580009 0.428215
vt 0.637787 0.428101
vt 0.637787 0.753684
vt 0.974197 0.761742
vt 0.974197 0.436320
vt 0.989374 0.436320
vt 0.989374 0.761742
vt 0.367224 0.817733
vt 0.352047 0.817733
vt 0.352047 0.760078
vt 0.367224 0.760078
vt 0.627706 0.811615
vt 0.612529 0.811615
vt 0.612529 0.753798
vt 0.627706 0.753798
vt 0.896673 0.325309
vt 0.896673 0.000000
vt 0.954470 0.000103
vt 0.954470 0.325412
vt 0.291341 0.760078
vt 0.291341 0.434495
vt 0.349119 0.434382
vt 0.349119 0.759965
vt 0.984823 0.325421
vt 0.984823 0.000000
vt 1.000000 0.000000
vt 1.000000 0.325421
vt 0.352047 0.817733
vt 0.336871 0.817733
vt 0.336871 0.760078
vt 0.352047 0.760078
vt 0.306517 0.817895
vt 0.291341 0.817895
vt 0.222411 0.703909
vt 0.222829 0.698588
vt 0.473150 0.787788
vt 0.464675 0.787348
vt 0.497775 0.790082
vt 0.488556 0.790098
vt 0.521334 0.434607
vt 0.521334 0.725517
vt 0.838453 0.426285
vt 0.838876 0.436320
vt 0.529317 0.753804
vt 0.537247 0.754901
vt 0.504861 0.725813
vt 0.512791 0.726910
vt 0.076268 0.748136
vt 0.076268 0.865084
vt 0.507818 0.426935
vt 0.508711 0.434382
vt 0.522373 0.753797
vt 0.497917 0.725806
vt 0.481696 0.788772
vt 0.392373 0.426935
vt 0.393266 0.434382
vt 0.835766 0.395784
s 0
usemtl 
f 6/1/1 8/2/1 9/3/1 10/4/1 7/5/1 16/6/1 18/7/1 19/8/1 20/9/1 17/10/1 11/11/1 13/12/1 14/13/1 15/14/1 12/15/1 1/16/1 3/17/1 4/18/1 5/19/1 2/20/1
f 39/21/2 45/22/2 46/23/2 40/24/2
f 45/22/3 43/25/3 44/26/3 46/23/3
f 43/25/4 41/27/4 42/28/4 44/26/4
f 41/27/5 37/29/5 38/30/5 42/28/5
f 53/31/6 49/32/6 50/33/6 54/34/6
f 55/35/7 53/31/7 54/34/7 56/36/7
f 57/37/8 55/35/8 56/36/8 58/38/8
f 51/39/9 57/37/9 58/38/9 52/40/9
f 37/29/10 47/41/10 48/42/10 38/30/10
f 49/32/11 39/21/11 40/24/11 50/33/11
f 52/40/12 60/43/12 59/44/12 51/39/12
f 43/25/13 45/22/13 62/45/13 63/46/13
f 5/47/14 42/48/14 38/49/14 2/50/14
f 2/50/15 38/49/15 48/51/15 6/52/15
f 12/53/16 50/54/16 40/55/16 1/56/16
f 1/56/17 40/55/17 46/57/17 3/58/17
f 4/59/18 44/60/18 42/48/18 5/47/18
f 3/58/19 46/57/19 44/61/19 4/62/19
f 50/54/20 12/53/20 15/63/20 54/64/20
f 58/65/21 13/66/21 11/67/21 52/68/21
f 17/69/22 60/70/22 52/68/22 11/67/22
f 54/64/23 15/63/23 14/71/23 56/72/23
f 56/73/24 14/74/24 13/66/24 58/65/24
f 51/39/13 59/44/13 69/75/13 74/76/13
f 57/37/13 51/39/13 74/76/13 73/77/13
f 53/31/13 55/35/13 72/78/13 70/79/13
f 41/27/13 43/25/13 63/46/13 64/80/13
f 47/41/13 37/29/13 65/81/13 67/82/13
f 45/22/13 39/21/13 61/83/13 62/45/13
f 39/21/13 49/32/13 71/84/13 61/83/13
f 55/35/13 57/37/13 73/77/13 72/78/13
f 37/29/13 41/27/13 64/80/13 65/81/13
f 49/32/13 53/31/13 70/79/13 71/84/13
f 70/85/25 72/86/25 86/87/25 84/88/25
f 72/89/26 73/90/26 87/91/26 86/92/26
f 66/93/27 67/94/27 81/95/27 80/96/27
f 62/97/28 61/98/28 75/99/28 76/100/28
f 73/90/29 74/101/29 88/102/29 87/91/29
f 69/103/30 68/104/30 82/105/30 83/106/30
f 63/107/31 62/97/31 76/100/31 77/108/31
f 67/94/15 65/109/15 79/110/15 81/95/15
f 64/111/32 63/112/32 77/113/32 78/114/32
f 61/98/16 71/115/16 85/116/16 75/99/16
f 65/109/33 64/111/33 78/114/33 79/110/33
f 74/101/22 69/103/22 83/106/22 88/102/22
f 71/115/34 70/85/34 84/88/34 85/116/34
f 100/117/13 99/118/13 101/119/13 102/120/13 103/121/13 95/122/13 94/123/13 96/124/13 97/125/13 98/126/13 93/127/13 92/128/13 91/129/13 90/130/13 89/131/13 105/132/13 104/133/13 106/134/13 107/135/13 108/136/13
f 110/137/35 113/138/35 115/139/35 112/140/35
f 112/140/36 115/139/36 116/141/36 111/142/36
f 111/142/37 116/141/37 114/143/37 109/144/37
f 113/145/38 117/146/38 119/147/38 115/148/38
f 115/139/39 119/149/39 120/150/39 116/141/39
f 116/141/40 120/150/40 118/151/40 114/143/40
f 117/146/41 121/152/41 123/153/41 119/147/41
f 119/154/42 123/155/42 124/156/42 120/157/42
f 120/157/43 124/156/43 122/158/43 118/159/43
f 121/160/44 125/161/44 127/162/44 123/155/44
f 123/155/45 127/162/45 128/163/45 124/156/45
f 124/156/46 128/163/46 126/164/46 122/158/46
f 138/165/47 141/166/47 143/167/47 140/168/47
f 140/168/48 143/167/48 144/169/48 139/170/48
f 139/170/49 144/169/49 142/171/49 137/172/49
f 146/173/50 138/174/50 140/175/50 148/176/50
f 148/177/51 140/168/51 139/170/51 147/178/51
f 147/178/52 139/170/52 137/172/52 145/179/52
f 150/180/53 146/173/53 148/176/53 152/181/53
f 152/182/54 148/183/54 147/184/54 151/185/54
f 151/185/55 147/184/55 145/186/55 149/187/55
f 154/188/56 150/189/56 152/182/56 156/190/56
f 156/190/57 152/182/57 151/185/57 155/191/57
f 155/191/58 151/185/58 149/187/58 153/192/58
f 125/161/59 130/193/59 132/194/59 127/162/59
f 127/162/60 132/194/60 131/195/60 128/163/60
f 128/163/61 131/195/61 129/196/61 126/164/61
f 141/166/62 110/137/62 112/140/62 143/167/62
f 143/167/63 112/140/63 111/142/63 144/169/63
f 144/169/64 111/142/64 109/144/64 142/171/64
f 133/197/65 154/188/65 156/190/65 135/198/65
f 135/198/66 156/190/66 155/191/66 136/199/66
f 136/199/67 155/191/67 153/192/67 134/200/67
f 113/138/68 110/137/68 89/201/68 90/202/68
f 76/203/69 75/204/69 109/205/69 114/206/69
f 110/137/16 141/166/16 105/207/16 89/201/16
f 75/204/70 85/208/70 142/209/70 109/205/70
f 77/210/71 76/203/71 114/206/71 118/211/71
f 117/212/72 113/138/72 90/202/72 91/213/72
f 78/214/73 77/210/73 118/211/73 122/215/73
f 121/160/74 117/216/74 91/217/74 92/218/74
f 79/219/75 78/214/75 122/215/75 126/220/75
f 125/161/76 121/160/76 92/218/76 93/221/76
f 81/222/77 79/219/77 126/220/77 129/223/77
f 130/193/15 125/161/15 93/221/15 98/224/15
f 88/225/78 83/226/78 134/227/78 153/228/78
f 154/188/22 133/197/22 100/229/22 108/230/22
f 141/166/79 138/165/79 104/231/79 105/207/79
f 85/208/80 84/232/80 137/233/80 142/209/80
f 138/165/81 146/234/81 106/235/81 104/231/81
f 84/232/82 86/236/82 145/237/82 137/233/82
f 146/238/83 150/189/83 107/239/83 106/240/83
f 86/236/84 87/241/84 149/242/84 145/237/84
f 150/189/85 154/188/85 108/230/85 107/239/85
f 87/241/86 88/225/86 153/228/86 149/242/86
f 159/243/87 165/244/87 166/245/87 160/246/87
f 165/244/88 163/247/88 164/248/88 166/245/88
f 163/247/89 161/249/89 162/250/89 164/248/89
f 161/249/90 157/251/90 158/252/90 162/250/90
f 177/253/91 173/254/91 174/255/91 178/256/91
f 179/257/92 177/253/92 178/256/92 180/258/92
f 181/259/93 179/257/93 180/258/93 182/260/93
f 175/261/94 181/259/94 182/260/94 176/262/94
f 157/251/10 168/263/10 169/264/10 158/252/10
f 173/254/95 159/243/95 160/246/95 174/255/95
f 176/262/12 184/265/12 183/266/12 175/261/12
f 183/266/13 186/267/13 187/268/13 188/269/13 185/270/13 167/271/13 170/272/13 171/273/13 172/274/13 168/263/13 157/251/13 161/249/13 163/247/13 165/244/13 159/243/13 173/254/13 177/253/13 179/257/13 181/259/13 175/261/13
f 30/275/89 32/276/89 31/277/89 29/278/89
f 34/279/87 28/280/87 27/281/87 33/282/87
f 231/283/13 234/284/13 235/285/13 236/286/13 233/287/13 26/288/13 23/289/13 22/290/13 21/291/13 25/292/13 36/293/13 32/276/13 30/275/13 28/280/13 34/279/13 221/294/13 225/295/13 227/296/13 229/297/13 223/298/13
f 224/299/12 232/300/12 231/283/12 223/298/12
f 221/294/95 34/279/95 33/282/95 222/301/95
f 36/293/10 25/292/10 24/302/10 35/303/10
f 223/298/94 229/297/94 230/304/94 224/299/94
f 229/297/93 227/296/93 228/305/93 230/304/93
f 227/296/92 225/295/92 226/306/92 228/305/92
f 225/295/91 221/294/91 222/301/91 226/306/91
f 32/276/90 36/293/90 35/303/90 31/277/90
f 28/280/88 30/275/88 29/278/88 27/281/88
f 194/307/96 189/308/96 190/309/96 193/310/96
f 196/311/97 194/307/97 193/310/97 195/312/97
f 198/313/98 196/311/98 195/312/98 197/314/98
f 192/315/99 198/316/99 197/317/99 191/318/99
f 208/319/100 213/320/100 214/321/100 207/322/100
f 213/320/101 211/323/101 212/324/101 214/321/101
f 211/323/102 209/325/102 210/326/102 212/324/102
f 209/327/103 205/328/103 206/329/103 210/330/103
f 191/318/104 200/331/104 199/332/104 192/315/104
f 216/333/105 206/329/105 205/328/105 217/334/105
f 207/322/106 190/309/106 189/308/106 208/319/106
f 190/335/107 160/336/107 166/337/107 193/338/107
f 199/339/1 202/340/1 203/341/1 204/342/1 201/343/1 215/344/1 218/345/1 219/346/1 220/347/1 217/348/1 205/349/1 209/325/1 211/323/1 213/320/1 208/319/1 189/308/1 194/307/1 196/311/1 198/313/1 192/350/1
f 207/351/16 174/352/16 160/336/16 190/335/16
f 197/317/108 162/353/108 158/354/108 191/318/108
f 191/318/15 158/354/15 169/355/15 200/331/15
f 193/338/109 166/337/109 164/356/109 195/357/109
f 195/358/110 164/359/110 162/353/110 197/317/110
f 182/360/111 210/330/111 206/329/111 176/361/111
f 216/333/22 184/362/22 176/361/22 206/329/22
f 174/352/112 207/351/112 214/363/112 178/364/112
f 180/365/113 212/366/113 210/330/113 182/360/113
f 178/364/114 214/363/114 212/367/114 180/368/114
f 242/369/96 237/370/96 238/371/96 241/372/96
f 244/373/97 242/369/97 241/372/97 243/374/97
f 246/375/98 244/373/98 243/374/98 245/376/98
f 240/377/99 246/378/99 245/379/99 239/380/99
f 256/381/100 261/382/100 262/383/100 255/384/100
f 261/382/101 259/385/101 260/386/101 262/383/101
f 259/385/102 257/387/102 258/388/102 260/386/102
f 257/389/103 253/390/103 254/391/103 258/392/103
f 239/380/104 248/393/104 247/394/104 240/377/104
f 264/395/105 254/391/105 253/390/105 265/396/105
f 255/384/106 238/371/106 237/370/106 256/381/106
f 238/397/107 33/398/107 27/399/107 241/400/107
f 247/401/1 250/402/1 251/403/1 252/404/1 249/405/1 263/406/1 266/407/1 267/408/1 268/409/1 265/410/1 253/411/1 257/387/1 259/385/1 261/382/1 256/381/1 237/370/1 242/369/1 244/373/1 246/375/1 240/412/1
f 255/413/16 222/414/16 33/398/16 238/397/16
f 245/379/108 31/415/108 35/416/108 239/380/108
f 239/380/15 35/416/15 24/417/15 248/393/15
f 241/400/109 27/399/109 29/418/109 243/419/109
f 243/420/110 29/421/110 31/415/110 245/379/110
f 230/422/111 258/392/111 254/391/111 224/423/111
f 264/395/22 232/424/22 224/423/22 254/391/22
f 222/414/112 255/413/112 262/425/112 226/426/112
f 228/427/113 260/428/113 258/392/113 230/422/113
f 226/426/114 262/425/114 260/429/114 228/430/114
f 269/431/15 270/432/15 272/433/15 271/434/15
f 275/435/22 276/436/22 274/437/22 273/438/22
f 273/439/16 274/440/16 270/441/16 269/442/16
f 271/443/1 275/444/1 273/445/1 269/446/1
f 276/447/13 272/448/13 270/449/13 274/450/13
f 277/451/15 278/452/15 280/453/15 279/454/15
f 283/455/22 284/456/22 282/457/22 281/458/22
f 281/459/16 282/460/16 278/461/16 277/462/16
f 279/463/1 283/464/1 281/465/1 277/466/1
f 284/467/13 280/468/13 278/469/13 282/470/13
f 285/471/15 286/472/15 288/473/15 287/474/15
f 291/475/22 292/476/22 290/477/22 289/478/22
f 289/442/16 290/441/16 286/479/16 285/480/16
f 287/481/1 291/482/1 289/483/1 285/484/1
f 292/485/13 288/447/13 286/450/13 290/486/13
f 293/487/15 294/488/15 296/489/15 295/490/15
f 299/491/22 300/492/22 298/493/22 297/494/22
f 297/495/16 298/496/16 294/497/16 293/498/16
f 295/499/1 299/500/1 297/501/1 293/502/1
f 300/503/13 296/504/13 294/505/13 298/506/13
f 301/507/15 302/508/15 304/509/15 303/510/15
f 307/511/22 308/512/22 306/513/22 305/514/22
f 305/515/16 306/516/16 302/517/16 301/518/16
f 303/519/1 307/520/1 305/521/1 301/522/1
f 308/523/13 304/524/13 302/511/13 306/445/13
f 81/222/77 129/223/77 319/525/77 317/526/77
f 129/196/61 131/195/61 321/527/61 319/528/61
f 130/193/15 98/224/15 318/529/15 320/530/15
f 66/93/15 80/96/15 316/531/15 314/532/15
f 48/42/10 47/41/10 312/533/10 313/534/10
f 247/394/104 248/393/104 328/535/104 327/536/104
f 199/332/104 200/331/104 326/537/104 325/538/104
f 6/52/15 48/51/15 313/539/15 309/540/15
f 24/302/10 25/292/10 311/541/10 310/542/10
f 248/393/15 24/417/15 310/543/15 328/535/15
f 200/331/15 169/355/15 324/544/15 326/537/15
f 132/194/59 130/193/59 320/530/59 322/545/59
f 169/264/10 168/263/10 323/546/10 324/547/10
f 47/41/13 67/82/13 315/548/13 312/533/13
f 131/195/60 132/194/60 322/545/60 321/527/60
